<svg xmlns="http://www.w3.org/2000/svg" viewBox="0 0 1900 100" width="1900" height="100"><g stroke-miterlimit="10"><path d="M7.318 82.989l10.945 3.465-7.126 22.509-10.945-3.464zm21.396-18.661l11.317 3.583-11.1 35.066-11.317-3.583zm1.012 46.936l11.403 3.609-8.74 27.611-11.403-3.61zm15.607-.039l11.565 3.66-14.146 44.686-11.564-3.661zm25.051-28.56l11.069 3.504-11.691 36.934-11.069-3.504zm2.736 39.752l11.688 3.7-17.794 56.213-11.689-3.7z" fill="#bae0bd" stroke="#5e9c76"/><path d="M2.26 42.88l8.36-7.26 1.71 2.04-8.39 7.19zm15.59-25.33l-1 2.22 10.42 6.07 1.34-1.95zm15.08 26.69l9.63-11.65 1.75 1.57-9.48 11.61zM49.4 12.13l10.37 6.05 1.3-2.04-10.61-6.05zm16.14 24.31l9.7-11.17 1.94 1.68-9.61 11.28-1.85-1.7M1.76 44.46c.133 0 .26.053.354.146.093.094.146.221.146.354 0 .133-.053.26-.146.354-.094.093-.221.146-.354.146-.133 0-.26-.053-.354-.146-.093-.094-.146-.221-.146-.354 0-.133.053-.26.146-.354.094-.093.221-.146.354-.146m13.88-27.25c.133 0 .26.053.354.146.093.094.146.221.146.354 0 .133-.053.26-.146.354-.094.093-.221.146-.354.146-.133 0-.26-.053-.354-.146-.093-.094-.146-.221-.146-.354 0-.133.053-.26.146-.354.094-.093.221-.146.354-.146m16.98 28.77c.133 0 .26.053.354.146.093.094.146.221.146.354 0 .133-.053.26-.146.354-.094.093-.221.146-.354.146-.133 0-.26-.053-.354-.146-.093-.094-.146-.221-.146-.354 0-.133.053-.26.146-.354.094-.093.221-.146.354-.146m15.426-35.974c-.093.094-.146.221-.146.354 0 .133.053.26.146.354.094.093.221.146.354.146.044 0 .088-.006.13-.017.042-.011.082-.028.12-.05.038-.021.073-.048.104-.079.093-.094.146-.221.146-.354 0-.133-.053-.26-.146-.354-.094-.093-.221-.146-.354-.146-.133 0-.26.053-.354.146M65.24 38.17c.133 0 .26.053.354.146.093.094.146.221.146.354 0 .133-.053.26-.146.354-.094.093-.221.146-.354.146-.133 0-.26-.053-.354-.146-.093-.094-.146-.221-.146-.354 0-.133.053-.26.146-.354.094-.093.221-.146.354-.146M77.56 25.2c.133 0 .26-.053.354-.146.031-.031.058-.066.079-.104.022-.038.039-.078.05-.12.011-.042.017-.086.017-.13 0-.133-.053-.26-.146-.354-.094-.093-.221-.146-.354-.146-.133 0-.26.053-.354.146-.093.094-.146.221-.146.354 0 .133.053.26.146.354.094.093.221.146.354.146" fill="#8bb7f0" stroke="#4e7ab5"/></g><g stroke-miterlimit="10"><path d="M107.365 82.448l10.975 3.273-6.73 22.57-10.975-3.271zm21.027-18.355l11.347 3.384-10.483 35.161-11.348-3.384zm1.796 44.762l11.434 3.409-8.255 27.686-11.434-3.41zm15.566-1.031l11.596 3.456-13.36 44.808-11.595-3.458zm24.507-26.522l11.099 3.309-11.041 37.035-11.1-3.31zm3.396 36.42l11.719 3.495-16.805 56.365-11.721-3.494z" fill="#bae0bd" stroke="#5e9c76"/><path d="M102.816 42.38l8.36-7.26 1.71 2.039-8.39 7.191zm15.645-24.386l-1 2.22 10.42 6.07 1.34-1.95zm15.08 25.524l9.63-11.65 1.75 1.57-9.48 11.61zm16.47-30.944l10.37 6.05 1.3-2.04-10.61-6.05zm16.14 23.144l9.7-11.17 1.94 1.679-9.61 11.281-1.85-1.7M101.819 44.379c.141 0 .275.056.374.154.098.099.154.233.154.373 0 .14-.056.274-.154.373-.099.099-.233.154-.374.154-.14 0-.274-.055-.373-.154-.098-.099-.154-.233-.154-.373 0-.14.056-.274.154-.373.099-.098.233-.154.373-.154m13.885-27.143c.141 0 .275.055.374.153.098.1.154.234.154.374 0 .14-.056.274-.154.373-.099.098-.233.154-.374.154-.14 0-.274-.056-.373-.154-.098-.099-.154-.233-.154-.373 0-.14.056-.274.154-.374.099-.098.233-.153.373-.153m16.986 28.635c.14 0 .274.056.373.154.098.1.154.233.154.374 0 .14-.056.274-.154.373-.099.098-.233.154-.373.154-.14 0-.274-.056-.373-.154-.098-.099-.154-.233-.154-.373 0-.141.056-.274.154-.374.099-.098.233-.154.373-.154m15.404-35.837c-.098.097-.154.228-.156.367-.002.138.05.271.144.37.096.099.226.157.363.161.049.003.099 0 .147-.012.049-.011.095-.029.138-.055.042-.025.081-.057.114-.094.094-.099.147-.232.145-.37-.002-.139-.058-.27-.156-.367-.099-.096-.231-.151-.37-.151-.138 0-.271.055-.369.151m17.215 28.027c.141 0 .275.056.374.154.098.099.154.233.154.374 0 .14-.056.274-.154.373-.099.098-.233.154-.374.154-.14 0-.274-.056-.373-.154-.098-.099-.154-.233-.154-.373 0-.141.056-.275.154-.374.099-.098.233-.154.373-.154m12.322-12.946c.137.004.269-.046.369-.139.037-.031.07-.068.097-.109.027-.041.047-.086.06-.134.014-.048.019-.098.017-.148-.002-.139-.058-.27-.156-.367-.098-.096-.231-.151-.369-.151-.139 0-.271.055-.37.151-.097.097-.154.228-.156.367-.002.138.051.271.145.37.095.099.225.157.363.16" fill="#8bb7f0" stroke="#4e7ab5"/></g><g stroke-miterlimit="10"><path d="M207.413 81.908l11.004 3.08-6.334 22.631-11.005-3.079zm20.656-18.051l11.379 3.185-9.867 35.256-11.379-3.184zm2.581 42.59l11.465 3.208-7.769 27.761-11.465-3.209zm15.525-2.025l11.628 3.254-12.575 44.928-11.626-3.254zm23.963-24.483l11.129 3.115-10.392 37.134-11.129-3.114zm4.055 33.088l11.752 3.289-15.817 56.518-11.752-3.288z" fill="#bae0bd" stroke="#5e9c76"/><path d="M203.371 41.88l8.36-7.26 1.71 2.039-8.39 7.191zm15.701-23.441l-1 2.22 10.42 6.07 1.34-1.95zm15.08 24.357l9.63-11.65 1.75 1.57-9.48 11.61zm16.47-29.777l10.37 6.05 1.3-2.04-10.61-6.05zm16.14 21.977l9.7-11.17 1.94 1.678-9.61 11.282-1.85-1.7M202.03 44.092c.166 0 .325.066.442.182.116.117.182.276.182.441 0 .166-.066.325-.182.442-.117.116-.276.182-.442.182-.165 0-.324-.066-.441-.182-.116-.117-.182-.276-.182-.442 0-.165.066-.324.182-.441.117-.116.276-.182.441-.182m13.903-26.766c.166 0 .324.066.442.182.116.118.182.276.182.442 0 .166-.066.324-.182.441-.118.116-.276.182-.442.182-.166 0-.324-.066-.441-.182-.116-.117-.182-.275-.182-.441 0-.166.066-.324.182-.442.117-.116.275-.182.441-.182m17.005 28.16c.166 0 .324.066.442.183.116.117.182.275.182.441 0 .166-.066.324-.182.441-.118.117-.276.183-.442.183-.166 0-.324-.066-.441-.183-.116-.117-.182-.275-.182-.441 0-.166.066-.324.182-.441.117-.117.275-.183.441-.183m15.325-35.353c-.114.108-.183.255-.192.412-.009.157.042.31.141.429.1.118.241.194.393.212.067.017.138.021.209.01.07-.011.138-.037.198-.075.061-.038.113-.088.152-.147.099-.119.15-.272.141-.429-.009-.157-.078-.304-.192-.412-.115-.108-.267-.168-.425-.168-.158 0-.31.06-.425.168m17.293 27.543c.166 0 .324.066.441.182.117.117.183.276.183.441 0 .166-.066.325-.183.442-.117.116-.275.182-.441.182-.166 0-.324-.066-.442-.182-.116-.117-.182-.276-.182-.442 0-.165.066-.324.182-.441.118-.116.276-.182.442-.182m12.325-12.861c.153.018.305-.024.425-.114.06-.03.114-.074.159-.127.045-.054.079-.118.099-.186.02-.069.026-.142.017-.213-.01-.157-.079-.304-.193-.412-.114-.108-.266-.168-.424-.168-.158 0-.31.06-.425.168-.114.108-.183.255-.192.412-.009.157.042.31.141.429.1.118.241.194.393.211" fill="#8bb7f0" stroke="#4e7ab5"/></g><g stroke-miterlimit="10"><path d="M307.46 81.368l11.034 2.887-5.938 22.693-11.034-2.887zm20.287-17.746l11.409 2.986-9.25 35.351-11.409-2.986zm3.365 40.416l11.496 3.008-7.284 27.836-11.496-3.009zm15.484-3.017l11.659 3.05-11.788 45.05-11.659-3.051zm23.419-22.445l11.159 2.92-9.742 37.235-11.159-2.92zm4.715 29.756l11.783 3.084-14.828 56.671-11.784-3.084z" fill="#bae0bd" stroke="#5e9c76"/><path d="M303.927 41.38l8.36-7.26 1.71 2.038-8.39 7.192zm15.756-22.497l-1 2.22 10.42 6.07 1.34-1.95zm15.08 23.19l9.63-11.65 1.75 1.57-9.48 11.61zm16.47-28.61l10.37 6.05 1.3-2.04-10.61-6.05zm16.14 20.81l9.7-11.17 1.94 1.679-9.61 11.281-1.85-1.7" fill="#8bb7f0" stroke="#4e7ab5"/><path d="M302.461 43.504c.218 0 .427.087.581.24.153.154.24.363.24.581 0 .218-.087.427-.24.581-.154.153-.363.24-.581.24-.218 0-.426-.087-.581-.24-.153-.154-.24-.363-.24-.581 0-.218.087-.427.24-.581.155-.153.363-.24.581-.24m13.94-25.993c.218 0 .427.087.581.24.153.154.24.363.24.581 0 .218-.087.427-.24.581-.154.153-.363.24-.581.24-.218 0-.427-.087-.581-.24-.153-.154-.24-.363-.24-.581 0-.218.087-.427.24-.581.154-.153.363-.24.581-.24m17.045 27.188c.218 0 .426.087.58.24.154.154.24.363.24.581 0 .218-.086.427-.24.581-.154.153-.362.24-.58.24-.218 0-.427-.087-.581-.24-.154-.154-.24-.363-.24-.581 0-.218.086-.427.24-.581.154-.153.363-.24.581-.24m15.163-34.364c-.147.131-.242.311-.266.506-.024.194.025.389.134.549.109.158.272.27.456.315.103.045.218.064.333.053.115-.01.227-.049.324-.114s.175-.153.228-.254c.109-.16.157-.355.133-.549-.023-.195-.118-.375-.266-.506-.148-.13-.339-.203-.538-.203-.198 0-.39.073-.538.203m17.451 26.552c.218 0 .426.087.58.241.154.154.24.362.24.58 0 .218-.086.427-.24.581-.154.153-.362.24-.58.24-.218 0-.427-.087-.581-.24-.153-.154-.24-.363-.24-.581 0-.218.087-.426.24-.58.154-.154.363-.241.581-.241m12.334-12.685c.184.045.375.021.538-.064.105-.029.204-.085.286-.165.081-.079.143-.18.177-.291.034-.112.039-.23.016-.344-.024-.194-.119-.374-.266-.505-.148-.13-.339-.203-.537-.203-.199 0-.39.073-.538.203-.147.131-.242.311-.265.505-.024.195.024.39.133.549.11.158.272.27.456.315" fill="#8bb7f0" stroke="#4e7ab5"/></g><g stroke-miterlimit="10"><path d="M407.507 80.827l11.064 2.695-5.542 22.754-11.064-2.695zm19.917-17.441l11.44 2.787-8.633 35.447-11.44-2.787zm4.15 38.244l11.526 2.807-6.797 27.911-11.527-2.808zm15.443-4.011l11.69 2.847-11.002 45.171-11.69-2.847zm22.875-20.406l11.189 2.725-9.093 37.335-11.189-2.725zm5.375 26.425l11.815 2.877-13.84 56.824-11.816-2.878z" fill="#bae0bd" stroke="#5e9c76"/><path d="M404.482 40.88l8.36-7.26 1.71 2.038-8.39 7.192zm15.812-21.552l-1 2.22 10.42 6.07 1.34-1.95zm15.08 22.023l9.63-11.65 1.75 1.57-9.48 11.61zm16.47-27.443l10.37 6.05 1.3-2.04-10.61-6.05zm16.14 19.643l9.7-11.17 1.94 1.678-9.61 11.282-1.85-1.7M403.203 42.493c.308 0 .604.122.821.339.217.218.34.513.34.821 0 .308-.123.603-.34.821-.217.217-.513.34-.821.34-.308 0-.603-.123-.82-.34-.217-.218-.34-.513-.34-.821 0-.308.123-.603.34-.821.217-.217.512-.339.82-.339m14.003-24.663c.308 0 .603.123.821.34.217.217.339.512.339.82 0 .308-.122.604-.339.821-.218.217-.513.34-.821.34-.308 0-.603-.123-.821-.34-.217-.217-.339-.513-.339-.821 0-.308.122-.603.339-.82.218-.217.513-.34.821-.34m17.113 25.514c.308 0 .603.122.821.339.217.218.34.513.34.821 0 .308-.123.603-.34.821-.218.217-.513.339-.821.339-.308 0-.603-.122-.821-.339-.217-.218-.339-.513-.339-.821 0-.308.122-.603.339-.821.218-.217.513-.339.821-.339m14.886-32.661c-.205.17-.344.406-.393.666-.049.261-.005.527.12.755.127.228.327.403.565.495.165.093.355.138.548.128.193-.009.381-.072.54-.183.159-.11.284-.263.359-.44.125-.228.169-.494.12-.755-.049-.26-.188-.496-.393-.666-.206-.17-.465-.263-.733-.262-.268-.001-.527.092-.733.262m17.722 24.847c.308 0 .603.123.821.34.217.217.339.513.339.821 0 .308-.122.603-.339.82-.218.217-.513.34-.821.34-.308 0-.603-.123-.821-.34-.217-.217-.34-.512-.34-.82 0-.308.123-.604.34-.821.218-.217.513-.34.821-.34m12.35-12.384c.237.093.496.099.731.022.184-.025.36-.104.505-.228.146-.124.255-.288.313-.473.058-.185.063-.383.014-.57-.049-.26-.188-.495-.392-.666-.205-.169-.464-.263-.732-.263-.267 0-.526.094-.731.263-.205.171-.344.406-.392.666-.049.26-.006.527.12.755.126.227.326.401.564.494" fill="#8bb7f0" stroke="#4e7ab5"/></g><g stroke-miterlimit="10"><path d="M507.555 80.287l11.093 2.502-5.146 22.815-11.094-2.502zm19.547-17.136l11.47 2.588-8.016 35.542-11.471-2.588zm4.933 36.07l11.558 2.607-6.312 27.985-11.558-2.607zm15.403-5.003l11.722 2.643-10.217 45.293-11.721-2.644zm22.331-18.368l11.219 2.53-8.443 37.436-11.22-2.531zm6.034 23.093l11.847 2.672-12.851 56.976-11.848-2.672z" fill="#bae0bd" stroke="#5e9c76"/><path d="M505.038 40.38l8.36-7.26 1.71 2.037-8.39 7.193zm15.868-20.608l-1 2.22 10.42 6.07 1.34-1.95zm15.08 20.857l9.63-11.65 1.75 1.57-9.48 11.61zm16.47-26.277l10.37 6.05 1.3-2.04-10.61-6.05zm16.14 18.477l9.7-11.17 1.94 1.677-9.61 11.283-1.85-1.7M504.291 41.011c.44 0 .862.175 1.172.485.311.311.486.733.486 1.173 0 .44-.175.861-.486 1.172-.31.311-.732.486-1.172.486-.44 0-.862-.175-1.173-.486-.31-.311-.485-.732-.485-1.172 0-.44.175-.862.485-1.173.311-.31.733-.485 1.173-.485m14.095-22.714c.44 0 .862.175 1.172.486.311.311.486.732.486 1.172 0 .44-.175.862-.486 1.173-.31.31-.732.485-1.172.485-.44 0-.862-.175-1.173-.485-.31-.311-.485-.733-.485-1.173 0-.44.175-.861.485-1.172.311-.311.733-.486 1.173-.486m17.213 23.061c.44 0 .862.174 1.173.485.31.311.485.733.485 1.172 0 .44-.175.862-.485 1.173-.311.31-.733.485-1.173.485-.44 0-.861-.175-1.172-.485-.311-.311-.486-.733-.486-1.173 0-.439.175-.861.486-1.172.311-.311.732-.485 1.172-.485m14.479-30.165c-.289.228-.493.546-.579.902-.086.356-.049.728.101 1.057.151.328.407.595.724.758.255.162.556.246.863.237.306-.007.605-.106.856-.284.251-.177.443-.426.55-.711.15-.329.187-.701.101-1.057s-.29-.674-.579-.902c-.29-.227-.649-.351-1.018-.35-.37-.001-.729.123-1.019.35m18.12 22.348c.44 0 .861.175 1.172.486.311.311.486.732.486 1.172 0 .44-.175.862-.486 1.173-.311.31-.732.485-1.172.485-.44 0-.862-.175-1.173-.485-.31-.311-.485-.733-.485-1.173 0-.44.175-.861.485-1.172.311-.311.733-.486 1.173-.486m12.372-11.942c.316.162.674.213 1.016.149.299-.022.587-.134.826-.322.239-.189.417-.447.511-.739.093-.293.097-.607.012-.901-.086-.356-.29-.673-.578-.901-.289-.227-.647-.352-1.016-.352s-.727.125-1.016.352c-.289.228-.492.545-.578.901-.086.355-.049.727.101 1.056.151.328.406.594.722.757" fill="#8bb7f0" stroke="#4e7ab5"/></g><g stroke-miterlimit="10"><path d="M607.602 79.746l11.123 2.31-4.75 22.876-11.124-2.309zm19.177-16.831l11.502 2.389-7.4 35.637-11.502-2.388zm5.718 33.898l11.589 2.406-5.827 28.06-11.588-2.406zm15.362-5.996l11.753 2.44-9.431 45.414-11.752-2.441zm21.787-16.33l11.249 2.336-7.794 37.536-11.249-2.336zm6.694 19.761l11.879 2.467-11.863 57.128-11.879-2.466z" fill="#bae0bd" stroke="#5e9c76"/><path d="M605.593 39.88l8.36-7.26 1.71 2.037-8.39 7.193zm15.924-19.663l-1 2.22 10.42 6.07 1.34-1.95zm15.08 19.69l9.63-11.65 1.75 1.57-9.48 11.61zm16.47-25.11l10.37 6.05 1.3-2.04-10.61-6.05zm16.14 17.31l9.7-11.17 1.94 1.676-9.61 11.284-1.85-1.7" fill="#8bb7f0" stroke="#4e7ab5"/><path d="M605.528 39.325c.59 0 1.156.235 1.572.651.417.417.652.983.652 1.573s-.235 1.156-.652 1.572c-.416.417-.982.652-1.572.652-.59 0-1.156-.235-1.573-.652-.417-.416-.651-.982-.651-1.572 0-.59.234-1.156.651-1.573.417-.416.983-.651 1.573-.651m14.2-20.496c.59 0 1.156.234 1.572.651.417.417.652.983.652 1.573 0 .589-.235 1.155-.652 1.572-.416.417-.982.651-1.572.651-.59 0-1.156-.234-1.573-.651-.416-.417-.651-.983-.651-1.572 0-.59.235-1.156.651-1.573.417-.417.983-.651 1.573-.651m17.327 20.269c.59 0 1.156.235 1.573.652.417.416.651.982.651 1.572 0 .59-.234 1.156-.651 1.573-.417.417-.983.651-1.573.651-.589 0-1.155-.234-1.572-.651-.417-.417-.651-.983-.651-1.573s.234-1.156.651-1.572c.417-.417.983-.652 1.572-.652m14.017-27.325c-.386.293-.664.705-.792 1.17-.127.465-.098.957.08 1.401.179.443.497.814.904 1.056.359.242.786.369 1.221.362.436-.005.861-.144 1.216-.398s.624-.611.769-1.02c.178-.444.206-.936.079-1.401-.128-.465-.406-.877-.791-1.17-.386-.293-.858-.451-1.343-.45-.485-.001-.958.157-1.343.45m18.571 19.506c.59 0 1.156.235 1.573.651.417.417.651.983.651 1.573s-.234 1.156-.651 1.573c-.417.416-.983.651-1.573.651-.589 0-1.155-.235-1.572-.651-.417-.417-.652-.983-.652-1.573s.235-1.156.652-1.573c.417-.416.983-.651 1.572-.651m12.398-11.44c.406.242.876.344 1.34.293.429-.017.845-.167 1.191-.429.345-.263.602-.627.736-1.041.133-.415.137-.862.009-1.278-.128-.464-.405-.875-.788-1.168-.385-.293-.856-.452-1.34-.452-.485 0-.955.159-1.34.452-.384.293-.661.704-.789 1.168-.127.464-.098.956.08 1.399.178.443.496.813.901 1.056" fill="#8bb7f0" stroke="#4e7ab5"/></g><g stroke-miterlimit="10"><path d="M707.649 79.206l11.153 2.117-4.354 22.937-11.153-2.117zm18.808-16.526l11.532 2.19-6.783 35.732-11.532-2.19zm6.502 31.724l11.62 2.206-5.341 28.135-11.62-2.206zm15.321-6.989l11.784 2.237-8.644 45.535-11.785-2.237zm21.243-14.291l11.279 2.141-7.144 37.636-11.279-2.141zm7.354 16.429l11.91 2.261-10.874 57.282-11.911-2.262z" fill="#bae0bd" stroke="#5e9c76"/><path d="M706.149 39.38l8.36-7.26 1.71 2.036-8.39 7.194zm15.979-18.719l-1 2.22 10.42 6.07 1.34-1.95zm15.08 18.523l9.63-11.65 1.75 1.57-9.48 11.61zm16.47-23.943l10.37 6.05 1.3-2.04-10.61-6.05zm16.14 16.143l9.7-11.17 1.94 1.677-9.61 11.283-1.85-1.7" fill="#8bb7f0" stroke="#4e7ab5"/><path d="M706.625 37.83c.723 0 1.416.287 1.927.798.511.511.799 1.205.799 1.928 0 .722-.288 1.416-.799 1.927-.511.511-1.204.798-1.927.798-.723 0-1.417-.287-1.928-.798-.511-.511-.798-1.205-.798-1.927 0-.723.287-1.417.798-1.928.511-.511 1.205-.798 1.928-.798m14.293-18.53c.723 0 1.417.287 1.927.798.511.511.799 1.205.799 1.928 0 .723-.288 1.416-.799 1.927-.51.511-1.204.799-1.927.799-.723 0-1.416-.288-1.927-.799-.511-.511-.799-1.204-.799-1.927 0-.723.288-1.417.799-1.928.511-.511 1.204-.798 1.927-.798m17.429 17.795c.723 0 1.416.287 1.927.798.511.511.799 1.205.799 1.927 0 .723-.288 1.417-.799 1.928-.511.511-1.204.798-1.927.798-.723 0-1.417-.287-1.928-.798-.511-.511-.798-1.205-.798-1.928 0-.722.287-1.416.798-1.927.511-.511 1.205-.798 1.928-.798m13.606-24.807c-.471.351-.814.845-.979 1.407-.165.561-.143 1.16.059 1.706.204.545.578 1.009 1.065 1.321.45.313.989.478 1.539.472.55-.003 1.087-.178 1.535-.499.448-.322.784-.775.962-1.294.203-.546.224-1.145.06-1.706-.166-.562-.509-1.056-.979-1.407-.471-.351-1.044-.541-1.631-.539-.588-.002-1.161.188-1.631.539m18.972 16.985c.723 0 1.417.287 1.928.798.511.511.798 1.205.798 1.928 0 .722-.287 1.416-.798 1.927-.511.511-1.205.798-1.928.798-.722 0-1.416-.287-1.927-.798-.511-.511-.798-1.205-.798-1.927 0-.723.287-1.417.798-1.928.511-.511 1.205-.798 1.927-.798m12.421-10.995c.485.312 1.056.459 1.627.421.545-.013 1.074-.196 1.514-.524.439-.328.767-.786.936-1.309.169-.524.172-1.088.007-1.612-.165-.561-.507-1.054-.975-1.406-.47-.35-1.04-.541-1.627-.541s-1.158.191-1.627.541c-.469.352-.811.845-.976 1.406-.164.561-.143 1.158.06 1.703.203.544.576 1.008 1.061 1.321" fill="#8bb7f0" stroke="#4e7ab5"/></g><g stroke-miterlimit="10"><path d="M807.697 78.665l11.182 1.925-3.958 22.998-11.183-1.924zm18.437-16.221l11.563 1.991-6.166 35.828-11.563-1.991zm7.287 29.552l11.651 2.005-4.856 28.21-11.65-2.005zm15.28-7.982l11.816 2.033-7.859 45.657-11.816-2.034zM869.4 71.761l11.309 1.946-6.495 37.737-11.309-1.947zm8.013 13.097l11.943 2.056-9.886 57.434-11.943-2.056z" fill="#bae0bd" stroke="#5e9c76"/><path d="M806.704 38.88l8.36-7.26 1.71 2.036-8.39 7.194zm16.035-17.774l-1 2.22 10.42 6.07 1.34-1.95zm15.08 17.356l9.63-11.65 1.75 1.57-9.48 11.61zm16.47-22.776l10.37 6.05 1.3-2.04-10.61-6.05zm16.14 14.976l9.7-11.17 1.94 1.676-9.61 11.284-1.85-1.7" fill="#8bb7f0" stroke="#4e7ab5"/><path d="M807.489 36.653c.827 0 1.622.329 2.207.914.585.585.914 1.379.914 2.207 0 .827-.329 1.622-.914 2.206-.585.586-1.38.915-2.207.915-.828 0-1.622-.329-2.207-.915-.585-.584-.914-1.379-.914-2.206 0-.828.329-1.622.914-2.207.585-.585 1.379-.914 2.207-.914m14.366-16.982c.828 0 1.622.329 2.207.914.585.585.914 1.38.914 2.207 0 .828-.329 1.622-.914 2.207-.585.585-1.379.914-2.207.914-.827 0-1.622-.329-2.206-.914-.586-.585-.915-1.379-.915-2.207 0-.827.329-1.622.915-2.207.584-.585 1.379-.914 2.206-.914m17.509 15.846c.827 0 1.622.329 2.207.914.585.585.914 1.379.914 2.207 0 .827-.329 1.622-.914 2.207-.585.585-1.38.914-2.207.914-.828 0-1.622-.329-2.207-.914-.585-.585-.914-1.38-.914-2.207 0-.828.329-1.622.914-2.207.585-.585 1.379-.914 2.207-.914m13.282-22.824c-.537.397-.932.956-1.127 1.594-.194.637-.177 1.32.045 1.946.223.625.641 1.162 1.19 1.53.523.368 1.149.564 1.79.559.64-.002 1.266-.204 1.786-.579.521-.375.91-.904 1.114-1.51.223-.626.239-1.309.045-1.946-.195-.638-.59-1.197-1.127-1.594-.538-.397-1.19-.61-1.858-.608-.668-.002-1.32.211-1.858.608m19.289 15c.828 0 1.622.329 2.207.914.585.585.914 1.379.914 2.207 0 .827-.329 1.622-.914 2.207-.585.585-1.379.914-2.207.914-.827 0-1.622-.329-2.207-.914-.585-.585-.914-1.38-.914-2.207 0-.828.329-1.622.914-2.207.585-.585 1.38-.914 2.207-.914m12.438-10.645c.548.368 1.197.551 1.853.522.637-.009 1.255-.219 1.769-.598.514-.38.896-.912 1.094-1.521.197-.609.199-1.265.005-1.875-.194-.636-.588-1.195-1.123-1.592-.536-.396-1.185-.611-1.853-.611-.667 0-1.316.215-1.853.611-.535.397-.928.956-1.122 1.592-.194.637-.178 1.318.044 1.944.223.624.639 1.16 1.186 1.528" fill="#8bb7f0" stroke="#4e7ab5"/></g><g stroke-miterlimit="10"><path d="M907.744 78.124l11.212 1.733-3.563 23.059-11.212-1.732zm18.068-15.915l11.594 1.792-5.551 35.923-11.593-1.792zm8.071 27.378l11.682 1.804-4.371 28.286-11.681-1.805zm15.238-8.975l11.848 1.83-7.073 45.778-11.847-1.83zm20.156-10.215l11.34 1.753-5.846 37.837-11.34-1.753zm8.673 9.766l11.974 1.85-8.897 57.587-11.975-1.85z" fill="#bae0bd" stroke="#5e9c76"/><path d="M907.26 38.38l8.36-7.26 1.71 2.035-8.39 7.195zm16.09-16.83l-1 2.22 10.42 6.07 1.34-1.95zm15.08 16.19l9.63-11.65 1.75 1.57-9.48 11.61zm16.47-21.61l10.37 6.05 1.3-2.04-10.61-6.05zm16.14 13.81l9.7-11.17 1.94 1.675-9.61 11.285-1.85-1.7" fill="#8bb7f0" stroke="#4e7ab5"/><path d="M908.151 35.75c.907 0 1.779.361 2.42 1.003.643.642 1.003 1.514 1.003 2.421 0 .908-.36 1.78-1.003 2.421-.641.642-1.513 1.003-2.42 1.003-.908 0-1.78-.361-2.421-1.003-.642-.641-1.003-1.513-1.003-2.421 0-.907.361-1.779 1.003-2.421.641-.642 1.513-1.003 2.421-1.003m14.423-15.795c.907 0 1.779.361 2.42 1.003.642.642 1.003 1.514 1.003 2.421 0 .908-.361 1.78-1.003 2.421-.641.642-1.513 1.003-2.42 1.003-.908 0-1.78-.361-2.421-1.003-.642-.641-1.003-1.513-1.003-2.421 0-.907.361-1.779 1.003-2.421.641-.642 1.513-1.003 2.421-1.003m17.569 14.353c.908 0 1.779.361 2.421 1.003.642.641 1.003 1.513 1.003 2.421 0 .907-.361 1.779-1.003 2.421-.642.642-1.513 1.003-2.421 1.003-.908 0-1.779-.361-2.421-1.003-.642-.642-1.003-1.514-1.003-2.421 0-.908.361-1.78 1.003-2.421.642-.642 1.513-1.003 2.421-1.003m13.035-21.304c-.589.431-1.023 1.04-1.24 1.736-.217.696-.205 1.443.032 2.13.239.687.69 1.28 1.287 1.691.578.411 1.272.63 1.982.625.709-.001 1.402-.225 1.979-.64.576-.416 1.006-1.002 1.231-1.676.237-.687.249-1.434.032-2.13s-.651-1.305-1.24-1.736c-.589-.432-1.301-.665-2.032-.662-.73-.003-1.442.23-2.031.662m19.531 13.478c.907 0 1.779.361 2.421 1.003.642.642 1.003 1.513 1.003 2.421 0 .908-.361 1.779-1.003 2.421-.642.642-1.514 1.003-2.421 1.003-.908 0-1.78-.361-2.421-1.003-.642-.642-1.003-1.513-1.003-2.421 0-.908.361-1.779 1.003-2.421.641-.642 1.513-1.003 2.421-1.003m12.452-10.375c.596.41 1.305.62 2.026.599.706-.007 1.393-.237 1.964-.656.57-.419.995-1.008 1.214-1.682.219-.675.22-1.402.004-2.077-.216-.694-.649-1.303-1.236-1.735-.587-.431-1.296-.665-2.026-.665-.729 0-1.439.234-2.026.665-.586.432-1.019 1.041-1.236 1.735-.216.695-.204 1.44.033 2.127.238.685.687 1.277 1.283 1.689" fill="#8bb7f0" stroke="#4e7ab5"/></g><g stroke-miterlimit="10"><path d="M1007.791 77.584l11.243 1.54-3.168 23.121-11.242-1.54zm17.699-15.61l11.624 1.592-4.934 36.018-11.624-1.592zm8.855 25.204l11.712 1.604-3.884 28.361-11.713-1.605zm15.197-9.967l11.879 1.627-6.287 45.899-11.878-1.627zm19.612-8.177l11.37 1.558-5.196 37.937-11.37-1.557zm9.333 6.435l12.005 1.644-7.908 57.739-12.006-1.644z" fill="#bae0bd" stroke="#5e9c76"/><path d="M1007.816 37.88l8.36-7.26 1.71 2.034-8.39 7.196zm16.145-15.886l-1 2.22 10.42 6.07 1.34-1.95zm15.08 15.024l9.63-11.65 1.75 1.57-9.48 11.61zm16.47-20.444l10.37 6.05 1.3-2.04-10.61-6.05zm16.14 12.644l9.7-11.17 1.94 1.674-9.61 11.286-1.85-1.7" fill="#8bb7f0" stroke="#4e7ab5"/><path d="M1008.658 35.059c.969 0 1.9.385 2.585 1.071.686.685 1.071 1.616 1.071 2.585 0 .969-.385 1.9-1.071 2.585-.685.686-1.616 1.071-2.585 1.071-.969 0-1.9-.385-2.585-1.071-.686-.685-1.071-1.616-1.071-2.585 0-.969.385-1.9 1.071-2.585.685-.686 1.616-1.071 2.585-1.071m14.466-14.886c.969 0 1.9.386 2.585 1.071.686.685 1.071 1.616 1.071 2.585 0 .97-.385 1.9-1.071 2.585-.685.686-1.616 1.071-2.585 1.071-.969 0-1.9-.385-2.585-1.071-.686-.685-1.071-1.615-1.071-2.585 0-.969.385-1.9 1.071-2.585.685-.685 1.616-1.071 2.585-1.071m17.616 13.208c.969 0 1.9.386 2.585 1.071.686.685 1.071 1.616 1.071 2.585 0 .969-.385 1.9-1.071 2.585-.685.686-1.616 1.071-2.585 1.071-.969 0-1.9-.385-2.585-1.071-.685-.685-1.071-1.616-1.071-2.585 0-.969.386-1.9 1.071-2.585.685-.685 1.616-1.071 2.585-1.071m12.845-20.139c-.628.458-1.092 1.105-1.327 1.846-.233.741-.225 1.537.024 2.271.25.734.727 1.37 1.361 1.813.62.444 1.365.68 2.128.676.763.001 1.508-.24 2.127-.687.619-.446 1.081-1.078 1.32-1.802.249-.734.257-1.53.024-2.271-.234-.741-.699-1.388-1.327-1.846-.628-.459-1.387-.706-2.165-.703-.778-.003-1.537.244-2.165.703m19.717 12.312c.969 0 1.9.386 2.585 1.071.685.685 1.071 1.616 1.071 2.585 0 .97-.386 1.9-1.071 2.585-.685.686-1.616 1.071-2.585 1.071-.97 0-1.9-.385-2.585-1.071-.686-.685-1.071-1.615-1.071-2.585 0-.969.385-1.9 1.071-2.585.685-.685 1.615-1.071 2.585-1.071m12.462-10.169c.633.442 1.388.673 2.159.658.76-.005 1.499-.25 2.114-.699.614-.45 1.071-1.083 1.306-1.807.236-.725.237-1.506.003-2.231-.233-.739-.697-1.386-1.322-1.845-.626-.458-1.382-.706-2.159-.706-.777 0-1.532.248-2.159.706-.625.459-1.088 1.106-1.322 1.845-.233.74-.225 1.534.024 2.268.249.732.724 1.367 1.356 1.811" fill="#8bb7f0" stroke="#4e7ab5"/></g><g stroke-miterlimit="10"><path d="M1107.839 77.043l11.272 1.348-2.772 23.182-11.272-1.347zm17.328-15.305l11.655 1.394-4.317 36.113-11.655-1.393zm9.64 23.032l11.743 1.403-3.399 28.436-11.743-1.404zm15.156-10.96l11.911 1.423-5.502 46.021-11.909-1.424zm19.068-6.139l11.4 1.363-4.547 38.038-11.4-1.363zm9.992 3.103l12.038 1.439-6.92 57.891-12.038-1.438z" fill="#bae0bd" stroke="#5e9c76"/><path d="M1108.371 37.38l8.36-7.26 1.71 2.034-8.39 7.196zm16.201-14.941l-1 2.22 10.42 6.07 1.34-1.95zm15.08 13.857l9.63-11.65 1.75 1.57-9.48 11.61zm16.47-19.277l10.37 6.05 1.3-2.04-10.61-6.05zm16.14 11.477l9.7-11.17 1.94 1.673-9.61 11.287-1.85-1.7" fill="#8bb7f0" stroke="#4e7ab5"/><path d="M1109.048 34.527c1.017 0 1.993.405 2.711 1.124.719.718 1.123 1.694 1.123 2.711 0 1.016-.404 1.993-1.123 2.711-.718.719-1.694 1.123-2.711 1.123s-1.993-.404-2.711-1.123c-.719-.718-1.123-1.695-1.123-2.711 0-1.017.404-1.993 1.123-2.711.718-.719 1.694-1.124 2.711-1.124m14.499-14.186c1.017 0 1.993.404 2.711 1.123.719.719 1.124 1.695 1.124 2.711 0 1.017-.405 1.993-1.124 2.712-.718.719-1.694 1.123-2.711 1.123-1.016 0-1.993-.404-2.711-1.123-.719-.719-1.123-1.695-1.123-2.712 0-1.016.404-1.992 1.123-2.711.718-.719 1.695-1.123 2.711-1.123m17.652 12.328c1.017 0 1.993.404 2.711 1.123.72.719 1.124 1.695 1.124 2.711 0 1.017-.404 1.993-1.124 2.711-.718.72-1.694 1.124-2.711 1.124-1.016 0-1.992-.404-2.711-1.124-.719-.718-1.123-1.694-1.123-2.711 0-1.016.404-1.992 1.123-2.711.719-.719 1.695-1.123 2.711-1.123m12.7-19.245c-.659.479-1.147 1.156-1.394 1.931-.247.776-.241 1.609.016 2.38.259.77.756 1.439 1.418 1.907.653.469 1.438.719 2.242.715.803.002 1.588-.252 2.24-.723.651-.47 1.138-1.136 1.389-1.899.257-.771.263-1.604.017-2.38-.248-.775-.736-1.452-1.394-1.931-.659-.479-1.453-.736-2.267-.734-.814-.002-1.609.255-2.267.734m19.858 11.417c1.017 0 1.993.404 2.712 1.123.719.719 1.123 1.695 1.123 2.712 0 1.016-.404 1.992-1.123 2.711-.719.719-1.695 1.123-2.712 1.123-1.016 0-1.992-.404-2.711-1.123-.719-.719-1.123-1.695-1.123-2.711 0-1.017.404-1.993 1.123-2.712.719-.719 1.695-1.123 2.711-1.123m12.471-10.011c.661.468 1.452.714 2.261.704.801-.004 1.581-.261 2.229-.733.647-.473 1.129-1.14 1.377-1.902.248-.764.249-1.586.002-2.35-.246-.774-.733-1.45-1.388-1.93-.657-.478-1.448-.737-2.261-.737-.813 0-1.605.259-2.261.737-.656.48-1.142 1.156-1.389 1.93-.247.774-.24 1.606.017 2.375.258.769.753 1.437 1.413 1.906" fill="#8bb7f0" stroke="#4e7ab5"/></g><g stroke-miterlimit="10"><path d="M1207.886 76.503l11.302 1.155-2.376 23.243-11.301-1.155zm16.959-15l11.685 1.194-3.7 36.209-11.685-1.195zm10.424 20.858l11.774 1.203-2.913 28.511-11.775-1.204zm15.115-11.953l11.942 1.22-4.715 46.142-11.942-1.22zm18.524-4.1l11.43 1.168-3.897 38.138-11.43-1.168zm10.652-.229l12.069 1.233-5.931 58.045-12.07-1.234z" fill="#bae0bd" stroke="#5e9c76"/><path d="M1208.927 36.88l8.36-7.26 1.71 2.033-8.39 7.197zm16.256-13.997l-1 2.22 10.42 6.07 1.34-1.95zm15.08 12.69l9.63-11.65 1.75 1.57-9.48 11.61zm16.47-18.11l10.37 6.05 1.3-2.04-10.61-6.05zm16.14 10.31l9.7-11.17 1.94 1.674-9.61 11.286-1.85-1.7" fill="#8bb7f0" stroke="#4e7ab5"/><path d="M1209.347 34.12c1.053 0 2.064.418 2.808 1.163.745.744 1.164 1.755 1.164 2.808s-.419 2.064-1.164 2.808c-.744.745-1.755 1.163-2.808 1.163s-2.064-.418-2.808-1.163c-.745-.744-1.163-1.755-1.163-2.808s.418-2.064 1.163-2.808c.744-.745 1.755-1.163 2.808-1.163m14.525-13.65c1.053 0 2.064.418 2.808 1.163.745.744 1.163 1.755 1.163 2.808s-.418 2.064-1.163 2.808c-.744.745-1.755 1.163-2.808 1.163s-2.064-.418-2.808-1.163c-.745-.744-1.164-1.755-1.164-2.808s.419-2.064 1.164-2.808c.744-.745 1.755-1.163 2.808-1.163m17.68 11.652c1.052 0 2.063.419 2.807 1.164.745.744 1.164 1.755 1.164 2.808s-.419 2.063-1.164 2.808c-.744.744-1.755 1.163-2.807 1.163-1.053 0-2.064-.419-2.808-1.163-.745-.745-1.164-1.755-1.164-2.808s.419-2.064 1.164-2.808c.744-.745 1.755-1.164 2.808-1.164m12.587-18.557c-.682.494-1.188 1.194-1.445 1.996-.257.801-.253 1.664.011 2.462.265.798.777 1.492 1.462 1.979.677.488 1.493.749 2.328.746.834.002 1.65-.261 2.327-.751.677-.489 1.181-1.18 1.442-1.974.264-.798.268-1.661.011-2.462-.258-.802-.764-1.502-1.445-1.996-.681-.496-1.504-.761-2.346-.759-.842-.002-1.664.263-2.345.759m19.968 10.729c1.053 0 2.064.418 2.808 1.163.745.744 1.163 1.755 1.163 2.808s-.418 2.064-1.163 2.808c-.744.745-1.755 1.164-2.808 1.164s-2.064-.419-2.808-1.164c-.745-.744-1.163-1.755-1.163-2.808s.418-2.064 1.163-2.808c.744-.745 1.755-1.163 2.808-1.163m12.477-9.89c.682.487 1.501.746 2.339.739.833-.003 1.643-.269 2.317-.759.673-.491 1.174-1.183 1.432-1.975.258-.794.259-1.648.002-2.441-.257-.8-.761-1.499-1.44-1.994-.68-.495-1.498-.762-2.339-.762s-1.66.267-2.339.762-1.183 1.194-1.44 1.994c-.257.8-.253 1.661.011 2.458.265.797.775 1.49 1.457 1.978" fill="#8bb7f0" stroke="#4e7ab5"/></g><g stroke-miterlimit="10"><path d="M1307.933 75.963l11.332.962-1.98 23.304-11.331-.962zm16.589-14.696l11.717.996-3.084 36.303-11.716-.995zm11.209 18.686l11.805 1.002-2.428 28.586-11.805-1.003zm15.074-12.946l11.973 1.017-3.929 46.263-11.973-1.017zm17.98-2.062l11.46.974-3.248 38.238-11.46-.973zm11.312-3.561l12.101 1.028-4.943 58.197-12.101-1.028z" fill="#bae0bd" stroke="#5e9c76"/><path d="M1309.482 36.38l8.36-7.26 1.71 2.033-8.39 7.197zm16.312-13.052l-1 2.22 10.42 6.07 1.34-1.95zm15.08 11.523l9.63-11.65 1.75 1.57-9.48 11.61zm16.47-16.943l10.37 6.05 1.3-2.04-10.61-6.05zm16.14 9.143l9.7-11.17 1.94 1.673-9.61 11.287-1.85-1.7" fill="#8bb7f0" stroke="#4e7ab5"/><path d="M1309.574 33.81c1.081 0 2.118.43 2.882 1.194.764.764 1.194 1.801 1.194 2.881 0 1.081-.43 2.118-1.194 2.882-.764.764-1.801 1.194-2.882 1.194-1.08 0-2.117-.43-2.881-1.194-.764-.764-1.194-1.801-1.194-2.882 0-1.08.43-2.117 1.194-2.881.764-.764 1.801-1.194 2.881-1.194m14.544-13.243c1.081 0 2.118.43 2.881 1.194.765.764 1.194 1.801 1.194 2.881 0 1.081-.429 2.118-1.194 2.882-.763.764-1.8 1.194-2.881 1.194-1.08 0-2.118-.43-2.881-1.194-.765-.764-1.194-1.801-1.194-2.882 0-1.08.429-2.117 1.194-2.881.763-.764 1.801-1.194 2.881-1.194m17.701 11.141c1.08 0 2.118.429 2.881 1.193.765.764 1.194 1.801 1.194 2.882 0 1.08-.429 2.118-1.194 2.881-.763.765-1.801 1.194-2.881 1.194-1.081 0-2.118-.429-2.881-1.194-.765-.763-1.194-1.801-1.194-2.881 0-1.081.429-2.118 1.194-2.882.763-.764 1.8-1.193 2.881-1.193m12.502-18.037c-.699.507-1.218 1.224-1.484 2.045-.265.822-.262 1.706.008 2.526.27.819.793 1.532 1.494 2.034.697.503 1.536.772 2.394.768.859.003 1.697-.268 2.393-.771.696-.503 1.215-1.215 1.482-2.031.27-.82.272-1.704.008-2.526-.266-.821-.785-1.538-1.484-2.045-.699-.507-1.542-.779-2.406-.776-.863-.003-1.706.269-2.405.776m20.051 10.208c1.081 0 2.118.429 2.882 1.193.764.764 1.194 1.801 1.194 2.882 0 1.08-.43 2.118-1.194 2.881-.764.765-1.801 1.194-2.882 1.194-1.08 0-2.117-.429-2.881-1.194-.764-.763-1.194-1.801-1.194-2.881 0-1.081.43-2.118 1.194-2.882.764-.764 1.801-1.193 2.881-1.193m12.482-9.798c.699.501 1.538.77 2.398.765.857-.002 1.691-.275 2.385-.778.692-.505 1.208-1.216 1.473-2.031.265-.816.266-1.694.001-2.51-.265-.82-.782-1.536-1.478-2.043-.698-.507-1.537-.781-2.399-.781-.862 0-1.701.274-2.399.781-.696.507-1.213 1.223-1.478 2.043-.265.82-.262 1.703.008 2.522.269.817.79 1.529 1.489 2.032" fill="#8bb7f0" stroke="#4e7ab5"/></g><g stroke-miterlimit="10"><path d="M1407.981 75.422l11.361.77-1.584 23.365-11.361-.769zm16.219-14.39l11.747.796-2.467 36.399-11.747-.796zm11.992 16.512l11.837.802-1.943 28.66-11.836-.802zm15.034-13.938l12.005.813-3.144 46.385-12.004-.814zm17.436-.024l11.49.779-2.598 38.339-11.49-.779zm11.971-6.893l12.133.823-3.954 58.349-12.133-.822z" fill="#bae0bd" stroke="#5e9c76"/><path d="M1410.038 35.88l8.36-7.26 1.71 2.032-8.39 7.198zm16.368-12.108l-1 2.22 10.42 6.07 1.34-1.95zm15.08 10.357l9.63-11.65 1.75 1.57-9.48 11.61zm16.47-15.777l10.37 6.05 1.3-2.04-10.61-6.05zm16.14 7.977l9.7-11.17 1.94 1.672-9.61 11.288-1.85-1.7" fill="#8bb7f0" stroke="#4e7ab5"/><path d="M1409.743 33.58c1.101 0 2.158.438 2.936 1.217.779.778 1.216 1.835 1.216 2.936s-.437 2.158-1.216 2.936c-.778.779-1.835 1.216-2.936 1.216s-2.158-.437-2.936-1.216c-.779-.778-1.217-1.835-1.217-2.936s.438-2.158 1.217-2.936c.778-.779 1.835-1.217 2.936-1.217m14.558-12.94c1.101 0 2.158.437 2.936 1.216.779.778 1.216 1.835 1.216 2.936s-.437 2.158-1.216 2.936c-.778.779-1.835 1.216-2.936 1.216s-2.158-.437-2.936-1.216c-.779-.778-1.216-1.835-1.216-2.936s.437-2.158 1.216-2.936c.778-.779 1.835-1.216 2.936-1.216m17.716 10.76c1.101 0 2.158.437 2.936 1.216.779.778 1.217 1.835 1.217 2.936s-.438 2.158-1.217 2.936c-.778.779-1.835 1.216-2.936 1.216s-2.158-.437-2.936-1.216c-.778-.778-1.216-1.835-1.216-2.936s.438-2.158 1.216-2.936c.778-.779 1.835-1.216 2.936-1.216m12.439-17.65c-.712.516-1.241 1.245-1.512 2.082-.271.836-.269 1.737.004 2.572.274.835.806 1.563 1.52 2.075.71.514 1.566.789 2.442.785.876.003 1.732-.273 2.442-.787.711-.513 1.24-1.24 1.512-2.073.273-.835.275-1.736.004-2.572-.271-.837-.8-1.566-1.513-2.082-.712-.516-1.57-.793-2.449-.79-.879-.003-1.737.274-2.45.79m20.113 9.82c1.101 0 2.158.438 2.936 1.217.779.778 1.217 1.835 1.217 2.936 0 1.1-.438 2.158-1.217 2.935-.778.779-1.835 1.217-2.936 1.217-1.1 0-2.157-.438-2.935-1.217-.779-.777-1.217-1.835-1.217-2.935 0-1.101.438-2.158 1.217-2.936.778-.779 1.835-1.217 2.935-1.217m12.485-9.729c.712.512 1.566.788 2.443.785.875-.001 1.726-.279 2.434-.793.707-.515 1.234-1.24 1.504-2.072.271-.833.271-1.729.001-2.562-.271-.834-.798-1.563-1.507-2.079-.711-.515-1.565-.794-2.443-.794-.878 0-1.733.279-2.443.794-.709.516-1.237 1.245-1.507 2.079-.27.836-.269 1.735.005 2.569.273.833.803 1.559 1.513 2.073" fill="#8bb7f0" stroke="#4e7ab5"/></g><g stroke-miterlimit="10"><path d="M1508.028 74.882l11.391.577-1.188 23.426-11.391-.577zm15.849-14.086l11.778.598-1.85 36.494-11.778-.597zm12.777 14.34l11.868.601-1.457 28.735-11.867-.601zm14.993-14.932l12.036.61-2.358 46.506-12.035-.61zm16.892 2.015l11.52.584-1.949 38.439-11.519-.584zm12.631-10.224l12.165.616-2.966 58.502-12.165-.616z" fill="#bae0bd" stroke="#5e9c76"/><path d="M1510.593 35.38l8.36-7.26 1.71 2.032-8.39 7.198zm16.424-11.163l-1 2.22 10.42 6.07 1.34-1.95zm15.08 9.19l9.63-11.65 1.75 1.57-9.48 11.61zm16.47-14.61l10.37 6.05 1.3-2.04-10.61-6.05zm16.14 6.81l9.7-11.17 1.94 1.671-9.61 11.289-1.85-1.7" fill="#8bb7f0" stroke="#4e7ab5"/><path d="M1509.863 33.417c1.115 0 2.186.443 2.975 1.232.789.789 1.232 1.86 1.232 2.975 0 1.116-.443 2.187-1.232 2.975-.789.789-1.86 1.232-2.975 1.232-1.116 0-2.187-.443-2.975-1.232-.789-.788-1.232-1.859-1.232-2.975 0-1.115.443-2.186 1.232-2.975.788-.789 1.859-1.232 2.975-1.232m14.568-12.726c1.116 0 2.187.443 2.975 1.233.789.788 1.232 1.859 1.232 2.974 0 1.116-.443 2.187-1.232 2.975-.788.789-1.859 1.233-2.975 1.233-1.115 0-2.186-.444-2.974-1.233-.79-.788-1.233-1.859-1.233-2.975 0-1.115.443-2.186 1.233-2.974.788-.79 1.859-1.233 2.974-1.233m17.728 10.489c1.115 0 2.186.444 2.974 1.233.789.788 1.233 1.859 1.233 2.975 0 1.115-.444 2.186-1.233 2.974-.788.79-1.859 1.233-2.974 1.233-1.116 0-2.187-.443-2.975-1.233-.789-.788-1.233-1.859-1.233-2.974 0-1.116.444-2.187 1.233-2.975.788-.789 1.859-1.233 2.975-1.233m12.394-17.373c-.721.521-1.258 1.26-1.534 2.107-.274.847-.273 1.76.003 2.606.277.846.815 1.584 1.537 2.104.72.521 1.588.8 2.477.797.889.003 1.757-.277 2.477-.798.721-.521 1.257-1.258 1.533-2.103.276-.846.277-1.759.002-2.606s-.812-1.586-1.533-2.107c-.721-.523-1.591-.803-2.481-.8-.89-.003-1.76.277-2.481.8m20.157 9.544c1.115 0 2.186.443 2.974 1.232.79.789 1.233 1.86 1.233 2.975s-.443 2.186-1.233 2.975c-.788.789-1.859 1.232-2.974 1.232-1.116 0-2.187-.443-2.975-1.232-.789-.789-1.233-1.86-1.233-2.975s.444-2.186 1.233-2.975c.788-.789 1.859-1.232 2.975-1.232m12.487-9.681c.72.52 1.585.801 2.474.799.888 0 1.751-.282 2.47-.803.717-.522 1.251-1.258 1.526-2.102.274-.844.274-1.753 0-2.598s-.809-1.582-1.528-2.105c-.719-.522-1.585-.804-2.474-.804-.889 0-1.755.282-2.474.804-.718.523-1.253 1.26-1.528 2.105-.274.846-.273 1.757.003 2.602s.812 1.581 1.531 2.102" fill="#8bb7f0" stroke="#4e7ab5"/></g><g stroke-miterlimit="10"><path d="M1608.075 74.341l11.421.385-.792 23.488-11.42-.385zm15.48-13.78l11.808.398-1.233 36.59-11.808-.399zm13.561 12.166l11.898.401-.971 28.81-11.898-.401zm14.952-15.924l12.067.406-1.571 46.628-12.068-.407zm16.348 4.053l11.55.389-1.299 38.54-11.55-.39zm13.291-13.556l12.196.411-1.977 58.655-12.197-.412z" fill="#bae0bd" stroke="#5e9c76"/><path d="M1611.149 34.88l8.36-7.26 1.71 2.031-8.39 7.199zm16.479-10.219l-1 2.22 10.42 6.07 1.34-1.95zm15.08 8.023l9.63-11.65 1.75 1.57-9.48 11.61zm16.47-13.443l10.37 6.05 1.3-2.04-10.61-6.05zm16.14 5.643l9.7-11.17 1.94 1.672-9.61 11.288-1.85-1.7" fill="#8bb7f0" stroke="#4e7ab5"/><path d="M1609.942 33.309c1.125 0 2.205.447 3 1.243.796.795 1.243 1.876 1.243 3 0 1.125-.447 2.206-1.243 3.001-.795.796-1.875 1.243-3 1.243s-2.205-.447-3-1.243c-.796-.795-1.243-1.876-1.243-3.001 0-1.124.447-2.205 1.243-3 .795-.796 1.875-1.243 3-1.243m14.575-12.584c1.125 0 2.205.447 3 1.243.796.795 1.244 1.876 1.244 3.001s-.448 2.205-1.244 3c-.795.796-1.875 1.243-3 1.243s-2.205-.447-3-1.243c-.796-.795-1.243-1.875-1.243-3s.447-2.206 1.243-3.001c.795-.796 1.875-1.243 3-1.243m17.735 10.311c1.125 0 2.205.447 3 1.243.796.795 1.243 1.875 1.243 3s-.447 2.206-1.243 3.001c-.795.796-1.875 1.243-3 1.243s-2.205-.447-3.001-1.243c-.796-.795-1.243-1.876-1.243-3.001s.447-2.205 1.243-3c.796-.796 1.876-1.243 3.001-1.243m12.364-17.192c-.727.526-1.269 1.27-1.547 2.124-.277.854-.276 1.775.001 2.628.279.854.821 1.598 1.549 2.123.727.526 1.603.808 2.5.805.897.003 1.773-.279 2.5-.805.727-.526 1.269-1.27 1.547-2.123.278-.853.278-1.774.001-2.628-.278-.854-.82-1.598-1.547-2.124-.728-.527-1.604-.809-2.502-.807-.897-.002-1.774.28-2.502.807m20.186 9.362c1.125 0 2.205.447 3 1.243.796.795 1.244 1.876 1.244 3.001 0 1.124-.448 2.205-1.244 3-.795.796-1.875 1.243-3 1.243s-2.205-.447-3-1.243c-.796-.795-1.243-1.876-1.243-3 0-1.125.447-2.206 1.243-3.001.795-.796 1.875-1.243 3-1.243m12.489-9.648c.726.525 1.599.808 2.495.808.896 0 1.768-.285 2.493-.81.724-.527 1.263-1.27 1.54-2.121.277-.852.277-1.77 0-2.622-.277-.852-.816-1.596-1.541-2.123-.725-.526-1.598-.81-2.495-.81-.896 0-1.769.284-2.494.81-.725.527-1.265 1.271-1.542 2.123-.277.852-.276 1.771.001 2.624.278.851.818 1.594 1.543 2.121" fill="#8bb7f0" stroke="#4e7ab5"/></g><g stroke-miterlimit="10"><path d="M1708.123 73.8l11.45.193-.396 23.549-11.45-.193zm15.109-13.475l11.84.2-.617 36.684-11.839-.199zm14.346 9.994l11.929.2-.485 28.885-11.929-.2zm14.911-16.918l12.099.204-.786 46.748-12.099-.203zm15.804 6.092l11.58.195-.65 38.639-11.579-.194zm13.95-16.888l12.229.205-.989 58.808-12.228-.206z" fill="#bae0bd" stroke="#5e9c76"/><path d="M1711.704 34.38l8.36-7.26 1.71 2.031-8.39 7.199zm16.535-9.274l-1 2.22 10.42 6.07 1.34-1.95zm15.08 6.856l9.63-11.65 1.75 1.57-9.48 11.61zm16.47-12.276l10.37 6.05 1.3-2.04-10.61-6.05zm16.14 4.476l9.7-11.17 1.94 1.671-9.61 11.289-1.85-1.7" fill="#8bb7f0" stroke="#4e7ab5"/><path d="M1709.986 33.249c1.13 0 2.216.449 3.015 1.249.799.799 1.249 1.884 1.249 3.015 0 1.13-.45 2.215-1.249 3.014-.799.8-1.885 1.249-3.015 1.249-1.13 0-2.216-.449-3.014-1.249-.8-.799-1.25-1.884-1.25-3.014 0-1.131.45-2.216 1.25-3.015.798-.8 1.884-1.249 3.014-1.249m14.579-12.505c1.13 0 2.216.449 3.015 1.249.799.799 1.249 1.884 1.249 3.015 0 1.13-.45 2.215-1.249 3.014-.799.8-1.885 1.249-3.015 1.249-1.13 0-2.216-.449-3.015-1.249-.799-.799-1.249-1.884-1.249-3.014 0-1.131.45-2.216 1.249-3.015.799-.8 1.885-1.249 3.015-1.249m17.739 10.211c1.13 0 2.215.45 3.014 1.249.8.799 1.249 1.885 1.249 3.015 0 1.13-.449 2.216-1.249 3.014-.799.8-1.884 1.25-3.014 1.25-1.131 0-2.216-.45-3.015-1.25-.8-.798-1.249-1.884-1.249-3.014s.449-2.216 1.249-3.015c.799-.799 1.884-1.249 3.015-1.249m12.348-17.09c-.731.528-1.275 1.276-1.555 2.134-.278.857-.278 1.782.001 2.64.279.857.823 1.605 1.554 2.133.731.529 1.612.813 2.513.81.902.003 1.783-.281 2.513-.81.731-.528 1.275-1.276 1.555-2.133.279-.858.279-1.783 0-2.64-.279-.858-.823-1.606-1.554-2.134-.731-.53-1.612-.813-2.514-.81-.901-.003-1.782.28-2.513.81m20.202 9.26c1.13 0 2.216.45 3.014 1.249.8.799 1.249 1.885 1.249 3.015 0 1.13-.449 2.216-1.249 3.015-.798.799-1.884 1.249-3.014 1.249s-2.216-.45-3.015-1.249c-.8-.799-1.249-1.885-1.249-3.015 0-1.13.449-2.216 1.249-3.015.799-.799 1.885-1.249 3.015-1.249m12.49-9.63c.729.528 1.605.813 2.506.813.9 0 1.777-.286 2.506-.814.728-.529 1.27-1.276 1.548-2.131.279-.857.279-1.779 0-2.636-.278-.856-.82-1.603-1.548-2.132-.729-.528-1.606-.814-2.507-.814-.9 0-1.777.286-2.506.814-.728.529-1.27 1.276-1.549 2.132-.278.857-.278 1.779.001 2.636.278.856.821 1.603 1.549 2.132" fill="#8bb7f0" stroke="#4e7ab5"/></g><g stroke-miterlimit="10"><path d="M1808.17 73.26h11.48v23.61h-11.48zm14.74-13.17h11.87v36.78h-11.87zm15.13 7.82H1850v28.96h-11.96zM1852.91 50h12.13v46.87h-12.13zm15.26 8.13h11.61v38.74h-11.61zm14.61-20.22h12.26v58.96h-12.26z" fill="#bae0bd" stroke="#5e9c76"/><path d="M1812.26 33.88l8.36-7.26 1.71 2.03-8.39 7.2zm16.59-8.33l-1 2.22 10.42 6.07 1.34-1.95zm15.08 5.69l9.63-11.65 1.75 1.57-9.48 11.61zm16.47-11.11l10.37 6.05 1.3-2.04-10.61-6.05zm16.14 3.31l9.7-11.17 1.94 1.67-9.61 11.29-1.85-1.7" fill="#8bb7f0" stroke="#4e7ab5"/><path d="M1810 33.23c1.132 0 2.219.45 3.019 1.251.801.8 1.251 1.887 1.251 3.019 0 1.132-.45 2.219-1.251 3.019-.8.801-1.887 1.251-3.019 1.251-1.132 0-2.219-.45-3.019-1.251-.801-.8-1.251-1.887-1.251-3.019 0-1.132.45-2.219 1.251-3.019.8-.801 1.887-1.251 3.019-1.251m14.58-12.48c1.132 0 2.219.45 3.019 1.251.801.8 1.251 1.887 1.251 3.019 0 1.132-.45 2.219-1.251 3.019-.8.801-1.887 1.251-3.019 1.251-1.132 0-2.219-.45-3.019-1.251-.801-.8-1.251-1.887-1.251-3.019 0-1.132.45-2.219 1.251-3.019.8-.801 1.887-1.251 3.019-1.251m17.74 10.18c1.132 0 2.219.45 3.019 1.251.801.8 1.251 1.887 1.251 3.019 0 1.132-.45 2.219-1.251 3.019-.8.801-1.887 1.251-3.019 1.251-1.132 0-2.219-.45-3.019-1.251-.801-.8-1.251-1.887-1.251-3.019 0-1.132.45-2.219 1.251-3.019.8-.801 1.887-1.251 3.019-1.251m12.343-17.059c-.732.529-1.277 1.278-1.557 2.137-.279.859-.279 1.785 0 2.644.28.859.825 1.608 1.557 2.137.732.53 1.614.814 2.517.811.903.003 1.785-.281 2.517-.811.732-.529 1.277-1.278 1.557-2.137.279-.859.279-1.785 0-2.644-.28-.859-.825-1.608-1.557-2.137-.732-.53-1.614-.814-2.517-.811-.903-.003-1.785.281-2.517.811m20.207 9.229c1.132 0 2.219.45 3.019 1.251.801.8 1.251 1.887 1.251 3.019 0 1.132-.45 2.219-1.251 3.019-.8.801-1.887 1.251-3.019 1.251-1.132 0-2.219-.45-3.019-1.251-.801-.8-1.251-1.887-1.251-3.019 0-1.132.45-2.219 1.251-3.019.8-.801 1.887-1.251 3.019-1.251m12.49-9.625c.73.529 1.608.815 2.51.815.902 0 1.78-.286 2.51-.815.729-.53 1.272-1.278 1.551-2.135.279-.858.279-1.782 0-2.64-.279-.857-.822-1.605-1.551-2.135-.73-.529-1.608-.815-2.51-.815-.902 0-1.78.286-2.51.815-.729.53-1.272 1.278-1.551 2.135-.279.858-.279 1.782 0 2.64.279.857.822 1.605 1.551 2.135" fill="#8bb7f0" stroke="#4e7ab5"/></g></svg>