<svg xmlns="http://www.w3.org/2000/svg" viewBox="0 0 36480 1080" width="36480" height="1080"><path d="M86 155c17.1-7.21 47.46-20.01 65-52 6.298-11.49 9.711-23.213 11.239-34.448 1.528-11.236 1.169-21.984-.078-31.527-1.247-9.542-3.382-17.879-5.408-24.289C154.727 6.325 152.81 1.84 152 0H0v166c15.74 2.17 49.11 4.55 86-11" fill="#a6dcef"/><path d="M1996.444 245.556c49.642-2.85 87.19-19.69 105.667-54.223 7.865-15 7.339-28.291 9.99-49.509 3.084-24.977 9.915-36.452 7.931-55.691-1.948-18.797-10.637-27.075-11.918-41.924-1.217-15.99 5.93-23.478 3.886-32.209-.669-3.583-3.923-8.037-15.111-12H1920v255.333c13.991 1.929 43.653 4.045 76.444-9.777" fill="#a0d8f1"/><path d="M3906.889 336.111c82.182 1.51 126.92-19.37 146.333-56.444 9.432-18.51 4.967-33.37 8.742-64.571 4.639-38.719 18.66-50.919 15.939-79.854-2.65-28.053-17.893-36.273-18.428-59.559-.407-25.57 15.804-36.061 12.525-51.683-1.338-7.167-7.847-16.073-30.222-24H3840v344.667c12.242 1.687 38.197 3.539 66.889-8.556" fill="#9bd4f3"/><path d="M5817.333 426.667c114.724 5.87 166.65-19.05 187-58.667 10.999-22.02 2.595-38.448 7.493-79.632 6.195-52.461 27.406-65.386 23.948-104.018-3.351-37.308-25.148-45.469-24.939-77.193.403-35.15 25.678-48.644 21.165-71.157-2.007-10.75-11.77-24.11-45.333-36H5760v434c10.493 1.447 32.74 3.033 57.333-7.333" fill="#95d0f4"/><path d="M7727.778 517.222c147.264 10.23 206.38-18.73 227.666-60.889 12.566-25.53.222-43.527 6.244-94.693 7.751-66.202 36.152-79.854 31.957-128.182-4.053-46.563-32.403-54.666-31.449-94.827 1.212-44.73 35.552-61.227 29.804-90.631-2.676-14.333-15.693-32.147-60.444-48H7680v523.333c8.744 1.206 27.283 2.528 47.778-6.111" fill="#90ccf6"/><path d="M9638.222 607.778c179.806 14.59 246.11-18.41 268.334-63.111 14.132-29.04-2.151-48.606 4.995-109.755 9.306-79.944 44.897-94.321 39.965-152.345-4.754-55.819-39.659-63.863-37.959-112.462C9915.579 115.794 9958.982 96.296 9952 60c-3.344-17.917-19.617-40.183-75.556-60H9600v612.667c6.996.964 21.827 2.022 38.222-4.889" fill="#8ac9f8"/><path d="M11548.667 698.333c212.346 18.95 285.84-18.09 309-65.333 15.699-32.55-4.523-53.684 3.746-124.816 10.863-93.685 53.643-108.788 47.974-176.509-5.456-65.074-46.914-73.06-44.469-130.096 2.831-63.891 55.299-86.392 47.082-129.579-4.013-21.5-23.54-48.22-90.667-72H11520v702c5.247.723 16.37 1.517 28.667-3.667" fill="#85c5fa"/><path d="M13459.111 788.889c244.888 23.31 325.57-17.77 349.667-67.556 17.266-36.06-6.896-58.762 2.497-139.877 12.419-107.427 62.389-123.255 55.983-200.673-6.157-74.329-54.169-82.256-50.98-147.731 3.641-73.47 65.173-98.974 55.722-149.052-4.682-25.083-27.463-56.257-105.778-84H13440v791.333c3.498.483 10.913 1.011 19.111-2.444" fill="#7fc1fb"/><path d="M15369.556 879.444c277.428 27.67 365.3-17.45 390.333-69.777 18.833-39.57-9.268-63.842 1.249-154.939 13.974-121.168 71.134-137.723 63.991-224.836-6.859-83.585-61.425-91.454-57.49-165.366 4.451-83.05 75.047-111.557 64.361-168.526-5.351-28.667-31.387-64.293-120.889-96H15360v880.667c1.749.241 5.457.505 9.556-1.223" fill="#7abdfd"/><g fill="#74b9ff"><path d="M17280 970c309.97 32.03 405.03-17.13 431-72 20.4-43.08-11.64-68.92 0-170 15.53-134.91 79.88-152.19 72-249-7.56-92.84-68.68-100.65-64-183 5.26-92.63 84.92-124.14 73-188-6.02-32.25-35.31-72.33-136-108h-376v970"/><path d="M17792 108c11.92 63.86-67.74 95.37-73 188-4.68 82.35 56.44 90.16 64 183 7.88 96.81-56.47 114.09-72 249-11.64 101.08 20.4 126.92 0 170-25.97 54.87-121.03 104.03-431 72V0h376c100.69 35.67 129.98 75.75 136 108"/></g><path d="M19200 970c309.97 32.03 405.03-17.13 431-72 20.4-43.08-11.64-68.92 0-170 15.53-134.91 79.88-152.19 72-249-7.56-92.84-68.68-100.65-64-183 5.26-92.63 84.92-124.14 73-188-6.02-32.25-35.31-72.33-136-108h-376v970" fill="#74b9ff"/><path d="M19911.333 84c11.856 58.538-46.675 97.194-49.698 186.764-2.573 81.574 43.673 108.547 42.698 203.125-16.664 149.679-135.305 195.172-168.666 310.111-45.578 95.798-54.047 119.962-90.223 154.444-38.569 42.677-130.875 80.913-390.333 56H19200V0h605.556c78.314 27.743 101.095 58.917 105.777 84" fill="#70b7fe"/><path d="M21120 970c309.97 32.03 405.03-17.13 431-72 20.4-43.08-11.64-68.92 0-170 15.53-134.91 79.88-152.19 72-249-7.56-92.84-68.68-100.65-64-183 5.26-92.63 84.92-124.14 73-188-6.02-32.25-35.31-72.33-136-108h-376v970" fill="#74b9ff"/><path d="M22030.667 60c11.791 53.216-25.61 99.019-26.398 185.528-.465 80.798 30.907 126.934 21.398 223.25-41.209 202.548-214.141 276.254-265.334 371.222-79.515 90.516-128.493 113.004-180.444 138.889-51.169 30.483-140.72 57.794-349.667 40H21120V0h835.111c55.939 19.817 72.211 42.083 75.556 60" fill="#61b0fa"/><path d="M23040 970c309.97 32.03 405.03-17.13 431-72 20.4-43.08-11.64-68.92 0-170 15.53-134.91 79.88-152.19 72-249-7.56-92.84-68.68-100.65-64-183 5.26-92.63 84.92-124.14 73-188-6.02-32.25-35.31-72.33-136-108h-376v970" fill="#74b9ff"/><path d="M24150 36c11.727 47.893-4.545 100.843-3.096 184.292 1.643 80.021 18.139 145.321.096 243.375-65.753 255.416-292.977 357.336-362 432.333-113.453 85.233-202.94 106.047-270.667 123.333-63.767 18.29-150.565 34.677-309 24H23040V0h1064.667c33.563 11.89 43.326 25.25 45.333 36" fill="#43a1f2"/><path d="M24960 970c309.97 32.03 405.03-17.13 431-72 20.4-43.08-11.64-68.92 0-170 15.53-134.91 79.88-152.19 72-249-7.56-92.84-68.68-100.65-64-183 5.26-92.63 84.92-124.14 73-188-6.02-32.25-35.31-72.33-136-108h-376v970" fill="#74b9ff"/><path d="M26269.333 12c11.663 42.571 16.52 102.668 20.206 183.056 3.75 79.245 5.372 163.708-21.206 263.5-90.297 308.285-371.812 438.418-458.666 493.444-147.391 79.951-277.387 99.089-360.889 107.778-76.367 6.096-160.411 11.559-268.334 8H24960V0h1294.222c11.188 3.963 14.442 8.417 15.111 12" fill="#2a94ec"/><path d="M26880 970c309.97 32.03 405.03-17.13 431-72 20.4-43.08-11.64-68.92 0-170 15.53-134.91 79.88-152.19 72-249-7.56-92.84-68.68-100.65-64-183 5.26-92.63 84.92-124.14 73-188-6.02-32.25-35.31-72.33-136-108h-376v970" fill="#74b9ff"/><path d="M26880 0h1465.778c10.338 35.476 24.047 92.071 28.316 162.167 4.27 110.095-.898 233.691-28.316 363.166-91.413 297.529-366.017 425.743-451.385 465.778-169.562 68.72-326.582 84.987-431.282 88.889H26880V0" fill="#1a8de8"/><g><path d="M28800 970c309.97 32.03 405.03-17.13 431-72 20.4-43.08-11.64-68.92 0-170 15.53-134.91 79.88-152.19 72-249-7.56-92.84-68.68-100.65-64-183 5.26-92.63 84.92-124.14 73-188-6.02-32.25-35.31-72.33-136-108h-376v970" fill="#74b9ff"/><path d="M28800 0h1579.333c7.754 26.607 18.036 69.053 21.238 121.625 3.202 172.572-.674 355.268-21.238 542.375-69.098 223.147-275.59 319.307-340.155 349.333-179.966 51.54-350.525 63.74-481.845 66.667H28800V0" fill="#1188e5"/></g><g><path d="M30720 970c309.97 32.03 405.03-17.13 431-72 20.4-43.08-11.64-68.92 0-170 15.53-134.91 79.88-152.19 72-249-7.56-92.84-68.68-100.65-64-183 5.26-92.63 84.92-124.14 73-188-6.02-32.25-35.31-72.33-136-108h-376v970" fill="#74b9ff"/><path d="M30720 0H32412.889c5.169 17.738 12.023 46.036 14.158 81.084 2.135 235.047-.449 476.845-14.158 721.583-46.784 148.764-185.163 212.871-228.925 232.889-190.37 34.36-374.469 42.493-532.408 44.444H30720V0" fill="#0c86e4"/></g><g><path d="M32640 970c309.97 32.03 405.03-17.13 431-72 20.4-43.08-11.64-68.92 0-170 15.53-134.91 79.88-152.19 72-249-7.56-92.84-68.68-100.65-64-183 5.26-92.63 84.92-124.14 73-188-6.02-32.25-35.31-72.33-136-108h-376v970" fill="#74b9ff"/><path d="M32640 0h1806.444c2.585 8.869 6.012 23.018 7.08 40.542 1.067 297.524-.225 598.422-7.08 900.791-24.469 74.383-94.736 106.436-117.694 116.445-200.774 17.18-398.414 21.246-582.972 22.222H32640V0" fill="#0a84e3"/></g><g><path d="M34560 970c309.97 32.03 405.03-17.13 431-72 20.4-43.08-11.64-68.92 0-170 15.53-134.91 79.88-152.19 72-249-7.56-92.84-68.68-100.65-64-183 5.26-92.63 84.92-124.14 73-188-6.02-32.25-35.31-72.33-136-108h-376v970" fill="#74b9ff"/><path d="M34560 0h1920v1080h-1920V0" fill="#0984e3"/></g></svg>