<svg xmlns="http://www.w3.org/2000/svg" viewBox="0 0 15200 800" width="15200" height="800"><path d="M1560.613-.124c-1.246 16.299.754 21.294 2.988 22.662 1.754 1.068 2.79-.614 6.888-.006 5.467.815 6.186 4.193 10.1 3.773 3.759-.402 4.069-3.619 7.404-3.375 3.755.269 5.05 4.459 7.627 3.829 1.307-.321 2.928-1.855 4.357-7.153l-.061-19.769-39.303.039z" fill="#a4dbf0" fill-opacity=".833333"/><path d="M2249.902.077c-4.786 49.933 2.856 65.236 11.358 69.414 6.676 3.276 10.648-1.887 26.28-.029 20.861 2.482 23.575 12.84 38.529 11.553 14.348-1.234 15.524-11.082 28.257-10.342 14.323.828 19.241 13.656 29.099 11.725 4.983-.978 11.165-5.697 16.628-21.924l-.198-60.563-149.953.166z" fill="#9dd6f2"/><path d="M2830.543.475c-11.802 116.575 7.019 152.3 27.942 162.047 16.427 7.652 26.215-4.408 64.702-.074 51.362 5.785 58.029 29.974 94.858 26.969 35.326-2.885 38.221-25.869 69.574-24.148 35.262 1.937 47.359 31.879 71.643 27.37 12.266-2.278 27.486-13.307 40.94-51.19L3199.733.058l-369.19.417z" fill="#8fccf6"/><path d="M3445.478.81c-17.721 172.8 10.531 225.755 41.932 240.198 24.655 11.344 39.35-6.535 97.118-.111 77.096 8.571 87.096 44.429 142.382 39.975 53.024-4.277 57.368-38.344 104.431-35.795 52.927 2.872 71.081 47.252 107.535 40.568 18.411-3.375 41.256-19.728 61.452-75.881L3999.631.182 3445.478.81z" fill="#83c4fa"/><path d="M4135.133 1.01c-21.25 206.323 12.626 269.551 50.275 286.796 29.56 13.544 47.181-7.804 116.446-.134 92.439 10.233 104.427 53.047 170.716 47.729 63.578-5.107 68.786-45.782 125.215-42.739 63.46 3.43 85.225 56.419 128.936 48.437 22.075-4.029 49.467-23.555 73.683-90.602L4799.57.255l-664.437.755z" fill="#7cbffc"/><path d="M4870.088 1.128c-23.33 226.084 13.861 295.368 55.192 314.264 32.452 14.841 51.798-8.552 127.839-.147 101.484 11.212 114.644 58.127 187.42 52.3 69.798-5.597 75.516-50.167 137.466-46.833 69.669 3.759 93.563 61.822 141.551 53.076 24.235-4.414 54.306-25.812 80.892-99.28L5599.534.299l-729.446.829z" fill="#78bcfe"/><path d="M5632.749 1.196c-24.524 237.427 14.569 310.187 58.015 330.031 34.111 15.586 54.448-8.981 134.379-.155 106.676 11.775 120.509 61.045 197.008 54.925 73.369-5.878 79.379-52.684 144.499-49.183 73.234 3.948 98.349 64.924 148.793 55.739 25.475-4.636 57.085-27.108 85.03-104.262l-.96-287.967-766.764.872z" fill="#76baff"/><path d="M6413.953 1.23c-25.125 243.138 14.926 317.648 59.436 337.969 34.947 15.961 55.781-9.197 137.671-.159 109.289 12.058 123.461 62.513 201.835 56.246 75.167-6.019 81.324-53.951 148.039-50.366 75.028 4.042 100.759 66.485 152.439 57.08 26.098-4.748 58.483-27.76 87.113-106.77L7199.503.336l-785.55.894z" fill="#74b9ff"/><path d="M7208.48 1.24l791.02-.9.99 296.91c-28.83 79.55-61.44 102.72-87.72 107.5-52.04 9.47-77.95-53.4-153.5-57.47-33.59-1.805-51.935 9.357-71.344 21.729-19.409 12.371-39.881 25.951-77.726 28.981-39.46 3.155-62.758-7.968-89.946-21.396-27.189-13.429-58.269-29.164-113.294-35.234-41.23-4.55-67.09-.492-87.041 2.694-19.951 3.186-33.994 5.501-51.589-2.534-44.82-20.46-85.15-95.48-59.85-340.28" fill="#74b9ff"/><path d="M8008.202 1.199h13.12l778.194-.87.958 300.291c-27.884 81.314-59.425 108.098-84.843 117.094-51.582 9.16-77.892-51.648-152.214-55.584-33.737-1.746-52.73 9.05-72.752 21.016-20.021 11.965-41.072 25.1-78.925 28.03-39.415 3.052-63.198-7.706-90.745-20.694-27.546-12.988-58.856-28.207-113.326-34.078-41.127-4.401-67.389-.477-87.935 2.605-20.546 3.082-35.378 5.321-53.645-2.451-43.35-28.535-82.357-109.841-57.887-355.359" fill="#70b7fe"/><path d="M8806.995 1.023h70.067L9599.588.28l.816 314.969c-23.78 88.971-50.677 131.438-72.354 158.736-49.597 7.811-77.642-44.046-146.631-47.403-34.379-1.489-56.184 7.719-78.866 17.923-22.682 10.204-46.241 21.405-84.13 23.904-39.221 2.603-65.111-6.571-94.21-17.648-29.099-11.076-61.408-24.055-113.467-29.062-40.681-3.753-68.684-.406-91.814 2.222-23.129 2.628-41.385 4.538-62.571-2.09-36.969-63.587-70.235-172.178-49.366-420.808" fill="#61b0fa"/><path d="M9604.603.673h182.9l612.226-.488.537 344.048c-15.647 104.142-33.347 177.685-47.61 241.246-45.664 5.14-77.145-28.983-135.569-31.192-35.65-.98-63.026 5.079-90.979 11.793-27.953 6.715-56.484 14.085-94.443 15.73-38.836 1.712-68.9-4.325-101.076-11.613-32.176-7.288-66.463-15.829-113.747-19.123-39.797-2.47-71.251-.267-99.499 1.462-28.248 1.729-53.288 2.986-80.257-1.375-24.326-133.039-46.215-295.689-32.483-550.488" fill="#43a1f2"/><path d="M10402.584.378h278.094l519.17-.274.301 368.581c-8.786 116.942-18.724 216.702-26.734 310.857-42.345 2.886-76.726-16.275-126.237-17.515-36.722-.55-68.798 2.852-101.198 6.622-32.4 3.77-65.125 7.909-103.144 8.832-38.511.962-72.096-2.428-106.868-6.52-34.771-4.093-70.728-8.889-113.983-10.738-39.051-1.387-73.417-.151-105.983.82-32.565.972-63.33 1.677-95.177-.772-13.66-191.631-25.951-399.891-18.241-659.893" fill="#2a94ec"/><path d="M11201.381.202h334.853l463.685-.147.161 383.21c-4.696 124.574-10.007 239.965-14.287 352.361-40.366 1.543-76.477-8.697-120.672-9.36-37.362-.294-72.241 1.524-107.292 3.539-35.052 2.015-70.277 4.227-108.332 4.72-38.317.514-74.002-1.297-110.321-3.484-36.319-2.188-73.272-4.75-114.124-5.739-38.606-.741-74.709-.08-109.849.439s-69.318.896-104.074-.413c-7.3-226.567-13.868-462.021-9.748-725.126" fill="#1a8de8"/><path d="M12000.672.098h368.31l430.978-.071.079 391.833c-2.284 129.072-4.868 253.678-6.95 376.827-39.2.75-76.33-4.231-117.392-4.553-37.738-.143-74.269.741-110.884 1.721-36.615.98-73.314 2.056-111.389 2.296-38.204.25-75.126-.631-112.358-1.695-37.231-1.064-74.77-2.311-114.207-2.791-38.343-.361-75.469-.039-112.127.213s-72.847.436-109.319-.201c-3.55-247.161-6.746-498.644-4.741-763.579" fill="#1188e5"/><path d="M12800.265.039h387.516l412.203-.028.031 396.782c-.899 131.655-1.917 261.55-2.737 390.872-38.531.295-76.246-1.667-115.51-1.794-37.955-.056-75.433.292-112.945.678-37.512.386-75.058.81-113.145.905-38.138.098-75.771-.249-113.526-.668-37.755-.419-75.631-.91-114.255-1.1-38.193-.142-75.906-.015-113.435.085-37.529.099-74.874.171-112.33-.08-1.398-258.982-2.657-519.668-1.867-785.652" fill="#0c86e4"/><path d="M13600.06.009h397.185l402.751-.007.007 399.275c-.202 132.955-.432 265.513-.617 397.941-38.193.067-76.203-.375-114.562-.404-38.063-.013-76.019.066-113.983.153s-75.935.183-114.028.204c-38.105.022-76.096-.056-114.115-.151-38.018-.094-76.064-.205-114.279-.248-38.117-.032-76.126-.003-114.094.019-37.967.023-75.893.039-113.844-.017-.316-264.935-.599-530.252-.421-796.765" fill="#0a84e3"/><path d="M14400 0h800v800h-800V0" fill="#0984e3"/></svg>