<svg xmlns="http://www.w3.org/2000/svg" viewBox="0 0 25954 768" width="25954" height="768"><path d="M108.14 0c2.31 5.23 17.21 40.56-.71 73.24-12.379 22.566-33.732 31.702-45.943 36.855-.1.042-.199.084-.297.125-20.682 8.714-39.806 9.507-52.466 8.698-.584-.037-1.155-.078-1.711-.121-1.792-.141-3.437-.31-4.917-.487-.741-.089-1.44-.18-2.096-.27V0h108.14" fill="#a6dcef"/><path d="M1491.849 0c7.96 2.819 10.275 5.986 10.751 8.533 2.996 9.695 9.942 43.589-6.402 79.957-11.374 26.565-25.523 35.303-35.78 47.219.534 7.686-4.641 9.09-5.956 19.785-19.304 15.733-33.77 18.479-46.636 21.164-2.573 4.303-10.594 8.15-35.592 5.581-1.593-.124-3.055-.275-4.371-.433-.658-25.626-1.28-51.254-1.863-76.882V0h125.849" fill="#a0d8f1"/><path d="M2875.558 0c15.92 5.638 20.551 11.971 21.502 17.067 3.681 14.159 2.674 46.617-12.094 86.673-10.369 30.565-17.314 38.904-25.616 57.583 1.167 15.33-9.084 18.096-11.616 39.446-17.925 22.751-27.735 27.45-40.806 33.63-4.561 8.642-20.034 16.377-69.473 11.283-1.395-.109-2.674-.241-3.825-.379-.576-51.164-1.12-102.329-1.63-153.494V0h143.558" fill="#9bd4f3"/><path d="M4259.267 0c23.88 8.457 30.826 17.957 32.253 25.6 4.367 18.623-4.593 49.647-17.787 93.39-9.362 34.564-9.104 42.505-15.452 67.947 1.8 22.974-13.525 27.102-17.274 59.106-16.548 29.77-21.701 36.422-34.977 46.096-6.55 12.982-29.474 24.604-103.355 16.985-1.195-.093-2.291-.206-3.278-.324-.493-76.702-.96-153.404-1.397-230.107V0h161.267" fill="#95d0f4"/><path d="M5642.976 0c31.84 11.276 41.102 23.942 43.004 34.133 5.052 23.088-11.861 52.676-23.479 100.107-8.357 38.563-.895 46.106-5.288 78.31 2.433 30.619-17.968 36.109-22.934 78.768-15.17 36.788-15.665 45.393-29.148 58.561-8.538 17.322-38.912 32.832-137.235 22.688-.996-.078-1.909-.172-2.732-.27-.411-102.239-.799-204.479-1.164-306.719V0h178.976" fill="#90ccf6"/><path d="M7026.684 0c39.8 14.094 51.378 29.928 53.756 42.667 5.738 27.552-19.129 55.704-29.171 106.823-7.352 42.563 7.314 49.706 4.875 88.674 3.067 38.263-22.41 45.115-28.593 98.428-13.792 43.806-9.63 54.364-23.318 71.027-10.526 21.661-48.352 41.06-171.116 28.391-.797-.063-1.528-.138-2.186-.217-.329-127.776-.639-255.554-.931-383.331V0h196.684" fill="#8ac9f8"/><path d="M8410.393 0c47.76 16.913 61.654 35.913 64.507 51.2 6.423 32.017-26.397 58.733-34.863 113.54-6.347 46.562 15.522 53.307 15.039 99.038 3.7 45.908-26.853 54.122-34.253 118.089-12.414 50.824-3.595 63.335-17.488 83.492-12.515 26.001-57.792 49.288-204.997 34.093-.598-.047-1.146-.103-1.639-.162-.247-153.314-.48-306.629-.699-459.943V0h214.393" fill="#85c5fa"/><path d="M9794.102 0c55.72 19.732 71.929 41.899 75.258 59.733 7.109 36.481-33.664 61.763-40.556 120.257-5.34 50.561 23.732 56.908 25.203 109.402 4.333 53.552-31.295 63.128-39.911 137.749-11.036 57.843 2.439 72.307-11.659 95.959-14.504 30.34-67.232 57.514-238.879 39.795-.398-.031-.763-.069-1.092-.108-.165-178.852-.32-357.704-.466-536.556V0h232.102" fill="#7fc1fb"/><path d="M11177.811 0c63.68 22.551 82.205 47.884 86.009 68.267 7.794 40.945-40.932 64.791-46.248 126.973-4.335 54.561 31.941 60.509 35.367 119.766 4.966 61.196-35.738 72.134-45.571 157.41-9.658 64.861 8.475 81.278-5.83 108.424-16.491 34.68-76.67 65.742-272.759 45.497-.199-.015-.382-.034-.546-.054-.082-204.389-.16-408.778-.233-613.167V0h249.811" fill="#7abdfd"/><path d="M12658.28 76.8c8.48 45.41-48.2 67.82-51.94 133.69-3.33 58.56 40.15 64.11 45.53 130.13 5.6 68.84-40.18 81.14-51.23 177.07-8.28 71.88 14.51 90.25 0 120.89-18.48 39.02-86.11 73.97-306.64 51.2V0h267.52c71.64 25.37 92.48 53.87 96.76 76.8" fill="#74b9ff"/><path d="M14166.093 59.733c8.435 41.626-33.211 69.118-35.361 132.811-1.83 58.009 31.068 77.187 30.376 144.443-11.862 106.435-96.269 138.795-120.004 220.525-32.424 68.122-38.454 85.304-64.188 109.828-27.443 30.349-93.114 57.532-277.707 39.822H13660V0h430.836c55.72 19.732 71.928 41.899 75.257 59.733" fill="#68b3fc"/><path d="M15673.907 42.667c8.389 37.841-18.224 70.414-18.783 131.932-.331 57.457 21.986 90.263 15.222 158.754-29.325 144.031-152.358 196.451-188.777 263.981-56.569 64.365-91.419 80.357-128.378 98.766-36.406 21.678-100.117 41.094-248.773 28.444H15026V0h594.151c39.8 14.094 51.378 29.928 53.756 42.667" fill="#5cadf9"/><path d="M17181.72 25.6c8.343 34.057-3.235 71.712-2.203 131.053 1.168 56.905 12.903 103.34.066 173.067-46.786 181.627-208.446 254.107-257.55 307.437-80.713 60.606-144.383 75.41-192.566 87.703-45.369 13.007-107.121 24.657-219.84 17.067H16392V0h757.467c23.88 8.457 30.826 17.957 32.253 25.6" fill="#50a7f6"/><path d="M18689.533 8.533c8.298 30.273 11.754 73.009 14.376 130.175 2.668 56.353 3.821 116.416-15.088 187.379-64.249 219.222-264.535 311.762-326.323 350.892-104.858 56.849-197.348 70.463-256.756 76.641-54.332 4.336-114.125 8.219-190.906 5.689H17758V0h920.782c7.96 2.819 10.276 5.986 10.751 8.533" fill="#44a1f3"/><path d="M19124 0h1042.836c7.355 32.1 17.109 79.221 20.146 135.941 3.038 71.091-.64 151.781-20.146 236.651-64.872 211.9-260.072 303.401-320.632 332.199-106.164 48.862-203.413 60.436-263.435 63.209H19124V0" fill="#399cef"/><path d="M20490 0H21613.627c5.516 39.541 12.832 90.348 15.11 148.354 2.278 101.116-.48 209.432-15.11 320.882-48.654 159.661-195.054 229.023-240.474 251.357-84.633 36.647-162.58 45.327-212.607 47.407H20490V0" fill="#2d96ec"/><path d="M21856 0H23060.418c3.678 46.982 8.554 101.475 10.073 160.767 1.519 131.141-.32 267.082-10.073 405.113-32.436 107.422-130.036 154.645-160.316 170.516-63.103 24.431-121.748 30.217-161.779 31.604H21856V0" fill="#2190e9"/><path d="M23222 0h1285.209c1.839 54.423 4.277 112.602 5.037 173.18.759 161.167-.16 324.733-5.037 489.344-16.218 55.183-65.018 80.266-80.158 89.674-41.572 12.215-80.915 15.109-110.951 15.802H23222V0" fill="#158ae6"/><path d="M24588 0h1366v768h-1366V0" fill="#0984e3"/></svg>