<svg xmlns="http://www.w3.org/2000/svg" viewBox="0 0 3875 125" width="3875" height="125"><g><defs><clipPath id="clip_frame0_path"><path d="M0 0h125v125H0z"/></clipPath><clipPath id="clip_frame0_path_1"><path d="M0 0h125v125H0z"/></clipPath><clipPath id="clip_frame0_path_2"><path d="M0 0h125v125H0z"/></clipPath><clipPath id="clip_frame0_group_1"><path d="M0 0h125v125H0z"/></clipPath><clipPath id="clip_frame0_group"><path d="M0 0h125v125H0z"/></clipPath><clipPath id="clip_frame0_group_2"><path d="M29.4 73.3l23.7 22.4 47.5-47.5-7.9-7.9-39.6 39.6L37.3 64z"/></clipPath><clipPath id="clip_frame0_group_3"><path d="M29.4 73.3l23.7 22.4 47.5-47.5-7.9-7.9-39.6 39.6L37.3 64z"/></clipPath></defs><path clip-path="url(#clip_frame0_path)" d="M17.5 34.5v-15h90v15z" fill="#788b9c" stroke="#788b9c" stroke-width="2" stroke-miterlimit="10"/><path clip-path="url(#clip_frame0_path_1)" d="M17.5 34.5h90v71h-90z" fill="#ffffff" stroke="#788b9c" stroke-width="2" stroke-miterlimit="10"/><path clip-path="url(#clip_frame0_path_2)" d="M35 52h3v3h-3zm0 30h3v3h-3zm0-10h3v3h-3zm0-10h3v3h-3zm10-10h45v3H45zm0 10h45v3H45zm0 20h45v3H45zm0-10h45v3H45z" fill="#8bb7f0"/><g clip-path="url(#clip_frame0_group_1)"><g clip-path="url(#clip_frame0_group_2)"><path d="M36.9 63.9l-7.8 7.8L5.4 49.3l7.9-9.3 15.8 15.9z" fill="#bae0bd"/></g><g clip-path="url(#clip_frame0_group_3)"><path d="M11.9 136.9l39.7-39.7-7.9-7.9-39.6 39.6z" fill="#bae0bd"/></g></g><g clip-path="url(#clip_frame0_group)"><path d="M103.7 70.8c-.1-.4-.2-1.5.4-2.8 1-2.3 3.5-2.9 3.9-2.9 2.1-.5 3.8.4 4.7.9.7.4 2.1 1.1 2.7 2.6.3.6.4 1.3.5 2.1.1 1.1.2 1.6 0 2.3-.3 1-1 1.7-1.4 2-.3.3-.7.6-1.3.9 0 0-.8.4-1.8.4-2 .1-7.1-1.7-7.7-5.5z" fill="#f78f8f" stroke="#c74343"/><path d="M74.3 96.3h4.8l3.7 4.4v5l-7.3 3.6-5-4.5 3.8-8.5z" fill="#f5ce85" stroke="#997d47"/><path d="M67 112l3.4-7.3 5 4.5L67 112z" fill="#36404d" stroke="#36404d"/><path d="M75.8 96.9l-1-.3c-.5-.1-.6-.7-.2-1L97.9 74c.2-.2.6-.2.9 0l7.8 7.7c.2.2.2.6 0 .8l-22.9 22.7c-.3.3-.8.2-1-.2l-.6-1.4v-.1l-.6-1.1-.9-1.5s0-.1-.1-.1l-1.4-1.5-.7-.8-.1-.1-1.9-1.2-.5-.2-.1-.1zm.6.4l23.9-21.8M79.1 99.4l23.5-21.6m-21.2 24.7l23.7-22.4" fill="#ffeea3" stroke="#ba9b48" stroke-width="2"/><path d="M103.8 69.1l8 7.2c.4.4.4.9 0 1.3l-4.2 4.1c-.4.3-.9.3-1.3 0l-7.8-7.4c-.4-.4-.4-.9 0-1.3l4.1-3.8c.3-.4.9-.4 1.2-.1z" fill="#d9e7f5" stroke="#788b9c"/></g></g><g transform="translate(125)"><defs><clipPath id="clip_frame1_path"><path d="M0 0h125v125H0z"/></clipPath><clipPath id="clip_frame1_path_1"><path d="M0 0h125v125H0z"/></clipPath><clipPath id="clip_frame1_path_2"><path d="M0 0h125v125H0z"/></clipPath><clipPath id="clip_frame1_group_1"><path d="M0 0h125v125H0z"/></clipPath><clipPath id="clip_frame1_group"><path d="M0 0h125v125H0z"/></clipPath><clipPath id="clip_frame1_group_2"><path d="M29.4 73.3l23.7 22.4 47.5-47.5-7.9-7.9-39.6 39.6L37.3 64z"/></clipPath><clipPath id="clip_frame1_group_3"><path d="M29.4 73.3l23.7 22.4 47.5-47.5-7.9-7.9-39.6 39.6L37.3 64z"/></clipPath></defs><path clip-path="url(#clip_frame1_path)" d="M17.5 34.5v-15h90v15z" fill="#788b9c" stroke="#788b9c" stroke-width="2" stroke-miterlimit="10"/><path clip-path="url(#clip_frame1_path_1)" d="M17.5 34.5h90v71h-90z" fill="#ffffff" stroke="#788b9c" stroke-width="2" stroke-miterlimit="10"/><path clip-path="url(#clip_frame1_path_2)" d="M35 52h3v3h-3zm0 30h3v3h-3zm0-10h3v3h-3zm0-10h3v3h-3zm10-10h45v3H45zm0 10h45v3H45zm0 20h45v3H45zm0-10h45v3H45z" fill="#8bb7f0"/><g clip-path="url(#clip_frame1_group_1)"><g clip-path="url(#clip_frame1_group_2)"><path d="M36.9 63.9l-7.8 7.8L5.4 49.3l7.9-9.3 15.8 15.9z" fill="#bae0bd"/></g><g clip-path="url(#clip_frame1_group_3)"><path d="M11.9 136.9l39.7-39.7-7.9-7.9-39.6 39.6z" fill="#bae0bd"/></g></g><g clip-path="url(#clip_frame1_group)"><path d="M100.866667 67.3c-.1-.4-.2-1.5.4-2.8 1-2.3 3.5-2.9 3.9-2.9 2.1-.5 3.8.4 4.7.9.7.4 2.1 1.1 2.7 2.6.3.6.4 1.3.5 2.1.1 1.1.2 1.6 0 2.3-.3 1-1 1.7-1.4 2-.3.3-.7.6-1.3.9 0 0-.8.4-1.8.4-2 .1-7.1-1.7-7.7-5.5z" fill="#f78f8f" stroke="#c74343"/><path d="M71.466667 92.8h4.8l3.7 4.4v5l-7.3 3.6-5-4.5 3.8-8.5z" fill="#f5ce85" stroke="#997d47"/><path d="M64.166667 108.5l3.4-7.3 5 4.5-8.4 2.8z" fill="#36404d" stroke="#36404d"/><path d="M72.966667 93.4l-1-.3c-.5-.1-.6-.7-.2-1l23.3-21.6c.2-.2.6-.2.9 0l7.8 7.7c.2.2.2.6 0 .8l-22.9 22.7c-.3.3-.8.2-1-.2l-.6-1.4v-.1l-.6-1.1-.9-1.5s0-.1-.1-.1l-1.4-1.5-.7-.8-.1-.1-1.9-1.2-.5-.2-.1-.1zm.6.4l23.9-21.8m-21.2 23.9l23.5-21.6m-21.2 24.7l23.7-22.4" fill="#ffeea3" stroke="#ba9b48" stroke-width="2"/><path d="M100.966667 65.6l8 7.2c.4.4.4.9 0 1.3l-4.2 4.1c-.4.3-.9.3-1.3 0l-7.8-7.4c-.4-.4-.4-.9 0-1.3l4.1-3.8c.3-.4.9-.4 1.2-.1z" fill="#d9e7f5" stroke="#788b9c"/></g></g><g transform="translate(250)"><defs><clipPath id="clip_frame2_path"><path d="M0 0h125v125H0z"/></clipPath><clipPath id="clip_frame2_path_1"><path d="M0 0h125v125H0z"/></clipPath><clipPath id="clip_frame2_path_2"><path d="M0 0h125v125H0z"/></clipPath><clipPath id="clip_frame2_group_1"><path d="M0 0h125v125H0z"/></clipPath><clipPath id="clip_frame2_group"><path d="M0 0h125v125H0z"/></clipPath><clipPath id="clip_frame2_group_2"><path d="M29.4 73.3l23.7 22.4 47.5-47.5-7.9-7.9-39.6 39.6L37.3 64z"/></clipPath><clipPath id="clip_frame2_group_3"><path d="M29.4 73.3l23.7 22.4 47.5-47.5-7.9-7.9-39.6 39.6L37.3 64z"/></clipPath></defs><path clip-path="url(#clip_frame2_path)" d="M17.5 34.5v-15h90v15z" fill="#788b9c" stroke="#788b9c" stroke-width="2" stroke-miterlimit="10"/><path clip-path="url(#clip_frame2_path_1)" d="M17.5 34.5h90v71h-90z" fill="#ffffff" stroke="#788b9c" stroke-width="2" stroke-miterlimit="10"/><path clip-path="url(#clip_frame2_path_2)" d="M35 52h3v3h-3zm0 30h3v3h-3zm0-10h3v3h-3zm0-10h3v3h-3zm10-10h45v3H45zm0 10h45v3H45zm0 20h45v3H45zm0-10h45v3H45z" fill="#8bb7f0"/><g clip-path="url(#clip_frame2_group_1)"><g clip-path="url(#clip_frame2_group_2)"><path d="M36.9 63.9l-7.8 7.8L5.4 49.3l7.9-9.3 15.8 15.9z" fill="#bae0bd"/></g><g clip-path="url(#clip_frame2_group_3)"><path d="M11.9 136.9l39.7-39.7-7.9-7.9-39.6 39.6z" fill="#bae0bd"/></g></g><g clip-path="url(#clip_frame2_group)"><path d="M98.033333 63.8c-.1-.4-.2-1.5.4-2.8 1-2.3 3.5-2.9 3.9-2.9 2.1-.5 3.8.4 4.7.9.7.4 2.1 1.1 2.7 2.6.3.6.4 1.3.5 2.1.1 1.1.2 1.6 0 2.3-.3 1-1 1.7-1.4 2-.3.3-.7.6-1.3.9 0 0-.8.4-1.8.4-2 .1-7.1-1.7-7.7-5.5z" fill="#f78f8f" stroke="#c74343"/><path d="M68.633333 89.3h4.8l3.7 4.4v5l-7.3 3.6-5-4.5 3.8-8.5z" fill="#f5ce85" stroke="#997d47"/><path d="M61.333333 105l3.4-7.3 5 4.5-8.4 2.8z" fill="#36404d" stroke="#36404d"/><path d="M70.133333 89.9l-1-.3c-.5-.1-.6-.7-.2-1l23.3-21.6c.2-.2.6-.2.9 0l7.8 7.7c.2.2.2.6 0 .8l-22.9 22.7c-.3.3-.8.2-1-.2l-.6-1.4v-.1l-.6-1.1-.9-1.5s0-.1-.1-.1l-1.4-1.5-.7-.8-.1-.1-1.9-1.2-.5-.2-.1-.1zm.6.4l23.9-21.8m-21.2 23.9l23.5-21.6m-21.2 24.7l23.7-22.4" fill="#ffeea3" stroke="#ba9b48" stroke-width="2"/><path d="M98.133333 62.1l8 7.2c.4.4.4.9 0 1.3l-4.2 4.1c-.4.3-.9.3-1.3 0l-7.8-7.4c-.4-.4-.4-.9 0-1.3l4.1-3.8c.3-.4.9-.4 1.2-.1z" fill="#d9e7f5" stroke="#788b9c"/></g></g><g transform="translate(375)"><defs><clipPath id="clip_frame3_path"><path d="M0 0h125v125H0z"/></clipPath><clipPath id="clip_frame3_path_1"><path d="M0 0h125v125H0z"/></clipPath><clipPath id="clip_frame3_path_2"><path d="M0 0h125v125H0z"/></clipPath><clipPath id="clip_frame3_group_1"><path d="M0 0h125v125H0z"/></clipPath><clipPath id="clip_frame3_group"><path d="M0 0h125v125H0z"/></clipPath><clipPath id="clip_frame3_group_2"><path d="M29.4 73.3l23.7 22.4 47.5-47.5-7.9-7.9-39.6 39.6L37.3 64z"/></clipPath><clipPath id="clip_frame3_group_3"><path d="M29.4 73.3l23.7 22.4 47.5-47.5-7.9-7.9-39.6 39.6L37.3 64z"/></clipPath></defs><path clip-path="url(#clip_frame3_path)" d="M17.5 34.5v-15h90v15z" fill="#788b9c" stroke="#788b9c" stroke-width="2" stroke-miterlimit="10"/><path clip-path="url(#clip_frame3_path_1)" d="M17.5 34.5h90v71h-90z" fill="#ffffff" stroke="#788b9c" stroke-width="2" stroke-miterlimit="10"/><path clip-path="url(#clip_frame3_path_2)" d="M35 52h3v3h-3zm0 30h3v3h-3zm0-10h3v3h-3zm0-10h3v3h-3zm10-10h45v3H45zm0 10h45v3H45zm0 20h45v3H45zm0-10h45v3H45z" fill="#8bb7f0"/><g clip-path="url(#clip_frame3_group_1)"><g clip-path="url(#clip_frame3_group_2)"><path d="M36.9 63.9l-7.8 7.8L5.4 49.3l7.9-9.3 15.8 15.9z" fill="#bae0bd"/></g><g clip-path="url(#clip_frame3_group_3)"><path d="M11.9 136.9l39.7-39.7-7.9-7.9-39.6 39.6z" fill="#bae0bd"/></g></g><g clip-path="url(#clip_frame3_group)"><path d="M95.2 60.3c-.1-.4-.2-1.5.4-2.8 1-2.3 3.5-2.9 3.9-2.9 2.1-.5 3.8.4 4.7.9.7.4 2.1 1.1 2.7 2.6.3.6.4 1.3.5 2.1.1 1.1.2 1.6 0 2.3-.3 1-1 1.7-1.4 2-.3.3-.7.6-1.3.9 0 0-.8.4-1.8.4-2 .1-7.1-1.7-7.7-5.5z" fill="#f78f8f" stroke="#c74343"/><path d="M65.8 85.8h4.8l3.7 4.4v5L67 98.8l-5-4.5 3.8-8.5z" fill="#f5ce85" stroke="#997d47"/><path d="M58.5 101.5l3.4-7.3 5 4.5-8.4 2.8z" fill="#36404d" stroke="#36404d"/><path d="M67.3 86.4l-1-.3c-.5-.1-.6-.7-.2-1l23.3-21.6c.2-.2.6-.2.9 0l7.8 7.7c.2.2.2.6 0 .8L75.2 94.7c-.3.3-.8.2-1-.2l-.6-1.4V93l-.6-1.1-.9-1.5s0-.1-.1-.1l-1.4-1.5-.7-.8-.1-.1-1.9-1.2-.5-.2-.1-.1zm.6.4L91.8 65M70.6 88.9l23.5-21.6M72.9 92l23.7-22.4" fill="#ffeea3" stroke="#ba9b48" stroke-width="2"/><path d="M95.3 58.6l8 7.2c.4.4.4.9 0 1.3l-4.2 4.1c-.4.3-.9.3-1.3 0L90 63.8c-.4-.4-.4-.9 0-1.3l4.1-3.8c.3-.4.9-.4 1.2-.1z" fill="#d9e7f5" stroke="#788b9c"/></g></g><g transform="translate(500)"><defs><clipPath id="clip_frame4_path"><path d="M0 0h125v125H0z"/></clipPath><clipPath id="clip_frame4_path_1"><path d="M0 0h125v125H0z"/></clipPath><clipPath id="clip_frame4_path_2"><path d="M0 0h125v125H0z"/></clipPath><clipPath id="clip_frame4_group_1"><path d="M0 0h125v125H0z"/></clipPath><clipPath id="clip_frame4_group"><path d="M0 0h125v125H0z"/></clipPath><clipPath id="clip_frame4_group_2"><path d="M29.4 73.3l23.7 22.4 47.5-47.5-7.9-7.9-39.6 39.6L37.3 64z"/></clipPath><clipPath id="clip_frame4_group_3"><path d="M29.4 73.3l23.7 22.4 47.5-47.5-7.9-7.9-39.6 39.6L37.3 64z"/></clipPath></defs><path clip-path="url(#clip_frame4_path)" d="M17.5 34.5v-15h90v15z" fill="#788b9c" stroke="#788b9c" stroke-width="2" stroke-miterlimit="10"/><path clip-path="url(#clip_frame4_path_1)" d="M17.5 34.5h90v71h-90z" fill="#ffffff" stroke="#788b9c" stroke-width="2" stroke-miterlimit="10"/><path clip-path="url(#clip_frame4_path_2)" d="M35 52h3v3h-3zm0 30h3v3h-3zm0-10h3v3h-3zm0-10h3v3h-3zm10-10h45v3H45zm0 10h45v3H45zm0 20h45v3H45zm0-10h45v3H45z" fill="#8bb7f0"/><g clip-path="url(#clip_frame4_group_1)"><g clip-path="url(#clip_frame4_group_2)"><path d="M36.9 63.9l-7.8 7.8L5.4 49.3l7.9-9.3 15.8 15.9z" fill="#bae0bd"/></g><g clip-path="url(#clip_frame4_group_3)"><path d="M11.9 136.9l39.7-39.7-7.9-7.9-39.6 39.6z" fill="#bae0bd"/></g></g><g clip-path="url(#clip_frame4_group)"><path d="M92.366667 56.8c-.1-.4-.2-1.5.4-2.8 1-2.3 3.5-2.9 3.9-2.9 2.1-.5 3.8.4 4.7.9.7.4 2.1 1.1 2.7 2.6.3.6.4 1.3.5 2.1.1 1.1.2 1.6 0 2.3-.3 1-1 1.7-1.4 2-.3.3-.7.6-1.3.9 0 0-.8.4-1.8.4-2 .1-7.1-1.7-7.7-5.5z" fill="#f78f8f" stroke="#c74343"/><path d="M62.966667 82.3h4.8l3.7 4.4v5l-7.3 3.6-5-4.5 3.8-8.5z" fill="#f5ce85" stroke="#997d47"/><path d="M55.666667 98l3.4-7.3 5 4.5-8.4 2.8z" fill="#36404d" stroke="#36404d"/><path d="M64.466667 82.9l-1-.3c-.5-.1-.6-.7-.2-1l23.3-21.6c.2-.2.6-.2.9 0l7.8 7.7c.2.2.2.6 0 .8l-22.9 22.7c-.3.3-.8.2-1-.2l-.6-1.4v-.1l-.6-1.1-.9-1.5s0-.1-.1-.1l-1.4-1.5-.7-.8-.1-.1-1.9-1.2-.5-.2-.1-.1zm.6.4l23.9-21.8m-21.2 23.9l23.5-21.6m-21.2 24.7l23.7-22.4" fill="#ffeea3" stroke="#ba9b48" stroke-width="2"/><path d="M92.466667 55.1l8 7.2c.4.4.4.9 0 1.3l-4.2 4.1c-.4.3-.9.3-1.3 0l-7.8-7.4c-.4-.4-.4-.9 0-1.3l4.1-3.8c.3-.4.9-.4 1.2-.1z" fill="#d9e7f5" stroke="#788b9c"/></g></g><g transform="translate(625)"><defs><clipPath id="clip_frame5_path"><path d="M0 0h125v125H0z"/></clipPath><clipPath id="clip_frame5_path_1"><path d="M0 0h125v125H0z"/></clipPath><clipPath id="clip_frame5_path_2"><path d="M0 0h125v125H0z"/></clipPath><clipPath id="clip_frame5_group_1"><path d="M0 0h125v125H0z"/></clipPath><clipPath id="clip_frame5_group"><path d="M0 0h125v125H0z"/></clipPath><clipPath id="clip_frame5_group_2"><path d="M29.4 73.3l23.7 22.4 47.5-47.5-7.9-7.9-39.6 39.6L37.3 64z"/></clipPath><clipPath id="clip_frame5_group_3"><path d="M29.4 73.3l23.7 22.4 47.5-47.5-7.9-7.9-39.6 39.6L37.3 64z"/></clipPath></defs><path clip-path="url(#clip_frame5_path)" d="M17.5 34.5v-15h90v15z" fill="#788b9c" stroke="#788b9c" stroke-width="2" stroke-miterlimit="10"/><path clip-path="url(#clip_frame5_path_1)" d="M17.5 34.5h90v71h-90z" fill="#ffffff" stroke="#788b9c" stroke-width="2" stroke-miterlimit="10"/><path clip-path="url(#clip_frame5_path_2)" d="M35 52h3v3h-3zm0 30h3v3h-3zm0-10h3v3h-3zm0-10h3v3h-3zm10-10h45v3H45zm0 10h45v3H45zm0 20h45v3H45zm0-10h45v3H45z" fill="#8bb7f0"/><g clip-path="url(#clip_frame5_group_1)"><g clip-path="url(#clip_frame5_group_2)"><path d="M36.9 63.9l-7.8 7.8L5.4 49.3l7.9-9.3 15.8 15.9z" fill="#bae0bd"/></g><g clip-path="url(#clip_frame5_group_3)"><path d="M11.9 136.9l39.7-39.7-7.9-7.9-39.6 39.6z" fill="#bae0bd"/></g></g><g clip-path="url(#clip_frame5_group)"><path d="M89.533333 53.3c-.1-.4-.2-1.5.4-2.8 1-2.3 3.5-2.9 3.9-2.9 2.1-.5 3.8.4 4.7.9.7.4 2.1 1.1 2.7 2.6.3.6.4 1.3.5 2.1.1 1.1.2 1.6 0 2.3-.3 1-1 1.7-1.4 2-.3.3-.7.6-1.3.9 0 0-.8.4-1.8.4-2 .1-7.1-1.7-7.7-5.5z" fill="#f78f8f" stroke="#c74343"/><path d="M60.133333 78.8h4.8l3.7 4.4v5l-7.3 3.6-5-4.5 3.8-8.5z" fill="#f5ce85" stroke="#997d47"/><path d="M52.833333 94.5l3.4-7.3 5 4.5-8.4 2.8z" fill="#36404d" stroke="#36404d"/><path d="M61.633333 79.4l-1-.3c-.5-.1-.6-.7-.2-1l23.3-21.6c.2-.2.6-.2.9 0l7.8 7.7c.2.2.2.6 0 .8l-22.9 22.7c-.3.3-.8.2-1-.2l-.6-1.4V86l-.6-1.1-.9-1.5s0-.1-.1-.1l-1.4-1.5-.7-.8-.1-.1-1.9-1.2-.5-.2-.1-.1zm.6.4l23.9-21.8m-21.2 23.9l23.5-21.6m-21.2 24.7l23.7-22.4" fill="#ffeea3" stroke="#ba9b48" stroke-width="2"/><path d="M89.633333 51.6l8 7.2c.4.4.4.9 0 1.3l-4.2 4.1c-.4.3-.9.3-1.3 0l-7.8-7.4c-.4-.4-.4-.9 0-1.3l4.1-3.8c.3-.4.9-.4 1.2-.1z" fill="#d9e7f5" stroke="#788b9c"/></g></g><g transform="translate(750)"><defs><clipPath id="clip_frame6_path"><path d="M0 0h125v125H0z"/></clipPath><clipPath id="clip_frame6_path_1"><path d="M0 0h125v125H0z"/></clipPath><clipPath id="clip_frame6_path_2"><path d="M0 0h125v125H0z"/></clipPath><clipPath id="clip_frame6_group_1"><path d="M0 0h125v125H0z"/></clipPath><clipPath id="clip_frame6_group"><path d="M0 0h125v125H0z"/></clipPath><clipPath id="clip_frame6_group_2"><path d="M29.4 73.3l23.7 22.4 47.5-47.5-7.9-7.9-39.6 39.6L37.3 64z"/></clipPath><clipPath id="clip_frame6_group_3"><path d="M29.4 73.3l23.7 22.4 47.5-47.5-7.9-7.9-39.6 39.6L37.3 64z"/></clipPath></defs><path clip-path="url(#clip_frame6_path)" d="M17.5 34.5v-15h90v15z" fill="#788b9c" stroke="#788b9c" stroke-width="2" stroke-miterlimit="10"/><path clip-path="url(#clip_frame6_path_1)" d="M17.5 34.5h90v71h-90z" fill="#ffffff" stroke="#788b9c" stroke-width="2" stroke-miterlimit="10"/><path clip-path="url(#clip_frame6_path_2)" d="M35 52h3v3h-3zm0 30h3v3h-3zm0-10h3v3h-3zm0-10h3v3h-3zm10-10h45v3H45zm0 10h45v3H45zm0 20h45v3H45zm0-10h45v3H45z" fill="#8bb7f0"/><g clip-path="url(#clip_frame6_group_1)"><g clip-path="url(#clip_frame6_group_2)"><path d="M36.9 63.9l-7.8 7.8L5.4 49.3l7.9-9.3 15.8 15.9z" fill="#bae0bd"/></g><g clip-path="url(#clip_frame6_group_3)"><path d="M11.9 136.9l39.7-39.7-7.9-7.9-39.6 39.6z" fill="#bae0bd"/></g></g><g clip-path="url(#clip_frame6_group)"><path d="M86.7 49.8c-.1-.4-.2-1.5.4-2.8 1-2.3 3.5-2.9 3.9-2.9 2.1-.5 3.8.4 4.7.9.7.4 2.1 1.1 2.7 2.6.3.6.4 1.3.5 2.1.1 1.1.2 1.6 0 2.3-.3 1-1 1.7-1.4 2-.3.3-.7.6-1.3.9 0 0-.8.4-1.8.4-2 .1-7.1-1.7-7.7-5.5z" fill="#f78f8f" stroke="#c74343"/><path d="M57.3 75.3h4.8l3.7 4.4v5l-7.3 3.6-5-4.5 3.8-8.5z" fill="#f5ce85" stroke="#997d47"/><path d="M50 91l3.4-7.3 5 4.5L50 91z" fill="#36404d" stroke="#36404d"/><path d="M58.8 75.9l-1-.3c-.5-.1-.6-.7-.2-1L80.9 53c.2-.2.6-.2.9 0l7.8 7.7c.2.2.2.6 0 .8L66.7 84.2c-.3.3-.8.2-1-.2l-.6-1.4v-.1l-.6-1.1-.9-1.5s0-.1-.1-.1l-1.4-1.5-.7-.8-.1-.1-1.9-1.2-.5-.2-.1-.1zm.6.4l23.9-21.8M62.1 78.4l23.5-21.6M64.4 81.5l23.7-22.4" fill="#ffeea3" stroke="#ba9b48" stroke-width="2"/><path d="M86.8 48.1l8 7.2c.4.4.4.9 0 1.3l-4.2 4.1c-.4.3-.9.3-1.3 0l-7.8-7.4c-.4-.4-.4-.9 0-1.3l4.1-3.8c.3-.4.9-.4 1.2-.1z" fill="#d9e7f5" stroke="#788b9c"/></g></g><g transform="translate(875)"><defs><clipPath id="clip_frame7_path"><path d="M0 0h125v125H0z"/></clipPath><clipPath id="clip_frame7_path_1"><path d="M0 0h125v125H0z"/></clipPath><clipPath id="clip_frame7_path_2"><path d="M0 0h125v125H0z"/></clipPath><clipPath id="clip_frame7_group_1"><path d="M0 0h125v125H0z"/></clipPath><clipPath id="clip_frame7_group"><path d="M0 0h125v125H0z"/></clipPath><clipPath id="clip_frame7_group_2"><path d="M29.4 73.3l23.7 22.4 47.5-47.5-7.9-7.9-39.6 39.6L37.3 64z"/></clipPath><clipPath id="clip_frame7_group_3"><path d="M29.4 73.3l23.7 22.4 47.5-47.5-7.9-7.9-39.6 39.6L37.3 64z"/></clipPath></defs><path clip-path="url(#clip_frame7_path)" d="M17.5 34.5v-15h90v15z" fill="#788b9c" stroke="#788b9c" stroke-width="2" stroke-miterlimit="10"/><path clip-path="url(#clip_frame7_path_1)" d="M17.5 34.5h90v71h-90z" fill="#ffffff" stroke="#788b9c" stroke-width="2" stroke-miterlimit="10"/><path clip-path="url(#clip_frame7_path_2)" d="M35 52h3v3h-3zm0 30h3v3h-3zm0-10h3v3h-3zm0-10h3v3h-3zm10-10h45v3H45zm0 10h45v3H45zm0 20h45v3H45zm0-10h45v3H45z" fill="#8bb7f0"/><g clip-path="url(#clip_frame7_group_1)"><g clip-path="url(#clip_frame7_group_2)"><path d="M36.9 63.9l-7.8 7.8L5.4 49.3l7.9-9.3 15.8 15.9z" fill="#bae0bd"/></g><g clip-path="url(#clip_frame7_group_3)"><path d="M11.9 136.9l39.7-39.7-7.9-7.9-39.6 39.6z" fill="#bae0bd"/></g></g><g clip-path="url(#clip_frame7_group)"><path d="M83.866667 46.3c-.1-.4-.2-1.5.4-2.8 1-2.3 3.5-2.9 3.9-2.9 2.1-.5 3.8.4 4.7.9.7.4 2.1 1.1 2.7 2.6.3.6.4 1.3.5 2.1.1 1.1.2 1.6 0 2.3-.3 1-1 1.7-1.4 2-.3.3-.7.6-1.3.9 0 0-.8.4-1.8.4-2 .1-7.1-1.7-7.7-5.5z" fill="#f78f8f" stroke="#c74343"/><path d="M54.466667 71.8h4.8l3.7 4.4v5l-7.3 3.6-5-4.5 3.8-8.5z" fill="#f5ce85" stroke="#997d47"/><path d="M47.166667 87.5l3.4-7.3 5 4.5-8.4 2.8z" fill="#36404d" stroke="#36404d"/><path d="M55.966667 72.4l-1-.3c-.5-.1-.6-.7-.2-1l23.3-21.6c.2-.2.6-.2.9 0l7.8 7.7c.2.2.2.6 0 .8l-22.9 22.7c-.3.3-.8.2-1-.2l-.6-1.4V79l-.6-1.1-.9-1.5s0-.1-.1-.1l-1.4-1.5-.7-.8-.1-.1-1.9-1.2-.5-.2-.1-.1zm.6.4l23.9-21.8m-21.2 23.9l23.5-21.6m-21.2 24.7l23.7-22.4" fill="#ffeea3" stroke="#ba9b48" stroke-width="2"/><path d="M83.966667 44.6l8 7.2c.4.4.4.9 0 1.3l-4.2 4.1c-.4.3-.9.3-1.3 0l-7.8-7.4c-.4-.4-.4-.9 0-1.3l4.1-3.8c.3-.4.9-.4 1.2-.1z" fill="#d9e7f5" stroke="#788b9c"/></g></g><g transform="translate(1000)"><defs><clipPath id="clip_frame8_path"><path d="M0 0h125v125H0z"/></clipPath><clipPath id="clip_frame8_path_1"><path d="M0 0h125v125H0z"/></clipPath><clipPath id="clip_frame8_path_2"><path d="M0 0h125v125H0z"/></clipPath><clipPath id="clip_frame8_group_1"><path d="M0 0h125v125H0z"/></clipPath><clipPath id="clip_frame8_group"><path d="M0 0h125v125H0z"/></clipPath><clipPath id="clip_frame8_group_2"><path d="M29.4 73.3l23.7 22.4 47.5-47.5-7.9-7.9-39.6 39.6L37.3 64z"/></clipPath><clipPath id="clip_frame8_group_3"><path d="M29.4 73.3l23.7 22.4 47.5-47.5-7.9-7.9-39.6 39.6L37.3 64z"/></clipPath></defs><path clip-path="url(#clip_frame8_path)" d="M17.5 34.5v-15h90v15z" fill="#788b9c" stroke="#788b9c" stroke-width="2" stroke-miterlimit="10"/><path clip-path="url(#clip_frame8_path_1)" d="M17.5 34.5h90v71h-90z" fill="#ffffff" stroke="#788b9c" stroke-width="2" stroke-miterlimit="10"/><path clip-path="url(#clip_frame8_path_2)" d="M35 52h3v3h-3zm0 30h3v3h-3zm0-10h3v3h-3zm0-10h3v3h-3zm10-10h45v3H45zm0 10h45v3H45zm0 20h45v3H45zm0-10h45v3H45z" fill="#8bb7f0"/><g clip-path="url(#clip_frame8_group_1)"><g clip-path="url(#clip_frame8_group_2)"><path d="M36.9 63.9l-7.8 7.8L5.4 49.3l7.9-9.3 15.8 15.9z" fill="#bae0bd"/></g><g clip-path="url(#clip_frame8_group_3)"><path d="M11.9 136.9l39.7-39.7-7.9-7.9-39.6 39.6z" fill="#bae0bd"/></g></g><g clip-path="url(#clip_frame8_group)"><path d="M81.033333 42.8c-.1-.4-.2-1.5.4-2.8 1-2.3 3.5-2.9 3.9-2.9 2.1-.5 3.8.4 4.7.9.7.4 2.1 1.1 2.7 2.6.3.6.4 1.3.5 2.1.1 1.1.2 1.6 0 2.3-.3 1-1 1.7-1.4 2-.3.3-.7.6-1.3.9 0 0-.8.4-1.8.4-2 .1-7.1-1.7-7.7-5.5z" fill="#f78f8f" stroke="#c74343"/><path d="M51.633333 68.3h4.8l3.7 4.4v5l-7.3 3.6-5-4.5 3.8-8.5z" fill="#f5ce85" stroke="#997d47"/><path d="M44.333333 84l3.4-7.3 5 4.5-8.4 2.8z" fill="#36404d" stroke="#36404d"/><path d="M53.133333 68.9l-1-.3c-.5-.1-.6-.7-.2-1l23.3-21.6c.2-.2.6-.2.9 0l7.8 7.7c.2.2.2.6 0 .8l-22.9 22.7c-.3.3-.8.2-1-.2l-.6-1.4v-.1l-.6-1.1-.9-1.5s0-.1-.1-.1l-1.4-1.5-.7-.8-.1-.1-1.9-1.2-.5-.2-.1-.1zm.6.4l23.9-21.8m-21.2 23.9l23.5-21.6m-21.2 24.7l23.7-22.4" fill="#ffeea3" stroke="#ba9b48" stroke-width="2"/><path d="M81.133333 41.1l8 7.2c.4.4.4.9 0 1.3l-4.2 4.1c-.4.3-.9.3-1.3 0l-7.8-7.4c-.4-.4-.4-.9 0-1.3l4.1-3.8c.3-.4.9-.4 1.2-.1z" fill="#d9e7f5" stroke="#788b9c"/></g></g><g transform="translate(1125)"><defs><clipPath id="clip_frame9_path"><path d="M0 0h125v125H0z"/></clipPath><clipPath id="clip_frame9_path_1"><path d="M0 0h125v125H0z"/></clipPath><clipPath id="clip_frame9_path_2"><path d="M0 0h125v125H0z"/></clipPath><clipPath id="clip_frame9_group_1"><path d="M0 0h125v125H0z"/></clipPath><clipPath id="clip_frame9_group"><path d="M0 0h125v125H0z"/></clipPath><clipPath id="clip_frame9_group_2"><path d="M29.4 73.3l23.7 22.4 47.5-47.5-7.9-7.9-39.6 39.6L37.3 64z"/></clipPath><clipPath id="clip_frame9_group_3"><path d="M29.4 73.3l23.7 22.4 47.5-47.5-7.9-7.9-39.6 39.6L37.3 64z"/></clipPath></defs><path clip-path="url(#clip_frame9_path)" d="M17.5 34.5v-15h90v15z" fill="#788b9c" stroke="#788b9c" stroke-width="2" stroke-miterlimit="10"/><path clip-path="url(#clip_frame9_path_1)" d="M17.5 34.5h90v71h-90z" fill="#ffffff" stroke="#788b9c" stroke-width="2" stroke-miterlimit="10"/><path clip-path="url(#clip_frame9_path_2)" d="M35 52h3v3h-3zm0 30h3v3h-3zm0-10h3v3h-3zm0-10h3v3h-3zm10-10h45v3H45zm0 10h45v3H45zm0 20h45v3H45zm0-10h45v3H45z" fill="#8bb7f0"/><g clip-path="url(#clip_frame9_group_1)"><g clip-path="url(#clip_frame9_group_2)"><path d="M36.9 63.9l-7.8 7.8L5.4 49.3l7.9-9.3 15.8 15.9z" fill="#bae0bd"/></g><g clip-path="url(#clip_frame9_group_3)"><path d="M11.9 136.9l39.7-39.7-7.9-7.9-39.6 39.6z" fill="#bae0bd"/></g></g><g clip-path="url(#clip_frame9_group)"><path d="M78.2 39.3c-.1-.4-.2-1.5.4-2.8 1-2.3 3.5-2.9 3.9-2.9 2.1-.5 3.8.4 4.7.9.7.4 2.1 1.1 2.7 2.6.3.6.4 1.3.5 2.1.1 1.1.2 1.6 0 2.3-.3 1-1 1.7-1.4 2-.3.3-.7.6-1.3.9 0 0-.8.4-1.8.4-2 .1-7.1-1.7-7.7-5.5z" fill="#f78f8f" stroke="#c74343"/><path d="M48.8 64.8h4.8l3.7 4.4v5L50 77.8l-5-4.5 3.8-8.5z" fill="#f5ce85" stroke="#997d47"/><path d="M41.5 80.5l3.4-7.3 5 4.5-8.4 2.8z" fill="#36404d" stroke="#36404d"/><path d="M50.3 65.4l-1-.3c-.5-.1-.6-.7-.2-1l23.3-21.6c.2-.2.6-.2.9 0l7.8 7.7c.2.2.2.6 0 .8L58.2 73.7c-.3.3-.8.2-1-.2l-.6-1.4V72l-.6-1.1-.9-1.5s0-.1-.1-.1l-1.4-1.5-.7-.8-.1-.1-1.9-1.2-.5-.2-.1-.1zm.6.4L74.8 44M53.6 67.9l23.5-21.6M55.9 71l23.7-22.4" fill="#ffeea3" stroke="#ba9b48" stroke-width="2"/><path d="M78.3 37.6l8 7.2c.4.4.4.9 0 1.3l-4.2 4.1c-.4.3-.9.3-1.3 0L73 42.8c-.4-.4-.4-.9 0-1.3l4.1-3.8c.3-.4.9-.4 1.2-.1z" fill="#d9e7f5" stroke="#788b9c"/></g></g><g transform="translate(1250)"><defs><clipPath id="clip_frame10_path"><path d="M0 0h125v125H0z"/></clipPath><clipPath id="clip_frame10_path_1"><path d="M0 0h125v125H0z"/></clipPath><clipPath id="clip_frame10_path_2"><path d="M0 0h125v125H0z"/></clipPath><clipPath id="clip_frame10_group_1"><path d="M0 0h125v125H0z"/></clipPath><clipPath id="clip_frame10_group"><path d="M0 0h125v125H0z"/></clipPath><clipPath id="clip_frame10_group_2"><path d="M29.4 73.3l23.7 22.4 47.5-47.5-7.9-7.9-39.6 39.6L37.3 64z"/></clipPath><clipPath id="clip_frame10_group_3"><path d="M29.4 73.3l23.7 22.4 47.5-47.5-7.9-7.9-39.6 39.6L37.3 64z"/></clipPath></defs><path clip-path="url(#clip_frame10_path)" d="M17.5 34.5v-15h90v15z" fill="#788b9c" stroke="#788b9c" stroke-width="2" stroke-miterlimit="10"/><path clip-path="url(#clip_frame10_path_1)" d="M17.5 34.5h90v71h-90z" fill="#ffffff" stroke="#788b9c" stroke-width="2" stroke-miterlimit="10"/><path clip-path="url(#clip_frame10_path_2)" d="M35 52h3v3h-3zm0 30h3v3h-3zm0-10h3v3h-3zm0-10h3v3h-3zm10-10h45v3H45zm0 10h45v3H45zm0 20h45v3H45zm0-10h45v3H45z" fill="#8bb7f0"/><g clip-path="url(#clip_frame10_group_1)"><g clip-path="url(#clip_frame10_group_2)"><path d="M36.9 63.9l-7.8 7.8L5.4 49.3l7.9-9.3 15.8 15.9z" fill="#bae0bd"/></g><g clip-path="url(#clip_frame10_group_3)"><path d="M11.9 136.9l39.7-39.7-7.9-7.9-39.6 39.6z" fill="#bae0bd"/></g></g><g clip-path="url(#clip_frame10_group)"><path d="M75.366667 35.8c-.1-.4-.2-1.5.4-2.8 1-2.3 3.5-2.9 3.9-2.9 2.1-.5 3.8.4 4.7.9.7.4 2.1 1.1 2.7 2.6.3.6.4 1.3.5 2.1.1 1.1.2 1.6 0 2.3-.3 1-1 1.7-1.4 2-.3.3-.7.6-1.3.9 0 0-.8.4-1.8.4-2 .1-7.1-1.7-7.7-5.5z" fill="#f78f8f" stroke="#c74343"/><path d="M45.966667 61.3h4.8l3.7 4.4v5l-7.3 3.6-5-4.5 3.8-8.5z" fill="#f5ce85" stroke="#997d47"/><path d="M38.666667 77l3.4-7.3 5 4.5-8.4 2.8z" fill="#36404d" stroke="#36404d"/><path d="M47.466667 61.9l-1-.3c-.5-.1-.6-.7-.2-1l23.3-21.6c.2-.2.6-.2.9 0l7.8 7.7c.2.2.2.6 0 .8l-22.9 22.7c-.3.3-.8.2-1-.2l-.6-1.4v-.1l-.6-1.1-.9-1.5s0-.1-.1-.1l-1.4-1.5-.7-.8-.1-.1-1.9-1.2-.5-.2-.1-.1zm.6.4l23.9-21.8m-21.2 23.9l23.5-21.6m-21.2 24.7l23.7-22.4" fill="#ffeea3" stroke="#ba9b48" stroke-width="2"/><path d="M75.466667 34.1l8 7.2c.4.4.4.9 0 1.3l-4.2 4.1c-.4.3-.9.3-1.3 0l-7.8-7.4c-.4-.4-.4-.9 0-1.3l4.1-3.8c.3-.4.9-.4 1.2-.1z" fill="#d9e7f5" stroke="#788b9c"/></g></g><g transform="translate(1375)"><defs><clipPath id="clip_frame11_path"><path d="M0 0h125v125H0z"/></clipPath><clipPath id="clip_frame11_path_1"><path d="M0 0h125v125H0z"/></clipPath><clipPath id="clip_frame11_path_2"><path d="M0 0h125v125H0z"/></clipPath><clipPath id="clip_frame11_group_1"><path d="M0 0h125v125H0z"/></clipPath><clipPath id="clip_frame11_group"><path d="M0 0h125v125H0z"/></clipPath><clipPath id="clip_frame11_group_2"><path d="M29.4 73.3l23.7 22.4 47.5-47.5-7.9-7.9-39.6 39.6L37.3 64z"/></clipPath><clipPath id="clip_frame11_group_3"><path d="M29.4 73.3l23.7 22.4 47.5-47.5-7.9-7.9-39.6 39.6L37.3 64z"/></clipPath></defs><path clip-path="url(#clip_frame11_path)" d="M17.5 34.5v-15h90v15z" fill="#788b9c" stroke="#788b9c" stroke-width="2" stroke-miterlimit="10"/><path clip-path="url(#clip_frame11_path_1)" d="M17.5 34.5h90v71h-90z" fill="#ffffff" stroke="#788b9c" stroke-width="2" stroke-miterlimit="10"/><path clip-path="url(#clip_frame11_path_2)" d="M35 52h3v3h-3zm0 30h3v3h-3zm0-10h3v3h-3zm0-10h3v3h-3zm10-10h45v3H45zm0 10h45v3H45zm0 20h45v3H45zm0-10h45v3H45z" fill="#8bb7f0"/><g clip-path="url(#clip_frame11_group_1)"><g clip-path="url(#clip_frame11_group_2)"><path d="M36.9 63.9l-7.8 7.8L5.4 49.3l7.9-9.3 15.8 15.9z" fill="#bae0bd"/></g><g clip-path="url(#clip_frame11_group_3)"><path d="M11.9 136.9l39.7-39.7-7.9-7.9-39.6 39.6z" fill="#bae0bd"/></g></g><g clip-path="url(#clip_frame11_group)"><path d="M72.533333 32.3c-.1-.4-.2-1.5.4-2.8 1-2.3 3.5-2.9 3.9-2.9 2.1-.5 3.8.4 4.7.9.7.4 2.1 1.1 2.7 2.6.3.6.4 1.3.5 2.1.1 1.1.2 1.6 0 2.3-.3 1-1 1.7-1.4 2-.3.3-.7.6-1.3.9 0 0-.8.4-1.8.4-2 .1-7.1-1.7-7.7-5.5z" fill="#f78f8f" stroke="#c74343"/><path d="M43.133333 57.8h4.8l3.7 4.4v5l-7.3 3.6-5-4.5 3.8-8.5z" fill="#f5ce85" stroke="#997d47"/><path d="M35.833333 73.5l3.4-7.3 5 4.5-8.4 2.8z" fill="#36404d" stroke="#36404d"/><path d="M44.633333 58.4l-1-.3c-.5-.1-.6-.7-.2-1l23.3-21.6c.2-.2.6-.2.9 0l7.8 7.7c.2.2.2.6 0 .8l-22.9 22.7c-.3.3-.8.2-1-.2l-.6-1.4V65l-.6-1.1-.9-1.5s0-.1-.1-.1l-1.4-1.5-.7-.8-.1-.1-1.9-1.2-.5-.2-.1-.1zm.6.4l23.9-21.8m-21.2 23.9l23.5-21.6m-21.2 24.7l23.7-22.4" fill="#ffeea3" stroke="#ba9b48" stroke-width="2"/><path d="M72.633333 30.6l8 7.2c.4.4.4.9 0 1.3l-4.2 4.1c-.4.3-.9.3-1.3 0l-7.8-7.4c-.4-.4-.4-.9 0-1.3l4.1-3.8c.3-.4.9-.4 1.2-.1z" fill="#d9e7f5" stroke="#788b9c"/></g></g><g transform="translate(1500)"><defs><clipPath id="clip_frame12_path"><path d="M0 0h125v125H0z"/></clipPath><clipPath id="clip_frame12_path_1"><path d="M0 0h125v125H0z"/></clipPath><clipPath id="clip_frame12_path_2"><path d="M0 0h125v125H0z"/></clipPath><clipPath id="clip_frame12_group_1"><path d="M0 0h125v125H0z"/></clipPath><clipPath id="clip_frame12_group"><path d="M0 0h125v125H0z"/></clipPath><clipPath id="clip_frame12_group_2"><path d="M29.4 73.3l23.7 22.4 47.5-47.5-7.9-7.9-39.6 39.6L37.3 64z"/></clipPath><clipPath id="clip_frame12_group_3"><path d="M29.4 73.3l23.7 22.4 47.5-47.5-7.9-7.9-39.6 39.6L37.3 64z"/></clipPath></defs><path clip-path="url(#clip_frame12_path)" d="M17.5 34.5v-15h90v15z" fill="#788b9c" stroke="#788b9c" stroke-width="2" stroke-miterlimit="10"/><path clip-path="url(#clip_frame12_path_1)" d="M17.5 34.5h90v71h-90z" fill="#ffffff" stroke="#788b9c" stroke-width="2" stroke-miterlimit="10"/><path clip-path="url(#clip_frame12_path_2)" d="M35 52h3v3h-3zm0 30h3v3h-3zm0-10h3v3h-3zm0-10h3v3h-3zm10-10h45v3H45zm0 10h45v3H45zm0 20h45v3H45zm0-10h45v3H45z" fill="#8bb7f0"/><g clip-path="url(#clip_frame12_group_1)"><g clip-path="url(#clip_frame12_group_2)"><path d="M36.9 63.9l-7.8 7.8L5.4 49.3l7.9-9.3 15.8 15.9z" fill="#bae0bd"/></g><g clip-path="url(#clip_frame12_group_3)"><path d="M11.9 136.9l39.7-39.7-7.9-7.9-39.6 39.6z" fill="#bae0bd"/></g></g><g clip-path="url(#clip_frame12_group)"><path d="M69.7 28.8c-.1-.4-.2-1.5.4-2.8 1-2.3 3.5-2.9 3.9-2.9 2.1-.5 3.8.4 4.7.9.7.4 2.1 1.1 2.7 2.6.3.6.4 1.3.5 2.1.1 1.1.2 1.6 0 2.3-.3 1-1 1.7-1.4 2-.3.3-.7.6-1.3.9 0 0-.8.4-1.8.4-2 .1-7.1-1.7-7.7-5.5z" fill="#f78f8f" stroke="#c74343"/><path d="M40.3 54.3h4.8l3.7 4.4v5l-7.3 3.6-5-4.5 3.8-8.5z" fill="#f5ce85" stroke="#997d47"/><path d="M33 70l3.4-7.3 5 4.5L33 70z" fill="#36404d" stroke="#36404d"/><path d="M41.8 54.9l-1-.3c-.5-.1-.6-.7-.2-1L63.9 32c.2-.2.6-.2.9 0l7.8 7.7c.2.2.2.6 0 .8L49.7 63.2c-.3.3-.8.2-1-.2l-.6-1.4v-.1l-.6-1.1-.9-1.5s0-.1-.1-.1l-1.4-1.5-.7-.8-.1-.1-1.9-1.2-.5-.2-.1-.1zm.6.4l23.9-21.8M45.1 57.4l23.5-21.6M47.4 60.5l23.7-22.4" fill="#ffeea3" stroke="#ba9b48" stroke-width="2"/><path d="M69.8 27.1l8 7.2c.4.4.4.9 0 1.3l-4.2 4.1c-.4.3-.9.3-1.3 0l-7.8-7.4c-.4-.4-.4-.9 0-1.3l4.1-3.8c.3-.4.9-.4 1.2-.1z" fill="#d9e7f5" stroke="#788b9c"/></g></g><g transform="translate(1625)"><defs><clipPath id="clip_frame13_path"><path d="M0 0h125v125H0z"/></clipPath><clipPath id="clip_frame13_path_1"><path d="M0 0h125v125H0z"/></clipPath><clipPath id="clip_frame13_path_2"><path d="M0 0h125v125H0z"/></clipPath><clipPath id="clip_frame13_group_1"><path d="M0 0h125v125H0z"/></clipPath><clipPath id="clip_frame13_group"><path d="M0 0h125v125H0z"/></clipPath><clipPath id="clip_frame13_group_2"><path d="M29.4 73.3l23.7 22.4 47.5-47.5-7.9-7.9-39.6 39.6L37.3 64z"/></clipPath><clipPath id="clip_frame13_group_3"><path d="M29.4 73.3l23.7 22.4 47.5-47.5-7.9-7.9-39.6 39.6L37.3 64z"/></clipPath></defs><path clip-path="url(#clip_frame13_path)" d="M17.5 34.5v-15h90v15z" fill="#788b9c" stroke="#788b9c" stroke-width="2" stroke-miterlimit="10"/><path clip-path="url(#clip_frame13_path_1)" d="M17.5 34.5h90v71h-90z" fill="#ffffff" stroke="#788b9c" stroke-width="2" stroke-miterlimit="10"/><path clip-path="url(#clip_frame13_path_2)" d="M35 52h3v3h-3zm0 30h3v3h-3zm0-10h3v3h-3zm0-10h3v3h-3zm10-10h45v3H45zm0 10h45v3H45zm0 20h45v3H45zm0-10h45v3H45z" fill="#8bb7f0" fill-opacity=".939394"/><g clip-path="url(#clip_frame13_group_1)"><g clip-path="url(#clip_frame13_group_2)"><path d="M40.1 67.1l-7.8 7.8L8.6 52.5l7.9-9.3 15.8 15.9z" fill="#bae0bd"/></g><g clip-path="url(#clip_frame13_group_3)"><path d="M11.9 136.9l39.7-39.7-7.9-7.9-39.6 39.6z" fill="#bae0bd"/></g></g><g clip-path="url(#clip_frame13_group)"><path d="M72.366667 31.066667c-.1-.4-.2-1.5.4-2.8 1-2.3 3.5-2.9 3.9-2.9 2.1-.5 3.8.4 4.7.9.7.4 2.1 1.1 2.7 2.6.3.6.4 1.3.5 2.1.1 1.1.2 1.6 0 2.3-.3 1-1 1.7-1.4 2-.3.3-.7.6-1.3.9 0 0-.8.4-1.8.4-2 .1-7.1-1.7-7.7-5.5z" fill="#f78f8f" stroke="#c74343"/><path d="M42.966667 56.566667h4.8l3.7 4.4v5l-7.3 3.6-5-4.5 3.8-8.5z" fill="#f5ce85" stroke="#997d47"/><path d="M35.666667 72.266667l3.4-7.3 5 4.5-8.4 2.8z" fill="#36404d" stroke="#36404d"/><path d="M44.466667 57.166667l-1-.3c-.5-.1-.6-.7-.2-1l23.3-21.6c.2-.2.6-.2.9 0l7.8 7.7c.2.2.2.6 0 .8l-22.9 22.7c-.3.3-.8.2-1-.2l-.6-1.4v-.1l-.6-1.1-.9-1.5s0-.1-.1-.1l-1.4-1.5-.7-.8-.1-.1-1.9-1.2-.5-.2-.1-.1zm.6.4l23.9-21.8m-21.2 23.9l23.5-21.6m-21.2 24.7l23.7-22.4" fill="#ffeea3" stroke="#ba9b48" stroke-width="2"/><path d="M72.466667 29.366667l8 7.2c.4.4.4.9 0 1.3l-4.2 4.1c-.4.3-.9.3-1.3 0l-7.8-7.4c-.4-.4-.4-.9 0-1.3l4.1-3.8c.3-.4.9-.4 1.2-.1z" fill="#d9e7f5" stroke="#788b9c"/></g></g><g transform="translate(1750)"><defs><clipPath id="clip_frame14_path"><path d="M0 0h125v125H0z"/></clipPath><clipPath id="clip_frame14_path_1"><path d="M0 0h125v125H0z"/></clipPath><clipPath id="clip_frame14_path_2"><path d="M0 0h125v125H0z"/></clipPath><clipPath id="clip_frame14_group_1"><path d="M0 0h125v125H0z"/></clipPath><clipPath id="clip_frame14_group"><path d="M0 0h125v125H0z"/></clipPath><clipPath id="clip_frame14_group_2"><path d="M29.4 73.3l23.7 22.4 47.5-47.5-7.9-7.9-39.6 39.6L37.3 64z"/></clipPath><clipPath id="clip_frame14_group_3"><path d="M29.4 73.3l23.7 22.4 47.5-47.5-7.9-7.9-39.6 39.6L37.3 64z"/></clipPath></defs><path clip-path="url(#clip_frame14_path)" d="M17.5 34.5v-15h90v15z" fill="#788b9c" stroke="#788b9c" stroke-width="2" stroke-miterlimit="10"/><path clip-path="url(#clip_frame14_path_1)" d="M17.5 34.5h90v71h-90z" fill="#ffffff" stroke="#788b9c" stroke-width="2" stroke-miterlimit="10"/><path clip-path="url(#clip_frame14_path_2)" d="M35 52h3v3h-3zm0 30h3v3h-3zm0-10h3v3h-3zm0-10h3v3h-3zm10-10h45v3H45zm0 10h45v3H45zm0 20h45v3H45zm0-10h45v3H45z" fill="#8bb7f0" fill-opacity=".878788"/><g clip-path="url(#clip_frame14_group_1)"><g clip-path="url(#clip_frame14_group_2)"><path d="M43.3 70.3l-7.8 7.8-23.7-22.4 7.9-9.3 15.8 15.9z" fill="#bae0bd"/></g><g clip-path="url(#clip_frame14_group_3)"><path d="M11.9 136.9l39.7-39.7-7.9-7.9-39.6 39.6z" fill="#bae0bd"/></g></g><g clip-path="url(#clip_frame14_group)"><path d="M75.033333 33.333333c-.1-.4-.2-1.5.4-2.8 1-2.3 3.5-2.9 3.9-2.9 2.1-.5 3.8.4 4.7.9.7.4 2.1 1.1 2.7 2.6.3.6.4 1.3.5 2.1.1 1.1.2 1.6 0 2.3-.3 1-1 1.7-1.4 2-.3.3-.7.6-1.3.9 0 0-.8.4-1.8.4-2 .1-7.1-1.7-7.7-5.5z" fill="#f78f8f" stroke="#c74343"/><path d="M45.633333 58.833333h4.8l3.7 4.4v5l-7.3 3.6-5-4.5 3.8-8.5z" fill="#f5ce85" stroke="#997d47"/><path d="M38.333333 74.533333l3.4-7.3 5 4.5-8.4 2.8z" fill="#36404d" stroke="#36404d"/><path d="M47.133333 59.433333l-1-.3c-.5-.1-.6-.7-.2-1l23.3-21.6c.2-.2.6-.2.9 0l7.8 7.7c.2.2.2.6 0 .8l-22.9 22.7c-.3.3-.8.2-1-.2l-.6-1.4v-.1l-.6-1.1-.9-1.5s0-.1-.1-.1l-1.4-1.5-.7-.8-.1-.1-1.9-1.2-.5-.2-.1-.1zm.6.4l23.9-21.8m-21.2 23.9l23.5-21.6m-21.2 24.7l23.7-22.4" fill="#ffeea3" stroke="#ba9b48" stroke-width="2"/><path d="M75.133333 31.633333l8 7.2c.4.4.4.9 0 1.3l-4.2 4.1c-.4.3-.9.3-1.3 0l-7.8-7.4c-.4-.4-.4-.9 0-1.3l4.1-3.8c.3-.4.9-.4 1.2-.1z" fill="#d9e7f5" stroke="#788b9c"/></g></g><g transform="translate(1875)"><defs><clipPath id="clip_frame15_path"><path d="M0 0h125v125H0z"/></clipPath><clipPath id="clip_frame15_path_1"><path d="M0 0h125v125H0z"/></clipPath><clipPath id="clip_frame15_path_2"><path d="M0 0h125v125H0z"/></clipPath><clipPath id="clip_frame15_group_1"><path d="M0 0h125v125H0z"/></clipPath><clipPath id="clip_frame15_group"><path d="M0 0h125v125H0z"/></clipPath><clipPath id="clip_frame15_group_2"><path d="M29.4 73.3l23.7 22.4 47.5-47.5-7.9-7.9-39.6 39.6L37.3 64z"/></clipPath><clipPath id="clip_frame15_group_3"><path d="M29.4 73.3l23.7 22.4 47.5-47.5-7.9-7.9-39.6 39.6L37.3 64z"/></clipPath></defs><path clip-path="url(#clip_frame15_path)" d="M17.5 34.5v-15h90v15z" fill="#788b9c" stroke="#788b9c" stroke-width="2" stroke-miterlimit="10"/><path clip-path="url(#clip_frame15_path_1)" d="M17.5 34.5h90v71h-90z" fill="#ffffff" stroke="#788b9c" stroke-width="2" stroke-miterlimit="10"/><path clip-path="url(#clip_frame15_path_2)" d="M35 52h3v3h-3zm0 30h3v3h-3zm0-10h3v3h-3zm0-10h3v3h-3zm10-10h45v3H45zm0 10h45v3H45zm0 20h45v3H45zm0-10h45v3H45z" fill="#8bb7f0" fill-opacity=".818182"/><g clip-path="url(#clip_frame15_group_1)"><g clip-path="url(#clip_frame15_group_2)"><path d="M46.5 73.5l-7.8 7.8L15 58.9l7.9-9.3 15.8 15.9z" fill="#bae0bd"/></g><g clip-path="url(#clip_frame15_group_3)"><path d="M11.9 136.9l39.7-39.7-7.9-7.9-39.6 39.6z" fill="#bae0bd"/></g></g><g clip-path="url(#clip_frame15_group)"><path d="M77.7 35.6c-.1-.4-.2-1.5.4-2.8 1-2.3 3.5-2.9 3.9-2.9 2.1-.5 3.8.4 4.7.9.7.4 2.1 1.1 2.7 2.6.3.6.4 1.3.5 2.1.1 1.1.2 1.6 0 2.3-.3 1-1 1.7-1.4 2-.3.3-.7.6-1.3.9 0 0-.8.4-1.8.4-2 .1-7.1-1.7-7.7-5.5z" fill="#f78f8f" stroke="#c74343"/><path d="M48.3 61.1h4.8l3.7 4.4v5l-7.3 3.6-5-4.5 3.8-8.5z" fill="#f5ce85" stroke="#997d47"/><path d="M41 76.8l3.4-7.3 5 4.5-8.4 2.8z" fill="#36404d" stroke="#36404d"/><path d="M49.8 61.7l-1-.3c-.5-.1-.6-.7-.2-1l23.3-21.6c.2-.2.6-.2.9 0l7.8 7.7c.2.2.2.6 0 .8L57.7 70c-.3.3-.8.2-1-.2l-.6-1.4v-.1l-.6-1.1-.9-1.5s0-.1-.1-.1l-1.4-1.5-.7-.8-.1-.1-1.9-1.2-.5-.2-.1-.1zm.6.4l23.9-21.8M53.1 64.2l23.5-21.6M55.4 67.3l23.7-22.4" fill="#ffeea3" stroke="#ba9b48" stroke-width="2"/><path d="M77.8 33.9l8 7.2c.4.4.4.9 0 1.3l-4.2 4.1c-.4.3-.9.3-1.3 0l-7.8-7.4c-.4-.4-.4-.9 0-1.3l4.1-3.8c.3-.4.9-.4 1.2-.1z" fill="#d9e7f5" stroke="#788b9c"/></g></g><g transform="translate(2000)"><defs><clipPath id="clip_frame16_path"><path d="M0 0h125v125H0z"/></clipPath><clipPath id="clip_frame16_path_1"><path d="M0 0h125v125H0z"/></clipPath><clipPath id="clip_frame16_path_2"><path d="M0 0h125v125H0z"/></clipPath><clipPath id="clip_frame16_group_1"><path d="M0 0h125v125H0z"/></clipPath><clipPath id="clip_frame16_group"><path d="M0 0h125v125H0z"/></clipPath><clipPath id="clip_frame16_group_2"><path d="M29.4 73.3l23.7 22.4 47.5-47.5-7.9-7.9-39.6 39.6L37.3 64z"/></clipPath><clipPath id="clip_frame16_group_3"><path d="M29.4 73.3l23.7 22.4 47.5-47.5-7.9-7.9-39.6 39.6L37.3 64z"/></clipPath></defs><path clip-path="url(#clip_frame16_path)" d="M17.5 34.5v-15h90v15z" fill="#788b9c" stroke="#788b9c" stroke-width="2" stroke-miterlimit="10"/><path clip-path="url(#clip_frame16_path_1)" d="M17.5 34.5h90v71h-90z" fill="#ffffff" stroke="#788b9c" stroke-width="2" stroke-miterlimit="10"/><path clip-path="url(#clip_frame16_path_2)" d="M35 52h3v3h-3zm0 30h3v3h-3zm0-10h3v3h-3zm0-10h3v3h-3zm10-10h45v3H45zm0 10h45v3H45zm0 20h45v3H45zm0-10h45v3H45z" fill="#8bb7f0" fill-opacity=".757576"/><g clip-path="url(#clip_frame16_group_1)"><g clip-path="url(#clip_frame16_group_2)"><path d="M49.7 76.7l-7.8 7.8-23.7-22.4 7.9-9.3 15.8 15.9z" fill="#bae0bd"/></g><g clip-path="url(#clip_frame16_group_3)"><path d="M11.9 136.9l39.7-39.7-7.9-7.9-39.6 39.6z" fill="#bae0bd"/></g></g><g clip-path="url(#clip_frame16_group)"><path d="M80.366667 37.866667c-.1-.4-.2-1.5.4-2.8 1-2.3 3.5-2.9 3.9-2.9 2.1-.5 3.8.4 4.7.9.7.4 2.1 1.1 2.7 2.6.3.6.4 1.3.5 2.1.1 1.1.2 1.6 0 2.3-.3 1-1 1.7-1.4 2-.3.3-.7.6-1.3.9 0 0-.8.4-1.8.4-2 .1-7.1-1.7-7.7-5.5z" fill="#f78f8f" stroke="#c74343"/><path d="M50.966667 63.366667h4.8l3.7 4.4v5l-7.3 3.6-5-4.5 3.8-8.5z" fill="#f5ce85" stroke="#997d47"/><path d="M43.666667 79.066667l3.4-7.3 5 4.5-8.4 2.8z" fill="#36404d" stroke="#36404d"/><path d="M52.466667 63.966667l-1-.3c-.5-.1-.6-.7-.2-1l23.3-21.6c.2-.2.6-.2.9 0l7.8 7.7c.2.2.2.6 0 .8l-22.9 22.7c-.3.3-.8.2-1-.2l-.6-1.4v-.1l-.6-1.1-.9-1.5s0-.1-.1-.1l-1.4-1.5-.7-.8-.1-.1-1.9-1.2-.5-.2-.1-.1zm.6.4l23.9-21.8m-21.2 23.9l23.5-21.6m-21.2 24.7l23.7-22.4" fill="#ffeea3" stroke="#ba9b48" stroke-width="2"/><path d="M80.466667 36.166667l8 7.2c.4.4.4.9 0 1.3l-4.2 4.1c-.4.3-.9.3-1.3 0l-7.8-7.4c-.4-.4-.4-.9 0-1.3l4.1-3.8c.3-.4.9-.4 1.2-.1z" fill="#d9e7f5" stroke="#788b9c"/></g></g><g transform="translate(2125)"><defs><clipPath id="clip_frame17_path"><path d="M0 0h125v125H0z"/></clipPath><clipPath id="clip_frame17_path_1"><path d="M0 0h125v125H0z"/></clipPath><clipPath id="clip_frame17_path_2"><path d="M0 0h125v125H0z"/></clipPath><clipPath id="clip_frame17_group_1"><path d="M0 0h125v125H0z"/></clipPath><clipPath id="clip_frame17_group"><path d="M0 0h125v125H0z"/></clipPath><clipPath id="clip_frame17_group_2"><path d="M29.4 73.3l23.7 22.4 47.5-47.5-7.9-7.9-39.6 39.6L37.3 64z"/></clipPath><clipPath id="clip_frame17_group_3"><path d="M29.4 73.3l23.7 22.4 47.5-47.5-7.9-7.9-39.6 39.6L37.3 64z"/></clipPath></defs><path clip-path="url(#clip_frame17_path)" d="M17.5 34.5v-15h90v15z" fill="#788b9c" stroke="#788b9c" stroke-width="2" stroke-miterlimit="10"/><path clip-path="url(#clip_frame17_path_1)" d="M17.5 34.5h90v71h-90z" fill="#ffffff" stroke="#788b9c" stroke-width="2" stroke-miterlimit="10"/><path clip-path="url(#clip_frame17_path_2)" d="M35 52h3v3h-3zm0 30h3v3h-3zm0-10h3v3h-3zm0-10h3v3h-3zm10-10h45v3H45zm0 10h45v3H45zm0 20h45v3H45zm0-10h45v3H45z" fill="#8bb7f0" fill-opacity=".69697"/><g clip-path="url(#clip_frame17_group_1)"><g clip-path="url(#clip_frame17_group_2)"><path d="M52.9 79.9l-7.8 7.8-23.7-22.4 7.9-9.3 15.8 15.9z" fill="#bae0bd"/></g><g clip-path="url(#clip_frame17_group_3)"><path d="M11.9 136.9l39.7-39.7-7.9-7.9-39.6 39.6z" fill="#bae0bd"/></g></g><g clip-path="url(#clip_frame17_group)"><path d="M83.033333 40.133333c-.1-.4-.2-1.5.4-2.8 1-2.3 3.5-2.9 3.9-2.9 2.1-.5 3.8.4 4.7.9.7.4 2.1 1.1 2.7 2.6.3.6.4 1.3.5 2.1.1 1.1.2 1.6 0 2.3-.3 1-1 1.7-1.4 2-.3.3-.7.6-1.3.9 0 0-.8.4-1.8.4-2 .1-7.1-1.7-7.7-5.5z" fill="#f78f8f" stroke="#c74343"/><path d="M53.633333 65.633333h4.8l3.7 4.4v5l-7.3 3.6-5-4.5 3.8-8.5z" fill="#f5ce85" stroke="#997d47"/><path d="M46.333333 81.333333l3.4-7.3 5 4.5-8.4 2.8z" fill="#36404d" stroke="#36404d"/><path d="M55.133333 66.233333l-1-.3c-.5-.1-.6-.7-.2-1l23.3-21.6c.2-.2.6-.2.9 0l7.8 7.7c.2.2.2.6 0 .8l-22.9 22.7c-.3.3-.8.2-1-.2l-.6-1.4v-.1l-.6-1.1-.9-1.5s0-.1-.1-.1l-1.4-1.5-.7-.8-.1-.1-1.9-1.2-.5-.2-.1-.1zm.6.4l23.9-21.8m-21.2 23.9l23.5-21.6m-21.2 24.7l23.7-22.4" fill="#ffeea3" stroke="#ba9b48" stroke-width="2"/><path d="M83.133333 38.433333l8 7.2c.4.4.4.9 0 1.3l-4.2 4.1c-.4.3-.9.3-1.3 0l-7.8-7.4c-.4-.4-.4-.9 0-1.3l4.1-3.8c.3-.4.9-.4 1.2-.1z" fill="#d9e7f5" stroke="#788b9c"/></g></g><g transform="translate(2250)"><defs><clipPath id="clip_frame18_path"><path d="M0 0h125v125H0z"/></clipPath><clipPath id="clip_frame18_path_1"><path d="M0 0h125v125H0z"/></clipPath><clipPath id="clip_frame18_path_2"><path d="M0 0h125v125H0z"/></clipPath><clipPath id="clip_frame18_group_1"><path d="M0 0h125v125H0z"/></clipPath><clipPath id="clip_frame18_group"><path d="M0 0h125v125H0z"/></clipPath><clipPath id="clip_frame18_group_2"><path d="M29.4 73.3l23.7 22.4 47.5-47.5-7.9-7.9-39.6 39.6L37.3 64z"/></clipPath><clipPath id="clip_frame18_group_3"><path d="M29.4 73.3l23.7 22.4 47.5-47.5-7.9-7.9-39.6 39.6L37.3 64z"/></clipPath></defs><path clip-path="url(#clip_frame18_path)" d="M17.5 34.5v-15h90v15z" fill="#788b9c" stroke="#788b9c" stroke-width="2" stroke-miterlimit="10"/><path clip-path="url(#clip_frame18_path_1)" d="M17.5 34.5h90v71h-90z" fill="#ffffff" stroke="#788b9c" stroke-width="2" stroke-miterlimit="10"/><path clip-path="url(#clip_frame18_path_2)" d="M35 52h3v3h-3zm0 30h3v3h-3zm0-10h3v3h-3zm0-10h3v3h-3zm10-10h45v3H45zm0 10h45v3H45zm0 20h45v3H45zm0-10h45v3H45z" fill="#8bb7f0" fill-opacity=".636364"/><g clip-path="url(#clip_frame18_group_1)"><g clip-path="url(#clip_frame18_group_2)"><path d="M56.1 83.1l-7.8 7.8-23.7-22.4 7.9-9.3 15.8 15.9z" fill="#bae0bd"/></g><g clip-path="url(#clip_frame18_group_3)"><path d="M11.9 136.9l39.7-39.7-7.9-7.9-39.6 39.6z" fill="#bae0bd"/></g></g><g clip-path="url(#clip_frame18_group)"><path d="M85.7 42.4c-.1-.4-.2-1.5.4-2.8 1-2.3 3.5-2.9 3.9-2.9 2.1-.5 3.8.4 4.7.9.7.4 2.1 1.1 2.7 2.6.3.6.4 1.3.5 2.1.1 1.1.2 1.6 0 2.3-.3 1-1 1.7-1.4 2-.3.3-.7.6-1.3.9 0 0-.8.4-1.8.4-2 .1-7.1-1.7-7.7-5.5z" fill="#f78f8f" stroke="#c74343"/><path d="M56.3 67.9h4.8l3.7 4.4v5l-7.3 3.6-5-4.5 3.8-8.5z" fill="#f5ce85" stroke="#997d47"/><path d="M49 83.6l3.4-7.3 5 4.5-8.4 2.8z" fill="#36404d" stroke="#36404d"/><path d="M57.8 68.5l-1-.3c-.5-.1-.6-.7-.2-1l23.3-21.6c.2-.2.6-.2.9 0l7.8 7.7c.2.2.2.6 0 .8L65.7 76.8c-.3.3-.8.2-1-.2l-.6-1.4v-.1l-.6-1.1-.9-1.5s0-.1-.1-.1l-1.4-1.5-.7-.8-.1-.1-1.9-1.2-.5-.2-.1-.1zm.6.4l23.9-21.8M61.1 71l23.5-21.6M63.4 74.1l23.7-22.4" fill="#ffeea3" stroke="#ba9b48" stroke-width="2"/><path d="M85.8 40.7l8 7.2c.4.4.4.9 0 1.3l-4.2 4.1c-.4.3-.9.3-1.3 0l-7.8-7.4c-.4-.4-.4-.9 0-1.3l4.1-3.8c.3-.4.9-.4 1.2-.1z" fill="#d9e7f5" stroke="#788b9c"/></g></g><g transform="translate(2375)"><defs><clipPath id="clip_frame19_path"><path d="M0 0h125v125H0z"/></clipPath><clipPath id="clip_frame19_path_1"><path d="M0 0h125v125H0z"/></clipPath><clipPath id="clip_frame19_path_2"><path d="M0 0h125v125H0z"/></clipPath><clipPath id="clip_frame19_group_1"><path d="M0 0h125v125H0z"/></clipPath><clipPath id="clip_frame19_group"><path d="M0 0h125v125H0z"/></clipPath><clipPath id="clip_frame19_group_2"><path d="M29.4 73.3l23.7 22.4 47.5-47.5-7.9-7.9-39.6 39.6L37.3 64z"/></clipPath><clipPath id="clip_frame19_group_3"><path d="M29.4 73.3l23.7 22.4 47.5-47.5-7.9-7.9-39.6 39.6L37.3 64z"/></clipPath></defs><path clip-path="url(#clip_frame19_path)" d="M17.5 34.5v-15h90v15z" fill="#788b9c" stroke="#788b9c" stroke-width="2" stroke-miterlimit="10"/><path clip-path="url(#clip_frame19_path_1)" d="M17.5 34.5h90v71h-90z" fill="#ffffff" stroke="#788b9c" stroke-width="2" stroke-miterlimit="10"/><path clip-path="url(#clip_frame19_path_2)" d="M35 52h3v3h-3zm0 30h3v3h-3zm0-10h3v3h-3zm0-10h3v3h-3zm10-10h45v3H45zm0 10h45v3H45zm0 20h45v3H45zm0-10h45v3H45z" fill="#8bb7f0" fill-opacity=".575758"/><g clip-path="url(#clip_frame19_group_1)"><g clip-path="url(#clip_frame19_group_2)"><path d="M59.3 86.3l-7.8 7.8-23.7-22.4 7.9-9.3 15.8 15.9z" fill="#bae0bd"/></g><g clip-path="url(#clip_frame19_group_3)"><path d="M11.9 136.9l39.7-39.7-7.9-7.9-39.6 39.6z" fill="#bae0bd"/></g></g><g clip-path="url(#clip_frame19_group)"><path d="M88.366667 44.666667c-.1-.4-.2-1.5.4-2.8 1-2.3 3.5-2.9 3.9-2.9 2.1-.5 3.8.4 4.7.9.7.4 2.1 1.1 2.7 2.6.3.6.4 1.3.5 2.1.1 1.1.2 1.6 0 2.3-.3 1-1 1.7-1.4 2-.3.3-.7.6-1.3.9 0 0-.8.4-1.8.4-2 .1-7.1-1.7-7.7-5.5z" fill="#f78f8f" stroke="#c74343"/><path d="M58.966667 70.166667h4.8l3.7 4.4v5l-7.3 3.6-5-4.5 3.8-8.5z" fill="#f5ce85" stroke="#997d47"/><path d="M51.666667 85.866667l3.4-7.3 5 4.5-8.4 2.8z" fill="#36404d" stroke="#36404d"/><path d="M60.466667 70.766667l-1-.3c-.5-.1-.6-.7-.2-1l23.3-21.6c.2-.2.6-.2.9 0l7.8 7.7c.2.2.2.6 0 .8l-22.9 22.7c-.3.3-.8.2-1-.2l-.6-1.4v-.1l-.6-1.1-.9-1.5s0-.1-.1-.1l-1.4-1.5-.7-.8-.1-.1-1.9-1.2-.5-.2-.1-.1zm.6.4l23.9-21.8m-21.2 23.9l23.5-21.6m-21.2 24.7l23.7-22.4" fill="#ffeea3" stroke="#ba9b48" stroke-width="2"/><path d="M88.466667 42.966667l8 7.2c.4.4.4.9 0 1.3l-4.2 4.1c-.4.3-.9.3-1.3 0l-7.8-7.4c-.4-.4-.4-.9 0-1.3l4.1-3.8c.3-.4.9-.4 1.2-.1z" fill="#d9e7f5" stroke="#788b9c"/></g></g><g transform="translate(2500)"><defs><clipPath id="clip_frame20_path"><path d="M0 0h125v125H0z"/></clipPath><clipPath id="clip_frame20_path_1"><path d="M0 0h125v125H0z"/></clipPath><clipPath id="clip_frame20_path_2"><path d="M0 0h125v125H0z"/></clipPath><clipPath id="clip_frame20_group_1"><path d="M0 0h125v125H0z"/></clipPath><clipPath id="clip_frame20_group"><path d="M0 0h125v125H0z"/></clipPath><clipPath id="clip_frame20_group_2"><path d="M29.4 73.3l23.7 22.4 47.5-47.5-7.9-7.9-39.6 39.6L37.3 64z"/></clipPath><clipPath id="clip_frame20_group_3"><path d="M29.4 73.3l23.7 22.4 47.5-47.5-7.9-7.9-39.6 39.6L37.3 64z"/></clipPath></defs><path clip-path="url(#clip_frame20_path)" d="M17.5 34.5v-15h90v15z" fill="#788b9c" stroke="#788b9c" stroke-width="2" stroke-miterlimit="10"/><path clip-path="url(#clip_frame20_path_1)" d="M17.5 34.5h90v71h-90z" fill="#ffffff" stroke="#788b9c" stroke-width="2" stroke-miterlimit="10"/><path clip-path="url(#clip_frame20_path_2)" d="M35 52h3v3h-3zm0 30h3v3h-3zm0-10h3v3h-3zm0-10h3v3h-3zm10-10h45v3H45zm0 10h45v3H45zm0 20h45v3H45zm0-10h45v3H45z" fill="#8bb7f0" fill-opacity=".515152"/><g clip-path="url(#clip_frame20_group_1)"><g clip-path="url(#clip_frame20_group_2)"><path d="M60.9 87.9l-7.8 7.8-23.7-22.4 7.9-9.3 15.8 15.9z" fill="#bae0bd"/></g><g clip-path="url(#clip_frame20_group_3)"><path d="M23.233333 125.566667l39.7-39.7-7.9-7.9-39.6 39.6z" fill="#bae0bd"/></g></g><g clip-path="url(#clip_frame20_group)"><path d="M92.95 42.466667c-.1-.4-.2-1.5.4-2.8 1-2.3 3.5-2.9 3.9-2.9 2.1-.5 3.8.4 4.7.9.7.4 2.1 1.1 2.7 2.6.3.6.4 1.3.5 2.1.1 1.1.2 1.6 0 2.3-.3 1-1 1.7-1.4 2-.3.3-.7.6-1.3.9 0 0-.8.4-1.8.4-2 .1-7.1-1.7-7.7-5.5z" fill="#f78f8f" stroke="#c74343"/><path d="M63.55 67.966667h4.8l3.7 4.4v5l-7.3 3.6-5-4.5 3.8-8.5z" fill="#f5ce85" stroke="#997d47"/><path d="M56.25 83.666667l3.4-7.3 5 4.5-8.4 2.8z" fill="#36404d" stroke="#36404d"/><path d="M65.05 68.566667l-1-.3c-.5-.1-.6-.7-.2-1l23.3-21.6c.2-.2.6-.2.9 0l7.8 7.7c.2.2.2.6 0 .8l-22.9 22.7c-.3.3-.8.2-1-.2l-.6-1.4v-.1l-.6-1.1-.9-1.5s0-.1-.1-.1l-1.4-1.5-.7-.8-.1-.1-1.9-1.2-.5-.2-.1-.1zm.6.4l23.9-21.8m-21.2 23.9l23.5-21.6m-21.2 24.7l23.7-22.4" fill="#ffeea3" stroke="#ba9b48" stroke-width="2"/><path d="M93.05 40.766667l8 7.2c.4.4.4.9 0 1.3l-4.2 4.1c-.4.3-.9.3-1.3 0l-7.8-7.4c-.4-.4-.4-.9 0-1.3l4.1-3.8c.3-.4.9-.4 1.2-.1z" fill="#d9e7f5" stroke="#788b9c"/></g></g><g transform="translate(2625)"><defs><clipPath id="clip_frame21_path"><path d="M0 0h125v125H0z"/></clipPath><clipPath id="clip_frame21_path_1"><path d="M0 0h125v125H0z"/></clipPath><clipPath id="clip_frame21_path_2"><path d="M0 0h125v125H0z"/></clipPath><clipPath id="clip_frame21_group_1"><path d="M0 0h125v125H0z"/></clipPath><clipPath id="clip_frame21_group"><path d="M0 0h125v125H0z"/></clipPath><clipPath id="clip_frame21_group_2"><path d="M29.4 73.3l23.7 22.4 47.5-47.5-7.9-7.9-39.6 39.6L37.3 64z"/></clipPath><clipPath id="clip_frame21_group_3"><path d="M29.4 73.3l23.7 22.4 47.5-47.5-7.9-7.9-39.6 39.6L37.3 64z"/></clipPath></defs><path clip-path="url(#clip_frame21_path)" d="M17.5 34.5v-15h90v15z" fill="#788b9c" stroke="#788b9c" stroke-width="2" stroke-miterlimit="10"/><path clip-path="url(#clip_frame21_path_1)" d="M17.5 34.5h90v71h-90z" fill="#ffffff" stroke="#788b9c" stroke-width="2" stroke-miterlimit="10"/><path clip-path="url(#clip_frame21_path_2)" d="M35 52h3v3h-3zm0 30h3v3h-3zm0-10h3v3h-3zm0-10h3v3h-3zm10-10h45v3H45zm0 10h45v3H45zm0 20h45v3H45zm0-10h45v3H45z" fill="#8bb7f0" fill-opacity=".454545"/><g clip-path="url(#clip_frame21_group_1)"><g clip-path="url(#clip_frame21_group_2)"><path d="M60.9 87.9l-7.8 7.8-23.7-22.4 7.9-9.3 15.8 15.9z" fill="#bae0bd"/></g><g clip-path="url(#clip_frame21_group_3)"><path d="M29.9 118.9l39.7-39.7-7.9-7.9-39.6 39.6z" fill="#bae0bd"/></g></g><g clip-path="url(#clip_frame21_group)"><path d="M99.45 35.8c-.1-.4-.2-1.5.4-2.8 1-2.3 3.5-2.9 3.9-2.9 2.1-.5 3.8.4 4.7.9.7.4 2.1 1.1 2.7 2.6.3.6.4 1.3.5 2.1.1 1.1.2 1.6 0 2.3-.3 1-1 1.7-1.4 2-.3.3-.7.6-1.3.9 0 0-.8.4-1.8.4-2 .1-7.1-1.7-7.7-5.5z" fill="#f78f8f" stroke="#c74343"/><path d="M70.05 61.3h4.8l3.7 4.4v5l-7.3 3.6-5-4.5 3.8-8.5z" fill="#f5ce85" stroke="#997d47"/><path d="M62.75 77l3.4-7.3 5 4.5-8.4 2.8z" fill="#36404d" stroke="#36404d"/><path d="M71.55 61.9l-1-.3c-.5-.1-.6-.7-.2-1L93.65 39c.2-.2.6-.2.9 0l7.8 7.7c.2.2.2.6 0 .8l-22.9 22.7c-.3.3-.8.2-1-.2l-.6-1.4v-.1l-.6-1.1-.9-1.5s0-.1-.1-.1l-1.4-1.5-.7-.8-.1-.1-1.9-1.2-.5-.2-.1-.1zm.6.4l23.9-21.8m-21.2 23.9l23.5-21.6m-21.2 24.7l23.7-22.4" fill="#ffeea3" stroke="#ba9b48" stroke-width="2"/><path d="M99.55 34.1l8 7.2c.4.4.4.9 0 1.3l-4.2 4.1c-.4.3-.9.3-1.3 0l-7.8-7.4c-.4-.4-.4-.9 0-1.3l4.1-3.8c.3-.4.9-.4 1.2-.1z" fill="#d9e7f5" stroke="#788b9c"/></g></g><g transform="translate(2750)"><defs><clipPath id="clip_frame22_path"><path d="M0 0h125v125H0z"/></clipPath><clipPath id="clip_frame22_path_1"><path d="M0 0h125v125H0z"/></clipPath><clipPath id="clip_frame22_path_2"><path d="M0 0h125v125H0z"/></clipPath><clipPath id="clip_frame22_group_1"><path d="M0 0h125v125H0z"/></clipPath><clipPath id="clip_frame22_group"><path d="M0 0h125v125H0z"/></clipPath><clipPath id="clip_frame22_group_2"><path d="M29.4 73.3l23.7 22.4 47.5-47.5-7.9-7.9-39.6 39.6L37.3 64z"/></clipPath><clipPath id="clip_frame22_group_3"><path d="M29.4 73.3l23.7 22.4 47.5-47.5-7.9-7.9-39.6 39.6L37.3 64z"/></clipPath></defs><path clip-path="url(#clip_frame22_path)" d="M17.5 34.5v-15h90v15z" fill="#788b9c" stroke="#788b9c" stroke-width="2" stroke-miterlimit="10"/><path clip-path="url(#clip_frame22_path_1)" d="M17.5 34.5h90v71h-90z" fill="#ffffff" stroke="#788b9c" stroke-width="2" stroke-miterlimit="10"/><path clip-path="url(#clip_frame22_path_2)" d="M35 52h3v3h-3zm0 30h3v3h-3zm0-10h3v3h-3zm0-10h3v3h-3zm10-10h45v3H45zm0 10h45v3H45zm0 20h45v3H45zm0-10h45v3H45z" fill="#8bb7f0" fill-opacity=".393939"/><g clip-path="url(#clip_frame22_group_1)"><g clip-path="url(#clip_frame22_group_2)"><path d="M60.9 87.9l-7.8 7.8-23.7-22.4 7.9-9.3 15.8 15.9z" fill="#bae0bd"/></g><g clip-path="url(#clip_frame22_group_3)"><path d="M36.566667 112.233333l39.7-39.7-7.9-7.9-39.6 39.6z" fill="#bae0bd"/></g></g><g clip-path="url(#clip_frame22_group)"><path d="M105.95 29.133333c-.1-.4-.2-1.5.4-2.8 1-2.3 3.5-2.9 3.9-2.9 2.1-.5 3.8.4 4.7.9.7.4 2.1 1.1 2.7 2.6.3.6.4 1.3.5 2.1.1 1.1.2 1.6 0 2.3-.3 1-1 1.7-1.4 2-.3.3-.7.6-1.3.9 0 0-.8.4-1.8.4-2 .1-7.1-1.7-7.7-5.5z" fill="#f78f8f" stroke="#c74343"/><path d="M76.55 54.633333h4.8l3.7 4.4v5l-7.3 3.6-5-4.5 3.8-8.5z" fill="#f5ce85" stroke="#997d47"/><path d="M69.25 70.333333l3.4-7.3 5 4.5-8.4 2.8z" fill="#36404d" stroke="#36404d"/><path d="M78.05 55.233333l-1-.3c-.5-.1-.6-.7-.2-1l23.3-21.6c.2-.2.6-.2.9 0l7.8 7.7c.2.2.2.6 0 .8l-22.9 22.7c-.3.3-.8.2-1-.2l-.6-1.4v-.1l-.6-1.1-.9-1.5s0-.1-.1-.1l-1.4-1.5-.7-.8-.1-.1-1.9-1.2-.5-.2-.1-.1zm.6.4l23.9-21.8m-21.2 23.9l23.5-21.6m-21.2 24.7l23.7-22.4" fill="#ffeea3" stroke="#ba9b48" stroke-width="2"/><path d="M106.05 27.433333l8 7.2c.4.4.4.9 0 1.3l-4.2 4.1c-.4.3-.9.3-1.3 0l-7.8-7.4c-.4-.4-.4-.9 0-1.3l4.1-3.8c.3-.4.9-.4 1.2-.1z" fill="#d9e7f5" stroke="#788b9c"/></g></g><g transform="translate(2875)"><defs><clipPath id="clip_frame23_path"><path d="M0 0h125v125H0z"/></clipPath><clipPath id="clip_frame23_path_1"><path d="M0 0h125v125H0z"/></clipPath><clipPath id="clip_frame23_path_2"><path d="M0 0h125v125H0z"/></clipPath><clipPath id="clip_frame23_group_1"><path d="M0 0h125v125H0z"/></clipPath><clipPath id="clip_frame23_group"><path d="M0 0h125v125H0z"/></clipPath><clipPath id="clip_frame23_group_2"><path d="M29.4 73.3l23.7 22.4 47.5-47.5-7.9-7.9-39.6 39.6L37.3 64z"/></clipPath><clipPath id="clip_frame23_group_3"><path d="M29.4 73.3l23.7 22.4 47.5-47.5-7.9-7.9-39.6 39.6L37.3 64z"/></clipPath></defs><path clip-path="url(#clip_frame23_path)" d="M17.5 34.5v-15h90v15z" fill="#788b9c" stroke="#788b9c" stroke-width="2" stroke-miterlimit="10"/><path clip-path="url(#clip_frame23_path_1)" d="M17.5 34.5h90v71h-90z" fill="#ffffff" stroke="#788b9c" stroke-width="2" stroke-miterlimit="10"/><path clip-path="url(#clip_frame23_path_2)" d="M35 52h3v3h-3zm0 30h3v3h-3zm0-10h3v3h-3zm0-10h3v3h-3zm10-10h45v3H45zm0 10h45v3H45zm0 20h45v3H45zm0-10h45v3H45z" fill="#8bb7f0" fill-opacity=".333333"/><g clip-path="url(#clip_frame23_group_1)"><g clip-path="url(#clip_frame23_group_2)"><path d="M60.9 87.9l-7.8 7.8-23.7-22.4 7.9-9.3 15.8 15.9z" fill="#bae0bd"/></g><g clip-path="url(#clip_frame23_group_3)"><path d="M43.233333 105.566667l39.7-39.7-7.9-7.9-39.6 39.6z" fill="#bae0bd"/></g></g><g clip-path="url(#clip_frame23_group)"><path d="M112.45 22.466667c-.1-.4-.2-1.5.4-2.8 1-2.3 3.5-2.9 3.9-2.9 2.1-.5 3.8.4 4.7.9.7.4 2.1 1.1 2.7 2.6.3.6.4 1.3.5 2.1.1 1.1.2 1.6 0 2.3-.3 1-1 1.7-1.4 2-.3.3-.7.6-1.3.9 0 0-.8.4-1.8.4-2 .1-7.1-1.7-7.7-5.5z" fill="#f78f8f" stroke="#c74343"/><path d="M83.05 47.966667h4.8l3.7 4.4v5l-7.3 3.6-5-4.5 3.8-8.5z" fill="#f5ce85" stroke="#997d47"/><path d="M75.75 63.666667l3.4-7.3 5 4.5-8.4 2.8z" fill="#36404d" stroke="#36404d"/><path d="M84.55 48.566667l-1-.3c-.5-.1-.6-.7-.2-1l23.3-21.6c.2-.2.6-.2.9 0l7.8 7.7c.2.2.2.6 0 .8l-22.9 22.7c-.3.3-.8.2-1-.2l-.6-1.4v-.1l-.6-1.1-.9-1.5s0-.1-.1-.1l-1.4-1.5-.7-.8-.1-.1-1.9-1.2-.5-.2-.1-.1zm.6.4l23.9-21.8m-21.2 23.9l23.5-21.6m-21.2 24.7l23.7-22.4" fill="#ffeea3" stroke="#ba9b48" stroke-width="2"/><path d="M112.55 20.766667l8 7.2c.4.4.4.9 0 1.3l-4.2 4.1c-.4.3-.9.3-1.3 0l-7.8-7.4c-.4-.4-.4-.9 0-1.3l4.1-3.8c.3-.4.9-.4 1.2-.1z" fill="#d9e7f5" stroke="#788b9c"/></g></g><g transform="translate(3000)"><defs><clipPath id="clip_frame24_path"><path d="M0 0h125v125H0z"/></clipPath><clipPath id="clip_frame24_path_1"><path d="M0 0h125v125H0z"/></clipPath><clipPath id="clip_frame24_path_2"><path d="M0 0h125v125H0z"/></clipPath><clipPath id="clip_frame24_group_1"><path d="M0 0h125v125H0z"/></clipPath><clipPath id="clip_frame24_group"><path d="M0 0h125v125H0z"/></clipPath><clipPath id="clip_frame24_group_2"><path d="M29.4 73.3l23.7 22.4 47.5-47.5-7.9-7.9-39.6 39.6L37.3 64z"/></clipPath><clipPath id="clip_frame24_group_3"><path d="M29.4 73.3l23.7 22.4 47.5-47.5-7.9-7.9-39.6 39.6L37.3 64z"/></clipPath></defs><path clip-path="url(#clip_frame24_path)" d="M17.5 34.5v-15h90v15z" fill="#788b9c" stroke="#788b9c" stroke-width="2" stroke-miterlimit="10"/><path clip-path="url(#clip_frame24_path_1)" d="M17.5 34.5h90v71h-90z" fill="#ffffff" stroke="#788b9c" stroke-width="2" stroke-miterlimit="10"/><path clip-path="url(#clip_frame24_path_2)" d="M35 52h3v3h-3zm0 30h3v3h-3zm0-10h3v3h-3zm0-10h3v3h-3zm10-10h45v3H45zm0 10h45v3H45zm0 20h45v3H45zm0-10h45v3H45z" fill="#8bb7f0" fill-opacity=".272727"/><g clip-path="url(#clip_frame24_group_1)"><g clip-path="url(#clip_frame24_group_2)"><path d="M60.9 87.9l-7.8 7.8-23.7-22.4 7.9-9.3 15.8 15.9z" fill="#bae0bd"/></g><g clip-path="url(#clip_frame24_group_3)"><path d="M49.9 98.9l39.7-39.7-7.9-7.9-39.6 39.6z" fill="#bae0bd"/></g></g><g clip-path="url(#clip_frame24_group)"><path d="M118.95 15.8c-.1-.4-.2-1.5.4-2.8 1-2.3 3.5-2.9 3.9-2.9 2.1-.5 3.8.4 4.7.9.7.4 2.1 1.1 2.7 2.6.3.6.4 1.3.5 2.1.1 1.1.2 1.6 0 2.3-.3 1-1 1.7-1.4 2-.3.3-.7.6-1.3.9 0 0-.8.4-1.8.4-2 .1-7.1-1.7-7.7-5.5z" fill="#f78f8f" stroke="#c74343"/><path d="M89.55 41.3h4.8l3.7 4.4v5l-7.3 3.6-5-4.5 3.8-8.5z" fill="#f5ce85" stroke="#997d47"/><path d="M82.25 57l3.4-7.3 5 4.5-8.4 2.8z" fill="#36404d" stroke="#36404d"/><path d="M91.05 41.9l-1-.3c-.5-.1-.6-.7-.2-1l23.3-21.6c.2-.2.6-.2.9 0l7.8 7.7c.2.2.2.6 0 .8l-22.9 22.7c-.3.3-.8.2-1-.2l-.6-1.4v-.1l-.6-1.1-.9-1.5s0-.1-.1-.1l-1.4-1.5-.7-.8-.1-.1-1.9-1.2-.5-.2-.1-.1zm.6.4l23.9-21.8m-21.2 23.9l23.5-21.6m-21.2 24.7l23.7-22.4" fill="#ffeea3" stroke="#ba9b48" stroke-width="2"/><path d="M119.05 14.1l8 7.2c.4.4.4.9 0 1.3l-4.2 4.1c-.4.3-.9.3-1.3 0l-7.8-7.4c-.4-.4-.4-.9 0-1.3l4.1-3.8c.3-.4.9-.4 1.2-.1z" fill="#d9e7f5" stroke="#788b9c"/></g></g><g transform="translate(3125)"><defs><clipPath id="clip_frame25_path"><path d="M0 0h125v125H0z"/></clipPath><clipPath id="clip_frame25_path_1"><path d="M0 0h125v125H0z"/></clipPath><clipPath id="clip_frame25_path_2"><path d="M0 0h125v125H0z"/></clipPath><clipPath id="clip_frame25_group_1"><path d="M0 0h125v125H0z"/></clipPath><clipPath id="clip_frame25_group"><path d="M0 0h125v125H0z"/></clipPath><clipPath id="clip_frame25_group_2"><path d="M29.4 73.3l23.7 22.4 47.5-47.5-7.9-7.9-39.6 39.6L37.3 64z"/></clipPath><clipPath id="clip_frame25_group_3"><path d="M29.4 73.3l23.7 22.4 47.5-47.5-7.9-7.9-39.6 39.6L37.3 64z"/></clipPath></defs><path clip-path="url(#clip_frame25_path)" d="M17.5 34.5v-15h90v15z" fill="#788b9c" stroke="#788b9c" stroke-width="2" stroke-miterlimit="10"/><path clip-path="url(#clip_frame25_path_1)" d="M17.5 34.5h90v71h-90z" fill="#ffffff" stroke="#788b9c" stroke-width="2" stroke-miterlimit="10"/><path clip-path="url(#clip_frame25_path_2)" d="M35 52h3v3h-3zm0 30h3v3h-3zm0-10h3v3h-3zm0-10h3v3h-3zm10-10h45v3H45zm0 10h45v3H45zm0 20h45v3H45zm0-10h45v3H45z" fill="#8bb7f0" fill-opacity=".212121"/><g clip-path="url(#clip_frame25_group_1)"><g clip-path="url(#clip_frame25_group_2)"><path d="M60.9 87.9l-7.8 7.8-23.7-22.4 7.9-9.3 15.8 15.9z" fill="#bae0bd"/></g><g clip-path="url(#clip_frame25_group_3)"><path d="M56.566667 92.233333l39.7-39.7-7.9-7.9-39.6 39.6z" fill="#bae0bd"/></g></g><g clip-path="url(#clip_frame25_group)"><path d="M125.45 9.133333c-.1-.4-.2-1.5.4-2.8 1-2.3 3.5-2.9 3.9-2.9 2.1-.5 3.8.4 4.7.9.7.4 2.1 1.1 2.7 2.6.3.6.4 1.3.5 2.1.1 1.1.2 1.6 0 2.3-.3 1-1 1.7-1.4 2-.3.3-.7.6-1.3.9 0 0-.8.4-1.8.4-2 .1-7.1-1.7-7.7-5.5z" fill="#f78f8f" stroke="#c74343"/><path d="M96.05 34.633333h4.8l3.7 4.4v5l-7.3 3.6-5-4.5 3.8-8.5z" fill="#f5ce85" stroke="#997d47"/><path d="M88.75 50.333333l3.4-7.3 5 4.5-8.4 2.8z" fill="#36404d" stroke="#36404d"/><path d="M97.55 35.233333l-1-.3c-.5-.1-.6-.7-.2-1l23.3-21.6c.2-.2.6-.2.9 0l7.8 7.7c.2.2.2.6 0 .8l-22.9 22.7c-.3.3-.8.2-1-.2l-.6-1.4v-.1l-.6-1.1-.9-1.5s0-.1-.1-.1l-1.4-1.5-.7-.8-.1-.1-1.9-1.2-.5-.2-.1-.1zm.6.4l23.9-21.8m-21.2 23.9l23.5-21.6m-21.2 24.7l23.7-22.4" fill="#ffeea3" stroke="#ba9b48" stroke-width="2"/><path d="M125.55 7.433333l8 7.2c.4.4.4.9 0 1.3l-4.2 4.1c-.4.3-.9.3-1.3 0l-7.8-7.4c-.4-.4-.4-.9 0-1.3l4.1-3.8c.3-.4.9-.4 1.2-.1z" fill="#d9e7f5" stroke="#788b9c"/></g></g><g transform="translate(3250)"><defs><clipPath id="clip_frame26_path"><path d="M0 0h125v125H0z"/></clipPath><clipPath id="clip_frame26_path_1"><path d="M0 0h125v125H0z"/></clipPath><clipPath id="clip_frame26_path_2"><path d="M0 0h125v125H0z"/></clipPath><clipPath id="clip_frame26_group_1"><path d="M0 0h125v125H0z"/></clipPath><clipPath id="clip_frame26_group"><path d="M0 0h125v125H0z"/></clipPath><clipPath id="clip_frame26_group_2"><path d="M29.4 73.3l23.7 22.4 47.5-47.5-7.9-7.9-39.6 39.6L37.3 64z"/></clipPath><clipPath id="clip_frame26_group_3"><path d="M29.4 73.3l23.7 22.4 47.5-47.5-7.9-7.9-39.6 39.6L37.3 64z"/></clipPath></defs><path clip-path="url(#clip_frame26_path)" d="M17.5 34.5v-15h90v15z" fill="#788b9c" stroke="#788b9c" stroke-width="2" stroke-miterlimit="10"/><path clip-path="url(#clip_frame26_path_1)" d="M17.5 34.5h90v71h-90z" fill="#ffffff" stroke="#788b9c" stroke-width="2" stroke-miterlimit="10"/><path clip-path="url(#clip_frame26_path_2)" d="M35 52h3v3h-3zm0 30h3v3h-3zm0-10h3v3h-3zm0-10h3v3h-3zm10-10h45v3H45zm0 10h45v3H45zm0 20h45v3H45zm0-10h45v3H45z" fill="#8bb7f0" fill-opacity=".151515"/><g clip-path="url(#clip_frame26_group_1)"><g clip-path="url(#clip_frame26_group_2)"><path d="M60.9 87.9l-7.8 7.8-23.7-22.4 7.9-9.3 15.8 15.9z" fill="#bae0bd"/></g><g clip-path="url(#clip_frame26_group_3)"><path d="M59.9 88.9l39.7-39.7-7.9-7.9-39.6 39.6z" fill="#bae0bd"/></g></g><g clip-path="url(#clip_frame26_group)"><path d="M125.922222 13.022222c-.1-.4-.2-1.5.4-2.8 1-2.3 3.5-2.9 3.9-2.9 2.1-.5 3.8.4 4.7.9.7.4 2.1 1.1 2.7 2.6.3.6.4 1.3.5 2.1.1 1.1.2 1.6 0 2.3-.3 1-1 1.7-1.4 2-.3.3-.7.6-1.3.9 0 0-.8.4-1.8.4-2 .1-7.1-1.7-7.7-5.5z" fill="#f78f8f" stroke="#c74343"/><path d="M96.522222 38.522222h4.8l3.7 4.4v5l-7.3 3.6-5-4.5 3.8-8.5z" fill="#f5ce85" stroke="#997d47"/><path d="M89.222222 54.222222l3.4-7.3 5 4.5-8.4 2.8z" fill="#36404d" stroke="#36404d"/><path d="M98.022222 39.122222l-1-.3c-.5-.1-.6-.7-.2-1l23.3-21.6c.2-.2.6-.2.9 0l7.8 7.7c.2.2.2.6 0 .8l-22.9 22.7c-.3.3-.8.2-1-.2l-.6-1.4v-.1l-.6-1.1-.9-1.5s0-.1-.1-.1l-1.4-1.5-.7-.8-.1-.1-1.9-1.2-.5-.2-.1-.1zm.6.4l23.9-21.8m-21.2 23.9l23.5-21.6m-21.2 24.7l23.7-22.4" fill="#ffeea3" stroke="#ba9b48" stroke-width="2"/><path d="M126.022222 11.322222l8 7.2c.4.4.4.9 0 1.3l-4.2 4.1c-.4.3-.9.3-1.3 0l-7.8-7.4c-.4-.4-.4-.9 0-1.3l4.1-3.8c.3-.4.9-.4 1.2-.1z" fill="#d9e7f5" stroke="#788b9c"/></g></g><g transform="translate(3375)"><defs><clipPath id="clip_frame27_path"><path d="M0 0h125v125H0z"/></clipPath><clipPath id="clip_frame27_path_1"><path d="M0 0h125v125H0z"/></clipPath><clipPath id="clip_frame27_path_2"><path d="M0 0h125v125H0z"/></clipPath><clipPath id="clip_frame27_group_1"><path d="M0 0h125v125H0z"/></clipPath><clipPath id="clip_frame27_group"><path d="M0 0h125v125H0z"/></clipPath><clipPath id="clip_frame27_group_2"><path d="M29.4 73.3l23.7 22.4 47.5-47.5-7.9-7.9-39.6 39.6L37.3 64z"/></clipPath><clipPath id="clip_frame27_group_3"><path d="M29.4 73.3l23.7 22.4 47.5-47.5-7.9-7.9-39.6 39.6L37.3 64z"/></clipPath></defs><path clip-path="url(#clip_frame27_path)" d="M17.5 34.5v-15h90v15z" fill="#788b9c" stroke="#788b9c" stroke-width="2" stroke-miterlimit="10"/><path clip-path="url(#clip_frame27_path_1)" d="M17.5 34.5h90v71h-90z" fill="#ffffff" stroke="#788b9c" stroke-width="2" stroke-miterlimit="10"/><path clip-path="url(#clip_frame27_path_2)" d="M35 52h3v3h-3zm0 30h3v3h-3zm0-10h3v3h-3zm0-10h3v3h-3zm10-10h45v3H45zm0 10h45v3H45zm0 20h45v3H45zm0-10h45v3H45z" fill="#8bb7f0" fill-opacity=".090909"/><g clip-path="url(#clip_frame27_group_1)"><g clip-path="url(#clip_frame27_group_2)"><path d="M60.9 87.9l-7.8 7.8-23.7-22.4 7.9-9.3 15.8 15.9z" fill="#bae0bd"/></g><g clip-path="url(#clip_frame27_group_3)"><path d="M59.9 88.9l39.7-39.7-7.9-7.9-39.6 39.6z" fill="#bae0bd"/></g></g><g clip-path="url(#clip_frame27_group)"><path d="M120.366667 27.466667c-.1-.4-.2-1.5.4-2.8 1-2.3 3.5-2.9 3.9-2.9 2.1-.5 3.8.4 4.7.9.7.4 2.1 1.1 2.7 2.6.3.6.4 1.3.5 2.1.1 1.1.2 1.6 0 2.3-.3 1-1 1.7-1.4 2-.3.3-.7.6-1.3.9 0 0-.8.4-1.8.4-2 .1-7.1-1.7-7.7-5.5z" fill="#f78f8f" stroke="#c74343"/><path d="M90.966667 52.966667h4.8l3.7 4.4v5l-7.3 3.6-5-4.5 3.8-8.5z" fill="#f5ce85" stroke="#997d47"/><path d="M83.666667 68.666667l3.4-7.3 5 4.5-8.4 2.8z" fill="#36404d" stroke="#36404d"/><path d="M92.466667 53.566667l-1-.3c-.5-.1-.6-.7-.2-1l23.3-21.6c.2-.2.6-.2.9 0l7.8 7.7c.2.2.2.6 0 .8l-22.9 22.7c-.3.3-.8.2-1-.2l-.6-1.4v-.1l-.6-1.1-.9-1.5s0-.1-.1-.1l-1.4-1.5-.7-.8-.1-.1-1.9-1.2-.5-.2-.1-.1zm.6.4l23.9-21.8m-21.2 23.9l23.5-21.6m-21.2 24.7l23.7-22.4" fill="#ffeea3" stroke="#ba9b48" stroke-width="2"/><path d="M120.466667 25.766667l8 7.2c.4.4.4.9 0 1.3l-4.2 4.1c-.4.3-.9.3-1.3 0l-7.8-7.4c-.4-.4-.4-.9 0-1.3l4.1-3.8c.3-.4.9-.4 1.2-.1z" fill="#d9e7f5" stroke="#788b9c"/></g></g><g transform="translate(3500)"><defs><clipPath id="clip_frame28_path"><path d="M0 0h125v125H0z"/></clipPath><clipPath id="clip_frame28_path_1"><path d="M0 0h125v125H0z"/></clipPath><clipPath id="clip_frame28_path_2"><path d="M0 0h125v125H0z"/></clipPath><clipPath id="clip_frame28_group_1"><path d="M0 0h125v125H0z"/></clipPath><clipPath id="clip_frame28_group"><path d="M0 0h125v125H0z"/></clipPath><clipPath id="clip_frame28_group_2"><path d="M29.4 73.3l23.7 22.4 47.5-47.5-7.9-7.9-39.6 39.6L37.3 64z"/></clipPath><clipPath id="clip_frame28_group_3"><path d="M29.4 73.3l23.7 22.4 47.5-47.5-7.9-7.9-39.6 39.6L37.3 64z"/></clipPath></defs><path clip-path="url(#clip_frame28_path)" d="M17.5 34.5v-15h90v15z" fill="#788b9c" stroke="#788b9c" stroke-width="2" stroke-miterlimit="10"/><path clip-path="url(#clip_frame28_path_1)" d="M17.5 34.5h90v71h-90z" fill="#ffffff" stroke="#788b9c" stroke-width="2" stroke-miterlimit="10"/><path clip-path="url(#clip_frame28_path_2)" d="M35 52h3v3h-3zm0 30h3v3h-3zm0-10h3v3h-3zm0-10h3v3h-3zm10-10h45v3H45zm0 10h45v3H45zm0 20h45v3H45zm0-10h45v3H45z" fill="#8bb7f0" fill-opacity=".030303"/><g clip-path="url(#clip_frame28_group_1)"><g clip-path="url(#clip_frame28_group_2)"><path d="M60.9 87.9l-7.8 7.8-23.7-22.4 7.9-9.3 15.8 15.9z" fill="#bae0bd"/></g><g clip-path="url(#clip_frame28_group_3)"><path d="M59.9 88.9l39.7-39.7-7.9-7.9-39.6 39.6z" fill="#bae0bd"/></g></g><g clip-path="url(#clip_frame28_group)"><path d="M114.811111 41.911111c-.1-.4-.2-1.5.4-2.8 1-2.3 3.5-2.9 3.9-2.9 2.1-.5 3.8.4 4.7.9.7.4 2.1 1.1 2.7 2.6.3.6.4 1.3.5 2.1.1 1.1.2 1.6 0 2.3-.3 1-1 1.7-1.4 2-.3.3-.7.6-1.3.9 0 0-.8.4-1.8.4-2 .1-7.1-1.7-7.7-5.5z" fill="#f78f8f" stroke="#c74343"/><path d="M85.411111 67.411111h4.8l3.7 4.4v5l-7.3 3.6-5-4.5 3.8-8.5z" fill="#f5ce85" stroke="#997d47"/><path d="M78.111111 83.111111l3.4-7.3 5 4.5-8.4 2.8z" fill="#36404d" stroke="#36404d"/><path d="M86.911111 68.011111l-1-.3c-.5-.1-.6-.7-.2-1l23.3-21.6c.2-.2.6-.2.9 0l7.8 7.7c.2.2.2.6 0 .8l-22.9 22.7c-.3.3-.8.2-1-.2l-.6-1.4v-.1l-.6-1.1-.9-1.5s0-.1-.1-.1l-1.4-1.5-.7-.8-.1-.1-1.9-1.2-.5-.2-.1-.1zm.6.4l23.9-21.8m-21.2 23.9l23.5-21.6m-21.2 24.7l23.7-22.4" fill="#ffeea3" stroke="#ba9b48" stroke-width="2"/><path d="M114.911111 40.211111l8 7.2c.4.4.4.9 0 1.3l-4.2 4.1c-.4.3-.9.3-1.3 0l-7.8-7.4c-.4-.4-.4-.9 0-1.3l4.1-3.8c.3-.4.9-.4 1.2-.1z" fill="#d9e7f5" stroke="#788b9c"/></g></g><g transform="translate(3625)"><defs><clipPath id="clip_frame29_path"><path d="M0 0h125v125H0z"/></clipPath><clipPath id="clip_frame29_path_1"><path d="M0 0h125v125H0z"/></clipPath><clipPath id="clip_frame29_path_2"><path d="M0 0h125v125H0z"/></clipPath><clipPath id="clip_frame29_group_1"><path d="M0 0h125v125H0z"/></clipPath><clipPath id="clip_frame29_group"><path d="M0 0h125v125H0z"/></clipPath><clipPath id="clip_frame29_group_2"><path d="M29.4 73.3l23.7 22.4 47.5-47.5-7.9-7.9-39.6 39.6L37.3 64z"/></clipPath><clipPath id="clip_frame29_group_3"><path d="M29.4 73.3l23.7 22.4 47.5-47.5-7.9-7.9-39.6 39.6L37.3 64z"/></clipPath></defs><path clip-path="url(#clip_frame29_path)" d="M17.5 34.5v-15h90v15z" fill="#788b9c" stroke="#788b9c" stroke-width="2" stroke-miterlimit="10"/><path clip-path="url(#clip_frame29_path_1)" d="M17.5 34.5h90v71h-90z" fill="#ffffff" stroke="#788b9c" stroke-width="2" stroke-miterlimit="10"/><g clip-path="url(#clip_frame29_group_1)"><g clip-path="url(#clip_frame29_group_2)"><path d="M60.9 87.9l-7.8 7.8-23.7-22.4 7.9-9.3 15.8 15.9z" fill="#bae0bd"/></g><g clip-path="url(#clip_frame29_group_3)"><path d="M59.9 88.9l39.7-39.7-7.9-7.9-39.6 39.6z" fill="#bae0bd"/></g></g><g clip-path="url(#clip_frame29_group)"><path d="M109.255556 56.355556c-.1-.4-.2-1.5.4-2.8 1-2.3 3.5-2.9 3.9-2.9 2.1-.5 3.8.4 4.7.9.7.4 2.1 1.1 2.7 2.6.3.6.4 1.3.5 2.1.1 1.1.2 1.6 0 2.3-.3 1-1 1.7-1.4 2-.3.3-.7.6-1.3.9 0 0-.8.4-1.8.4-2 .1-7.1-1.7-7.7-5.5z" fill="#f78f8f" stroke="#c74343"/><path d="M79.855556 81.855556h4.8l3.7 4.4v5l-7.3 3.6-5-4.5 3.8-8.5z" fill="#f5ce85" stroke="#997d47"/><path d="M72.555556 97.555556l3.4-7.3 5 4.5-8.4 2.8z" fill="#36404d" stroke="#36404d"/><path d="M81.355556 82.455556l-1-.3c-.5-.1-.6-.7-.2-1l23.3-21.6c.2-.2.6-.2.9 0l7.8 7.7c.2.2.2.6 0 .8l-22.9 22.7c-.3.3-.8.2-1-.2l-.6-1.4v-.1l-.6-1.1-.9-1.5s0-.1-.1-.1l-1.4-1.5-.7-.8-.1-.1-1.9-1.2-.5-.2-.1-.1zm.6.4l23.9-21.8m-21.2 23.9l23.5-21.6m-21.2 24.7l23.7-22.4" fill="#ffeea3" stroke="#ba9b48" stroke-width="2"/><path d="M109.355556 54.655556l8 7.2c.4.4.4.9 0 1.3l-4.2 4.1c-.4.3-.9.3-1.3 0l-7.8-7.4c-.4-.4-.4-.9 0-1.3l4.1-3.8c.3-.4.9-.4 1.2-.1z" fill="#d9e7f5" stroke="#788b9c"/></g></g><g transform="translate(3750)"><defs><clipPath id="clip_frame30_path"><path d="M0 0h125v125H0z"/></clipPath><clipPath id="clip_frame30_path_1"><path d="M0 0h125v125H0z"/></clipPath><clipPath id="clip_frame30_path_2"><path d="M0 0h125v125H0z"/></clipPath><clipPath id="clip_frame30_group_1"><path d="M0 0h125v125H0z"/></clipPath><clipPath id="clip_frame30_group"><path d="M0 0h125v125H0z"/></clipPath><clipPath id="clip_frame30_group_2"><path d="M29.4 73.3l23.7 22.4 47.5-47.5-7.9-7.9-39.6 39.6L37.3 64z"/></clipPath><clipPath id="clip_frame30_group_3"><path d="M29.4 73.3l23.7 22.4 47.5-47.5-7.9-7.9-39.6 39.6L37.3 64z"/></clipPath></defs><path clip-path="url(#clip_frame30_path)" d="M17.5 34.5v-15h90v15z" fill="#788b9c" stroke="#788b9c" stroke-width="2" stroke-miterlimit="10"/><path clip-path="url(#clip_frame30_path_1)" d="M17.5 34.5h90v71h-90z" fill="#ffffff" stroke="#788b9c" stroke-width="2" stroke-miterlimit="10"/><g clip-path="url(#clip_frame30_group_1)"><g clip-path="url(#clip_frame30_group_2)"><path d="M60.9 87.9l-7.8 7.8-23.7-22.4 7.9-9.3 15.8 15.9z" fill="#bae0bd"/></g><g clip-path="url(#clip_frame30_group_3)"><path d="M59.9 88.9l39.7-39.7-7.9-7.9-39.6 39.6z" fill="#bae0bd"/></g></g><g clip-path="url(#clip_frame30_group)"><path d="M103.7 70.8c-.1-.4-.2-1.5.4-2.8 1-2.3 3.5-2.9 3.9-2.9 2.1-.5 3.8.4 4.7.9.7.4 2.1 1.1 2.7 2.6.3.6.4 1.3.5 2.1.1 1.1.2 1.6 0 2.3-.3 1-1 1.7-1.4 2-.3.3-.7.6-1.3.9 0 0-.8.4-1.8.4-2 .1-7.1-1.7-7.7-5.5z" fill="#f78f8f" stroke="#c74343"/><path d="M74.3 96.3h4.8l3.7 4.4v5l-7.3 3.6-5-4.5 3.8-8.5z" fill="#f5ce85" stroke="#997d47"/><path d="M67 112l3.4-7.3 5 4.5L67 112z" fill="#36404d" stroke="#36404d"/><path d="M75.8 96.9l-1-.3c-.5-.1-.6-.7-.2-1L97.9 74c.2-.2.6-.2.9 0l7.8 7.7c.2.2.2.6 0 .8l-22.9 22.7c-.3.3-.8.2-1-.2l-.6-1.4v-.1l-.6-1.1-.9-1.5s0-.1-.1-.1l-1.4-1.5-.7-.8-.1-.1-1.9-1.2-.5-.2-.1-.1zm.6.4l23.9-21.8M79.1 99.4l23.5-21.6m-21.2 24.7l23.7-22.4" fill="#ffeea3" stroke="#ba9b48" stroke-width="2"/><path d="M103.8 69.1l8 7.2c.4.4.4.9 0 1.3l-4.2 4.1c-.4.3-.9.3-1.3 0l-7.8-7.4c-.4-.4-.4-.9 0-1.3l4.1-3.8c.3-.4.9-.4 1.2-.1z" fill="#d9e7f5" stroke="#788b9c"/></g></g></svg>