<svg xmlns="http://www.w3.org/2000/svg" viewBox="0 0 1900 100" width="1900" height="100"><g stroke-miterlimit="10"><path d="M7.2 42.1l8.4-7.3 1.7 2L8.9 44zm4-27.3l-1 2.2 10.4 6.1 1.3-2zM29 49.2l9.7-11.7 1.7 1.6-9.5 11.6zm18.9-36.4l10.4 6 1.3-2L49 10.7zm13.4 27.8l9.6-11.2 2 1.7-9.6 11.3-1.9-1.7" fill="#8bb7f0" stroke="#4e7ab5"/><path d="M4.9 41.4c1.1 0 2.2.5 3 1.3.8.8 1.3 1.9 1.3 3s-.5 2.2-1.3 3c-.8.8-1.9 1.3-3 1.3s-2.2-.5-3-1.3c-.8-.8-1.3-1.9-1.3-3s.4-2.2 1.3-3c.8-.8 1.9-1.3 3-1.3m2-31.4c1.1 0 2.2.5 3 1.3.8.8 1.3 1.9 1.3 3s-.5 2.2-1.3 3c-.8.8-1.9 1.3-3 1.3s-2.2-.5-3-1.3c-.8-.8-1.3-1.9-1.3-3s.5-2.2 1.3-3c.8-.9 1.8-1.3 3-1.3m20.5 38.8c1.1 0 2.2.5 3 1.3.8.8 1.3 1.9 1.3 3s-.5 2.2-1.3 3c-.8.8-1.9 1.3-3 1.3s-2.2-.5-3-1.3c-.8-.8-1.3-1.9-1.3-3s.5-2.2 1.3-3c.8-.8 1.9-1.3 3-1.3M42.2 6.5c-.7.5-1.3 1.3-1.6 2.1-.3.9-.3 1.8 0 2.6.3.9.8 1.6 1.6 2.1.7.5 1.6.8 2.5.8.9 0 1.8-.3 2.5-.8s1.3-1.3 1.6-2.1c.3-.9.3-1.8 0-2.6-.3-.9-.8-1.6-1.6-2.1-.7-.5-1.6-.8-2.5-.8-.9 0-1.8.3-2.5.8m17.4 33.8c1.1 0 2.2.5 3 1.3.8.8 1.3 1.9 1.3 3s-.4 2.2-1.3 3c-.8.8-1.9 1.3-3 1.3s-2.2-.4-3-1.3c-.8-.8-1.3-1.9-1.3-3s.5-2.2 1.3-3c.8-.9 1.8-1.3 3-1.3m12.5-9.7c.7.5 1.6.8 2.5.8.9 0 1.8-.3 2.5-.8s1.3-1.3 1.6-2.1c.3-.9.3-1.8 0-2.6-.3-.9-.8-1.6-1.6-2.1-.7-.5-1.6-.8-2.5-.8-.9 0-1.8.3-2.5.8s-1.3 1.3-1.6 2.1c-.3.9-.3 1.8 0 2.6.3.9.8 1.6 1.6 2.1" fill="#8bb7f0" stroke="#4e7ab5"/><path d="M8.2 115.8h11.5v23.6H8.2v-23.6zm14.7 22.8h11.9v36.8H22.9v-36.8zM38 170.9h12v29H38v-29zm14.9 26H65v46.9H52.9v-46.9zm15.3 55h11.6v38.7H68.2v-38.7zm14.6 55.6H95v59H82.8v-59z" fill="#bae0bd" stroke="#5e9c76"/></g><g stroke-miterlimit="10"><path d="M107.483 41.644l8.395-7.3 1.7 2-8.4 7.2zm4.7-26.25l-1 2.206 10.4 6.094 1.3-1.994zM129.828 48.2l9.7-11.694 1.7 1.6-9.5 11.6zm18.766-34.994l10.4 6.005 1.3-2.005-10.6-6.095zm13.55 26.438l9.606-11.194 2 1.694-9.6 11.3-1.9-1.7" fill="#8bb7f0" stroke="#4e7ab5"/><path d="M105.183 40.944c1.1 0 2.2.5 3 1.3.8.8 1.3 1.9 1.3 3s-.5 2.2-1.3 3c-.8.8-1.9 1.3-3 1.3s-2.2-.5-3-1.3c-.8-.8-1.3-1.9-1.3-3s.4-2.2 1.3-3c.8-.8 1.9-1.3 3-1.3m2.7-30.344c1.1 0 2.2.5 3 1.3.8.8 1.3 1.9 1.3 3s-.5 2.2-1.3 3c-.8.8-1.9 1.3-3 1.3s-2.2-.5-3-1.3c-.8-.8-1.3-1.9-1.3-3s.5-2.2 1.3-3c.8-.9 1.8-1.3 3-1.3m20.345 37.206c1.1 0 2.2.494 3 1.3.8.8 1.3 1.9 1.3 3s-.5 2.2-1.3 3c-.8.8-1.9 1.3-3 1.3s-2.2-.5-3-1.3c-.8-.8-1.3-1.9-1.3-3s.5-2.2 1.3-3c.8-.8 1.9-1.3 3-1.3m14.666-40.895c-.7.5-1.3 1.3-1.6 2.1-.3.9-.3 1.8 0 2.6.3.9.8 1.6 1.6 2.1.7.5 1.6.8 2.5.8.9 0 1.8-.3 2.5-.8s1.3-1.3 1.6-2.1c.3-.9.3-1.8 0-2.6-.3-.9-.8-1.6-1.6-2.1-.7-.5-1.6-.8-2.5-.8-.9 0-1.8.295-2.5.8m17.556 32.433c1.1 0 2.2.495 3 1.3.8.8 1.3 1.9 1.3 3s-.4 2.2-1.3 3c-.8.8-1.9 1.3-3 1.3s-2.2-.4-3-1.3c-.8-.8-1.3-1.9-1.3-3s.5-2.2 1.3-3c.8-.9 1.8-1.3 3-1.3m12.5-9.694c.7.5 1.6.8 2.5.8.9 0 1.8-.3 2.5-.8s1.3-1.3 1.6-2.1c.3-.9.3-1.8 0-2.6-.3-.9-.8-1.6-1.6-2.1-.7-.5-1.6-.8-2.5-.8-.9 0-1.8.3-2.5.8s-1.3 1.3-1.6 2.1c-.3.9-.3 1.8 0 2.6.3.894.8 1.594 1.6 2.1" fill="#8bb7f0" stroke="#4e7ab5"/><path d="M108.2 113.439h11.5v23.6h-11.5v-23.6zm14.7 20.8h11.9v36.8h-11.9v-36.8zm15.1 30.939h12v29h-12v-29zm14.9 23.561H165v46.9h-12.1v-46.9zm15.3 52.394h11.6v38.7h-11.6v-38.7zm14.6 51.389H195v59h-12.2v-59z" fill="#bae0bd" stroke="#5e9c76"/></g><g stroke-miterlimit="10"><path d="M207.767 41.189l8.389-7.3 1.7 2-8.4 7.2zm5.4-25.2l-1 2.211 10.4 6.089 1.3-1.989zM230.656 47.2l9.7-11.689 1.7 1.6-9.5 11.6zm18.633-33.589l10.4 6.011 1.3-2.011-10.6-6.089zm13.7 25.078L272.6 27.5l2 1.689-9.6 11.3-1.9-1.7" fill="#8bb7f0" stroke="#4e7ab5"/><path d="M205.467 40.489c1.1 0 2.2.5 3 1.3.8.8 1.3 1.9 1.3 3s-.5 2.2-1.3 3c-.8.8-1.9 1.3-3 1.3s-2.2-.5-3-1.3c-.8-.8-1.3-1.9-1.3-3s.4-2.2 1.3-3c.8-.8 1.9-1.3 3-1.3m3.4-29.289c1.1 0 2.2.5 3 1.3.8.8 1.3 1.9 1.3 3s-.5 2.2-1.3 3c-.8.8-1.9 1.3-3 1.3s-2.2-.5-3-1.3c-.8-.8-1.3-1.9-1.3-3s.5-2.2 1.3-3c.8-.9 1.8-1.3 3-1.3m20.189 35.611c1.1 0 2.2.489 3 1.3.8.8 1.3 1.9 1.3 3s-.5 2.2-1.3 3c-.8.8-1.9 1.3-3 1.3s-2.2-.5-3-1.3c-.8-.8-1.3-1.9-1.3-3s.5-2.2 1.3-3c.8-.8 1.9-1.3 3-1.3m14.533-39.489c-.7.5-1.3 1.3-1.6 2.1-.3.9-.3 1.8 0 2.6.3.9.8 1.6 1.6 2.1.7.5 1.6.8 2.5.8.9 0 1.8-.3 2.5-.8s1.3-1.3 1.6-2.1c.3-.9.3-1.8 0-2.6-.3-.9-.8-1.6-1.6-2.1-.7-.5-1.6-.8-2.5-.8-.9 0-1.8.289-2.5.8M261.3 38.389c1.1 0 2.2.489 3 1.3.8.8 1.3 1.9 1.3 3s-.4 2.2-1.3 3c-.8.8-1.9 1.3-3 1.3s-2.2-.4-3-1.3c-.8-.8-1.3-1.9-1.3-3s.5-2.2 1.3-3c.8-.9 1.8-1.3 3-1.3m12.5-9.689c.7.5 1.6.8 2.5.8.9 0 1.8-.3 2.5-.8s1.3-1.3 1.6-2.1c.3-.9.3-1.8 0-2.6-.3-.9-.8-1.6-1.6-2.1-.7-.5-1.6-.8-2.5-.8-.9 0-1.8.3-2.5.8s-1.3 1.3-1.6 2.1c-.3.9-.3 1.8 0 2.6.3.889.8 1.589 1.6 2.1" fill="#8bb7f0" stroke="#4e7ab5"/><path d="M208.2 111.078h11.5v23.6h-11.5v-23.6zm14.7 18.8h11.9v36.8h-11.9v-36.8zm15.1 29.578h12v29h-12v-29zm14.9 21.122H265v46.9h-12.1v-46.9zm15.3 49.789h11.6v38.7h-11.6v-38.7zm14.6 47.177H295v59h-12.2v-59z" fill="#bae0bd" stroke="#5e9c76"/></g><g stroke-miterlimit="10"><path d="M308.05 40.733l8.383-7.3 1.7 2-8.4 7.2zm6.1-24.15l-1 2.217 10.4 6.083 1.3-1.983zM331.483 46.2l9.7-11.683 1.7 1.6-9.5 11.6zm18.5-32.183l10.4 6.016 1.3-2.016-10.6-6.084zm13.85 23.716l9.617-11.183 2 1.683-9.6 11.3-1.9-1.7" fill="#8bb7f0" stroke="#4e7ab5"/><path d="M305.75 40.033c1.1 0 2.2.5 3 1.3.8.8 1.3 1.9 1.3 3s-.5 2.2-1.3 3c-.8.8-1.9 1.3-3 1.3s-2.2-.5-3-1.3c-.8-.8-1.3-1.9-1.3-3s.4-2.2 1.3-3c.8-.8 1.9-1.3 3-1.3m4.1-28.233c1.1 0 2.2.5 3 1.3.8.8 1.3 1.9 1.3 3s-.5 2.2-1.3 3c-.8.8-1.9 1.3-3 1.3s-2.2-.5-3-1.3c-.8-.8-1.3-1.9-1.3-3s.5-2.2 1.3-3c.8-.9 1.8-1.3 3-1.3m20.033 34.017c1.1 0 2.2.483 3 1.3.8.8 1.3 1.9 1.3 3s-.5 2.2-1.3 3c-.8.8-1.9 1.3-3 1.3s-2.2-.5-3-1.3c-.8-.8-1.3-1.9-1.3-3s.5-2.2 1.3-3c.8-.8 1.9-1.3 3-1.3m14.4-38.084c-.7.5-1.3 1.3-1.6 2.1-.3.9-.3 1.8 0 2.6.3.9.8 1.6 1.6 2.1.7.5 1.6.8 2.5.8.9 0 1.8-.3 2.5-.8s1.3-1.3 1.6-2.1c.3-.9.3-1.8 0-2.6-.3-.9-.8-1.6-1.6-2.1-.7-.5-1.6-.8-2.5-.8-.9 0-1.8.284-2.5.8m17.867 29.7c1.1 0 2.2.484 3 1.3.8.8 1.3 1.9 1.3 3s-.4 2.2-1.3 3c-.8.8-1.9 1.3-3 1.3s-2.2-.4-3-1.3c-.8-.8-1.3-1.9-1.3-3s.5-2.2 1.3-3c.8-.9 1.8-1.3 3-1.3m12.5-9.683c.7.5 1.6.8 2.5.8.9 0 1.8-.3 2.5-.8s1.3-1.3 1.6-2.1c.3-.9.3-1.8 0-2.6-.3-.9-.8-1.6-1.6-2.1-.7-.5-1.6-.8-2.5-.8-.9 0-1.8.3-2.5.8s-1.3 1.3-1.6 2.1c-.3.9-.3 1.8 0 2.6.3.883.8 1.583 1.6 2.1" fill="#8bb7f0" stroke="#4e7ab5"/><path d="M308.2 108.717h11.5v23.6h-11.5v-23.6zm14.7 16.8h11.9v36.8h-11.9v-36.8zm15.1 28.216h12v29h-12v-29zm14.9 18.684H365v46.9h-12.1v-46.9zm15.3 47.183h11.6v38.7h-11.6v-38.7zm14.6 42.967H395v59h-12.2v-59z" fill="#bae0bd" stroke="#5e9c76"/></g><g stroke-miterlimit="10"><path d="M408.333 40.278l8.378-7.3 1.7 2-8.4 7.2zm6.8-23.1l-1 2.222 10.4 6.078 1.3-1.978zM432.311 45.2l9.7-11.678 1.7 1.6-9.5 11.6zm18.367-30.778l10.4 6.022 1.3-2.022-10.6-6.078zm14 22.356L474.3 25.6l2 1.678-9.6 11.3-1.9-1.7" fill="#8bb7f0" stroke="#4e7ab5"/><path d="M406.033 39.578c1.1 0 2.2.5 3 1.3.8.8 1.3 1.9 1.3 3s-.5 2.2-1.3 3c-.8.8-1.9 1.3-3 1.3s-2.2-.5-3-1.3c-.8-.8-1.3-1.9-1.3-3s.4-2.2 1.3-3c.8-.8 1.9-1.3 3-1.3m4.8-27.178c1.1 0 2.2.5 3 1.3.8.8 1.3 1.9 1.3 3s-.5 2.2-1.3 3c-.8.8-1.9 1.3-3 1.3s-2.2-.5-3-1.3c-.8-.8-1.3-1.9-1.3-3s.5-2.2 1.3-3c.8-.9 1.8-1.3 3-1.3m19.878 32.422c1.1 0 2.2.478 3 1.3.8.8 1.3 1.9 1.3 3s-.5 2.2-1.3 3c-.8.8-1.9 1.3-3 1.3s-2.2-.5-3-1.3c-.8-.8-1.3-1.9-1.3-3s.5-2.2 1.3-3c.8-.8 1.9-1.3 3-1.3m14.267-36.678c-.7.5-1.3 1.3-1.6 2.1-.3.9-.3 1.8 0 2.6.3.9.8 1.6 1.6 2.1.7.5 1.6.8 2.5.8.9 0 1.8-.3 2.5-.8s1.3-1.3 1.6-2.1c.3-.9.3-1.8 0-2.6-.3-.9-.8-1.6-1.6-2.1-.7-.5-1.6-.8-2.5-.8-.9 0-1.8.278-2.5.8M463 36.478c1.1 0 2.2.478 3 1.3.8.8 1.3 1.9 1.3 3s-.4 2.2-1.3 3c-.8.8-1.9 1.3-3 1.3s-2.2-.4-3-1.3c-.8-.8-1.3-1.9-1.3-3s.5-2.2 1.3-3c.8-.9 1.8-1.3 3-1.3m12.5-9.678c.7.5 1.6.8 2.5.8.9 0 1.8-.3 2.5-.8s1.3-1.3 1.6-2.1c.3-.9.3-1.8 0-2.6-.3-.9-.8-1.6-1.6-2.1-.7-.5-1.6-.8-2.5-.8-.9 0-1.8.3-2.5.8s-1.3 1.3-1.6 2.1c-.3.9-.3 1.8 0 2.6.3.878.8 1.578 1.6 2.1" fill="#8bb7f0" stroke="#4e7ab5"/><path d="M408.2 106.356h11.5v23.6h-11.5v-23.6zm14.7 14.8h11.9v36.8h-11.9v-36.8zm15.1 26.855h12v29h-12v-29zm14.9 16.245H465v46.9h-12.1v-46.9zm15.3 44.577h11.6v38.7h-11.6v-38.7zm14.6 38.756H495v59h-12.2v-59z" fill="#bae0bd" stroke="#5e9c76"/></g><g stroke-miterlimit="10"><path d="M508.617 39.822l8.372-7.3 1.7 2-8.4 7.2zm7.5-22.05l-1 2.228 10.4 6.072 1.3-1.972zM533.139 44.2l9.7-11.672 1.7 1.6-9.5 11.6zm18.233-29.372l10.4 6.028 1.3-2.028-10.6-6.072zm14.15 20.994l9.628-11.172 2 1.672-9.6 11.3-1.9-1.7" fill="#8bb7f0" stroke="#4e7ab5"/><path d="M506.317 39.122c1.1 0 2.2.5 3 1.3.8.8 1.3 1.9 1.3 3s-.5 2.2-1.3 3c-.8.8-1.9 1.3-3 1.3s-2.2-.5-3-1.3c-.8-.8-1.3-1.9-1.3-3s.4-2.2 1.3-3c.8-.8 1.9-1.3 3-1.3m5.5-26.122c1.1 0 2.2.5 3 1.3.8.8 1.3 1.9 1.3 3s-.5 2.2-1.3 3c-.8.8-1.9 1.3-3 1.3s-2.2-.5-3-1.3c-.8-.8-1.3-1.9-1.3-3s.5-2.2 1.3-3c.8-.9 1.8-1.3 3-1.3m19.722 30.828c1.1 0 2.2.472 3 1.3.8.8 1.3 1.9 1.3 3s-.5 2.2-1.3 3c-.8.8-1.9 1.3-3 1.3s-2.2-.5-3-1.3c-.8-.8-1.3-1.9-1.3-3s.5-2.2 1.3-3c.8-.8 1.9-1.3 3-1.3m14.133-35.272c-.7.5-1.3 1.3-1.6 2.1-.3.9-.3 1.8 0 2.6.3.9.8 1.6 1.6 2.1.7.5 1.6.8 2.5.8.9 0 1.8-.3 2.5-.8s1.3-1.3 1.6-2.1c.3-.9.3-1.8 0-2.6-.3-.9-.8-1.6-1.6-2.1-.7-.5-1.6-.8-2.5-.8-.9 0-1.8.272-2.5.8m18.178 26.966c1.1 0 2.2.472 3 1.3.8.8 1.3 1.9 1.3 3s-.4 2.2-1.3 3c-.8.8-1.9 1.3-3 1.3s-2.2-.4-3-1.3c-.8-.8-1.3-1.9-1.3-3s.5-2.2 1.3-3c.8-.9 1.8-1.3 3-1.3m12.5-9.672c.7.5 1.6.8 2.5.8.9 0 1.8-.3 2.5-.8s1.3-1.3 1.6-2.1c.3-.9.3-1.8 0-2.6-.3-.9-.8-1.6-1.6-2.1-.7-.5-1.6-.8-2.5-.8-.9 0-1.8.3-2.5.8s-1.3 1.3-1.6 2.1c-.3.9-.3 1.8 0 2.6.3.872.8 1.572 1.6 2.1" fill="#8bb7f0" stroke="#4e7ab5"/><path d="M508.2 103.994h11.5v23.6h-11.5v-23.6zm14.7 12.8h11.9v36.8h-11.9v-36.8zm15.1 25.495h12v29h-12v-29zm14.9 13.805H565v46.9h-12.1v-46.9zm15.3 41.973h11.6v38.7h-11.6v-38.7zm14.6 34.544H595v59h-12.2v-59z" fill="#bae0bd" stroke="#5e9c76"/></g><g stroke-miterlimit="10"><path d="M608.9 39.367l8.367-7.3 1.7 2-8.4 7.2zm8.2-21l-1 2.233 10.4 6.067 1.3-1.967zM633.967 43.2l9.7-11.667 1.7 1.6-9.5 11.6zm18.1-27.967l10.4 6.034 1.3-2.034-10.6-6.066zm14.3 19.634L676 23.7l2 1.667-9.6 11.3-1.9-1.7" fill="#8bb7f0" stroke="#4e7ab5"/><path d="M606.6 38.667c1.1 0 2.2.5 3 1.3.8.8 1.3 1.9 1.3 3s-.5 2.2-1.3 3c-.8.8-1.9 1.3-3 1.3s-2.2-.5-3-1.3c-.8-.8-1.3-1.9-1.3-3s.4-2.2 1.3-3c.8-.8 1.9-1.3 3-1.3m6.2-25.067c1.1 0 2.2.5 3 1.3.8.8 1.3 1.9 1.3 3s-.5 2.2-1.3 3c-.8.8-1.9 1.3-3 1.3s-2.2-.5-3-1.3c-.8-.8-1.3-1.9-1.3-3s.5-2.2 1.3-3c.8-.9 1.8-1.3 3-1.3m19.567 29.233c1.1 0 2.2.467 3 1.3.8.8 1.3 1.9 1.3 3s-.5 2.2-1.3 3c-.8.8-1.9 1.3-3 1.3s-2.2-.5-3-1.3c-.8-.8-1.3-1.9-1.3-3s.5-2.2 1.3-3c.8-.8 1.9-1.3 3-1.3m14-33.866c-.7.5-1.3 1.3-1.6 2.1-.3.9-.3 1.8 0 2.6.3.9.8 1.6 1.6 2.1.7.5 1.6.8 2.5.8.9 0 1.8-.3 2.5-.8s1.3-1.3 1.6-2.1c.3-.9.3-1.8 0-2.6-.3-.9-.8-1.6-1.6-2.1-.7-.5-1.6-.8-2.5-.8-.9 0-1.8.266-2.5.8m18.333 25.6c1.1 0 2.2.466 3 1.3.8.8 1.3 1.9 1.3 3s-.4 2.2-1.3 3c-.8.8-1.9 1.3-3 1.3s-2.2-.4-3-1.3c-.8-.8-1.3-1.9-1.3-3s.5-2.2 1.3-3c.8-.9 1.8-1.3 3-1.3m12.5-9.667c.7.5 1.6.8 2.5.8.9 0 1.8-.3 2.5-.8s1.3-1.3 1.6-2.1c.3-.9.3-1.8 0-2.6-.3-.9-.8-1.6-1.6-2.1-.7-.5-1.6-.8-2.5-.8-.9 0-1.8.3-2.5.8s-1.3 1.3-1.6 2.1c-.3.9-.3 1.8 0 2.6.3.867.8 1.567 1.6 2.1" fill="#8bb7f0" stroke="#4e7ab5"/><path d="M608.2 101.633h11.5v23.6h-11.5v-23.6zm14.7 10.8h11.9v36.8h-11.9v-36.8zm15.1 24.134h12v29h-12v-29zm14.9 11.366H665v46.9h-12.1v-46.9zm15.3 39.367h11.6V226h-11.6v-38.7zm14.6 30.333H695v59h-12.2v-59z" fill="#bae0bd" stroke="#5e9c76"/></g><g stroke-miterlimit="10"><path d="M709.183 38.911l8.361-7.3 1.7 2-8.4 7.2zm8.9-19.95l-1 2.239 10.4 6.061 1.3-1.961zM734.794 42.2l9.7-11.661 1.7 1.6-9.5 11.6zm17.967-26.561l10.4 6.039 1.3-2.039-10.6-6.061zm14.45 18.272l9.639-11.161 2 1.661-9.6 11.3-1.9-1.7" fill="#8bb7f0" stroke="#4e7ab5"/><path d="M706.883 38.211c1.1 0 2.2.5 3 1.3.8.8 1.3 1.9 1.3 3s-.5 2.2-1.3 3c-.8.8-1.9 1.3-3 1.3s-2.2-.5-3-1.3c-.8-.8-1.3-1.9-1.3-3s.4-2.2 1.3-3c.8-.8 1.9-1.3 3-1.3m6.9-24.011c1.1 0 2.2.5 3 1.3.8.8 1.3 1.9 1.3 3s-.5 2.2-1.3 3c-.8.8-1.9 1.3-3 1.3s-2.2-.5-3-1.3c-.8-.8-1.3-1.9-1.3-3s.5-2.2 1.3-3c.8-.9 1.8-1.3 3-1.3m19.411 27.639c1.1 0 2.2.461 3 1.3.8.8 1.3 1.9 1.3 3s-.5 2.2-1.3 3c-.8.8-1.9 1.3-3 1.3s-2.2-.5-3-1.3c-.8-.8-1.3-1.9-1.3-3s.5-2.2 1.3-3c.8-.8 1.9-1.3 3-1.3m13.867-32.461c-.7.5-1.3 1.3-1.6 2.1-.3.9-.3 1.8 0 2.6.3.9.8 1.6 1.6 2.1.7.5 1.6.8 2.5.8.9 0 1.8-.3 2.5-.8s1.3-1.3 1.6-2.1c.3-.9.3-1.8 0-2.6-.3-.9-.8-1.6-1.6-2.1-.7-.5-1.6-.8-2.5-.8-.9 0-1.8.261-2.5.8m18.489 24.233c1.1 0 2.2.461 3 1.3.8.8 1.3 1.9 1.3 3s-.4 2.2-1.3 3c-.8.8-1.9 1.3-3 1.3s-2.2-.4-3-1.3c-.8-.8-1.3-1.9-1.3-3s.5-2.2 1.3-3c.8-.9 1.8-1.3 3-1.3m12.5-9.661c.7.5 1.6.8 2.5.8.9 0 1.8-.3 2.5-.8s1.3-1.3 1.6-2.1c.3-.9.3-1.8 0-2.6-.3-.9-.8-1.6-1.6-2.1-.7-.5-1.6-.8-2.5-.8-.9 0-1.8.3-2.5.8s-1.3 1.3-1.6 2.1c-.3.9-.3 1.8 0 2.6.3.861.8 1.561 1.6 2.1" fill="#8bb7f0" stroke="#4e7ab5"/><path d="M708.2 99.272h11.5v23.6h-11.5v-23.6zm14.7 8.8h11.9v36.8h-11.9v-36.8zm15.1 22.772h12v29h-12v-29zm14.9 8.928H765v46.9h-12.1v-46.9zm15.3 36.761h11.6v38.7h-11.6v-38.7zm14.6 26.123H795v59h-12.2v-59z" fill="#bae0bd" stroke="#5e9c76"/></g><g stroke-miterlimit="10"><path d="M809.467 38.456l8.355-7.3 1.7 2-8.4 7.2zm9.6-18.9l-1 2.244 10.4 6.056 1.3-1.956zM835.622 41.2l9.7-11.656 1.7 1.6-9.5 11.6zm17.834-25.156l10.4 6.045 1.3-2.045-10.6-6.055zm14.6 16.912L877.7 21.8l2 1.656-9.6 11.3-1.9-1.7" fill="#8bb7f0" stroke="#4e7ab5"/><path d="M807.167 37.756c1.1 0 2.2.5 3 1.3.8.8 1.3 1.9 1.3 3s-.5 2.2-1.3 3c-.8.8-1.9 1.3-3 1.3s-2.2-.5-3-1.3c-.8-.8-1.3-1.9-1.3-3s.4-2.2 1.3-3c.8-.8 1.9-1.3 3-1.3m7.6-22.956c1.1 0 2.2.5 3 1.3.8.8 1.3 1.9 1.3 3s-.5 2.2-1.3 3c-.8.8-1.9 1.3-3 1.3s-2.2-.5-3-1.3c-.8-.8-1.3-1.9-1.3-3s.5-2.2 1.3-3c.8-.9 1.8-1.3 3-1.3m19.255 26.044c1.1 0 2.2.456 3 1.3.8.8 1.3 1.9 1.3 3s-.5 2.2-1.3 3c-.8.8-1.9 1.3-3 1.3s-2.2-.5-3-1.3c-.8-.8-1.3-1.9-1.3-3s.5-2.2 1.3-3c.8-.8 1.9-1.3 3-1.3m13.734-31.055c-.7.5-1.3 1.3-1.6 2.1-.3.9-.3 1.8 0 2.6.3.9.8 1.6 1.6 2.1.7.5 1.6.8 2.5.8.9 0 1.8-.3 2.5-.8s1.3-1.3 1.6-2.1c.3-.9.3-1.8 0-2.6-.3-.9-.8-1.6-1.6-2.1-.7-.5-1.6-.8-2.5-.8-.9 0-1.8.255-2.5.8M866.4 32.656c1.1 0 2.2.455 3 1.3.8.8 1.3 1.9 1.3 3s-.4 2.2-1.3 3c-.8.8-1.9 1.3-3 1.3s-2.2-.4-3-1.3c-.8-.8-1.3-1.9-1.3-3s.5-2.2 1.3-3c.8-.9 1.8-1.3 3-1.3M878.9 23c.7.5 1.6.8 2.5.8.9 0 1.8-.3 2.5-.8s1.3-1.3 1.6-2.1c.3-.9.3-1.8 0-2.6-.3-.9-.8-1.6-1.6-2.1-.7-.5-1.6-.8-2.5-.8-.9 0-1.8.3-2.5.8s-1.3 1.3-1.6 2.1c-.3.9-.3 1.8 0 2.6.3.856.8 1.556 1.6 2.1" fill="#8bb7f0" stroke="#4e7ab5"/><path d="M808.2 96.911h11.5v23.6h-11.5v-23.6zm14.7 6.8h11.9v36.8h-11.9v-36.8zm15.1 21.411h12v29h-12v-29zm14.9 6.489H865v46.9h-12.1v-46.9zm15.3 34.156h11.6v38.7h-11.6v-38.7zm14.6 21.911H895v59h-12.2v-59z" fill="#bae0bd" stroke="#5e9c76"/></g><g stroke-miterlimit="10"><path d="M909.75 38l8.35-7.3 1.7 2-8.4 7.2zm10.3-17.85l-1 2.25 10.4 6.05 1.3-1.95zm16.4 20.05l9.7-11.65 1.7 1.6-9.5 11.6zm17.7-23.75l10.4 6.05 1.3-2.05-10.6-6.05zM968.9 32l9.65-11.15 2 1.65-9.6 11.3-1.9-1.7" fill="#8bb7f0" stroke="#4e7ab5"/><path d="M907.45 37.3c1.1 0 2.2.5 3 1.3.8.8 1.3 1.9 1.3 3s-.5 2.2-1.3 3c-.8.8-1.9 1.3-3 1.3s-2.2-.5-3-1.3c-.8-.8-1.3-1.9-1.3-3s.4-2.2 1.3-3c.8-.8 1.9-1.3 3-1.3m8.3-21.9c1.1 0 2.2.5 3 1.3.8.8 1.3 1.9 1.3 3s-.5 2.2-1.3 3c-.8.8-1.9 1.3-3 1.3s-2.2-.5-3-1.3c-.8-.8-1.3-1.9-1.3-3s.5-2.2 1.3-3c.8-.9 1.8-1.3 3-1.3m19.1 24.45c1.1 0 2.2.45 3 1.3.8.8 1.3 1.9 1.3 3s-.5 2.2-1.3 3c-.8.8-1.9 1.3-3 1.3s-2.2-.5-3-1.3c-.8-.8-1.3-1.9-1.3-3s.5-2.2 1.3-3c.8-.8 1.9-1.3 3-1.3m13.6-29.65c-.7.5-1.3 1.3-1.6 2.1-.3.9-.3 1.8 0 2.6.3.9.8 1.6 1.6 2.1.7.5 1.6.8 2.5.8.9 0 1.8-.3 2.5-.8s1.3-1.3 1.6-2.1c.3-.9.3-1.8 0-2.6-.3-.9-.8-1.6-1.6-2.1-.7-.5-1.6-.8-2.5-.8-.9 0-1.8.25-2.5.8m18.8 21.5c1.1 0 2.2.45 3 1.3.8.8 1.3 1.9 1.3 3s-.4 2.2-1.3 3c-.8.8-1.9 1.3-3 1.3s-2.2-.4-3-1.3c-.8-.8-1.3-1.9-1.3-3s.5-2.2 1.3-3c.8-.9 1.8-1.3 3-1.3m12.5-9.65c.7.5 1.6.8 2.5.8.9 0 1.8-.3 2.5-.8s1.3-1.3 1.6-2.1c.3-.9.3-1.8 0-2.6-.3-.9-.8-1.6-1.6-2.1-.7-.5-1.6-.8-2.5-.8-.9 0-1.8.3-2.5.8s-1.3 1.3-1.6 2.1c-.3.9-.3 1.8 0 2.6.3.85.8 1.55 1.6 2.1" fill="#8bb7f0" stroke="#4e7ab5"/><path d="M908.2 94.55h11.5v23.6h-11.5v-23.6zm14.7 4.8h11.9v36.8h-11.9v-36.8zM938 119.4h12v29h-12v-29zm14.9 4.05H965v46.9h-12.1v-46.9zM968.2 155h11.6v38.7h-11.6V155zm14.6 17.7H995v59h-12.2v-59z" fill="#bae0bd" stroke="#5e9c76"/></g><g stroke-miterlimit="10"><path d="M1010.033 37.544l8.345-7.3 1.7 2-8.4 7.2zm11-16.8l-1 2.256 10.4 6.044 1.3-1.944zm16.245 18.456l9.7-11.644 1.7 1.6-9.5 11.6zm17.566-22.344l10.4 6.055 1.3-2.055-10.6-6.045zm14.9 14.188L1079.4 19.9l2 1.644-9.6 11.3-1.9-1.7" fill="#8bb7f0" stroke="#4e7ab5"/><path d="M1007.733 36.844c1.1 0 2.2.5 3 1.3.8.8 1.3 1.9 1.3 3s-.5 2.2-1.3 3c-.8.8-1.9 1.3-3 1.3s-2.2-.5-3-1.3c-.8-.8-1.3-1.9-1.3-3s.4-2.2 1.3-3c.8-.8 1.9-1.3 3-1.3m9-20.844c1.1 0 2.2.5 3 1.3.8.8 1.3 1.9 1.3 3s-.5 2.2-1.3 3c-.8.8-1.9 1.3-3 1.3s-2.2-.5-3-1.3c-.8-.8-1.3-1.9-1.3-3s.5-2.2 1.3-3c.8-.9 1.8-1.3 3-1.3m18.945 22.856c1.1 0 2.2.444 3 1.3.8.8 1.3 1.9 1.3 3s-.5 2.2-1.3 3c-.8.8-1.9 1.3-3 1.3s-2.2-.5-3-1.3c-.8-.8-1.3-1.9-1.3-3s.5-2.2 1.3-3c.8-.8 1.9-1.3 3-1.3m13.466-28.245c-.7.5-1.3 1.3-1.6 2.1-.3.9-.3 1.8 0 2.6.3.9.8 1.6 1.6 2.1.7.5 1.6.8 2.5.8.9 0 1.8-.3 2.5-.8s1.3-1.3 1.6-2.1c.3-.9.3-1.8 0-2.6-.3-.9-.8-1.6-1.6-2.1-.7-.5-1.6-.8-2.5-.8-.9 0-1.8.245-2.5.8m18.956 20.133c1.1 0 2.2.445 3 1.3.8.8 1.3 1.9 1.3 3s-.4 2.2-1.3 3c-.8.8-1.9 1.3-3 1.3s-2.2-.4-3-1.3c-.8-.8-1.3-1.9-1.3-3s.5-2.2 1.3-3c.8-.9 1.8-1.3 3-1.3m12.5-9.644c.7.5 1.6.8 2.5.8.9 0 1.8-.3 2.5-.8s1.3-1.3 1.6-2.1c.3-.9.3-1.8 0-2.6-.3-.9-.8-1.6-1.6-2.1-.7-.5-1.6-.8-2.5-.8-.9 0-1.8.3-2.5.8s-1.3 1.3-1.6 2.1c-.3.9-.3 1.8 0 2.6.3.844.8 1.544 1.6 2.1" fill="#8bb7f0" stroke="#4e7ab5"/><path d="M1008.2 92.189h11.5v23.6h-11.5v-23.6zm14.7 2.8h11.9v36.8h-11.9v-36.8zm15.1 18.689h12v29h-12v-29zm14.9 1.611h12.1v46.9h-12.1v-46.9zm15.3 28.944h11.6v38.7h-11.6v-38.7zm14.6 13.489h12.2v59h-12.2v-59z" fill="#bae0bd" stroke="#5e9c76"/></g><g stroke-miterlimit="10"><path d="M1110.317 37.089l8.339-7.3 1.7 2-8.4 7.2zm11.7-15.75l-1 2.261 10.4 6.039 1.3-1.939zm16.089 16.861l9.7-11.639 1.7 1.6-9.5 11.6zm17.433-20.939l10.4 6.061 1.3-2.061-10.6-6.039zm15.05 12.828l9.661-11.139 2 1.639-9.6 11.3-1.9-1.7" fill="#8bb7f0" stroke="#4e7ab5"/><path d="M1108.017 36.389c1.1 0 2.2.5 3 1.3.8.8 1.3 1.9 1.3 3s-.5 2.2-1.3 3c-.8.8-1.9 1.3-3 1.3s-2.2-.5-3-1.3c-.8-.8-1.3-1.9-1.3-3s.4-2.2 1.3-3c.8-.8 1.9-1.3 3-1.3m9.7-19.789c1.1 0 2.2.5 3 1.3.8.8 1.3 1.9 1.3 3s-.5 2.2-1.3 3c-.8.8-1.9 1.3-3 1.3s-2.2-.5-3-1.3c-.8-.8-1.3-1.9-1.3-3s.5-2.2 1.3-3c.8-.9 1.8-1.3 3-1.3m18.789 21.261c1.1 0 2.2.439 3 1.3.8.8 1.3 1.9 1.3 3s-.5 2.2-1.3 3c-.8.8-1.9 1.3-3 1.3s-2.2-.5-3-1.3c-.8-.8-1.3-1.9-1.3-3s.5-2.2 1.3-3c.8-.8 1.9-1.3 3-1.3m13.333-26.839c-.7.5-1.3 1.3-1.6 2.1-.3.9-.3 1.8 0 2.6.3.9.8 1.6 1.6 2.1.7.5 1.6.8 2.5.8.9 0 1.8-.3 2.5-.8s1.3-1.3 1.6-2.1c.3-.9.3-1.8 0-2.6-.3-.9-.8-1.6-1.6-2.1-.7-.5-1.6-.8-2.5-.8-.9 0-1.8.239-2.5.8m19.111 18.767c1.1 0 2.2.439 3 1.3.8.8 1.3 1.9 1.3 3s-.4 2.2-1.3 3c-.8.8-1.9 1.3-3 1.3s-2.2-.4-3-1.3c-.8-.8-1.3-1.9-1.3-3s.5-2.2 1.3-3c.8-.9 1.8-1.3 3-1.3m12.5-9.639c.7.5 1.6.8 2.5.8.9 0 1.8-.3 2.5-.8s1.3-1.3 1.6-2.1c.3-.9.3-1.8 0-2.6-.3-.9-.8-1.6-1.6-2.1-.7-.5-1.6-.8-2.5-.8-.9 0-1.8.3-2.5.8s-1.3 1.3-1.6 2.1c-.3.9-.3 1.8 0 2.6.3.839.8 1.539 1.6 2.1" fill="#8bb7f0" stroke="#4e7ab5"/><path d="M1108.2 89.828h11.5v23.6h-11.5v-23.6zm14.7.8h11.9v36.8h-11.9v-36.8zm15.1 17.328h12v29h-12v-29zm14.9-.828h12.1v46.9h-12.1v-46.9zm15.3 26.339h11.6v38.7h-11.6v-38.7zm14.6 9.277h12.2v59h-12.2v-59z" fill="#bae0bd" stroke="#5e9c76"/></g><g stroke-miterlimit="10"><path d="M1210.6 36.633l8.333-7.3 1.7 2-8.4 7.2zm12.4-14.7l-1 2.267 10.4 6.033 1.3-1.933zm15.933 15.267l9.7-11.633 1.7 1.6-9.5 11.6zm17.3-19.533l10.4 6.066 1.3-2.066-10.6-6.034zm15.2 11.466L1281.1 18l2 1.633-9.6 11.3-1.9-1.7" fill="#8bb7f0" stroke="#4e7ab5"/><path d="M1208.3 35.933c1.1 0 2.2.5 3 1.3.8.8 1.3 1.9 1.3 3s-.5 2.2-1.3 3c-.8.8-1.9 1.3-3 1.3s-2.2-.5-3-1.3c-.8-.8-1.3-1.9-1.3-3s.4-2.2 1.3-3c.8-.8 1.9-1.3 3-1.3m10.4-18.733c1.1 0 2.2.5 3 1.3.8.8 1.3 1.9 1.3 3s-.5 2.2-1.3 3c-.8.8-1.9 1.3-3 1.3s-2.2-.5-3-1.3c-.8-.8-1.3-1.9-1.3-3s.5-2.2 1.3-3c.8-.9 1.8-1.3 3-1.3m18.633 19.667c1.1 0 2.2.433 3 1.3.8.8 1.3 1.9 1.3 3s-.5 2.2-1.3 3c-.8.8-1.9 1.3-3 1.3s-2.2-.5-3-1.3c-.8-.8-1.3-1.9-1.3-3s.5-2.2 1.3-3c.8-.8 1.9-1.3 3-1.3m13.2-25.434c-.7.5-1.3 1.3-1.6 2.1-.3.9-.3 1.8 0 2.6.3.9.8 1.6 1.6 2.1.7.5 1.6.8 2.5.8.9 0 1.8-.3 2.5-.8s1.3-1.3 1.6-2.1c.3-.9.3-1.8 0-2.6-.3-.9-.8-1.6-1.6-2.1-.7-.5-1.6-.8-2.5-.8-.9 0-1.8.234-2.5.8m19.267 17.4c1.1 0 2.2.434 3 1.3.8.8 1.3 1.9 1.3 3s-.4 2.2-1.3 3c-.8.8-1.9 1.3-3 1.3s-2.2-.4-3-1.3c-.8-.8-1.3-1.9-1.3-3s.5-2.2 1.3-3c.8-.9 1.8-1.3 3-1.3m12.5-9.633c.7.5 1.6.8 2.5.8.9 0 1.8-.3 2.5-.8s1.3-1.3 1.6-2.1c.3-.9.3-1.8 0-2.6-.3-.9-.8-1.6-1.6-2.1-.7-.5-1.6-.8-2.5-.8-.9 0-1.8.3-2.5.8s-1.3 1.3-1.6 2.1c-.3.9-.3 1.8 0 2.6.3.833.8 1.533 1.6 2.1" fill="#8bb7f0" stroke="#4e7ab5"/><path d="M1208.2 87.467h11.5v23.6h-11.5v-23.6zm14.7-1.2h11.9v36.8h-11.9v-36.8zm15.1 15.966h12v29h-12v-29zm14.9-3.266h12.1v46.9h-12.1v-46.9zm15.3 23.733h11.6v38.7h-11.6v-38.7zm14.6 5.067h12.2v59h-12.2v-59z" fill="#bae0bd" stroke="#5e9c76"/></g><g stroke-miterlimit="10"><path d="M1310.883 36.178l8.328-7.3 1.7 2-8.4 7.2zm13.1-13.65l-1 2.272 10.4 6.028 1.3-1.928zm15.778 13.672l9.7-11.628 1.7 1.6-9.5 11.6zm17.167-18.128l10.4 6.072 1.3-2.072-10.6-6.028zm15.35 10.106l9.672-11.128 2 1.628-9.6 11.3-1.9-1.7" fill="#8bb7f0" stroke="#4e7ab5"/><path d="M1308.583 35.478c1.1 0 2.2.5 3 1.3.8.8 1.3 1.9 1.3 3s-.5 2.2-1.3 3c-.8.8-1.9 1.3-3 1.3s-2.2-.5-3-1.3c-.8-.8-1.3-1.9-1.3-3s.4-2.2 1.3-3c.8-.8 1.9-1.3 3-1.3m11.1-17.678c1.1 0 2.2.5 3 1.3.8.8 1.3 1.9 1.3 3s-.5 2.2-1.3 3c-.8.8-1.9 1.3-3 1.3s-2.2-.5-3-1.3c-.8-.8-1.3-1.9-1.3-3s.5-2.2 1.3-3c.8-.9 1.8-1.3 3-1.3m18.478 18.072c1.1 0 2.2.428 3 1.3.8.8 1.3 1.9 1.3 3s-.5 2.2-1.3 3c-.8.8-1.9 1.3-3 1.3s-2.2-.5-3-1.3c-.8-.8-1.3-1.9-1.3-3s.5-2.2 1.3-3c.8-.8 1.9-1.3 3-1.3m13.067-24.028c-.7.5-1.3 1.3-1.6 2.1-.3.9-.3 1.8 0 2.6.3.9.8 1.6 1.6 2.1.7.5 1.6.8 2.5.8.9 0 1.8-.3 2.5-.8s1.3-1.3 1.6-2.1c.3-.9.3-1.8 0-2.6-.3-.9-.8-1.6-1.6-2.1-.7-.5-1.6-.8-2.5-.8-.9 0-1.8.228-2.5.8m19.422 16.034c1.1 0 2.2.428 3 1.3.8.8 1.3 1.9 1.3 3s-.4 2.2-1.3 3c-.8.8-1.9 1.3-3 1.3s-2.2-.4-3-1.3c-.8-.8-1.3-1.9-1.3-3s.5-2.2 1.3-3c.8-.9 1.8-1.3 3-1.3m12.5-9.628c.7.5 1.6.8 2.5.8.9 0 1.8-.3 2.5-.8s1.3-1.3 1.6-2.1c.3-.9.3-1.8 0-2.6-.3-.9-.8-1.6-1.6-2.1-.7-.5-1.6-.8-2.5-.8-.9 0-1.8.3-2.5.8s-1.3 1.3-1.6 2.1c-.3.9-.3 1.8 0 2.6.3.828.8 1.528 1.6 2.1" fill="#8bb7f0" stroke="#4e7ab5"/><path d="M1308.2 85.106h11.5v23.6h-11.5v-23.6zm14.7-3.2h11.9v36.8h-11.9v-36.8zm15.1 14.605h12v29h-12v-29zm14.9-5.705h12.1v46.9h-12.1v-46.9zm15.3 21.127h11.6v38.7h-11.6v-38.7zm14.6.856h12.2v59h-12.2v-59z" fill="#bae0bd" stroke="#5e9c76"/></g><g stroke-miterlimit="10"><path d="M1411.167 35.722l8.322-7.3 1.7 2-8.4 7.2zm13.8-12.6l-1 2.278 10.4 6.022 1.3-1.922zm15.622 12.078l9.7-11.622 1.7 1.6-9.5 11.6zm17.033-16.722l10.4 6.078 1.3-2.078-10.6-6.022zm15.5 8.744L1482.8 16.1l2 1.622-9.6 11.3-1.9-1.7" fill="#8bb7f0" stroke="#4e7ab5"/><path d="M1408.867 35.022c1.1 0 2.2.5 3 1.3.8.8 1.3 1.9 1.3 3s-.5 2.2-1.3 3c-.8.8-1.9 1.3-3 1.3s-2.2-.5-3-1.3c-.8-.8-1.3-1.9-1.3-3s.4-2.2 1.3-3c.8-.8 1.9-1.3 3-1.3m11.8-16.622c1.1 0 2.2.5 3 1.3.8.8 1.3 1.9 1.3 3s-.5 2.2-1.3 3c-.8.8-1.9 1.3-3 1.3s-2.2-.5-3-1.3c-.8-.8-1.3-1.9-1.3-3s.5-2.2 1.3-3c.8-.9 1.8-1.3 3-1.3m18.322 16.478c1.1 0 2.2.422 3 1.3.8.8 1.3 1.9 1.3 3s-.5 2.2-1.3 3c-.8.8-1.9 1.3-3 1.3s-2.2-.5-3-1.3c-.8-.8-1.3-1.9-1.3-3s.5-2.2 1.3-3c.8-.8 1.9-1.3 3-1.3m12.933-22.622c-.7.5-1.3 1.3-1.6 2.1-.3.9-.3 1.8 0 2.6.3.9.8 1.6 1.6 2.1.7.5 1.6.8 2.5.8.9 0 1.8-.3 2.5-.8s1.3-1.3 1.6-2.1c.3-.9.3-1.8 0-2.6-.3-.9-.8-1.6-1.6-2.1-.7-.5-1.6-.8-2.5-.8-.9 0-1.8.222-2.5.8m19.578 14.666c1.1 0 2.2.422 3 1.3.8.8 1.3 1.9 1.3 3s-.4 2.2-1.3 3c-.8.8-1.9 1.3-3 1.3s-2.2-.4-3-1.3c-.8-.8-1.3-1.9-1.3-3s.5-2.2 1.3-3c.8-.9 1.8-1.3 3-1.3M1484 17.3c.7.5 1.6.8 2.5.8.9 0 1.8-.3 2.5-.8s1.3-1.3 1.6-2.1c.3-.9.3-1.8 0-2.6-.3-.9-.8-1.6-1.6-2.1-.7-.5-1.6-.8-2.5-.8-.9 0-1.8.3-2.5.8s-1.3 1.3-1.6 2.1c-.3.9-.3 1.8 0 2.6.3.822.8 1.522 1.6 2.1" fill="#8bb7f0" stroke="#4e7ab5"/><path d="M1408.2 82.744h11.5v23.6h-11.5v-23.6zm14.7-5.2h11.9v36.8h-11.9v-36.8zm15.1 13.245h12v29h-12v-29zm14.9-8.145h12.1v46.9h-12.1v-46.9zm15.3 18.523h11.6v38.7h-11.6v-38.7zm14.6-3.356h12.2v59h-12.2v-59z" fill="#bae0bd" stroke="#5e9c76"/></g><g stroke-miterlimit="10"><path d="M1511.45 35.267l8.317-7.3 1.7 2-8.4 7.2zm14.5-11.55l-1 2.283 10.4 6.017 1.3-1.917zm15.467 10.483l9.7-11.617 1.7 1.6-9.5 11.6zm16.9-15.317l10.4 6.084 1.3-2.084-10.6-6.016zm15.65 7.384l9.683-11.117 2 1.617-9.6 11.3-1.9-1.7" fill="#8bb7f0" stroke="#4e7ab5"/><path d="M1509.15 34.567c1.1 0 2.2.5 3 1.3.8.8 1.3 1.9 1.3 3s-.5 2.2-1.3 3c-.8.8-1.9 1.3-3 1.3s-2.2-.5-3-1.3c-.8-.8-1.3-1.9-1.3-3s.4-2.2 1.3-3c.8-.8 1.9-1.3 3-1.3M1521.65 19c1.1 0 2.2.5 3 1.3.8.8 1.3 1.9 1.3 3s-.5 2.2-1.3 3c-.8.8-1.9 1.3-3 1.3s-2.2-.5-3-1.3c-.8-.8-1.3-1.9-1.3-3s.5-2.2 1.3-3c.8-.9 1.8-1.3 3-1.3m18.167 14.883c1.1 0 2.2.417 3 1.3.8.8 1.3 1.9 1.3 3s-.5 2.2-1.3 3c-.8.8-1.9 1.3-3 1.3s-2.2-.5-3-1.3c-.8-.8-1.3-1.9-1.3-3s.5-2.2 1.3-3c.8-.8 1.9-1.3 3-1.3m12.8-21.216c-.7.5-1.3 1.3-1.6 2.1-.3.9-.3 1.8 0 2.6.3.9.8 1.6 1.6 2.1.7.5 1.6.8 2.5.8.9 0 1.8-.3 2.5-.8s1.3-1.3 1.6-2.1c.3-.9.3-1.8 0-2.6-.3-.9-.8-1.6-1.6-2.1-.7-.5-1.6-.8-2.5-.8-.9 0-1.8.216-2.5.8m19.733 13.3c1.1 0 2.2.416 3 1.3.8.8 1.3 1.9 1.3 3s-.4 2.2-1.3 3c-.8.8-1.9 1.3-3 1.3s-2.2-.4-3-1.3c-.8-.8-1.3-1.9-1.3-3s.5-2.2 1.3-3c.8-.9 1.8-1.3 3-1.3m12.5-9.617c.7.5 1.6.8 2.5.8.9 0 1.8-.3 2.5-.8s1.3-1.3 1.6-2.1c.3-.9.3-1.8 0-2.6-.3-.9-.8-1.6-1.6-2.1-.7-.5-1.6-.8-2.5-.8-.9 0-1.8.3-2.5.8s-1.3 1.3-1.6 2.1c-.3.9-.3 1.8 0 2.6.3.817.8 1.517 1.6 2.1" fill="#8bb7f0" stroke="#4e7ab5"/><path d="M1508.2 80.383h11.5v23.6h-11.5v-23.6zm14.7-7.2h11.9v36.8h-11.9v-36.8zm15.1 11.884h12v29h-12v-29zm14.9-10.584h12.1v46.9h-12.1v-46.9zm15.3 15.917h11.6v38.7h-11.6V90.4zm14.6-7.567h12.2v59h-12.2v-59z" fill="#bae0bd" stroke="#5e9c76"/></g><g stroke-miterlimit="10"><path d="M1611.733 34.811l8.311-7.3 1.7 2-8.4 7.2zm15.2-10.5l-1 2.289 10.4 6.011 1.3-1.911zm15.311 8.889l9.7-11.611 1.7 1.6-9.5 11.6zm16.767-13.911l10.4 6.089 1.3-2.089-10.6-6.011zm15.8 6.022L1684.5 14.2l2 1.611-9.6 11.3-1.9-1.7" fill="#8bb7f0" stroke="#4e7ab5"/><path d="M1609.433 34.111c1.1 0 2.2.5 3 1.3.8.8 1.3 1.9 1.3 3s-.5 2.2-1.3 3c-.8.8-1.9 1.3-3 1.3s-2.2-.5-3-1.3c-.8-.8-1.3-1.9-1.3-3s.4-2.2 1.3-3c.8-.8 1.9-1.3 3-1.3m13.2-14.511c1.1 0 2.2.5 3 1.3.8.8 1.3 1.9 1.3 3s-.5 2.2-1.3 3c-.8.8-1.9 1.3-3 1.3s-2.2-.5-3-1.3c-.8-.8-1.3-1.9-1.3-3s.5-2.2 1.3-3c.8-.9 1.8-1.3 3-1.3m18.011 13.289c1.1 0 2.2.411 3 1.3.8.8 1.3 1.9 1.3 3s-.5 2.2-1.3 3c-.8.8-1.9 1.3-3 1.3s-2.2-.5-3-1.3c-.8-.8-1.3-1.9-1.3-3s.5-2.2 1.3-3c.8-.8 1.9-1.3 3-1.3m12.667-19.811c-.7.5-1.3 1.3-1.6 2.1-.3.9-.3 1.8 0 2.6.3.9.8 1.6 1.6 2.1.7.5 1.6.8 2.5.8.9 0 1.8-.3 2.5-.8s1.3-1.3 1.6-2.1c.3-.9.3-1.8 0-2.6-.3-.9-.8-1.6-1.6-2.1-.7-.5-1.6-.8-2.5-.8-.9 0-1.8.211-2.5.8m19.889 11.933c1.1 0 2.2.411 3 1.3.8.8 1.3 1.9 1.3 3s-.4 2.2-1.3 3c-.8.8-1.9 1.3-3 1.3s-2.2-.4-3-1.3c-.8-.8-1.3-1.9-1.3-3s.5-2.2 1.3-3c.8-.9 1.8-1.3 3-1.3m12.5-9.611c.7.5 1.6.8 2.5.8.9 0 1.8-.3 2.5-.8s1.3-1.3 1.6-2.1c.3-.9.3-1.8 0-2.6-.3-.9-.8-1.6-1.6-2.1-.7-.5-1.6-.8-2.5-.8-.9 0-1.8.3-2.5.8s-1.3 1.3-1.6 2.1c-.3.9-.3 1.8 0 2.6.3.811.8 1.511 1.6 2.1" fill="#8bb7f0" stroke="#4e7ab5"/><path d="M1608.2 78.022h11.5v23.6h-11.5v-23.6zm14.7-9.2h11.9v36.8h-11.9v-36.8zm15.1 10.522h12v29h-12v-29zm14.9-13.022h12.1v46.9h-12.1v-46.9zm15.3 13.311h11.6v38.7h-11.6v-38.7zm14.6-11.777h12.2v59h-12.2v-59z" fill="#bae0bd" stroke="#5e9c76"/></g><g stroke-miterlimit="10"><path d="M1712.017 34.356l8.305-7.3 1.7 2-8.4 7.2zm15.9-9.45l-1 2.294 10.4 6.006 1.3-1.906zm15.155 7.294l9.7-11.606 1.7 1.6-9.5 11.6zm16.634-12.506l10.4 6.095 1.3-2.095-10.6-6.005zm15.95 4.662l9.694-11.106 2 1.606-9.6 11.3-1.9-1.7" fill="#8bb7f0" stroke="#4e7ab5"/><path d="M1709.717 33.656c1.1 0 2.2.5 3 1.3.8.8 1.3 1.9 1.3 3s-.5 2.2-1.3 3c-.8.8-1.9 1.3-3 1.3s-2.2-.5-3-1.3c-.8-.8-1.3-1.9-1.3-3s.4-2.2 1.3-3c.8-.8 1.9-1.3 3-1.3m13.9-13.456c1.1 0 2.2.5 3 1.3.8.8 1.3 1.9 1.3 3s-.5 2.2-1.3 3c-.8.8-1.9 1.3-3 1.3s-2.2-.5-3-1.3c-.8-.8-1.3-1.9-1.3-3s.5-2.2 1.3-3c.8-.9 1.8-1.3 3-1.3m17.855 11.694c1.1 0 2.2.406 3 1.3.8.8 1.3 1.9 1.3 3s-.5 2.2-1.3 3c-.8.8-1.9 1.3-3 1.3s-2.2-.5-3-1.3c-.8-.8-1.3-1.9-1.3-3s.5-2.2 1.3-3c.8-.8 1.9-1.3 3-1.3m12.534-18.405c-.7.5-1.3 1.3-1.6 2.1-.3.9-.3 1.8 0 2.6.3.9.8 1.6 1.6 2.1.7.5 1.6.8 2.5.8.9 0 1.8-.3 2.5-.8s1.3-1.3 1.6-2.1c.3-.9.3-1.8 0-2.6-.3-.9-.8-1.6-1.6-2.1-.7-.5-1.6-.8-2.5-.8-.9 0-1.8.205-2.5.8m20.044 10.567c1.1 0 2.2.405 3 1.3.8.8 1.3 1.9 1.3 3s-.4 2.2-1.3 3c-.8.8-1.9 1.3-3 1.3s-2.2-.4-3-1.3c-.8-.8-1.3-1.9-1.3-3s.5-2.2 1.3-3c.8-.9 1.8-1.3 3-1.3m12.5-9.606c.7.5 1.6.8 2.5.8.9 0 1.8-.3 2.5-.8s1.3-1.3 1.6-2.1c.3-.9.3-1.8 0-2.6-.3-.9-.8-1.6-1.6-2.1-.7-.5-1.6-.8-2.5-.8-.9 0-1.8.3-2.5.8s-1.3 1.3-1.6 2.1c-.3.9-.3 1.8 0 2.6.3.806.8 1.506 1.6 2.1" fill="#8bb7f0" stroke="#4e7ab5"/><path d="M1708.2 75.661h11.5v23.6h-11.5v-23.6zm14.7-11.2h11.9v36.8h-11.9v-36.8zm15.1 9.161h12v29h-12v-29zm14.9-15.461h12.1v46.9h-12.1v-46.9zm15.3 10.706h11.6v38.7h-11.6v-38.7zm14.6-15.989h12.2v59h-12.2v-59z" fill="#bae0bd" stroke="#5e9c76"/></g><g stroke-miterlimit="10"><path d="M1812.3 33.9l8.3-7.3 1.7 2-8.4 7.2zm16.6-8.4l-1 2.3 10.4 6 1.3-1.9zm15 5.7l9.7-11.6 1.7 1.6-9.5 11.6zm16.5-11.1l10.4 6.1 1.3-2.1-10.6-6zm16.1 3.3l9.7-11.1 2 1.6-9.6 11.3-1.9-1.7" fill="#8bb7f0" stroke="#4e7ab5"/><path d="M1810 33.2c1.1 0 2.2.5 3 1.3.8.8 1.3 1.9 1.3 3s-.5 2.2-1.3 3c-.8.8-1.9 1.3-3 1.3s-2.2-.5-3-1.3c-.8-.8-1.3-1.9-1.3-3s.4-2.2 1.3-3c.8-.8 1.9-1.3 3-1.3m14.6-12.4c1.1 0 2.2.5 3 1.3.8.8 1.3 1.9 1.3 3s-.5 2.2-1.3 3c-.8.8-1.9 1.3-3 1.3s-2.2-.5-3-1.3c-.8-.8-1.3-1.9-1.3-3s.5-2.2 1.3-3c.8-.9 1.8-1.3 3-1.3m17.7 10.1c1.1 0 2.2.4 3 1.3.8.8 1.3 1.9 1.3 3s-.5 2.2-1.3 3c-.8.8-1.9 1.3-3 1.3s-2.2-.5-3-1.3c-.8-.8-1.3-1.9-1.3-3s.5-2.2 1.3-3c.8-.8 1.9-1.3 3-1.3m12.4-17c-.7.5-1.3 1.3-1.6 2.1-.3.9-.3 1.8 0 2.6.3.9.8 1.6 1.6 2.1.7.5 1.6.8 2.5.8.9 0 1.8-.3 2.5-.8s1.3-1.3 1.6-2.1c.3-.9.3-1.8 0-2.6-.3-.9-.8-1.6-1.6-2.1-.7-.5-1.6-.8-2.5-.8-.9 0-1.8.2-2.5.8m20.2 9.2c1.1 0 2.2.4 3 1.3.8.8 1.3 1.9 1.3 3s-.4 2.2-1.3 3c-.8.8-1.9 1.3-3 1.3s-2.2-.4-3-1.3c-.8-.8-1.3-1.9-1.3-3s.5-2.2 1.3-3c.8-.9 1.8-1.3 3-1.3m12.5-9.6c.7.5 1.6.8 2.5.8.9 0 1.8-.3 2.5-.8s1.3-1.3 1.6-2.1c.3-.9.3-1.8 0-2.6-.3-.9-.8-1.6-1.6-2.1-.7-.5-1.6-.8-2.5-.8-.9 0-1.8.3-2.5.8s-1.3 1.3-1.6 2.1c-.3.9-.3 1.8 0 2.6s.8 1.5 1.6 2.1" fill="#8bb7f0" stroke="#4e7ab5"/><path d="M1808.2 73.3h11.5v23.6h-11.5V73.3zm14.7-13.2h11.9v36.8h-11.9V60.1zm15.1 7.8h12v29h-12v-29zm14.9-17.9h12.1v46.9h-12.1V50zm15.3 8.1h11.6v38.7h-11.6V58.1zm14.6-20.2h12.2v59h-12.2v-59z" fill="#bae0bd" stroke="#5e9c76"/></g></svg>