<svg xmlns="http://www.w3.org/2000/svg" viewBox="0 0 1900 100" width="1900" height="100"><g stroke-miterlimit="10"><path d="M86.34 91.95v21.91l-.07 1.38c0 .06-.02.11-.06.15-.38.39-.92.92-1.61 1.51-1.59 1.35-3.03 2.12-4.21 2.84-.91.55-4.07 2.42-8.61 4.21-4.76 1.87-8.57 2.66-9.49 2.84-8.21 1.59-14.96.75-22.6-.2-2.07-.26-4.19-.59-6.65-1.17-4.01-.95-6.92-2.1-8.22-2.64-.72-.3-5.61-2.36-8.22-4.79-.9-.84-1.66-1.76-1.66-1.76-.71-.85-1.24-1.65-1.63-2.29-.02-.04-.03-.08-.03-.12L13.47 91l3.73 1.27 3.62 2.25c2.21 1.13 5.44 2.6 9.49 3.82 13.42 4.04 24.81 2.03 29.35 1.17 4.13-.78 9.92-2.28 16.43-5.38l5.28-2.15 2.84-.39 2.13.36zM13.74 48.34c2.02.88 4.15 1.73 6.39 2.54 3.18 1.15 10.01 3.59 18.78 4.99 6.23.99 14.53 2.32 24.95.39 6.65-1.23 11.87-3.36 15.26-4.99l7.31-2.25v21.33c-.42.36-1.01.88-1.73 1.47-1.79 1.46-4.58 3.71-8.41 5.77-1.22.66-4.63 2.41-9.39 3.72-4.23 1.16-7.47 1.4-10.96 1.66-5.68.42-10.08.13-11.74 0-4.8-.38-9.29-.73-14.58-2.64-3.22-1.17-8.21-3.44-13.4-8.02l-2.65-2.93.17-21.04M87.68 24.55c-.77.91-1.95 2.14-3.58 3.34-1.93 1.39-3.79 2.21-6.46 3.13-5.34 1.83-9.72 2.6-10.47 2.74-6.56 1.22-11.65 1.25-15.55 1.27-7.67.03-13.22-.81-14.87-1.08-3.69-.59-6.6-1.08-10.27-2.54-3.99-1.59-7-3.57-9-5.09L15 23.87 15.19.46c0-.23.31-.31.43-.11.53.92 1.3 2.01 2.39 3.08 1.73 1.71 3.66 2.75 6.54 3.82 3.06 1.13 6.25 1.94 11.15 2.67 3.21.475 6.063.755 8.349.922 2.286.168 4.006.223 4.951.248 6.6.16 11.47-.34 12.59-.46 4.85-.52 8.21-1.28 10.63-1.83.7-.16 3.59-.84 6.98-2.22 1.33-.54 2.42-1.06 3.59-1.89 1.27-.9 2.19-1.84 2.8-2.54L87.27.08c.14-.16.41-.07.41.15v24.32M50-35.11c-9.608 0-18.832 1.281-25.626 3.559-6.793 2.277-10.614 5.37-10.614 8.591 0 3.221 3.821 6.314 10.614 8.591C31.168-12.091 40.392-10.81 50-10.81s18.832-1.281 25.626-3.559c6.793-2.277 10.614-5.37 10.614-8.591 0-3.221-3.821-6.314-10.614-8.591C68.832-33.829 59.608-35.11 50-35.11z" fill="#dcd5f2" stroke="#8b75a1"/><path d="M73.88 92.86l-7.38-3.44c-.13-.06-.28-.05-.4.03l-4.34 3.04c-.17.12-.41.09-.54-.08l-4.25-5.34c-.13-.16-.11-.39.03-.53l4.23-4.11c.09-.08.13-.2.12-.32l-.71-8.17c-.01-.12-.07-.23-.17-.29l-4.35-3.01c-.16-.11-.22-.32-.13-.5l2.64-5.52c.09-.18.29-.27.48-.21l4.96 1.52c.12.04.24.02.35-.05l6.71-4.7c.1-.07.16-.18.17-.3l.39-5.58c.01-.2.17-.35.36-.37l6.07-.53c.2-.02.38.11.42.31l1.23 5.43c.03.12.11.22.22.27l7.44 3.47c.1.05.21.05.32.01l5.2-2.05c.17-.07.37-.01.48.15l3.03 4.53c.11.16.09.37-.05.5l-3.77 3.82c-.08.08-.12.2-.11.32l.72 8.18c.01.11.07.21.16.28l4.41 3.35c.15.12.2.33.11.5l-2.66 5.19c-.09.17-.29.26-.47.2l-4.97-1.52c-.12-.04-.24-.02-.35.05l-6.7 4.69c-.1.07-.17.19-.17.32l-.1 5.44c0 .2-.16.37-.36.39l-6.45.57c-.2.02-.38-.12-.42-.31l-1.17-5.34c-.03-.13-.11-.23-.23-.29z" fill="#8bb7f0" stroke="#4e7ab5"/><path d="M79.87 69.41l3.71 2.14 2.14 3.72v4.28l-2.14 3.72-3.71 2.14h-4.29l-3.71-2.14-2.15-3.72v-4.28l2.15-3.72 3.71-2.14z" fill="#ffffff" stroke="#4e7ab5"/></g><g stroke-miterlimit="10"><path d="M186.334 90.298v21.91l-.07 1.38c0 .06-.02.11-.06.15-.38.39-.92.92-1.61 1.51-1.59 1.35-3.03 2.12-4.21 2.84-.91.55-4.07 2.42-8.61 4.21-4.76 1.87-8.57 2.66-9.49 2.84-8.21 1.59-14.96.75-22.6-.2-2.07-.26-4.19-.59-6.65-1.17-4.01-.95-6.92-2.1-8.22-2.64-.72-.3-5.61-2.36-8.22-4.79-.9-.84-1.66-1.76-1.66-1.76-.71-.85-1.24-1.65-1.63-2.29-.02-.04-.03-.08-.03-.12l.19-22.82 3.73 1.27 3.62 2.25c2.21 1.13 5.44 2.6 9.49 3.82 13.42 4.04 24.81 2.03 29.35 1.17 4.13-.78 9.92-2.28 16.43-5.38l5.28-2.15 2.84-.39 2.13.36zM113.73 47.888c2.02.88 4.15 1.73 6.39 2.54 3.18 1.15 10.01 3.59 18.78 4.99 6.23.99 14.53 2.32 24.95.39 6.65-1.23 11.87-3.36 15.26-4.99l7.31-2.25v21.33c-.42.36-1.01.88-1.73 1.47-1.79 1.46-4.58 3.71-8.41 5.77-1.22.66-4.63 2.41-9.39 3.72-4.23 1.16-7.47 1.4-10.96 1.66-5.68.42-10.08.13-11.74 0-4.8-.38-9.29-.73-14.58-2.64-3.22-1.17-8.21-3.44-13.4-8.02l-2.65-2.93.17-21.04M187.6 25.457c-.769.91-1.949 2.14-3.58 3.34-1.93 1.39-3.79 2.21-6.46 3.13-5.34 1.83-9.72 2.6-10.47 2.74-6.56 1.22-11.65 1.25-15.55 1.27-7.67.03-13.22-.81-14.87-1.08-3.69-.59-6.6-1.08-10.27-2.54-3.99-1.59-7-3.57-9-5.09l-2.48-2.45.19-23.41c0-.23.31-.31.43-.11.53.92 1.3 2.01 2.39 3.08 1.73 1.71 3.66 2.75 6.54 3.82 2.975 1.099 6.075 1.891 10.802 2.604 3.131.473 5.938.759 8.233.937 2.516.211 4.417.273 5.415.299 6.6.16 11.47-.34 12.59-.46 4.85-.52 8.21-1.28 10.63-1.83.7-.16 3.59-.84 6.98-2.22 1.33-.54 2.42-1.06 3.59-1.89 1.27-.9 2.19-1.84 2.8-2.54l1.68-2.07c.14-.16.41-.07.41.15v24.32M150-32.951c-9.608 0-18.832 1.281-25.626 3.559-6.793 2.277-10.614 5.37-10.614 8.591 0 3.221 3.821 6.314 10.614 8.591 6.794 2.278 16.018 3.559 25.626 3.559s18.832-1.281 25.626-3.559c6.793-2.277 10.614-5.37 10.614-8.591 0-3.221-3.821-6.314-10.614-8.591-6.794-2.278-16.018-3.559-25.626-3.559z" fill="#dcd5f2" stroke="#8b75a1"/><path d="M174.833 93l-7.566-3.007c-.13-.053-.28-.03-.394.057l-4.153 3.287c-.163.133-.403.11-.547-.047l-4.55-5.08c-.136-.153-.136-.383.004-.537l3.983-4.343c.083-.087.117-.207.1-.327l-1.183-8.103c-.017-.12-.084-.223-.19-.283l-4.517-2.75c-.167-.104-.24-.307-.163-.494l2.313-5.66c.077-.18.27-.283.467-.236l5.033 1.226c.12.034.247 0 .343-.07l6.417-5.073c.093-.077.147-.187.15-.307l.063-5.593c.004-.2.15-.363.34-.39l6.024-.883c.2-.027.386.09.44.283l1.543 5.343c.037.12.123.214.233.257l7.62 3.03c.1.043.217.037.314-.01l5.066-2.35c.17-.077.37-.03.487.123l3.283 4.344c.117.153.11.363-.016.5l-3.537 4.033c-.073.087-.113.207-.097.32l1.194 8.12c.016.11.076.21.173.273l4.59 3.09c.157.107.22.317.143.494l-2.353 5.33c-.077.176-.27.273-.457.226l-5.043-1.226c-.12-.034-.247 0-.343.07l-6.407 5.07c-.1.076-.157.203-.15.326l.213 5.434c.007.2-.14.376-.34.41l-6.396.936c-.2.027-.387-.093-.44-.283l-1.477-5.26c-.01-.123-.097-.223-.217-.27z" fill="#8bb7f0" stroke="#4e7ab5"/><path d="M179.87 69.41l3.71 2.14 2.14 3.72v4.28l-2.14 3.72-3.71 2.14h-4.29l-3.71-2.14-2.15-3.72v-4.28l2.15-3.72 3.71-2.14z" fill="#ffffff" stroke="#4e7ab5"/></g><g stroke-miterlimit="10"><path d="M286.329 88.646v21.91l-.07 1.38c0 .06-.02.11-.06.15-.38.39-.92.92-1.61 1.51-1.59 1.35-3.03 2.12-4.21 2.84-.91.55-4.07 2.42-8.61 4.21-4.76 1.87-8.57 2.66-9.49 2.84-8.21 1.59-14.96.75-22.6-.2-2.07-.26-4.19-.59-6.65-1.17-4.01-.95-6.92-2.1-8.22-2.64-.72-.3-5.61-2.36-8.22-4.79-.9-.84-1.66-1.76-1.66-1.76-.71-.85-1.24-1.65-1.63-2.29-.02-.04-.03-.08-.03-.12l.19-22.82 3.73 1.27 3.62 2.25c2.21 1.13 5.44 2.6 9.49 3.82 13.42 4.04 24.81 2.03 29.35 1.17 4.13-.78 9.92-2.28 16.43-5.38l5.28-2.15 2.84-.39 2.13.36zM213.72 47.436c2.02.88 4.15 1.73 6.39 2.54 3.18 1.15 10.01 3.59 18.78 4.99 6.23.99 14.53 2.32 24.95.39 6.65-1.23 11.87-3.36 15.26-4.99l7.31-2.25v21.33c-.42.36-1.01.88-1.73 1.47-1.79 1.46-4.58 3.71-8.41 5.77-1.22.66-4.63 2.41-9.39 3.72-4.23 1.16-7.47 1.4-10.96 1.66-5.68.42-10.08.13-11.74 0-4.8-.38-9.29-.73-14.58-2.64-3.22-1.17-8.21-3.44-13.4-8.02l-2.65-2.93.17-21.04M287.52 26.364c-.769.909-1.949 2.14-3.58 3.34-1.93 1.39-3.79 2.21-6.46 3.13-5.34 1.83-9.72 2.6-10.47 2.74-6.56 1.22-11.65 1.25-15.55 1.27-7.67.03-13.22-.81-14.87-1.08-3.69-.59-6.6-1.08-10.27-2.54-3.99-1.59-7-3.57-9-5.09l-2.48-2.45.19-23.41c0-.23.31-.31.43-.11.53.92 1.3 2.01 2.39 3.08 1.73 1.71 3.66 2.75 6.54 3.82 2.89 1.068 5.899 1.842 10.454 2.539 3.052.47 5.813.762 8.117.951 2.746.255 4.829.323 5.879.35 6.6.16 11.47-.34 12.59-.46 4.85-.52 8.21-1.28 10.63-1.83.7-.16 3.59-.84 6.98-2.22 1.33-.54 2.42-1.06 3.59-1.89 1.27-.9 2.19-1.84 2.8-2.54l1.68-2.07c.14-.16.41-.07.41.15v24.32M250-30.791c-9.608 0-18.832 1.281-25.626 3.559-6.793 2.277-10.614 5.37-10.614 8.591 0 3.221 3.821 6.314 10.614 8.591 6.794 2.278 16.018 3.559 25.626 3.559s18.832-1.281 25.626-3.559c6.793-2.277 10.614-5.37 10.614-8.591 0-3.221-3.821-6.314-10.614-8.591-6.794-2.278-16.018-3.559-25.626-3.559z" fill="#dcd5f2" stroke="#8b75a1"/><path d="M275.79 93.097l-7.73-2.564c-.133-.046-.28-.013-.39.08l-3.957 3.524c-.156.143-.396.133-.55-.014l-4.836-4.806c-.144-.147-.16-.377-.027-.537l3.723-4.567c.077-.093.104-.213.08-.333l-1.653-8.02c-.023-.117-.097-.217-.207-.273l-4.67-2.484c-.173-.093-.256-.293-.193-.483l1.98-5.783c.063-.184.253-.297.45-.264l5.097.93c.12.024.246-.016.336-.09l6.11-5.436c.09-.084.137-.194.13-.314l-.26-5.59c-.006-.2.127-.373.317-.41l5.963-1.233c.197-.037.39.07.457.257l1.853 5.243c.044.117.137.207.247.243l7.783 2.58c.104.037.22.024.31-.03l4.92-2.64c.167-.086.37-.05.494.094l3.53 4.146c.123.147.13.357.013.5l-3.283 4.237c-.07.093-.104.213-.08.323l1.663 8.037c.023.11.087.207.187.263l4.76 2.82c.163.097.24.304.173.484l-2.04 5.456c-.067.18-.253.287-.443.254l-5.107-.93c-.12-.024-.247.016-.337.09l-6.1 5.433c-.096.083-.143.213-.13.333l.527 5.414c.017.2-.117.383-.317.43l-6.326 1.303c-.197.037-.394-.07-.457-.257l-1.78-5.166c-.017-.117-.107-.214-.23-.25z" fill="#8bb7f0" stroke="#4e7ab5"/><path d="M279.87 69.41l3.71 2.14 2.14 3.72v4.28l-2.14 3.72-3.71 2.14h-4.29l-3.71-2.14-2.15-3.72v-4.28l2.15-3.72 3.71-2.14z" fill="#ffffff" stroke="#4e7ab5"/></g><g stroke-miterlimit="10"><path d="M386.323 86.993v21.91l-.07 1.38c0 .06-.02.11-.06.15-.38.39-.92.92-1.61 1.51-1.59 1.35-3.03 2.12-4.21 2.84-.91.55-4.07 2.42-8.61 4.21-4.76 1.87-8.57 2.66-9.49 2.84-8.21 1.59-14.96.75-22.6-.2-2.07-.26-4.19-.59-6.65-1.17-4.01-.95-6.92-2.1-8.22-2.64-.72-.3-5.61-2.36-8.22-4.79-.9-.84-1.66-1.76-1.66-1.76-.71-.85-1.24-1.65-1.63-2.29-.02-.04-.03-.08-.03-.12l.19-22.82 3.73 1.27 3.62 2.25c2.21 1.13 5.44 2.6 9.49 3.82 13.42 4.04 24.81 2.03 29.35 1.17 4.13-.78 9.92-2.28 16.43-5.38l5.28-2.15 2.84-.39 2.13.36zM313.71 46.983c2.02.88 4.15 1.73 6.39 2.54 3.18 1.15 10.01 3.59 18.78 4.99 6.23.99 14.53 2.32 24.95.39 6.65-1.23 11.87-3.36 15.26-4.99l7.31-2.25v21.33c-.42.36-1.01.88-1.73 1.47-1.79 1.46-4.58 3.71-8.41 5.77-1.22.66-4.63 2.41-9.39 3.72-4.23 1.16-7.47 1.4-10.96 1.66-5.68.42-10.08.13-11.74 0-4.8-.38-9.29-.73-14.58-2.64-3.22-1.17-8.21-3.44-13.4-8.02l-2.65-2.93.17-21.04M387.44 27.272c-.768.908-1.948 2.14-3.58 3.34-1.93 1.39-3.79 2.21-6.46 3.13-5.34 1.83-9.72 2.6-10.47 2.74-6.56 1.22-11.65 1.25-15.55 1.27-7.67.03-13.22-.81-14.87-1.08-3.69-.59-6.6-1.08-10.27-2.54-3.99-1.59-7-3.57-9-5.09l-2.48-2.45.19-23.41c0-.23.31-.31.43-.11.53.92 1.3 2.01 2.39 3.08 1.73 1.71 3.66 2.75 6.54 3.82 2.805 1.036 5.724 1.791 10.106 2.472 2.974.468 5.688.766 8.001.966 2.975.298 5.24.373 6.343.402 6.6.16 11.47-.34 12.59-.46 4.85-.52 8.21-1.28 10.63-1.83.7-.16 3.59-.84 6.98-2.22 1.33-.54 2.42-1.06 3.59-1.89 1.27-.9 2.19-1.84 2.8-2.54l1.68-2.07c.14-.16.41-.07.41.15v24.32M350-28.632c-9.608 0-18.832 1.281-25.626 3.559-6.793 2.277-10.614 5.37-10.614 8.591 0 3.221 3.821 6.314 10.614 8.591 6.794 2.278 16.018 3.559 25.626 3.559s18.832-1.281 25.626-3.559c6.793-2.277 10.614-5.37 10.614-8.591 0-3.221-3.821-6.314-10.614-8.591-6.794-2.278-16.018-3.559-25.626-3.559z" fill="#dcd5f2" stroke="#8b75a1"/><path d="M376.75 93.15l-7.87-2.11c-.14-.04-.28 0-.39.1l-3.75 3.75c-.15.15-.39.16-.55.02l-5.11-4.52c-.15-.14-.18-.37-.06-.53l3.45-4.78c.07-.1.09-.22.06-.34l-2.12-7.92c-.03-.11-.11-.21-.22-.26l-4.81-2.21c-.18-.08-.27-.28-.22-.47l1.64-5.89c.05-.19.24-.31.43-.29l5.15.63c.12.01.24-.03.33-.11l5.79-5.79c.09-.09.13-.2.11-.32l-.58-5.57c-.02-.2.1-.38.29-.43l5.89-1.58c.19-.05.39.05.47.23l2.16 5.13c.05.11.15.2.26.23l7.93 2.12c.11.03.22.01.31-.05l4.76-2.92c.16-.1.37-.07.5.06l3.77 3.94c.13.14.15.35.04.5l-3.01 4.43c-.07.1-.09.22-.06.33l2.13 7.93c.03.11.1.2.2.25l4.92 2.54c.17.09.26.29.2.47l-1.72 5.57c-.06.18-.24.3-.43.28l-5.16-.63c-.12-.01-.24.03-.33.11l-5.78 5.78c-.09.09-.13.22-.11.34l.84 5.38c.03.2-.09.39-.29.45l-6.24 1.67c-.19.05-.4-.05-.47-.23l-2.08-5.06c-.05-.11-.14-.2-.27-.23z" fill="#8bb7f0" stroke="#4e7ab5"/><path d="M379.87 69.41l3.71 2.14 2.14 3.72v4.28l-2.14 3.72-3.71 2.14h-4.29l-3.71-2.14-2.15-3.72v-4.28l2.15-3.72 3.71-2.14z" fill="#ffffff" stroke="#4e7ab5"/></g><g stroke-miterlimit="10"><path d="M486.318 85.341v21.91l-.07 1.38c0 .06-.02.11-.06.15-.38.39-.92.92-1.61 1.51-1.59 1.35-3.03 2.12-4.21 2.84-.91.55-4.07 2.42-8.61 4.21-4.76 1.87-8.57 2.66-9.49 2.84-8.21 1.59-14.96.75-22.6-.2-2.07-.26-4.19-.59-6.65-1.17-4.01-.95-6.92-2.1-8.22-2.64-.72-.3-5.61-2.36-8.22-4.79-.9-.84-1.66-1.76-1.66-1.76-.71-.85-1.24-1.65-1.63-2.29-.02-.04-.03-.08-.03-.12l.19-22.82 3.73 1.27 3.62 2.25c2.21 1.13 5.44 2.6 9.49 3.82 13.42 4.04 24.81 2.03 29.35 1.17 4.13-.78 9.92-2.28 16.43-5.38l5.28-2.15 2.84-.39 2.13.36zM413.7 46.531c2.02.88 4.15 1.73 6.39 2.54 3.18 1.15 10.01 3.59 18.78 4.99 6.23.99 14.53 2.32 24.95.39 6.65-1.23 11.87-3.36 15.26-4.99l7.31-2.25v21.33c-.42.36-1.01.88-1.73 1.47-1.79 1.46-4.58 3.71-8.41 5.77-1.22.66-4.63 2.41-9.39 3.72-4.23 1.16-7.47 1.4-10.96 1.66-5.68.42-10.08.13-11.74 0-4.8-.38-9.29-.73-14.58-2.64-3.22-1.17-8.21-3.44-13.4-8.02l-2.65-2.93.17-21.04M487.36 28.179c-.768.908-1.948 2.14-3.58 3.34-1.93 1.39-3.79 2.21-6.46 3.13-5.34 1.83-9.72 2.6-10.47 2.74-6.56 1.22-11.65 1.25-15.55 1.27-7.67.03-13.22-.81-14.87-1.08-3.69-.59-6.6-1.08-10.27-2.54-3.99-1.59-7-3.57-9-5.09l-2.48-2.45.19-23.41c0-.23.31-.31.43-.11.53.92 1.3 2.01 2.39 3.08 1.73 1.71 3.66 2.75 6.54 3.82 2.72 1.004 5.548 1.742 9.758 2.407 2.895.466 5.563.769 7.885.98 3.205.342 5.652.422 6.807.453 6.6.16 11.47-.34 12.59-.46 4.85-.52 8.21-1.28 10.63-1.83.7-.16 3.59-.84 6.98-2.22 1.33-.54 2.42-1.06 3.59-1.89 1.27-.9 2.19-1.84 2.8-2.54l1.68-2.07c.14-.16.41-.07.41.15v24.32M450-26.472c-9.608 0-18.832 1.281-25.626 3.559-6.793 2.277-10.614 5.37-10.614 8.591 0 3.221 3.821 6.314 10.614 8.591 6.794 2.278 16.018 3.559 25.626 3.559s18.832-1.281 25.626-3.559c6.793-2.277 10.614-5.37 10.614-8.591 0-3.221-3.821-6.314-10.614-8.591-6.794-2.278-16.018-3.559-25.626-3.559z" fill="#dcd5f2" stroke="#8b75a1"/><path d="M477.717 93.123l-7.97-1.643c-.14-.027-.28.02-.384.127l-3.523 3.956c-.143.157-.377.18-.543.047l-5.364-4.213c-.156-.127-.2-.357-.093-.53l3.163-4.967c.064-.1.077-.227.04-.34l-2.573-7.773c-.037-.11-.123-.204-.233-.247l-4.924-1.923c-.18-.074-.283-.267-.246-.457l1.293-5.97c.043-.19.22-.323.417-.317l5.17.33c.12.004.24-.043.323-.13l5.437-6.11c.083-.09.116-.206.096-.326l-.906-5.517c-.034-.193.08-.38.27-.443l5.783-1.914c.19-.063.397.024.483.204l2.454 4.99c.056.11.156.193.273.216l8.03 1.66c.11.024.22-.003.31-.063l4.58-3.193c.153-.107.363-.09.5.033l3.99 3.707c.137.126.17.336.067.5l-2.77 4.59c-.064.1-.077.22-.04.33l2.583 7.79c.037.11.113.193.213.236l5.06 2.247c.177.077.274.27.227.457l-1.393 5.656c-.047.187-.22.314-.41.3l-5.18-.33c-.12-.003-.24.044-.324.13l-5.433 6.1c-.083.097-.117.227-.09.347l1.153 5.313c.044.2-.07.397-.263.464l-6.127 2.03c-.19.063-.4-.024-.483-.204l-2.367-4.926c-.05-.117-.153-.2-.276-.224z" fill="#8bb7f0" stroke="#4e7ab5"/><path d="M479.87 69.41l3.71 2.14 2.14 3.72v4.28l-2.14 3.72-3.71 2.14h-4.29l-3.71-2.14-2.15-3.72v-4.28l2.15-3.72 3.71-2.14z" fill="#ffffff" stroke="#4e7ab5"/></g><g stroke-miterlimit="10"><path d="M586.312 83.689v21.91l-.07 1.38c0 .06-.02.11-.06.15-.38.39-.92.92-1.61 1.51-1.59 1.35-3.03 2.12-4.21 2.84-.91.55-4.07 2.42-8.61 4.21-4.76 1.87-8.57 2.66-9.49 2.84-8.21 1.59-14.96.75-22.6-.2-2.07-.26-4.19-.59-6.65-1.17-4.01-.95-6.92-2.1-8.22-2.64-.72-.3-5.61-2.36-8.22-4.79-.9-.84-1.66-1.76-1.66-1.76-.71-.85-1.24-1.65-1.63-2.29-.02-.04-.03-.08-.03-.12l.19-22.82 3.73 1.27 3.62 2.25c2.21 1.13 5.44 2.6 9.49 3.82 13.42 4.04 24.81 2.03 29.35 1.17 4.13-.78 9.92-2.28 16.43-5.38l5.28-2.15 2.84-.39 2.13.36zM513.69 46.079c2.02.88 4.15 1.73 6.39 2.54 3.18 1.15 10.01 3.59 18.78 4.99 6.23.99 14.53 2.32 24.95.39 6.65-1.23 11.87-3.36 15.26-4.99l7.31-2.25v21.33c-.42.36-1.01.88-1.73 1.47-1.79 1.46-4.58 3.71-8.41 5.77-1.22.66-4.63 2.41-9.39 3.72-4.23 1.16-7.47 1.4-10.96 1.66-5.68.42-10.08.13-11.74 0-4.8-.38-9.29-.73-14.58-2.64-3.22-1.17-8.21-3.44-13.4-8.02l-2.65-2.93.17-21.04M587.28 29.086c-.767.907-1.947 2.14-3.58 3.34-1.93 1.39-3.79 2.21-6.46 3.13-5.34 1.83-9.72 2.6-10.47 2.74-6.56 1.22-11.65 1.25-15.55 1.27-7.67.03-13.22-.81-14.87-1.08-3.69-.59-6.6-1.08-10.27-2.54-3.99-1.59-7-3.57-9-5.09l-2.48-2.45.19-23.41c0-.23.31-.31.43-.11.53.92 1.3 2.01 2.39 3.08 1.73 1.71 3.66 2.75 6.54 3.82 2.635.973 5.373 1.693 9.41 2.341 2.816.464 5.438.773 7.77.995 3.434.385 6.062.472 7.27.504 6.6.16 11.47-.34 12.59-.46 4.85-.52 8.21-1.28 10.63-1.83.7-.16 3.59-.84 6.98-2.22 1.33-.54 2.42-1.06 3.59-1.89 1.27-.9 2.19-1.84 2.8-2.54l1.68-2.07c.14-.16.41-.07.41.15v24.32M550-24.313c-9.608 0-18.832 1.281-25.626 3.559-6.793 2.277-10.614 5.37-10.614 8.591 0 3.221 3.821 6.314 10.614 8.591C531.168-1.294 540.392-.013 550-.013s18.832-1.281 25.626-3.559c6.793-2.277 10.614-5.37 10.614-8.591 0-3.221-3.821-6.314-10.614-8.591-6.794-2.278-16.018-3.559-25.626-3.559z" fill="#dcd5f2" stroke="#8b75a1"/><path d="M578.677 93.053l-8.054-1.176c-.14-.017-.28.036-.373.15l-3.287 4.153c-.133.163-.366.2-.54.077l-5.6-3.897c-.163-.117-.22-.343-.123-.523l2.87-5.14c.057-.104.063-.23.02-.34l-3.02-7.61c-.043-.11-.137-.197-.247-.234l-5.026-1.633c-.184-.063-.3-.25-.274-.44l.944-6.037c.033-.193.2-.336.4-.34l5.18.03c.12-.003.24-.056.316-.15l5.074-6.416c.076-.094.103-.214.08-.334l-1.227-5.453c-.043-.19.06-.383.247-.457l5.66-2.246c.186-.074.4 0 .493.176l2.74 4.84c.063.107.167.184.287.2l8.113 1.194c.11.016.22-.017.307-.08l4.386-3.457c.147-.113.357-.11.5.007l4.2 3.466c.144.117.19.327.097.497l-2.513 4.74c-.057.103-.064.223-.02.33l3.03 7.627c.043.106.126.186.226.223l5.184 1.947c.18.066.286.253.253.443l-1.063 5.727c-.034.19-.2.326-.394.323l-5.19-.03c-.12.003-.24.057-.316.15l-5.07 6.407c-.077.1-.104.233-.07.353l1.46 5.237c.056.196-.047.4-.237.476l-6 2.384c-.187.073-.4 0-.497-.177l-2.646-4.78c-.047-.113-.157-.19-.28-.207z" fill="#8bb7f0" stroke="#4e7ab5"/><path d="M579.87 69.41l3.71 2.14 2.14 3.72v4.28l-2.14 3.72-3.71 2.14h-4.29l-3.71-2.14-2.15-3.72v-4.28l2.15-3.72 3.71-2.14z" fill="#ffffff" stroke="#4e7ab5"/></g><g stroke-miterlimit="10"><path d="M686.307 82.037v21.91l-.07 1.38c0 .06-.02.11-.06.15-.38.39-.92.92-1.61 1.51-1.59 1.35-3.03 2.12-4.21 2.84-.91.55-4.07 2.42-8.61 4.21-4.76 1.87-8.57 2.66-9.49 2.84-8.21 1.59-14.96.75-22.6-.2-2.07-.26-4.19-.59-6.65-1.17-4.01-.95-6.92-2.1-8.22-2.64-.72-.3-5.61-2.36-8.22-4.79-.9-.84-1.66-1.76-1.66-1.76-.71-.85-1.24-1.65-1.63-2.29-.02-.04-.03-.08-.03-.12l.19-22.82 3.73 1.27 3.62 2.25c2.21 1.13 5.44 2.6 9.49 3.82 13.42 4.04 24.81 2.03 29.35 1.17 4.13-.78 9.92-2.28 16.43-5.38l5.28-2.15 2.84-.39 2.13.36zM613.68 45.627c2.02.88 4.15 1.73 6.39 2.54 3.18 1.15 10.01 3.59 18.78 4.99 6.23.99 14.53 2.32 24.95.39 6.65-1.23 11.87-3.36 15.26-4.99l7.31-2.25v21.33c-.42.36-1.01.88-1.73 1.47-1.79 1.46-4.58 3.71-8.41 5.77-1.22.66-4.63 2.41-9.39 3.72-4.23 1.16-7.47 1.4-10.96 1.66-5.68.42-10.08.13-11.74 0-4.8-.38-9.29-.73-14.58-2.64-3.22-1.17-8.21-3.44-13.4-8.02l-2.65-2.93.17-21.04M687.2 29.993c-.767.907-1.947 2.14-3.58 3.34-1.93 1.39-3.79 2.21-6.46 3.13-5.34 1.83-9.72 2.6-10.47 2.74-6.56 1.22-11.65 1.25-15.55 1.27-7.67.03-13.22-.81-14.87-1.08-3.69-.59-6.6-1.08-10.27-2.54-3.99-1.59-7-3.57-9-5.09l-2.48-2.45.19-23.41c0-.23.31-.31.43-.11.53.92 1.3 2.01 2.39 3.08 1.73 1.71 3.66 2.75 6.54 3.82 2.55.942 5.197 1.644 9.062 2.275 2.737.462 5.313.777 7.654 1.01 3.664.429 6.474.522 7.734.555 6.6.16 11.47-.34 12.59-.46 4.85-.52 8.21-1.28 10.63-1.83.7-.16 3.59-.84 6.98-2.22 1.33-.54 2.42-1.06 3.59-1.89 1.27-.9 2.19-1.84 2.8-2.54l1.68-2.07c.14-.16.41-.07.41.15v24.32M650-22.153c-9.608 0-18.832 1.281-25.626 3.559-6.793 2.277-10.614 5.37-10.614 8.591 0 3.221 3.821 6.314 10.614 8.591C631.168.866 640.392 2.147 650 2.147s18.832-1.281 25.626-3.559c6.793-2.277 10.614-5.37 10.614-8.591 0-3.221-3.821-6.314-10.614-8.591-6.794-2.278-16.018-3.559-25.626-3.559z" fill="#dcd5f2" stroke="#8b75a1"/><path d="M679.63 92.94l-8.12-.71c-.14-.01-.28.05-.36.17l-3.04 4.34c-.12.17-.36.22-.54.11l-5.82-3.57c-.17-.11-.24-.33-.15-.51l2.57-5.3c.05-.11.05-.23 0-.34l-3.46-7.43c-.05-.11-.15-.19-.26-.22l-5.12-1.34c-.19-.05-.32-.23-.3-.42l.59-6.09c.02-.2.18-.35.38-.36l5.18-.27c.12-.01.24-.07.31-.17l4.7-6.71c.07-.1.09-.22.06-.34l-1.54-5.38c-.05-.19.04-.39.22-.47l5.52-2.58c.18-.08.4-.02.5.15l3.02 4.68c.07.1.18.17.3.18l8.18.72c.11.01.22-.03.3-.1l4.18-3.71c.14-.12.35-.13.5-.02l4.4 3.22c.15.11.21.32.13.49l-2.24 4.88c-.05.11-.05.23 0 .33l3.47 7.44c.05.1.14.18.24.21l5.29 1.64c.18.06.3.24.28.43l-.73 5.78c-.02.19-.18.34-.38.35l-5.19.27c-.12.01-.24.07-.31.17l-4.69 6.7c-.07.1-.09.24-.05.36l1.76 5.15c.07.19-.02.4-.21.49l-5.86 2.73c-.18.08-.4.02-.51-.15l-2.92-4.62c-.04-.1-.15-.17-.28-.18z" fill="#8bb7f0" stroke="#4e7ab5"/><path d="M679.87 69.41l3.71 2.14 2.14 3.72v4.28l-2.14 3.72-3.71 2.14h-4.29l-3.71-2.14-2.15-3.72v-4.28l2.15-3.72 3.71-2.14z" fill="#ffffff" stroke="#4e7ab5"/></g><g stroke-miterlimit="10"><path d="M786.301 80.384v21.91l-.07 1.38c0 .06-.02.11-.06.15-.38.39-.92.92-1.61 1.51-1.59 1.35-3.03 2.12-4.21 2.84-.91.55-4.07 2.42-8.61 4.21-4.76 1.87-8.57 2.66-9.49 2.84-8.21 1.59-14.96.75-22.6-.2-2.07-.26-4.19-.59-6.65-1.17-4.01-.95-6.92-2.1-8.22-2.64-.72-.3-5.61-2.36-8.22-4.79-.9-.84-1.66-1.76-1.66-1.76-.71-.85-1.24-1.65-1.63-2.29-.02-.04-.03-.08-.03-.12l.19-22.82 3.73 1.27 3.62 2.25c2.21 1.13 5.44 2.6 9.49 3.82 13.42 4.04 24.81 2.03 29.35 1.17 4.13-.78 9.92-2.28 16.43-5.38l5.28-2.15 2.84-.39 2.13.36z" fill="#dcd5f2" stroke="#8b75a1"/><path d="M713.67 45.174c2.02.88 4.15 1.73 6.39 2.54 3.18 1.15 10.01 3.59 18.78 4.99 6.23.99 14.53 2.32 24.95.39 6.65-1.23 11.87-3.36 15.26-4.99l7.31-2.25v21.33c-.42.36-1.01.88-1.73 1.47-1.79 1.46-4.58 3.71-8.41 5.77-1.22.66-4.63 2.41-9.39 3.72-4.23 1.16-7.47 1.4-10.96 1.66-5.68.42-10.08.13-11.74 0-4.8-.38-9.29-.73-14.58-2.64-3.22-1.17-8.21-3.44-13.4-8.02l-2.65-2.93.17-21.04M787.12 30.901c-.766.906-1.946 2.14-3.58 3.34-1.93 1.39-3.79 2.21-6.46 3.13-5.34 1.83-9.72 2.6-10.47 2.74-6.56 1.22-11.65 1.25-15.55 1.27-7.67.03-13.22-.81-14.87-1.08-3.69-.59-6.6-1.08-10.27-2.54-3.99-1.59-7-3.57-9-5.09l-2.48-2.45.19-23.41c0-.23.31-.31.43-.11.53.92 1.3 2.01 2.39 3.08 1.73 1.71 3.66 2.75 6.54 3.82 2.465.91 5.022 1.593 8.714 2.209 2.658.459 5.188.78 7.538 1.024 3.894.472 6.885.572 8.198.607 6.6.16 11.47-.34 12.59-.46 4.85-.52 8.21-1.28 10.63-1.83.7-.16 3.59-.84 6.98-2.22 1.33-.54 2.42-1.06 3.59-1.89 1.27-.9 2.19-1.84 2.8-2.54l1.68-2.07c.14-.16.41-.07.41.15v24.32M750-19.994c-9.608 0-18.832 1.281-25.626 3.559-6.793 2.277-10.614 5.37-10.614 8.591 0 3.221 3.821 6.314 10.614 8.591 6.794 2.278 16.018 3.559 25.626 3.559s18.832-1.281 25.626-3.559c6.793-2.277 10.614-5.37 10.614-8.591 0-3.221-3.821-6.314-10.614-8.591-6.794-2.278-16.018-3.559-25.626-3.559z" fill="#dcd5f2" stroke="#8b75a1"/><path d="M780.57 92.747l-8.14-.237c-.14-.003-.273.07-.353.19l-2.78 4.507c-.114.176-.34.24-.527.143l-6.013-3.223c-.177-.097-.26-.317-.177-.504l2.257-5.44c.043-.11.036-.236-.02-.34l-3.887-7.21c-.057-.103-.157-.176-.273-.2l-5.18-1.04c-.19-.036-.327-.21-.32-.406l.236-6.11c.007-.2.16-.357.354-.38l5.153-.57c.12-.017.233-.084.297-.19l4.293-6.964c.063-.1.077-.226.04-.34l-1.847-5.28c-.063-.183.014-.39.187-.483l5.36-2.887c.173-.093.393-.046.507.117l3.28 4.493c.076.1.186.157.313.16l8.2.24c.11.004.213-.043.293-.113l3.954-3.943c.133-.134.343-.15.5-.054l4.573 2.96c.157.104.223.307.157.484l-1.947 5c-.043.11-.037.23.02.33l3.897 7.22c.056.1.146.173.253.196l5.37 1.334c.187.046.313.22.3.41l-.39 5.806c-.013.19-.16.347-.353.37l-5.164.57c-.12.017-.233.084-.296.19l-4.29 6.954c-.064.106-.077.24-.03.36l2.06 5.03c.076.19 0 .406-.184.503l-5.686 3.063c-.174.094-.4.047-.517-.116l-3.18-4.44c-.053-.094-.17-.157-.3-.16z" fill="#8bb7f0" stroke="#4e7ab5"/><path d="M779.87 69.41l3.71 2.14 2.14 3.72v4.28l-2.14 3.72-3.71 2.14h-4.29l-3.71-2.14-2.15-3.72v-4.28l2.15-3.72 3.71-2.14z" fill="#ffffff" stroke="#4e7ab5"/></g><g stroke-miterlimit="10"><path d="M886.296 78.732v21.91l-.07 1.38c0 .06-.02.11-.06.15-.38.39-.92.92-1.61 1.51-1.59 1.35-3.03 2.12-4.21 2.84-.91.55-4.07 2.42-8.61 4.21-4.76 1.87-8.57 2.66-9.49 2.84-8.21 1.59-14.96.75-22.6-.2-2.07-.26-4.19-.59-6.65-1.17-4.01-.95-6.92-2.1-8.22-2.64-.72-.3-5.61-2.36-8.22-4.79-.9-.84-1.66-1.76-1.66-1.76-.71-.85-1.24-1.65-1.63-2.29-.02-.04-.03-.08-.03-.12l.19-22.82 3.73 1.27 3.62 2.25c2.21 1.13 5.44 2.6 9.49 3.82 13.42 4.04 24.81 2.03 29.35 1.17 4.13-.78 9.92-2.28 16.43-5.38l5.28-2.15 2.84-.39 2.13.36z" fill="#dcd5f2" stroke="#8b75a1"/><path d="M813.66 44.722c2.02.88 4.15 1.73 6.39 2.54 3.18 1.15 10.01 3.59 18.78 4.99 6.23.99 14.53 2.32 24.95.39 6.65-1.23 11.87-3.36 15.26-4.99l7.31-2.25v21.33c-.42.36-1.01.88-1.73 1.47-1.79 1.46-4.58 3.71-8.41 5.77-1.22.66-4.63 2.41-9.39 3.72-4.23 1.16-7.47 1.4-10.96 1.66-5.68.42-10.08.13-11.74 0-4.8-.38-9.29-.73-14.58-2.64-3.22-1.17-8.21-3.44-13.4-8.02l-2.65-2.93.17-21.04M887.04 31.808c-.766.905-1.946 2.14-3.58 3.34-1.93 1.39-3.79 2.21-6.46 3.13-5.34 1.83-9.72 2.6-10.47 2.74-6.56 1.22-11.65 1.25-15.55 1.27-7.67.03-13.22-.81-14.87-1.08-3.69-.59-6.6-1.08-10.27-2.54-3.99-1.59-7-3.57-9-5.09l-2.48-2.45.19-23.41c0-.23.31-.31.43-.11.53.92 1.3 2.01 2.39 3.08 1.73 1.71 3.66 2.75 6.54 3.82 2.38.879 4.847 1.544 8.366 2.143 2.58.457 5.063.784 7.422 1.039 4.124.516 7.297.622 8.662.658 6.6.16 11.47-.34 12.59-.46 4.85-.52 8.21-1.28 10.63-1.83.7-.16 3.59-.84 6.98-2.22 1.33-.54 2.42-1.06 3.59-1.89 1.27-.9 2.19-1.84 2.8-2.54l1.68-2.07c.14-.16.41-.07.41.15v24.32M850-17.834c-9.608 0-18.832 1.281-25.626 3.559-6.793 2.277-10.614 5.37-10.614 8.591 0 3.221 3.821 6.314 10.614 8.591 6.794 2.278 16.018 3.559 25.626 3.559s18.832-1.281 25.626-3.559c6.793-2.277 10.614-5.37 10.614-8.591 0-3.221-3.821-6.314-10.614-8.591-6.794-2.278-16.018-3.559-25.626-3.559z" fill="#dcd5f2" stroke="#8b75a1"/><path d="M881.497 92.513l-8.14.237c-.14.003-.27.087-.344.21l-2.513 4.66c-.103.183-.323.26-.517.173l-6.19-2.866c-.183-.087-.276-.3-.206-.494l1.936-5.563c.037-.113.024-.24-.04-.34l-4.3-6.97c-.063-.1-.166-.167-.283-.183l-5.23-.737c-.193-.027-.337-.19-.343-.39l-.117-6.113c-.007-.2.14-.367.33-.4l5.11-.87c.12-.024.227-.097.283-.207l3.88-7.2c.057-.103.064-.233.02-.34l-2.15-5.163c-.076-.18-.01-.39.157-.494l5.183-3.193c.167-.103.39-.07.514.087l3.533 4.293c.08.097.193.147.323.143l8.2-.24c.11-.003.21-.053.287-.13l3.72-4.166c.127-.144.333-.17.497-.084l4.736 2.69c.164.094.24.294.184.474l-1.654 5.106c-.036.11-.023.23.04.33l4.31 6.984c.06.096.154.163.267.183l5.44 1.02c.19.033.327.2.323.393l-.05 5.82c-.003.19-.14.357-.33.39l-5.12.87c-.12.024-.226.097-.283.207l-3.88 7.19c-.057.113-.063.243-.01.36l2.35 4.9c.087.187.023.407-.153.513l-5.497 3.39c-.167.107-.397.07-.52-.086l-3.433-4.247c-.07-.093-.194-.15-.32-.147z" fill="#8bb7f0" stroke="#4e7ab5"/><path d="M879.87 69.41l3.71 2.14 2.14 3.72v4.28l-2.14 3.72-3.71 2.14h-4.29l-3.71-2.14-2.15-3.72v-4.28l2.15-3.72 3.71-2.14z" fill="#ffffff" stroke="#4e7ab5"/></g><g stroke-miterlimit="10"><path d="M986.29 77.08v21.91l-.07 1.38c0 .06-.02.11-.06.15-.38.39-.92.92-1.61 1.51-1.59 1.35-3.03 2.12-4.21 2.84-.91.55-4.07 2.42-8.61 4.21-4.76 1.87-8.57 2.66-9.49 2.84-8.21 1.59-14.96.75-22.6-.2-2.07-.26-4.19-.59-6.65-1.17-4.01-.95-6.92-2.1-8.22-2.64-.72-.3-5.61-2.36-8.22-4.79-.9-.84-1.66-1.76-1.66-1.76-.71-.85-1.24-1.65-1.63-2.29-.02-.04-.03-.08-.03-.12l.19-22.82 3.73 1.27 3.62 2.25c2.21 1.13 5.44 2.6 9.49 3.82 13.42 4.04 24.81 2.03 29.35 1.17 4.13-.78 9.92-2.28 16.43-5.38l5.28-2.15 2.84-.39 2.13.36z" fill="#dcd5f2" stroke="#8b75a1"/><path d="M913.65 44.27c2.02.88 4.15 1.73 6.39 2.54 3.18 1.15 10.01 3.59 18.78 4.99 6.23.99 14.53 2.32 24.95.39 6.65-1.23 11.87-3.36 15.26-4.99l7.31-2.25v21.33c-.42.36-1.01.88-1.73 1.47-1.79 1.46-4.58 3.71-8.41 5.77-1.22.66-4.63 2.41-9.39 3.72-4.23 1.16-7.47 1.4-10.96 1.66-5.68.42-10.08.13-11.74 0-4.8-.38-9.29-.73-14.58-2.64-3.22-1.17-8.21-3.44-13.4-8.02l-2.65-2.93.17-21.04M986.96 32.715c-.765.905-1.945 2.14-3.58 3.34-1.93 1.39-3.79 2.21-6.46 3.13-5.34 1.83-9.72 2.6-10.47 2.74-6.56 1.22-11.65 1.25-15.55 1.27-7.67.03-13.22-.81-14.87-1.08-3.69-.59-6.6-1.08-10.27-2.54-3.99-1.59-7-3.57-9-5.09l-2.48-2.45.19-23.41c0-.23.31-.31.43-.11.53.92 1.3 2.01 2.39 3.08 1.73 1.71 3.66 2.75 6.54 3.82 2.295.847 4.671 1.495 8.018 2.077 2.501.456 4.938.788 7.306 1.054 4.354.559 7.708.672 9.126.709 6.6.16 11.47-.34 12.59-.46 4.85-.52 8.21-1.28 10.63-1.83.7-.16 3.59-.84 6.98-2.22 1.33-.54 2.42-1.06 3.59-1.89 1.27-.9 2.19-1.84 2.8-2.54l1.68-2.07c.14-.16.41-.07.41.15v24.32" fill="#dcd5f2" stroke="#8b75a1"/><path d="M950-15.675c-9.608 0-18.832 1.281-25.626 3.559-6.793 2.277-10.614 5.37-10.614 8.591 0 3.221 3.821 6.314 10.614 8.591 6.794 2.278 16.018 3.559 25.626 3.559s18.832-1.281 25.626-3.559c6.793-2.277 10.614-5.37 10.614-8.591 0-3.221-3.821-6.314-10.614-8.591-6.794-2.278-16.018-3.559-25.626-3.559z" fill="#dcd5f2" stroke="#8b75a1"/><path d="M982.41 92.24l-8.12.71c-.14.01-.27.1-.33.23l-2.24 4.8c-.09.19-.31.28-.51.2l-6.35-2.5c-.19-.08-.29-.28-.24-.48l1.61-5.67c.03-.12.01-.24-.06-.34l-4.7-6.71c-.07-.1-.18-.16-.29-.17l-5.27-.43c-.2-.02-.35-.17-.37-.37l-.47-6.1c-.02-.2.12-.38.31-.42l5.05-1.17c.12-.03.22-.11.27-.22l3.46-7.42c.05-.11.05-.24 0-.34l-2.45-5.03c-.09-.18-.03-.39.13-.5l4.99-3.5c.16-.11.39-.09.52.06l3.78 4.08c.08.09.2.14.33.13l8.18-.72c.11-.01.21-.06.28-.15l3.48-4.38c.12-.15.32-.19.49-.11l4.89 2.41c.17.08.26.28.21.46l-1.36 5.2c-.03.11-.01.23.06.33l4.71 6.73c.06.09.16.15.28.17l5.5.7c.19.02.34.18.35.38l.29 5.82c.01.19-.12.37-.31.41l-5.06 1.17c-.12.03-.22.11-.27.22l-3.46 7.41c-.05.12-.05.25.01.36l2.63 4.76c.1.18.05.4-.12.52l-5.29 3.71c-.16.12-.39.09-.52-.06l-3.68-4.04c-.09-.1-.22-.15-.34-.14z" fill="#8bb7f0" stroke="#4e7ab5"/><path d="M979.87 69.41l3.71 2.14 2.14 3.72v4.28l-2.14 3.72-3.71 2.14h-4.29l-3.71-2.14-2.15-3.72v-4.28l2.15-3.72 3.71-2.14z" fill="#ffffff" stroke="#4e7ab5"/></g><g stroke-miterlimit="10"><path d="M1086.284 75.428v21.91l-.07 1.38c0 .06-.02.11-.06.15-.38.39-.92.92-1.61 1.51-1.59 1.35-3.03 2.12-4.21 2.84-.91.55-4.07 2.42-8.61 4.21-4.76 1.87-8.57 2.66-9.49 2.84-8.21 1.59-14.96.75-22.6-.2-2.07-.26-4.19-.59-6.65-1.17-4.01-.95-6.92-2.1-8.22-2.64-.72-.3-5.61-2.36-8.22-4.79-.9-.84-1.66-1.76-1.66-1.76-.71-.85-1.24-1.65-1.63-2.29-.02-.04-.03-.08-.03-.12l.19-22.82 3.73 1.27 3.62 2.25c2.21 1.13 5.44 2.6 9.49 3.82 13.42 4.04 24.81 2.03 29.35 1.17 4.13-.78 9.92-2.28 16.43-5.38l5.28-2.15 2.84-.39 2.13.36z" fill="#dcd5f2" stroke="#8b75a1"/><path d="M1013.64 43.818c2.02.88 4.15 1.73 6.39 2.54 3.18 1.15 10.01 3.59 18.78 4.99 6.23.99 14.53 2.32 24.95.39 6.65-1.23 11.87-3.36 15.26-4.99l7.31-2.25v21.33c-.42.36-1.01.88-1.73 1.47-1.79 1.46-4.58 3.71-8.41 5.77-1.22.66-4.63 2.41-9.39 3.72-4.23 1.16-7.47 1.4-10.96 1.66-5.68.42-10.08.13-11.74 0-4.8-.38-9.29-.73-14.58-2.64-3.22-1.17-8.21-3.44-13.4-8.02l-2.65-2.93.17-21.04M1086.88 33.622c-.764.905-1.944 2.14-3.58 3.34-1.93 1.39-3.79 2.21-6.46 3.13-5.34 1.83-9.72 2.6-10.47 2.74-6.56 1.22-11.65 1.25-15.55 1.27-7.67.03-13.22-.81-14.87-1.08-3.69-.59-6.6-1.08-10.27-2.54-3.99-1.59-7-3.57-9-5.09l-2.48-2.45.19-23.41c0-.23.31-.31.43-.11.53.92 1.3 2.01 2.39 3.08 1.73 1.71 3.66 2.75 6.54 3.82 2.21.816 4.496 1.446 7.669 2.012 2.423.453 4.814.791 7.192 1.068 4.582.602 8.119.721 9.589.76 6.6.16 11.47-.34 12.59-.46 4.85-.52 8.21-1.28 10.63-1.83.7-.16 3.59-.84 6.98-2.22 1.33-.54 2.42-1.06 3.59-1.89 1.27-.9 2.19-1.84 2.8-2.54l1.68-2.07c.14-.16.41-.07.41.15v24.32" fill="#dcd5f2" stroke="#8b75a1"/><path d="M1050-13.516c-9.608 0-18.832 1.281-25.626 3.559-6.793 2.277-10.614 5.37-10.614 8.591 0 3.221 3.821 6.314 10.614 8.591 6.794 2.278 16.018 3.559 25.626 3.559s18.832-1.281 25.626-3.559c6.793-2.277 10.614-5.37 10.614-8.591 0-3.221-3.821-6.314-10.614-8.591-6.794-2.278-16.018-3.559-25.626-3.559z" fill="#dcd5f2" stroke="#8b75a1"/><path d="M1083.283 91.887l-8.053 1.176c-.14.017-.263.114-.317.25l-1.953 4.92c-.077.197-.297.3-.497.234l-6.483-2.127c-.197-.067-.31-.267-.267-.467l1.277-5.75c.023-.12-.003-.24-.08-.333l-5.08-6.423c-.077-.094-.187-.147-.303-.15l-5.284-.124c-.2-.006-.356-.15-.39-.343l-.823-6.053c-.027-.194.093-.38.283-.44l4.97-1.457c.12-.037.214-.123.257-.233l3.02-7.607c.043-.11.037-.24-.02-.34l-2.737-4.877c-.096-.173-.05-.383.104-.506l4.776-3.78c.154-.124.384-.11.52.026l4.007 3.854c.087.083.213.126.337.11l8.113-1.194c.11-.016.203-.073.267-.163l3.213-4.567c.107-.156.307-.21.483-.136l5.017 2.123c.177.073.273.26.237.447l-1.054 5.26c-.023.116.004.23.08.323l5.09 6.437c.067.09.174.143.287.15l5.527.38c.19.013.346.16.37.353l.63 5.787c.023.19-.1.37-.284.423l-4.98 1.463c-.12.037-.213.124-.256.234l-3.02 7.59c-.044.12-.037.25.03.36l2.903 4.593c.107.173.07.4-.087.527l-5.063 4.003c-.153.127-.383.11-.527-.027l-3.906-3.82c-.084-.086-.207-.123-.334-.106z" fill="#8bb7f0" stroke="#4e7ab5"/><path d="M1079.87 69.41l3.71 2.14 2.14 3.72v4.28l-2.14 3.72-3.71 2.14h-4.29l-3.71-2.14-2.15-3.72v-4.28l2.15-3.72 3.71-2.14z" fill="#ffffff" stroke="#4e7ab5"/></g><g stroke-miterlimit="10"><path d="M1186.279 73.776v21.91l-.07 1.38c0 .06-.02.11-.06.15-.38.39-.92.92-1.61 1.51-1.59 1.35-3.03 2.12-4.21 2.84-.91.55-4.07 2.42-8.61 4.21-4.76 1.87-8.57 2.66-9.49 2.84-8.21 1.59-14.96.75-22.6-.2-2.07-.26-4.19-.59-6.65-1.17-4.01-.95-6.92-2.1-8.22-2.64-.72-.3-5.61-2.36-8.22-4.79-.9-.84-1.66-1.76-1.66-1.76-.71-.85-1.24-1.65-1.63-2.29-.02-.04-.03-.08-.03-.12l.19-22.82 3.73 1.27 3.62 2.25c2.21 1.13 5.44 2.6 9.49 3.82 13.42 4.04 24.81 2.03 29.35 1.17 4.13-.78 9.92-2.28 16.43-5.38l5.28-2.15 2.84-.39 2.13.36z" fill="#dcd5f2" stroke="#8b75a1"/><path d="M1113.63 43.366c2.02.88 4.15 1.73 6.39 2.54 3.18 1.15 10.01 3.59 18.78 4.99 6.23.99 14.53 2.32 24.95.39 6.65-1.23 11.87-3.36 15.26-4.99l7.31-2.25v21.33c-.42.36-1.01.88-1.73 1.47-1.79 1.46-4.58 3.71-8.41 5.77-1.22.66-4.63 2.41-9.39 3.72-4.23 1.16-7.47 1.4-10.96 1.66-5.68.42-10.08.13-11.74 0-4.8-.38-9.29-.73-14.58-2.64-3.22-1.17-8.21-3.44-13.4-8.02l-2.65-2.93.17-21.04" fill="#dcd5f2" stroke="#8b75a1"/><path d="M1186.8 34.529c-.764.904-1.944 2.14-3.58 3.34-1.93 1.39-3.79 2.21-6.46 3.13-5.34 1.83-9.72 2.6-10.47 2.74-6.56 1.22-11.65 1.25-15.55 1.27-7.67.03-13.22-.81-14.87-1.08-3.69-.59-6.6-1.08-10.27-2.54-3.99-1.59-7-3.57-9-5.09l-2.48-2.45.19-23.41c0-.23.31-.31.43-.11.53.92 1.3 2.01 2.39 3.08 1.73 1.71 3.66 2.75 6.54 3.82 2.125.785 4.32 1.397 7.321 1.946 2.344.451 4.689.795 7.076 1.083 4.812.646 8.53.771 10.053.811 6.6.16 11.47-.34 12.59-.46 4.85-.52 8.21-1.28 10.63-1.83.7-.16 3.59-.84 6.98-2.22 1.33-.54 2.42-1.06 3.59-1.89 1.27-.9 2.19-1.84 2.8-2.54l1.68-2.07c.14-.16.41-.07.41.15v24.32" fill="#dcd5f2" stroke="#8b75a1"/><path d="M1150-11.356c-9.608 0-18.832 1.281-25.626 3.559-6.793 2.277-10.614 5.37-10.614 8.591 0 3.221 3.821 6.314 10.614 8.591 6.794 2.278 16.018 3.559 25.626 3.559s18.832-1.281 25.626-3.559c6.793-2.277 10.614-5.37 10.614-8.591 0-3.221-3.821-6.314-10.614-8.591-6.794-2.278-16.018-3.559-25.626-3.559z" fill="#dcd5f2" stroke="#8b75a1"/><path d="M1184.143 91.493l-7.97 1.644c-.14.026-.256.126-.3.266l-1.663 5.027c-.063.2-.28.317-.483.263l-6.597-1.746c-.2-.054-.327-.25-.293-.45l.94-5.814c.016-.12-.017-.24-.097-.326l-5.447-6.12c-.08-.087-.193-.137-.313-.134l-5.283.184c-.2.006-.364-.13-.407-.32l-1.177-5.994c-.036-.19.07-.383.257-.456l4.877-1.744c.116-.043.206-.136.243-.246l2.573-7.77c.037-.114.024-.24-.04-.34l-3.016-4.71c-.107-.167-.074-.38.073-.514l4.55-4.05c.147-.133.373-.133.52-.006l4.223 3.613c.094.077.224.113.34.09l8.03-1.66c.11-.023.2-.087.257-.18l2.94-4.743c.097-.164.293-.23.473-.164l5.134 1.83c.18.064.286.244.263.434l-.743 5.31c-.017.12.016.23.1.316l5.456 6.13c.074.087.184.134.294.134l5.536.06c.19.003.357.14.39.33l.967 5.74c.033.19-.08.373-.257.44l-4.886 1.75c-.117.043-.207.136-.244.246l-2.573 7.754c-.037.12-.023.25.053.356l3.167 4.417c.117.167.093.397-.057.53l-4.823 4.29c-.147.133-.377.133-.53.003l-4.123-3.586c-.084-.08-.207-.107-.334-.084z" fill="#8bb7f0" stroke="#4e7ab5"/><path d="M1179.87 69.41l3.71 2.14 2.14 3.72v4.28l-2.14 3.72-3.71 2.14h-4.29l-3.71-2.14-2.15-3.72v-4.28l2.15-3.72 3.71-2.14z" fill="#ffffff" stroke="#4e7ab5"/></g><g stroke-miterlimit="10"><path d="M1286.273 72.123v21.91l-.07 1.38c0 .06-.02.11-.06.15-.38.39-.92.92-1.61 1.51-1.59 1.35-3.03 2.12-4.21 2.84-.91.55-4.07 2.42-8.61 4.21-4.76 1.87-8.57 2.66-9.49 2.84-8.21 1.59-14.96.75-22.6-.2-2.07-.26-4.19-.59-6.65-1.17-4.01-.95-6.92-2.1-8.22-2.64-.72-.3-5.61-2.36-8.22-4.79-.9-.84-1.66-1.76-1.66-1.76-.71-.85-1.24-1.65-1.63-2.29-.02-.04-.03-.08-.03-.12l.19-22.82 3.73 1.27 3.62 2.25c2.21 1.13 5.44 2.6 9.49 3.82 13.42 4.04 24.81 2.03 29.35 1.17 4.13-.78 9.92-2.28 16.43-5.38l5.28-2.15 2.84-.39 2.13.36z" fill="#dcd5f2" stroke="#8b75a1"/><path d="M1213.62 42.913c2.02.88 4.15 1.73 6.39 2.54 3.18 1.15 10.01 3.59 18.78 4.99 6.23.99 14.53 2.32 24.95.39 6.65-1.23 11.87-3.36 15.26-4.99l7.31-2.25v21.33c-.42.36-1.01.88-1.73 1.47-1.79 1.46-4.58 3.71-8.41 5.77-1.22.66-4.63 2.41-9.39 3.72-4.23 1.16-7.47 1.4-10.96 1.66-5.68.42-10.08.13-11.74 0-4.8-.38-9.29-.73-14.58-2.64-3.22-1.17-8.21-3.44-13.4-8.02l-2.65-2.93.17-21.04M1286.72 35.437c-.763.903-1.943 2.14-3.58 3.34-1.93 1.39-3.79 2.21-6.46 3.13-5.34 1.83-9.72 2.6-10.47 2.74-6.56 1.22-11.65 1.25-15.55 1.27-7.67.03-13.22-.81-14.87-1.08-3.69-.59-6.6-1.08-10.27-2.54-3.99-1.59-7-3.57-9-5.09l-2.48-2.45.19-23.41c0-.23.31-.31.43-.11.53.92 1.3 2.01 2.39 3.08 1.73 1.71 3.66 2.75 6.54 3.82 2.04.753 4.145 1.346 6.973 1.88 2.265.448 4.564.798 6.96 1.097 5.042.689 8.942.821 10.517.863 6.6.16 11.47-.34 12.59-.46 4.85-.52 8.21-1.28 10.63-1.83.7-.16 3.59-.84 6.98-2.22 1.33-.54 2.42-1.06 3.59-1.89 1.27-.9 2.19-1.84 2.8-2.54l1.68-2.07c.14-.16.41-.07.41.15v24.32" fill="#dcd5f2" stroke="#8b75a1"/><path d="M1250-9.197c-9.608 0-18.832 1.281-25.626 3.559-6.793 2.277-10.614 5.37-10.614 8.591 0 3.221 3.821 6.314 10.614 8.591 6.794 2.278 16.018 3.559 25.626 3.559s18.832-1.281 25.626-3.559c6.793-2.277 10.614-5.37 10.614-8.591 0-3.221-3.821-6.314-10.614-8.591-6.794-2.278-16.018-3.559-25.626-3.559z" fill="#dcd5f2" stroke="#8b75a1"/><path d="M1284.99 91.06l-7.87 2.11c-.14.04-.25.14-.28.28l-1.37 5.12c-.05.2-.26.33-.47.29l-6.69-1.36c-.2-.04-.34-.23-.32-.43l.6-5.86c.01-.12-.03-.24-.11-.32l-5.8-5.8c-.08-.08-.2-.13-.32-.12l-5.27.49c-.2.02-.37-.11-.42-.3l-1.53-5.92c-.05-.19.05-.39.23-.47l4.77-2.03c.11-.05.2-.15.23-.26l2.12-7.91c.03-.12.01-.24-.06-.34l-3.29-4.53c-.12-.16-.1-.38.04-.52l4.31-4.31c.14-.14.36-.16.52-.04l4.43 3.36c.1.07.23.1.34.07l7.93-2.12c.11-.03.2-.1.25-.2l2.66-4.91c.09-.17.28-.25.46-.19l5.24 1.53c.18.05.3.23.29.42l-.43 5.35c-.01.12.03.23.12.31l5.81 5.81c.08.08.19.12.3.12l5.53-.26c.19-.01.37.12.41.31l1.3 5.68c.04.19-.06.38-.23.46l-4.78 2.03c-.11.05-.2.15-.23.26l-2.12 7.9c-.03.12-.01.25.08.35l3.42 4.23c.13.16.12.39-.03.53l-4.57 4.57c-.14.14-.37.16-.53.03l-4.33-3.34c-.09-.08-.22-.1-.34-.07z" fill="#8bb7f0" stroke="#4e7ab5"/><path d="M1279.87 69.41l3.71 2.14 2.14 3.72v4.28l-2.14 3.72-3.71 2.14h-4.29l-3.71-2.14-2.15-3.72v-4.28l2.15-3.72 3.71-2.14z" fill="#ffffff" stroke="#4e7ab5"/></g><g stroke-miterlimit="10"><path d="M1386.268 70.471v21.91l-.07 1.38c0 .06-.02.11-.06.15-.38.39-.92.92-1.61 1.51-1.59 1.35-3.03 2.12-4.21 2.84-.91.55-4.07 2.42-8.61 4.21-4.76 1.87-8.57 2.66-9.49 2.84-8.21 1.59-14.96.75-22.6-.2-2.07-.26-4.19-.59-6.65-1.17-4.01-.95-6.92-2.1-8.22-2.64-.72-.3-5.61-2.36-8.22-4.79-.9-.84-1.66-1.76-1.66-1.76-.71-.85-1.24-1.65-1.63-2.29-.02-.04-.03-.08-.03-.12l.19-22.82 3.73 1.27 3.62 2.25c2.21 1.13 5.44 2.6 9.49 3.82 13.42 4.04 24.81 2.03 29.35 1.17 4.13-.78 9.92-2.28 16.43-5.38l5.28-2.15 2.84-.39 2.13.36z" fill="#dcd5f2" stroke="#8b75a1"/><path d="M1313.61 42.461c2.02.88 4.15 1.73 6.39 2.54 3.18 1.15 10.01 3.59 18.78 4.99 6.23.99 14.53 2.32 24.95.39 6.65-1.23 11.87-3.36 15.26-4.99l7.31-2.25v21.33c-.42.36-1.01.88-1.73 1.47-1.79 1.46-4.58 3.71-8.41 5.77-1.22.66-4.63 2.41-9.39 3.72-4.23 1.16-7.47 1.4-10.96 1.66-5.68.42-10.08.13-11.74 0-4.8-.38-9.29-.73-14.58-2.64-3.22-1.17-8.21-3.44-13.4-8.02l-2.65-2.93.17-21.04M1386.64 36.344c-.763.903-1.943 2.14-3.58 3.34-1.93 1.39-3.79 2.21-6.46 3.13-5.34 1.83-9.72 2.6-10.47 2.74-6.56 1.22-11.65 1.25-15.55 1.27-7.67.03-13.22-.81-14.87-1.08-3.69-.59-6.6-1.08-10.27-2.54-3.99-1.59-7-3.57-9-5.09l-2.48-2.45.19-23.41c0-.23.31-.31.43-.11.53.92 1.3 2.01 2.39 3.08 1.73 1.71 3.66 2.75 6.54 3.82 1.955.722 3.97 1.297 6.625 1.814 2.187.446 4.44.802 6.844 1.112 5.272.733 9.354.871 10.981.914 6.6.16 11.47-.34 12.59-.46 4.85-.52 8.21-1.28 10.63-1.83.7-.16 3.59-.84 6.98-2.22 1.33-.54 2.42-1.06 3.59-1.89 1.27-.9 2.19-1.84 2.8-2.54l1.68-2.07c.14-.16.41-.07.41.15v24.32" fill="#dcd5f2" stroke="#8b75a1"/><path d="M1350-7.037c-9.608 0-18.832 1.281-25.626 3.559-6.793 2.277-10.614 5.37-10.614 8.591 0 3.221 3.821 6.314 10.614 8.591 6.794 2.278 16.018 3.559 25.626 3.559s18.832-1.281 25.626-3.559c6.793-2.277 10.614-5.37 10.614-8.591 0-3.221-3.821-6.314-10.614-8.591-6.794-2.278-16.018-3.559-25.626-3.559z" fill="#dcd5f2" stroke="#8b75a1"/><path d="M1385.797 90.553l-7.73 2.564c-.134.046-.237.16-.267.3l-1.07 5.186c-.043.207-.24.344-.45.317l-6.75-.967c-.2-.026-.353-.21-.34-.41l.26-5.88c.003-.12-.043-.233-.13-.313l-6.12-5.447c-.087-.08-.207-.116-.327-.1l-5.223.797c-.193.033-.377-.083-.44-.273l-1.87-5.82c-.063-.19.023-.39.203-.484l4.644-2.303c.11-.057.186-.157.216-.273l1.654-8.017c.023-.12-.004-.24-.08-.333l-3.544-4.33c-.126-.154-.12-.374.014-.52l4.05-4.55c.133-.147.353-.18.52-.067l4.616 3.093c.1.07.23.087.347.05l7.783-2.58c.104-.036.194-.113.237-.213l2.373-5.057c.077-.17.267-.263.447-.216l5.313 1.216c.187.044.314.21.31.4l-.116 5.364c-.004.12.043.23.133.303l6.13 5.457c.087.073.197.106.307.1l5.503-.587c.19-.023.37.1.423.283l1.627 5.594c.053.183-.033.38-.203.466l-4.654 2.304c-.11.056-.186.156-.216.273l-1.654 8c-.023.127.01.25.1.35l3.654 4.023c.136.154.14.384.003.53l-4.29 4.824c-.133.146-.357.18-.523.063l-4.51-3.08c-.117-.06-.247-.073-.36-.037z" fill="#8bb7f0" stroke="#4e7ab5"/><path d="M1379.87 69.41l3.71 2.14 2.14 3.72v4.28l-2.14 3.72-3.71 2.14h-4.29l-3.71-2.14-2.15-3.72v-4.28l2.15-3.72 3.71-2.14z" fill="#ffffff" stroke="#4e7ab5"/></g><g stroke-miterlimit="10"><path d="M1486.262 68.819v21.91l-.07 1.38c0 .06-.02.11-.06.15-.38.39-.92.92-1.61 1.51-1.59 1.35-3.03 2.12-4.21 2.84-.91.55-4.07 2.42-8.61 4.21-4.76 1.87-8.57 2.66-9.49 2.84-8.21 1.59-14.96.75-22.6-.2-2.07-.26-4.19-.59-6.65-1.17-4.01-.95-6.92-2.1-8.22-2.64-.72-.3-5.61-2.36-8.22-4.79-.9-.84-1.66-1.76-1.66-1.76-.71-.85-1.24-1.65-1.63-2.29-.02-.04-.03-.08-.03-.12l.19-22.82 3.73 1.27 3.62 2.25c2.21 1.13 5.44 2.6 9.49 3.82 13.42 4.04 24.81 2.03 29.35 1.17 4.13-.78 9.92-2.28 16.43-5.38l5.28-2.15 2.84-.39 2.13.36z" fill="#dcd5f2" stroke="#8b75a1"/><path d="M1413.6 42.009c2.02.88 4.15 1.73 6.39 2.54 3.18 1.15 10.01 3.59 18.78 4.99 6.23.99 14.53 2.32 24.95.39 6.65-1.23 11.87-3.36 15.26-4.99l7.31-2.25v21.33c-.42.36-1.01.88-1.73 1.47-1.79 1.46-4.58 3.71-8.41 5.77-1.22.66-4.63 2.41-9.39 3.72-4.23 1.16-7.47 1.4-10.96 1.66-5.68.42-10.08.13-11.74 0-4.8-.38-9.29-.73-14.58-2.64-3.22-1.17-8.21-3.44-13.4-8.02l-2.65-2.93.17-21.04" fill="#dcd5f2" stroke="#8b75a1"/><path d="M1486.56 37.251c-.762.902-1.942 2.14-3.58 3.34-1.93 1.39-3.79 2.21-6.46 3.13-5.34 1.83-9.72 2.6-10.47 2.74-6.56 1.22-11.65 1.25-15.55 1.27-7.67.03-13.22-.81-14.87-1.08-3.69-.59-6.6-1.08-10.27-2.54-3.99-1.59-7-3.57-9-5.09l-2.48-2.45.19-23.41c0-.23.31-.31.43-.11.53.92 1.3 2.01 2.39 3.08 1.73 1.71 3.66 2.75 6.54 3.82 1.87.691 3.794 1.248 6.277 1.748 2.108.444 4.315.806 6.728 1.127 5.502.776 9.765.921 11.445.965 6.6.16 11.47-.34 12.59-.46 4.85-.52 8.21-1.28 10.63-1.83.7-.16 3.59-.84 6.98-2.22 1.33-.54 2.42-1.06 3.59-1.89 1.27-.9 2.19-1.84 2.8-2.54l1.68-2.07c.14-.16.41-.07.41.15v24.32" fill="#dcd5f2" stroke="#8b75a1"/><path d="M1450-4.878c-9.608 0-18.832 1.281-25.626 3.559-6.793 2.277-10.614 5.37-10.614 8.591 0 3.221 3.821 6.314 10.614 8.591 6.794 2.278 16.018 3.559 25.626 3.559s18.832-1.281 25.626-3.559c6.793-2.277 10.614-5.37 10.614-8.591 0-3.221-3.821-6.314-10.614-8.591-6.794-2.278-16.018-3.559-25.626-3.559z" fill="#dcd5f2" stroke="#8b75a1"/><path d="M1486.58 90.013l-7.567 3.007c-.13.053-.226.173-.25.317l-.766 5.24c-.034.21-.22.356-.43.34l-6.794-.574c-.203-.016-.363-.19-.363-.39l-.083-5.886c-.004-.12-.057-.23-.15-.307l-6.424-5.08c-.093-.077-.213-.103-.33-.08l-5.166 1.1c-.19.043-.384-.06-.457-.247l-2.203-5.703c-.074-.187 0-.39.176-.493l4.504-2.57c.106-.064.176-.167.2-.287l1.183-8.1c.017-.12-.017-.24-.1-.327l-3.787-4.116c-.133-.147-.14-.367-.016-.52l3.78-4.777c.123-.153.343-.2.516-.097l4.79 2.82c.104.067.234.074.35.03l7.62-3.03c.1-.043.187-.123.224-.226l2.076-5.187c.067-.173.254-.277.434-.243l5.373.903c.19.033.327.19.33.38l.193 5.363c.004.12.057.227.15.297l6.437 5.09c.09.067.203.097.313.08l5.46-.907c.19-.033.374.08.44.257l1.947 5.49c.067.18-.01.38-.177.477l-4.513 2.57c-.107.063-.177.166-.2.286l-1.183 8.084c-.017.13.026.25.12.346l3.88 3.804c.143.143.16.373.033.53l-4.003 5.063c-.127.153-.344.2-.517.093l-4.68-2.813c-.13-.043-.26-.053-.37-.007z" fill="#8bb7f0" stroke="#4e7ab5"/><path d="M1479.87 69.41l3.71 2.14 2.14 3.72v4.28l-2.14 3.72-3.71 2.14h-4.29l-3.71-2.14-2.15-3.72v-4.28l2.15-3.72 3.71-2.14z" fill="#ffffff" stroke="#4e7ab5"/></g><g stroke-miterlimit="10"><path d="M1586.257 67.167v21.91l-.07 1.38c0 .06-.02.11-.06.15-.38.39-.92.92-1.61 1.51-1.59 1.35-3.03 2.12-4.21 2.84-.91.55-4.07 2.42-8.61 4.21-4.76 1.87-8.57 2.66-9.49 2.84-8.21 1.59-14.96.75-22.6-.2-2.07-.26-4.19-.59-6.65-1.17-4.01-.95-6.92-2.1-8.22-2.64-.72-.3-5.61-2.36-8.22-4.79-.9-.84-1.66-1.76-1.66-1.76-.71-.85-1.24-1.65-1.63-2.29-.02-.04-.03-.08-.03-.12l.19-22.82 3.73 1.27 3.62 2.25c2.21 1.13 5.44 2.6 9.49 3.82 13.42 4.04 24.81 2.03 29.35 1.17 4.13-.78 9.92-2.28 16.43-5.38l5.28-2.15 2.84-.39 2.13.36z" fill="#dcd5f2" stroke="#8b75a1"/><path d="M1513.59 41.557c2.02.88 4.15 1.73 6.39 2.54 3.18 1.15 10.01 3.59 18.78 4.99 6.23.99 14.53 2.32 24.95.39 6.65-1.23 11.87-3.36 15.26-4.99l7.31-2.25v21.33c-.42.36-1.01.88-1.73 1.47-1.79 1.46-4.58 3.71-8.41 5.77-1.22.66-4.63 2.41-9.39 3.72-4.23 1.16-7.47 1.4-10.96 1.66-5.68.42-10.08.13-11.74 0-4.8-.38-9.29-.73-14.58-2.64-3.22-1.17-8.21-3.44-13.4-8.02l-2.65-2.93.17-21.04" fill="#dcd5f2" stroke="#8b75a1"/><path d="M1586.48 38.158c-.762.902-1.942 2.14-3.58 3.34-1.93 1.39-3.79 2.21-6.46 3.13-5.34 1.83-9.72 2.6-10.47 2.74-6.56 1.22-11.65 1.25-15.55 1.27-7.67.03-13.22-.81-14.87-1.08-3.69-.59-6.6-1.08-10.27-2.54-3.99-1.59-7-3.57-9-5.09l-2.48-2.45.19-23.41c0-.23.31-.31.43-.11.53.92 1.3 2.01 2.39 3.08 1.73 1.71 3.66 2.75 6.54 3.82 1.785.659 3.619 1.199 5.929 1.683 2.029.442 4.19.809 6.612 1.141 5.732.82 10.177.97 11.909 1.016 6.6.16 11.47-.34 12.59-.46 4.85-.52 8.21-1.28 10.63-1.83.7-.16 3.59-.84 6.98-2.22 1.33-.54 2.42-1.06 3.59-1.89 1.27-.9 2.19-1.84 2.8-2.54l1.68-2.07c.14-.16.41-.07.41.15v24.32" fill="#dcd5f2" stroke="#8b75a1"/><path d="M1550-2.718c-9.608 0-18.832 1.281-25.626 3.559-6.793 2.277-10.614 5.37-10.614 8.591 0 3.221 3.821 6.314 10.614 8.591 6.794 2.278 16.018 3.559 25.626 3.559s18.832-1.281 25.626-3.559c6.793-2.277 10.614-5.37 10.614-8.591 0-3.221-3.821-6.314-10.614-8.591-6.794-2.278-16.018-3.559-25.626-3.559z" fill="#dcd5f2" stroke="#8b75a1"/><path d="M1587.34 89.44l-7.38 3.44c-.13.06-.22.18-.23.33l-.46 5.28c-.02.21-.2.37-.41.36l-6.82-.18c-.21-.01-.37-.17-.39-.37l-.43-5.88c-.01-.12-.07-.23-.17-.3l-6.71-4.7c-.1-.07-.22-.09-.33-.06l-5.1 1.4c-.19.05-.39-.04-.47-.22l-2.53-5.57c-.08-.18-.02-.39.15-.5l4.35-2.83c.1-.07.17-.18.18-.3l.71-8.16c.01-.12-.03-.24-.12-.32l-4.02-3.89c-.14-.14-.16-.36-.05-.52l3.5-4.99c.11-.16.33-.22.51-.13l4.95 2.54c.11.06.24.06.35.01l7.44-3.47c.1-.05.18-.13.21-.24l1.77-5.3c.06-.18.24-.29.42-.27l5.42.59c.19.02.34.17.35.36l.5 5.35c.01.12.07.22.17.29l6.73 4.71c.09.06.21.09.32.06l5.4-1.22c.19-.04.38.06.46.23l2.26 5.37c.08.18.01.38-.15.49l-4.36 2.83c-.1.07-.17.18-.18.3l-.71 8.15c-.01.13.04.25.14.34l4.1 3.57c.15.13.18.36.06.53l-3.71 5.29c-.12.16-.33.22-.51.12l-4.84-2.54c-.13-.03-.26-.04-.37.02z" fill="#8bb7f0" stroke="#4e7ab5"/><path d="M1579.87 69.41l3.71 2.14 2.14 3.72v4.28l-2.14 3.72-3.71 2.14h-4.29l-3.71-2.14-2.15-3.72v-4.28l2.15-3.72 3.71-2.14z" fill="#ffffff" stroke="#4e7ab5"/></g><g stroke-miterlimit="10"><path d="M1686.251 65.514v21.91l-.07 1.38c0 .06-.02.11-.06.15-.38.39-.92.92-1.61 1.51-1.59 1.35-3.03 2.12-4.21 2.84-.91.55-4.07 2.42-8.61 4.21-4.76 1.87-8.57 2.66-9.49 2.84-8.21 1.59-14.96.75-22.6-.2-2.07-.26-4.19-.59-6.65-1.17-4.01-.95-6.92-2.1-8.22-2.64-.72-.3-5.61-2.36-8.22-4.79-.9-.84-1.66-1.76-1.66-1.76-.71-.85-1.24-1.65-1.63-2.29-.02-.04-.03-.08-.03-.12l.19-22.82 3.73 1.27 3.62 2.25c2.21 1.13 5.44 2.6 9.49 3.82 13.42 4.04 24.81 2.03 29.35 1.17 4.13-.78 9.92-2.28 16.43-5.38l5.28-2.15 2.84-.39 2.13.36z" fill="#dcd5f2" stroke="#8b75a1"/><path d="M1613.58 41.104c2.02.88 4.15 1.73 6.39 2.54 3.18 1.15 10.01 3.59 18.78 4.99 6.23.99 14.53 2.32 24.95.39 6.65-1.23 11.87-3.36 15.26-4.99l7.31-2.25v21.33c-.42.36-1.01.88-1.73 1.47-1.79 1.46-4.58 3.71-8.41 5.77-1.22.66-4.63 2.41-9.39 3.72-4.23 1.16-7.47 1.4-10.96 1.66-5.68.42-10.08.13-11.74 0-4.8-.38-9.29-.73-14.58-2.64-3.22-1.17-8.21-3.44-13.4-8.02l-2.65-2.93.17-21.04" fill="#dcd5f2" stroke="#8b75a1"/><path d="M1686.4 39.066c-.761.901-1.941 2.14-3.58 3.34-1.93 1.39-3.79 2.21-6.46 3.13-5.34 1.83-9.72 2.6-10.47 2.74-6.56 1.22-11.65 1.25-15.55 1.27-7.67.03-13.22-.81-14.87-1.08-3.69-.59-6.6-1.08-10.27-2.54-3.99-1.59-7-3.57-9-5.09l-2.48-2.45.19-23.41c0-.23.31-.31.43-.11.53.92 1.3 2.01 2.39 3.08 1.73 1.71 3.66 2.75 6.54 3.82 1.7.627 3.443 1.148 5.581 1.616 1.95.44 4.065.813 6.497 1.156 5.96.863 10.587 1.02 12.372 1.068 6.6.16 11.47-.34 12.59-.46 4.85-.52 8.21-1.28 10.63-1.83.7-.16 3.59-.84 6.98-2.22 1.33-.54 2.42-1.06 3.59-1.89 1.27-.9 2.19-1.84 2.8-2.54l1.68-2.07c.14-.16.41-.07.41.15v24.32" fill="#dcd5f2" stroke="#8b75a1"/><path d="M1650-.559c-9.608 0-18.832 1.281-25.626 3.559-6.793 2.277-10.614 5.37-10.614 8.591 0 3.221 3.821 6.314 10.614 8.591 6.794 2.278 16.018 3.559 25.626 3.559s18.832-1.281 25.626-3.559c6.793-2.277 10.614-5.37 10.614-8.591 0-3.221-3.821-6.314-10.614-8.591C1668.832.722 1659.608-.559 1650-.559z" fill="#dcd5f2" stroke="#8b75a1"/><path d="M1688.053 88.8l-7.16 3.86c-.123.067-.206.193-.21.343l-.153 5.294c-.007.21-.173.383-.383.386l-6.814.22c-.203.004-.383-.143-.41-.343l-.77-5.84c-.016-.12-.083-.223-.183-.287l-6.97-4.3c-.1-.063-.227-.076-.337-.04l-5.006 1.694c-.184.063-.39-.02-.484-.194l-2.85-5.41c-.093-.173-.04-.39.117-.506l4.177-3.07c.1-.077.156-.187.16-.307l.236-8.18c.004-.12-.043-.233-.14-.313l-4.24-3.644c-.146-.126-.18-.346-.076-.513l3.2-5.183c.103-.167.316-.24.503-.157l5.083 2.247c.11.053.24.046.35-.01l7.22-3.89c.094-.05.167-.144.197-.247l1.457-5.393c.046-.18.22-.304.406-.297l5.44.277c.19.006.347.15.37.34l.814 5.303c.016.12.083.22.183.277l6.983 4.31c.097.06.21.076.32.04l5.32-1.534c.184-.053.38.034.467.204l2.567 5.223c.086.173.036.38-.124.497l-4.18 3.076c-.1.077-.156.187-.16.307l-.236 8.17c-.004.13.053.25.153.327l4.3 3.323c.157.123.2.353.093.523l-3.39 5.497c-.106.167-.316.24-.503.153l-4.98-2.253c-.123-.043-.253-.047-.357.02z" fill="#8bb7f0" stroke="#4e7ab5"/><path d="M1679.87 69.41l3.71 2.14 2.14 3.72v4.28l-2.14 3.72-3.71 2.14h-4.29l-3.71-2.14-2.15-3.72v-4.28l2.15-3.72 3.71-2.14z" fill="#ffffff" stroke="#4e7ab5"/></g><g stroke-miterlimit="10"><path d="M1786.246 63.862v21.91l-.07 1.38c0 .06-.02.11-.06.15-.38.39-.92.92-1.61 1.51-1.59 1.35-3.03 2.12-4.21 2.84-.91.55-4.07 2.42-8.61 4.21-4.76 1.87-8.57 2.66-9.49 2.84-8.21 1.59-14.96.75-22.6-.2-2.07-.26-4.19-.59-6.65-1.17-4.01-.95-6.92-2.1-8.22-2.64-.72-.3-5.61-2.36-8.22-4.79-.9-.84-1.66-1.76-1.66-1.76-.71-.85-1.24-1.65-1.63-2.29-.02-.04-.03-.08-.03-.12l.19-22.82 3.73 1.27 3.62 2.25c2.21 1.13 5.44 2.6 9.49 3.82 13.42 4.04 24.81 2.03 29.35 1.17 4.13-.78 9.92-2.28 16.43-5.38l5.28-2.15 2.84-.39 2.13.36z" fill="#dcd5f2" stroke="#8b75a1"/><path d="M1713.57 40.652c2.02.88 4.15 1.73 6.39 2.54 3.18 1.15 10.01 3.59 18.78 4.99 6.23.99 14.53 2.32 24.95.39 6.65-1.23 11.87-3.36 15.26-4.99l7.31-2.25v21.33c-.42.36-1.01.88-1.73 1.47-1.79 1.46-4.58 3.71-8.41 5.77-1.22.66-4.63 2.41-9.39 3.72-4.23 1.16-7.47 1.4-10.96 1.66-5.68.42-10.08.13-11.74 0-4.8-.38-9.29-.73-14.58-2.64-3.22-1.17-8.21-3.44-13.4-8.02l-2.65-2.93.17-21.04" fill="#dcd5f2" stroke="#8b75a1"/><path d="M1786.32 39.973c-.761.9-1.941 2.14-3.58 3.34-1.93 1.39-3.79 2.21-6.46 3.13-5.34 1.83-9.72 2.6-10.47 2.74-6.56 1.22-11.65 1.25-15.55 1.27-7.67.03-13.22-.81-14.87-1.08-3.69-.59-6.6-1.08-10.27-2.54-3.99-1.59-7-3.57-9-5.09l-2.48-2.45.19-23.41c0-.23.31-.31.43-.11.53.92 1.3 2.01 2.39 3.08 1.73 1.71 3.66 2.75 6.54 3.82 1.615.596 3.268 1.099 5.233 1.551 1.871.437 3.94.816 6.381 1.17 6.19.907 10.999 1.07 12.836 1.119 6.6.16 11.47-.34 12.59-.46 4.85-.52 8.21-1.28 10.63-1.83.7-.16 3.59-.84 6.98-2.22 1.33-.54 2.42-1.06 3.59-1.89 1.27-.9 2.19-1.84 2.8-2.54l1.68-2.07c.14-.16.41-.07.41.15v24.32" fill="#dcd5f2" stroke="#8b75a1"/><path d="M1750 1.601c-9.608 0-18.832 1.281-25.626 3.559-6.793 2.277-10.614 5.37-10.614 8.591 0 3.221 3.821 6.314 10.614 8.591 6.794 2.278 16.018 3.559 25.626 3.559s18.832-1.281 25.626-3.559c6.793-2.277 10.614-5.37 10.614-8.591 0-3.221-3.821-6.314-10.614-8.591-6.794-2.278-16.018-3.559-25.626-3.559z" fill="#dcd5f2" stroke="#8b75a1"/><path d="M1788.41 88.48l-7.05 4.07c-.12.07-.2.2-.2.35v5.3c0 .21-.16.39-.37.4l-6.81.42c-.2.01-.39-.13-.42-.33l-.94-5.82c-.02-.12-.09-.22-.19-.28l-7.1-4.1c-.1-.06-.23-.07-.34-.03l-4.96 1.84c-.18.07-.39-.01-.49-.18l-3.01-5.33c-.1-.17-.05-.39.1-.51l4.09-3.19c.1-.08.15-.19.15-.31v-8.19c0-.12-.05-.23-.15-.31l-4.35-3.52c-.15-.12-.19-.34-.09-.51l3.05-5.28c.1-.17.31-.25.5-.17l5.15 2.1c.11.05.24.04.35-.02l7.11-4.1c.09-.05.16-.15.19-.25l1.3-5.44c.04-.18.21-.31.4-.31l5.45.12c.19 0 .35.14.38.33l.97 5.28c.02.12.09.22.19.27l7.11 4.11c.1.06.21.07.32.03l5.28-1.69c.18-.06.38.02.47.19l2.72 5.15c.09.17.05.38-.11.5l-4.09 3.2c-.1.08-.15.19-.15.31v8.18c0 .13.06.25.16.32l4.4 3.2c.16.12.21.35.11.52l-3.23 5.6c-.1.17-.31.25-.5.17l-5.05-2.11c-.12-.05-.25-.05-.35.02z" fill="#8bb7f0" stroke="#4e7ab5"/><path d="M1779.87 69.41l3.71 2.14 2.14 3.72v4.28l-2.14 3.72-3.71 2.14h-4.29l-3.71-2.14-2.15-3.72v-4.28l2.15-3.72 3.71-2.14z" fill="#ffffff" stroke="#4e7ab5"/></g><g stroke-miterlimit="10"><path d="M1886.24 62.21v21.91l-.07 1.38c0 .06-.02.11-.06.15-.38.39-.92.92-1.61 1.51-1.59 1.35-3.03 2.12-4.21 2.84-.91.55-4.07 2.42-8.61 4.21-4.76 1.87-8.57 2.66-9.49 2.84-8.21 1.59-14.96.75-22.6-.2-2.07-.26-4.19-.59-6.65-1.17-4.01-.95-6.92-2.1-8.22-2.64-.72-.3-5.61-2.36-8.22-4.79-.9-.84-1.66-1.76-1.66-1.76-.71-.85-1.24-1.65-1.63-2.29-.02-.04-.03-.08-.03-.12l.19-22.82 3.73 1.27 3.62 2.25c2.21 1.13 5.44 2.6 9.49 3.82 13.42 4.04 24.81 2.03 29.35 1.17 4.13-.78 9.92-2.28 16.43-5.38l5.28-2.15 2.84-.39 2.13.36z" fill="#dcd5f2" stroke="#8b75a1"/><path d="M1813.56 40.2c2.02.88 4.15 1.73 6.39 2.54 3.18 1.15 10.01 3.59 18.78 4.99 6.23.99 14.53 2.32 24.95.39 6.65-1.23 11.87-3.36 15.26-4.99l7.31-2.25v21.33c-.42.36-1.01.88-1.73 1.47-1.79 1.46-4.58 3.71-8.41 5.77-1.22.66-4.63 2.41-9.39 3.72-4.23 1.16-7.47 1.4-10.96 1.66-5.68.42-10.08.13-11.74 0-4.8-.38-9.29-.73-14.58-2.64-3.22-1.17-8.21-3.44-13.4-8.02l-2.65-2.93.17-21.04" fill="#dcd5f2" stroke="#8b75a1"/><path d="M1886.24 40.88c-.76.9-1.94 2.14-3.58 3.34-1.93 1.39-3.79 2.21-6.46 3.13-5.34 1.83-9.72 2.6-10.47 2.74-6.56 1.22-11.65 1.25-15.55 1.27-7.67.03-13.22-.81-14.87-1.08-3.69-.59-6.6-1.08-10.27-2.54-3.99-1.59-7-3.57-9-5.09l-2.48-2.45.19-23.41c0-.23.31-.31.43-.11.53.92 1.3 2.01 2.39 3.08 1.73 1.71 3.66 2.75 6.54 3.82 1.53.565 3.093 1.05 4.885 1.485 1.793.435 3.815.82 6.265 1.185 6.42.95 11.41 1.12 13.3 1.17 6.6.16 11.47-.34 12.59-.46 4.85-.52 8.21-1.28 10.63-1.83.7-.16 3.59-.84 6.98-2.22 1.33-.54 2.42-1.06 3.59-1.89 1.27-.9 2.19-1.84 2.8-2.54l1.68-2.07c.14-.16.41-.07.41.15v24.32" fill="#dcd5f2" stroke="#8b75a1"/><path d="M1850 3.76c-9.608 0-18.832 1.281-25.626 3.559-6.793 2.277-10.614 5.37-10.614 8.591 0 3.221 3.821 6.314 10.614 8.591 6.794 2.278 16.018 3.559 25.626 3.559s18.832-1.281 25.626-3.559c6.793-2.277 10.614-5.37 10.614-8.591 0-3.221-3.821-6.314-10.614-8.591-6.794-2.278-16.018-3.559-25.626-3.559z" fill="#dcd5f2" stroke="#8b75a1"/><path d="M1888.41 88.48l-7.05 4.07c-.12.07-.2.2-.2.35v5.3c0 .21-.16.39-.37.4l-6.81.42c-.2.01-.39-.13-.42-.33l-.94-5.82c-.02-.12-.09-.22-.19-.28l-7.1-4.1c-.1-.06-.23-.07-.34-.03l-4.96 1.84c-.18.07-.39-.01-.49-.18l-3.01-5.33c-.1-.17-.05-.39.1-.51l4.09-3.19c.1-.08.15-.19.15-.31v-8.19c0-.12-.05-.23-.15-.31l-4.35-3.52c-.15-.12-.19-.34-.09-.51l3.05-5.28c.1-.17.31-.25.5-.17l5.15 2.1c.11.05.24.04.35-.02l7.11-4.1c.09-.05.16-.15.19-.25l1.3-5.44c.04-.18.21-.31.4-.31l5.45.12c.19 0 .35.14.38.33l.97 5.28c.02.12.09.22.19.27l7.11 4.11c.1.06.21.07.32.03l5.28-1.69c.18-.06.38.02.47.19l2.72 5.15c.09.17.05.38-.11.5l-4.09 3.2c-.1.08-.15.19-.15.31v8.18c0 .13.06.25.16.32l4.4 3.2c.16.12.21.35.11.52l-3.23 5.6c-.1.17-.31.25-.5.17l-5.05-2.11c-.12-.05-.25-.05-.35.02z" fill="#8bb7f0" stroke="#4e7ab5"/><path d="M1879.87 69.41l3.71 2.14 2.14 3.72v4.28l-2.14 3.72-3.71 2.14h-4.29l-3.71-2.14-2.15-3.72v-4.28l2.15-3.72 3.71-2.14z" fill="#ffffff" stroke="#4e7ab5"/></g></svg>