<svg xmlns="http://www.w3.org/2000/svg" viewBox="0 0 3875 125" width="3875" height="125"><path d="M65 18.5c-12.328 0-24.163 4.902-32.88 13.62C23.402 40.837 18.5 52.672 18.5 65c0 12.328 4.902 24.163 13.62 32.88 8.717 8.718 20.552 13.62 32.88 13.62 12.328 0 24.163-4.902 32.88-13.62 8.718-8.717 13.62-20.552 13.62-32.88 0-12.328-4.902-24.163-13.62-32.88C89.163 23.402 77.328 18.5 65 18.5z" fill="none" stroke="#ca4747" stroke-width="2.5" stroke-dasharray="0,292.1636414475332" stroke-dashoffset="292.163641" stroke-miterlimit="10"/><path d="M37.5 57.5h55v15h-55z" fill="#ffffff"/><path d="M190 18.5c-12.328 0-24.163 4.902-32.88 13.62-8.718 8.717-13.62 20.552-13.62 32.88 0 12.328 4.902 24.163 13.62 32.88 8.717 8.718 20.552 13.62 32.88 13.62 12.328 0 24.163-4.902 32.88-13.62 8.718-8.717 13.62-20.552 13.62-32.88 0-12.328-4.902-24.163-13.62-32.88-8.717-8.718-20.552-13.62-32.88-13.62z" fill="#f78f8f" fill-opacity=".047619" stroke="#ca4747" stroke-width="2.5" stroke-dasharray="0,292.1636414475332" stroke-dashoffset="292.163641" stroke-miterlimit="10"/><path d="M162.5 57.5h55v15h-55z" fill="#ffffff"/><path d="M315 18.5c-12.328 0-24.163 4.902-32.88 13.62-8.718 8.717-13.62 20.552-13.62 32.88 0 12.328 4.902 24.163 13.62 32.88 8.717 8.718 20.552 13.62 32.88 13.62 12.328 0 24.163-4.902 32.88-13.62 8.718-8.717 13.62-20.552 13.62-32.88 0-12.328-4.902-24.163-13.62-32.88-8.717-8.718-20.552-13.62-32.88-13.62z" fill="#f78f8f" fill-opacity=".095238" stroke="#ca4747" stroke-width="2.5" stroke-dasharray="1.391255435464439,290.7723860120688" stroke-dashoffset="1.391255" stroke-miterlimit="10"/><path d="M287.5 57.5h55v15h-55z" fill="#ffffff"/><path d="M440 18.5c-12.328 0-24.163 4.902-32.88 13.62-8.718 8.717-13.62 20.552-13.62 32.88 0 12.328 4.902 24.163 13.62 32.88 8.717 8.718 20.552 13.62 32.88 13.62 12.328 0 24.163-4.902 32.88-13.62 8.718-8.717 13.62-20.552 13.62-32.88 0-12.328-4.902-24.163-13.62-32.88-8.717-8.718-20.552-13.62-32.88-13.62z" fill="#f78f8f" fill-opacity=".142857" stroke="#ca4747" stroke-width="2.5" stroke-dasharray="16.695065225573302,275.46857622195995" stroke-dashoffset="16.695065" stroke-miterlimit="10"/><path d="M412.5 57.5h55v15h-55z" fill="#ffffff"/><path d="M565 18.5c-12.328 0-24.163 4.902-32.88 13.62-8.718 8.717-13.62 20.552-13.62 32.88 0 12.328 4.902 24.163 13.62 32.88 8.717 8.718 20.552 13.62 32.88 13.62 12.328 0 24.163-4.902 32.88-13.62 8.718-8.717 13.62-20.552 13.62-32.88 0-12.328-4.902-24.163-13.62-32.88-8.717-8.718-20.552-13.62-32.88-13.62z" fill="#f78f8f" fill-opacity=".190476" stroke="#ca4747" stroke-width="2.5" stroke-dasharray="31.998875015682195,260.16476643185104" stroke-dashoffset="31.998875" stroke-miterlimit="10"/><path d="M537.5 57.5h55v15h-55z" fill="#ffffff"/><path d="M690 18.5c-12.328 0-24.163 4.902-32.88 13.62-8.718 8.717-13.62 20.552-13.62 32.88 0 12.328 4.902 24.163 13.62 32.88 8.717 8.718 20.552 13.62 32.88 13.62 12.328 0 24.163-4.902 32.88-13.62 8.718-8.717 13.62-20.552 13.62-32.88 0-12.328-4.902-24.163-13.62-32.88-8.717-8.718-20.552-13.62-32.88-13.62z" fill="#f78f8f" fill-opacity=".238095" stroke="#ca4747" stroke-width="2.5" stroke-dasharray="47.30268480579105,244.86095664174218" stroke-dashoffset="47.302685" stroke-miterlimit="10"/><path d="M662.5 57.5h55v15h-55z" fill="#ffffff"/><path d="M815 18.5c-12.328 0-24.163 4.902-32.88 13.62-8.718 8.717-13.62 20.552-13.62 32.88 0 12.328 4.902 24.163 13.62 32.88 8.717 8.718 20.552 13.62 32.88 13.62 12.328 0 24.163-4.902 32.88-13.62 8.718-8.717 13.62-20.552 13.62-32.88 0-12.328-4.902-24.163-13.62-32.88-8.717-8.718-20.552-13.62-32.88-13.62z" fill="#f78f8f" fill-opacity=".285714" stroke="#ca4747" stroke-width="2.5" stroke-dasharray="62.606494595899946,229.55714685163326" stroke-dashoffset="62.606495" stroke-miterlimit="10"/><path d="M787.5 57.5h55v15h-55z" fill="#ffffff"/><path d="M940 18.5c-12.328 0-24.163 4.902-32.88 13.62-8.718 8.717-13.62 20.552-13.62 32.88 0 12.328 4.902 24.163 13.62 32.88 8.717 8.718 20.552 13.62 32.88 13.62 12.328 0 24.163-4.902 32.88-13.62 8.718-8.717 13.62-20.552 13.62-32.88 0-12.328-4.902-24.163-13.62-32.88-8.717-8.718-20.552-13.62-32.88-13.62z" fill="#f78f8f" fill-opacity=".333333" stroke="#ca4747" stroke-width="2.5" stroke-dasharray="77.91030438600885,214.25333706152438" stroke-dashoffset="77.910304" stroke-miterlimit="10"/><path d="M912.5 57.5h55v15h-55z" fill="#ffffff"/><path d="M1065 18.5c-12.328 0-24.163 4.902-32.88 13.62-8.718 8.717-13.62 20.552-13.62 32.88 0 12.328 4.902 24.163 13.62 32.88 8.717 8.718 20.552 13.62 32.88 13.62 12.328 0 24.163-4.902 32.88-13.62 8.718-8.717 13.62-20.552 13.62-32.88 0-12.328-4.902-24.163-13.62-32.88-8.717-8.718-20.552-13.62-32.88-13.62z" fill="#f78f8f" fill-opacity=".380952" stroke="#ca4747" stroke-width="2.5" stroke-dasharray="93.21411417611773,198.9495272714155" stroke-dashoffset="93.214114" stroke-miterlimit="10"/><path d="M1037.5-31.731276h55v15h-55z" fill="#ffffff" fill-opacity=".037037"/><path d="M1190 18.5c-12.328 0-24.163 4.902-32.88 13.62-8.718 8.717-13.62 20.552-13.62 32.88 0 12.328 4.902 24.163 13.62 32.88 8.717 8.718 20.552 13.62 32.88 13.62 12.328 0 24.163-4.902 32.88-13.62 8.718-8.717 13.62-20.552 13.62-32.88 0-12.328-4.902-24.163-13.62-32.88-8.717-8.718-20.552-13.62-32.88-13.62z" fill="#f78f8f" fill-opacity=".428571" stroke="#ca4747" stroke-width="2.5" stroke-dasharray="108.51792396622659,183.64571748130663" stroke-dashoffset="108.517924" stroke-miterlimit="10"/><path d="M1162.5-12.188889h55v15h-55z" fill="#ffffff" fill-opacity=".111111"/><path d="M1315 18.5c-12.328 0-24.163 4.902-32.88 13.62-8.718 8.717-13.62 20.552-13.62 32.88 0 12.328 4.902 24.163 13.62 32.88 8.717 8.718 20.552 13.62 32.88 13.62 12.328 0 24.163-4.902 32.88-13.62 8.718-8.717 13.62-20.552 13.62-32.88 0-12.328-4.902-24.163-13.62-32.88-8.717-8.718-20.552-13.62-32.88-13.62z" fill="#f78f8f" fill-opacity=".47619" stroke="#ca4747" stroke-width="2.5" stroke-dasharray="123.82173375633549,168.34190769119772" stroke-dashoffset="123.821734" stroke-miterlimit="10"/><path d="M1287.5 4.825103h55v15h-55z" fill="#ffffff" fill-opacity=".185185"/><path d="M1440 18.5c-12.328 0-24.163 4.902-32.88 13.62-8.718 8.717-13.62 20.552-13.62 32.88 0 12.328 4.902 24.163 13.62 32.88 8.717 8.718 20.552 13.62 32.88 13.62 12.328 0 24.163-4.902 32.88-13.62 8.718-8.717 13.62-20.552 13.62-32.88 0-12.328-4.902-24.163-13.62-32.88-8.717-8.718-20.552-13.62-32.88-13.62z" fill="#f78f8f" fill-opacity=".52381" stroke="#ca4747" stroke-width="2.5" stroke-dasharray="139.12554354644436,153.03809790108886" stroke-dashoffset="139.125544" stroke-miterlimit="10"/><path d="M1412.5 19.468724h55v15h-55z" fill="#ffffff" fill-opacity=".259259"/><path d="M1565 18.5c-12.328 0-24.163 4.902-32.88 13.62-8.718 8.717-13.62 20.552-13.62 32.88 0 12.328 4.902 24.163 13.62 32.88 8.717 8.718 20.552 13.62 32.88 13.62 12.328 0 24.163-4.902 32.88-13.62 8.718-8.717 13.62-20.552 13.62-32.88 0-12.328-4.902-24.163-13.62-32.88-8.717-8.718-20.552-13.62-32.88-13.62z" fill="#f78f8f" fill-opacity=".571429" stroke="#ca4747" stroke-width="2.5" stroke-dasharray="154.42935333655325,137.73428811097997" stroke-dashoffset="154.429353" stroke-miterlimit="10"/><path d="M1537.5 31.9h55v15h-55z" fill="#ffffff" fill-opacity=".333333"/><path d="M1690 18.5c-12.328 0-24.163 4.902-32.88 13.62-8.718 8.717-13.62 20.552-13.62 32.88 0 12.328 4.902 24.163 13.62 32.88 8.717 8.718 20.552 13.62 32.88 13.62 12.328 0 24.163-4.902 32.88-13.62 8.718-8.717 13.62-20.552 13.62-32.88 0-12.328-4.902-24.163-13.62-32.88-8.717-8.718-20.552-13.62-32.88-13.62z" fill="#f78f8f" fill-opacity=".619048" stroke="#ca4747" stroke-width="2.5" stroke-dasharray="169.73316312666213,122.43047832087109" stroke-dashoffset="169.733163" stroke-miterlimit="10"/><path d="M1662.5 42.276955h55v15h-55z" fill="#ffffff" fill-opacity=".407407"/><path d="M1815 18.5c-12.328 0-24.163 4.902-32.88 13.62-8.718 8.717-13.62 20.552-13.62 32.88 0 12.328 4.902 24.163 13.62 32.88 8.717 8.718 20.552 13.62 32.88 13.62 12.328 0 24.163-4.902 32.88-13.62 8.718-8.717 13.62-20.552 13.62-32.88 0-12.328-4.902-24.163-13.62-32.88-8.717-8.718-20.552-13.62-32.88-13.62z" fill="#f78f8f" fill-opacity=".666667" stroke="#ca4747" stroke-width="2.5" stroke-dasharray="185.03697291677108,107.12666853076216" stroke-dashoffset="185.036973" stroke-miterlimit="10"/><path d="M1787.5 50.757613h55v15h-55z" fill="#ffffff" fill-opacity=".481481"/><path d="M1940 18.5c-12.328 0-24.163 4.902-32.88 13.62-8.718 8.717-13.62 20.552-13.62 32.88 0 12.328 4.902 24.163 13.62 32.88 8.717 8.718 20.552 13.62 32.88 13.62 12.328 0 24.163-4.902 32.88-13.62 8.718-8.717 13.62-20.552 13.62-32.88 0-12.328-4.902-24.163-13.62-32.88-8.717-8.718-20.552-13.62-32.88-13.62z" fill="#f78f8f" fill-opacity=".714286" stroke="#ca4747" stroke-width="2.5" stroke-dasharray="200.34078270687993,91.8228587406533" stroke-dashoffset="200.340783" stroke-miterlimit="10"/><path d="M1912.5 57.5h55v15h-55z" fill="#ffffff" fill-opacity=".555556"/><g><path d="M2065 18.5c-12.328 0-24.163 4.902-32.88 13.62-8.718 8.717-13.62 20.552-13.62 32.88 0 12.328 4.902 24.163 13.62 32.88 8.717 8.718 20.552 13.62 32.88 13.62 12.328 0 24.163-4.902 32.88-13.62 8.718-8.717 13.62-20.552 13.62-32.88 0-12.328-4.902-24.163-13.62-32.88-8.717-8.718-20.552-13.62-32.88-13.62z" fill="#f78f8f" fill-opacity=".761905" stroke="#ca4747" stroke-width="2.5" stroke-dasharray="215.64459249698882,76.5190489505444" stroke-dashoffset="215.644592" stroke-miterlimit="10"/><path d="M2037.5 62.66214h55v15h-55z" fill="#ffffff" fill-opacity=".62963"/></g><g><path d="M2190 18.5c-12.328 0-24.163 4.902-32.88 13.62-8.718 8.717-13.62 20.552-13.62 32.88 0 12.328 4.902 24.163 13.62 32.88 8.717 8.718 20.552 13.62 32.88 13.62 12.328 0 24.163-4.902 32.88-13.62 8.718-8.717 13.62-20.552 13.62-32.88 0-12.328-4.902-24.163-13.62-32.88-8.717-8.718-20.552-13.62-32.88-13.62z" fill="#f78f8f" fill-opacity=".809524" stroke="#ca4747" stroke-width="2.5" stroke-dasharray="230.94840228709765,61.21523916043557" stroke-dashoffset="230.948402" stroke-miterlimit="10"/><path d="M2162.5 66.402058h55v15h-55z" fill="#ffffff" fill-opacity=".703704"/></g><g><path d="M2315 18.5c-12.328 0-24.163 4.902-32.88 13.62-8.718 8.717-13.62 20.552-13.62 32.88 0 12.328 4.902 24.163 13.62 32.88 8.717 8.718 20.552 13.62 32.88 13.62 12.328 0 24.163-4.902 32.88-13.62 8.718-8.717 13.62-20.552 13.62-32.88 0-12.328-4.902-24.163-13.62-32.88-8.717-8.718-20.552-13.62-32.88-13.62z" fill="#f78f8f" fill-opacity=".857143" stroke="#ca4747" stroke-width="2.5" stroke-dasharray="246.25221207720654,45.91142937032668" stroke-dashoffset="246.252212" stroke-miterlimit="10"/><path d="M2287.5 68.877778h55v15h-55z" fill="#ffffff" fill-opacity=".777778"/></g><g><path d="M2440 18.5c-12.328 0-24.163 4.902-32.88 13.62-8.718 8.717-13.62 20.552-13.62 32.88 0 12.328 4.902 24.163 13.62 32.88 8.717 8.718 20.552 13.62 32.88 13.62 12.328 0 24.163-4.902 32.88-13.62 8.718-8.717 13.62-20.552 13.62-32.88 0-12.328-4.902-24.163-13.62-32.88-8.717-8.718-20.552-13.62-32.88-13.62z" fill="#f78f8f" fill-opacity=".904762" stroke="#ca4747" stroke-width="2.5" stroke-dasharray="261.55602186731545,30.607619580217786" stroke-dashoffset="261.556022" stroke-miterlimit="10"/><path d="M2412.5 70.247325h55v15h-55z" fill="#ffffff" fill-opacity=".851852"/></g><g><path d="M2565 18.5c-12.328 0-24.163 4.902-32.88 13.62-8.718 8.717-13.62 20.552-13.62 32.88 0 12.328 4.902 24.163 13.62 32.88 8.717 8.718 20.552 13.62 32.88 13.62 12.328 0 24.163-4.902 32.88-13.62 8.718-8.717 13.62-20.552 13.62-32.88 0-12.328-4.902-24.163-13.62-32.88-8.717-8.718-20.552-13.62-32.88-13.62z" fill="#f78f8f" fill-opacity=".952381" stroke="#ca4747" stroke-width="2.5" stroke-dasharray="276.8598316574243,15.303809790108893" stroke-dashoffset="276.859832" stroke-miterlimit="10"/><path d="M2537.5 70.668724h55v15h-55z" fill="#ffffff" fill-opacity=".925926"/></g><g><path d="M2690 18.5c-12.328 0-24.163 4.902-32.88 13.62-8.718 8.717-13.62 20.552-13.62 32.88 0 12.328 4.902 24.163 13.62 32.88 8.717 8.718 20.552 13.62 32.88 13.62 12.328 0 24.163-4.902 32.88-13.62 8.718-8.717 13.62-20.552 13.62-32.88 0-12.328-4.902-24.163-13.62-32.88-8.717-8.718-20.552-13.62-32.88-13.62z" fill="#f78f8f" stroke="#ca4747" stroke-width="2.5" stroke-miterlimit="10"/><path d="M2662.5 70.3h55v15h-55z" fill="#ffffff"/></g><g><path d="M2815 18.5c-12.328 0-24.163 4.902-32.88 13.62-8.718 8.717-13.62 20.552-13.62 32.88 0 12.328 4.902 24.163 13.62 32.88 8.717 8.718 20.552 13.62 32.88 13.62 12.328 0 24.163-4.902 32.88-13.62 8.718-8.717 13.62-20.552 13.62-32.88 0-12.328-4.902-24.163-13.62-32.88-8.717-8.718-20.552-13.62-32.88-13.62z" fill="#f78f8f" stroke="#ca4747" stroke-width="2.5" stroke-miterlimit="10"/><path d="M2787.5 69.299177h55v15h-55z" fill="#ffffff"/></g><g><path d="M2940 18.5c-12.328 0-24.163 4.902-32.88 13.62-8.718 8.717-13.62 20.552-13.62 32.88 0 12.328 4.902 24.163 13.62 32.88 8.717 8.718 20.552 13.62 32.88 13.62 12.328 0 24.163-4.902 32.88-13.62 8.718-8.717 13.62-20.552 13.62-32.88 0-12.328-4.902-24.163-13.62-32.88-8.717-8.718-20.552-13.62-32.88-13.62z" fill="#f78f8f" stroke="#ca4747" stroke-width="2.5" stroke-miterlimit="10"/><path d="M2912.5 67.82428h55v15h-55z" fill="#ffffff"/></g><g><path d="M3065 18.5c-12.328 0-24.163 4.902-32.88 13.62-8.718 8.717-13.62 20.552-13.62 32.88 0 12.328 4.902 24.163 13.62 32.88 8.717 8.718 20.552 13.62 32.88 13.62 12.328 0 24.163-4.902 32.88-13.62 8.718-8.717 13.62-20.552 13.62-32.88 0-12.328-4.902-24.163-13.62-32.88-8.717-8.718-20.552-13.62-32.88-13.62z" fill="#f78f8f" stroke="#ca4747" stroke-width="2.5" stroke-miterlimit="10"/><path d="M3037.5 66.033333h55v15h-55z" fill="#ffffff"/></g><g><path d="M3190 18.5c-12.328 0-24.163 4.902-32.88 13.62-8.718 8.717-13.62 20.552-13.62 32.88 0 12.328 4.902 24.163 13.62 32.88 8.717 8.718 20.552 13.62 32.88 13.62 12.328 0 24.163-4.902 32.88-13.62 8.718-8.717 13.62-20.552 13.62-32.88 0-12.328-4.902-24.163-13.62-32.88-8.717-8.718-20.552-13.62-32.88-13.62z" fill="#f78f8f" stroke="#ca4747" stroke-width="2.5" stroke-miterlimit="10"/><path d="M3162.5 64.084362h55v15h-55z" fill="#ffffff"/></g><g><path d="M3315 18.5c-12.328 0-24.163 4.902-32.88 13.62-8.718 8.717-13.62 20.552-13.62 32.88 0 12.328 4.902 24.163 13.62 32.88 8.717 8.718 20.552 13.62 32.88 13.62 12.328 0 24.163-4.902 32.88-13.62 8.718-8.717 13.62-20.552 13.62-32.88 0-12.328-4.902-24.163-13.62-32.88-8.717-8.718-20.552-13.62-32.88-13.62z" fill="#f78f8f" stroke="#ca4747" stroke-width="2.5" stroke-miterlimit="10"/><path d="M3287.5 62.13539h55v15h-55z" fill="#ffffff"/></g><g><path d="M3440 18.5c-12.328 0-24.163 4.902-32.88 13.62-8.718 8.717-13.62 20.552-13.62 32.88 0 12.328 4.902 24.163 13.62 32.88 8.717 8.718 20.552 13.62 32.88 13.62 12.328 0 24.163-4.902 32.88-13.62 8.718-8.717 13.62-20.552 13.62-32.88 0-12.328-4.902-24.163-13.62-32.88-8.717-8.718-20.552-13.62-32.88-13.62z" fill="#f78f8f" stroke="#ca4747" stroke-width="2.5" stroke-miterlimit="10"/><path d="M3412.5 60.344444h55v15h-55z" fill="#ffffff"/></g><g><path d="M3565 18.5c-12.328 0-24.163 4.902-32.88 13.62-8.718 8.717-13.62 20.552-13.62 32.88 0 12.328 4.902 24.163 13.62 32.88 8.717 8.718 20.552 13.62 32.88 13.62 12.328 0 24.163-4.902 32.88-13.62 8.718-8.717 13.62-20.552 13.62-32.88 0-12.328-4.902-24.163-13.62-32.88-8.717-8.718-20.552-13.62-32.88-13.62z" fill="#f78f8f" stroke="#ca4747" stroke-width="2.5" stroke-miterlimit="10"/><path d="M3537.5 58.869547h55v15h-55z" fill="#ffffff"/></g><g><path d="M3690 18.5c-12.328 0-24.163 4.902-32.88 13.62-8.718 8.717-13.62 20.552-13.62 32.88 0 12.328 4.902 24.163 13.62 32.88 8.717 8.718 20.552 13.62 32.88 13.62 12.328 0 24.163-4.902 32.88-13.62 8.718-8.717 13.62-20.552 13.62-32.88 0-12.328-4.902-24.163-13.62-32.88-8.717-8.718-20.552-13.62-32.88-13.62z" fill="#f78f8f" stroke="#ca4747" stroke-width="2.5" stroke-miterlimit="10"/><path d="M3662.5 57.868724h55v15h-55z" fill="#ffffff"/></g><g><path d="M3815 18.5c-12.328 0-24.163 4.902-32.88 13.62-8.718 8.717-13.62 20.552-13.62 32.88 0 12.328 4.902 24.163 13.62 32.88 8.717 8.718 20.552 13.62 32.88 13.62 12.328 0 24.163-4.902 32.88-13.62 8.718-8.717 13.62-20.552 13.62-32.88 0-12.328-4.902-24.163-13.62-32.88-8.717-8.718-20.552-13.62-32.88-13.62z" fill="#f78f8f" stroke="#ca4747" stroke-width="2.5" stroke-miterlimit="10"/><path d="M3787.5 57.5h55v15h-55z" fill="#ffffff"/></g></svg>