<svg xmlns="http://www.w3.org/2000/svg" viewBox="0 0 3875 125" width="3875" height="125"><path d="M74.4 107.5L63 114.1l-11.4-6.6H39l-6.4-11-12.1-7v-14L14.4 65l6.1-10.5v-14l12.1-7 6.4-11h12.6L63 15.9l11.4 6.6H88l6.9 11.8 10.6 6.2v12.2l7.1 12.3-7.1 12.3v12.2l-10.6 6.2-6.9 11.8z" fill="none" stroke="#5e9c76" stroke-width="2.5" stroke-dasharray="0,315.49091731037515" stroke-dashoffset="315.490917" stroke-miterlimit="10"/><path d="M199.4 107.5l-11.4 6.6-11.4-6.6H164l-6.4-11-12.1-7v-14L139.4 65l6.1-10.5v-14l12.1-7 6.4-11h12.6l11.4-6.6 11.4 6.6H213l6.9 11.8 10.6 6.2v12.2l7.1 12.3-7.1 12.3v12.2l-10.6 6.2-6.9 11.8z" fill="#bae0bd" fill-opacity=".047619" stroke="#5e9c76" stroke-width="2.5" stroke-dasharray="0,315.49091731037515" stroke-dashoffset="315.490917" stroke-miterlimit="10"/><path d="M324.4 107.5l-11.4 6.6-11.4-6.6H289l-6.4-11-12.1-7v-14L264.4 65l6.1-10.5v-14l12.1-7 6.4-11h12.6l11.4-6.6 11.4 6.6H338l6.9 11.8 10.6 6.2v12.2l7.1 12.3-7.1 12.3v12.2l-10.6 6.2-6.9 11.8z" fill="#bae0bd" fill-opacity=".095238" stroke="#5e9c76" stroke-width="2.5" stroke-dasharray="1.5023377014779715,313.98857960889717" stroke-dashoffset="1.502338" stroke-miterlimit="10"/><path d="M449.4 107.5l-11.4 6.6-11.4-6.6H414l-6.4-11-12.1-7v-14L389.4 65l6.1-10.5v-14l12.1-7 6.4-11h12.6l11.4-6.6 11.4 6.6H463l6.9 11.8 10.6 6.2v12.2l7.1 12.3-7.1 12.3v12.2l-10.6 6.2-6.9 11.8z" fill="#bae0bd" fill-opacity=".142857" stroke="#5e9c76" stroke-width="2.5" stroke-dasharray="18.028052417735694,297.46286489263946" stroke-dashoffset="18.028052" stroke-miterlimit="10"/><path d="M574.4 107.5l-11.4 6.6-11.4-6.6H539l-6.4-11-12.1-7v-14L514.4 65l6.1-10.5v-14l12.1-7 6.4-11h12.6l11.4-6.6 11.4 6.6H588l6.9 11.8 10.6 6.2v12.2l7.1 12.3-7.1 12.3v12.2l-10.6 6.2-6.9 11.8z" fill="#bae0bd" fill-opacity=".190476" stroke="#5e9c76" stroke-width="2.5" stroke-dasharray="34.55376713399345,280.9371501763817" stroke-dashoffset="34.553767" stroke-miterlimit="10"/><path d="M699.4 107.5l-11.4 6.6-11.4-6.6H664l-6.4-11-12.1-7v-14L639.4 65l6.1-10.5v-14l12.1-7 6.4-11h12.6l11.4-6.6 11.4 6.6H713l6.9 11.8 10.6 6.2v12.2l7.1 12.3-7.1 12.3v12.2l-10.6 6.2-6.9 11.8z" fill="#bae0bd" fill-opacity=".238095" stroke="#5e9c76" stroke-width="2.5" stroke-dasharray="51.07948185025118,264.411435460124" stroke-dashoffset="51.079482" stroke-miterlimit="10"/><path d="M824.4 107.5l-11.4 6.6-11.4-6.6H789l-6.4-11-12.1-7v-14L764.4 65l6.1-10.5v-14l12.1-7 6.4-11h12.6l11.4-6.6 11.4 6.6H838l6.9 11.8 10.6 6.2v12.2l7.1 12.3-7.1 12.3v12.2l-10.6 6.2-6.9 11.8z" fill="#bae0bd" fill-opacity=".285714" stroke="#5e9c76" stroke-width="2.5" stroke-dasharray="67.60519656650894,247.88572074386622" stroke-dashoffset="67.605197" stroke-miterlimit="10"/><path d="M949.4 107.5l-11.4 6.6-11.4-6.6H914l-6.4-11-12.1-7v-14L889.4 65l6.1-10.5v-14l12.1-7 6.4-11h12.6l11.4-6.6 11.4 6.6H963l6.9 11.8 10.6 6.2v12.2l7.1 12.3-7.1 12.3v12.2l-10.6 6.2-6.9 11.8z" fill="#bae0bd" fill-opacity=".333333" stroke="#5e9c76" stroke-width="2.5" stroke-dasharray="84.13091128276669,231.36000602760848" stroke-dashoffset="84.130911" stroke-miterlimit="10"/><path d="M1074.4 107.5l-11.4 6.6-11.4-6.6H1039l-6.4-11-12.1-7v-14l-6.1-10.5 6.1-10.5v-14l12.1-7 6.4-11h12.6l11.4-6.6 11.4 6.6h13.6l6.9 11.8 10.6 6.2v12.2l7.1 12.3-7.1 12.3v12.2l-10.6 6.2-6.9 11.8z" fill="#bae0bd" fill-opacity=".380952" stroke="#5e9c76" stroke-width="2.5" stroke-dasharray="100.65662599902444,214.8342913113507" stroke-dashoffset="100.656626" stroke-miterlimit="10"/><path d="M1199.4 107.5l-11.4 6.6-11.4-6.6H1164l-6.4-11-12.1-7v-14l-6.1-10.5 6.1-10.5v-14l12.1-7 6.4-11h12.6l11.4-6.6 11.4 6.6h13.6l6.9 11.8 10.6 6.2v12.2l7.1 12.3-7.1 12.3v12.2l-10.6 6.2-6.9 11.8z" fill="#bae0bd" fill-opacity=".428571" stroke="#5e9c76" stroke-width="2.5" stroke-dasharray="117.18234071528217,198.30857659509297" stroke-dashoffset="117.182341" stroke-miterlimit="10"/><path d="M1324.4 107.5l-11.4 6.6-11.4-6.6H1289l-6.4-11-12.1-7v-14l-6.1-10.5 6.1-10.5v-14l12.1-7 6.4-11h12.6l11.4-6.6 11.4 6.6h13.6l6.9 11.8 10.6 6.2v12.2l7.1 12.3-7.1 12.3v12.2l-10.6 6.2-6.9 11.8z" fill="#bae0bd" fill-opacity=".47619" stroke="#5e9c76" stroke-width="2.5" stroke-dasharray="133.70805543153992,181.78286187883523" stroke-dashoffset="133.708055" stroke-miterlimit="10"/><path d="M1449.4 107.5l-11.4 6.6-11.4-6.6H1414l-6.4-11-12.1-7v-14l-6.1-10.5 6.1-10.5v-14l12.1-7 6.4-11h12.6l11.4-6.6 11.4 6.6h13.6l6.9 11.8 10.6 6.2v12.2l7.1 12.3-7.1 12.3v12.2l-10.6 6.2-6.9 11.8z" fill="#bae0bd" fill-opacity=".52381" stroke="#5e9c76" stroke-width="2.5" stroke-dasharray="150.23377014779766,165.2571471625775" stroke-dashoffset="150.23377" stroke-miterlimit="10"/><path d="M1574.4 107.5l-11.4 6.6-11.4-6.6H1539l-6.4-11-12.1-7v-14l-6.1-10.5 6.1-10.5v-14l12.1-7 6.4-11h12.6l11.4-6.6 11.4 6.6h13.6l6.9 11.8 10.6 6.2v12.2l7.1 12.3-7.1 12.3v12.2l-10.6 6.2-6.9 11.8z" fill="#bae0bd" fill-opacity=".571429" stroke="#5e9c76" stroke-width="2.5" stroke-dasharray="166.7594848640554,148.73143244631976" stroke-dashoffset="166.759485" stroke-miterlimit="10"/><path d="M1699.4 107.5l-11.4 6.6-11.4-6.6H1664l-6.4-11-12.1-7v-14l-6.1-10.5 6.1-10.5v-14l12.1-7 6.4-11h12.6l11.4-6.6 11.4 6.6h13.6l6.9 11.8 10.6 6.2v12.2l7.1 12.3-7.1 12.3v12.2l-10.6 6.2-6.9 11.8z" fill="#bae0bd" fill-opacity=".619048" stroke="#5e9c76" stroke-width="2.5" stroke-dasharray="183.28519958031316,132.205717730062" stroke-dashoffset="183.2852" stroke-miterlimit="10"/><path d="M1824.4 107.5l-11.4 6.6-11.4-6.6H1789l-6.4-11-12.1-7v-14l-6.1-10.5 6.1-10.5v-14l12.1-7 6.4-11h12.6l11.4-6.6 11.4 6.6h13.6l6.9 11.8 10.6 6.2v12.2l7.1 12.3-7.1 12.3v12.2l-10.6 6.2-6.9 11.8z" fill="#bae0bd" fill-opacity=".666667" stroke="#5e9c76" stroke-width="2.5" stroke-dasharray="199.81091429657096,115.6800030138042" stroke-dashoffset="199.810914" stroke-miterlimit="10"/><path d="M1949.4 107.5l-11.4 6.6-11.4-6.6H1914l-6.4-11-12.1-7v-14l-6.1-10.5 6.1-10.5v-14l12.1-7 6.4-11h12.6l11.4-6.6 11.4 6.6h13.6l6.9 11.8 10.6 6.2v12.2l7.1 12.3-7.1 12.3v12.2l-10.6 6.2-6.9 11.8z" fill="#bae0bd" fill-opacity=".714286" stroke="#5e9c76" stroke-width="2.5" stroke-dasharray="216.33662901282867,99.15428829754647" stroke-dashoffset="216.336629" stroke-miterlimit="10"/><g><path d="M2074.4 107.5l-11.4 6.6-11.4-6.6H2039l-6.4-11-12.1-7v-14l-6.1-10.5 6.1-10.5v-14l12.1-7 6.4-11h12.6l11.4-6.6 11.4 6.6h13.6l6.9 11.8 10.6 6.2v12.2l7.1 12.3-7.1 12.3v12.2l-10.6 6.2-6.9 11.8z" fill="#bae0bd" fill-opacity=".761905" stroke="#5e9c76" stroke-width="2.5" stroke-dasharray="232.86234372908643,82.62857358128872" stroke-dashoffset="232.862344" stroke-miterlimit="10"/></g><g><path d="M2199.4 107.5l-11.4 6.6-11.4-6.6H2164l-6.4-11-12.1-7v-14l-6.1-10.5 6.1-10.5v-14l12.1-7 6.4-11h12.6l11.4-6.6 11.4 6.6h13.6l6.9 11.8 10.6 6.2v12.2l7.1 12.3-7.1 12.3v12.2l-10.6 6.2-6.9 11.8z" fill="#bae0bd" fill-opacity=".809524" stroke="#5e9c76" stroke-width="2.5" stroke-dasharray="249.38805844534411,66.10285886503102" stroke-dashoffset="249.388058" stroke-miterlimit="10"/></g><g><path d="M2324.4 107.5l-11.4 6.6-11.4-6.6H2289l-6.4-11-12.1-7v-14l-6.1-10.5 6.1-10.5v-14l12.1-7 6.4-11h12.6l11.4-6.6 11.4 6.6h13.6l6.9 11.8 10.6 6.2v12.2l7.1 12.3-7.1 12.3v12.2l-10.6 6.2-6.9 11.8z" fill="#bae0bd" fill-opacity=".857143" stroke="#5e9c76" stroke-width="2.5" stroke-dasharray="265.91377316160185,49.57714414877327" stroke-dashoffset="265.913773" stroke-miterlimit="10"/></g><g><path d="M2449.4 107.5l-11.4 6.6-11.4-6.6H2414l-6.4-11-12.1-7v-14l-6.1-10.5 6.1-10.5v-14l12.1-7 6.4-11h12.6l11.4-6.6 11.4 6.6h13.6l6.9 11.8 10.6 6.2v12.2l7.1 12.3-7.1 12.3v12.2l-10.6 6.2-6.9 11.8z" fill="#bae0bd" fill-opacity=".904762" stroke="#5e9c76" stroke-width="2.5" stroke-dasharray="282.4394878778596,33.05142943251551" stroke-dashoffset="282.439488" stroke-miterlimit="10"/></g><g><path d="M2574.4 107.5l-11.4 6.6-11.4-6.6H2539l-6.4-11-12.1-7v-14l-6.1-10.5 6.1-10.5v-14l12.1-7 6.4-11h12.6l11.4-6.6 11.4 6.6h13.6l6.9 11.8 10.6 6.2v12.2l7.1 12.3-7.1 12.3v12.2l-10.6 6.2-6.9 11.8z" fill="#bae0bd" fill-opacity=".952381" stroke="#5e9c76" stroke-width="2.5" stroke-dasharray="298.9652025941174,16.525714716257756" stroke-dashoffset="298.965203" stroke-miterlimit="10"/></g><g><path d="M2699.4 107.5l-11.4 6.6-11.4-6.6H2664l-6.4-11-12.1-7v-14l-6.1-10.5 6.1-10.5v-14l12.1-7 6.4-11h12.6l11.4-6.6 11.4 6.6h13.6l6.9 11.8 10.6 6.2v12.2l7.1 12.3-7.1 12.3v12.2l-10.6 6.2-6.9 11.8z" fill="#bae0bd" stroke="#5e9c76" stroke-width="2.5" stroke-miterlimit="10"/></g><g><path d="M2824.4 107.5l-11.4 6.6-11.4-6.6H2789l-6.4-11-12.1-7v-14l-6.1-10.5 6.1-10.5v-14l12.1-7 6.4-11h12.6l11.4-6.6 11.4 6.6h13.6l6.9 11.8 10.6 6.2v12.2l7.1 12.3-7.1 12.3v12.2l-10.6 6.2-6.9 11.8z" fill="#bae0bd" stroke="#5e9c76" stroke-width="2.5" stroke-miterlimit="10"/></g><g><path d="M2949.4 107.5l-11.4 6.6-11.4-6.6H2914l-6.4-11-12.1-7v-14l-6.1-10.5 6.1-10.5v-14l12.1-7 6.4-11h12.6l11.4-6.6 11.4 6.6h13.6l6.9 11.8 10.6 6.2v12.2l7.1 12.3-7.1 12.3v12.2l-10.6 6.2-6.9 11.8z" fill="#bae0bd" stroke="#5e9c76" stroke-width="2.5" stroke-miterlimit="10"/></g><g><path d="M3074.4 107.5l-11.4 6.6-11.4-6.6H3039l-6.4-11-12.1-7v-14l-6.1-10.5 6.1-10.5v-14l12.1-7 6.4-11h12.6l11.4-6.6 11.4 6.6h13.6l6.9 11.8 10.6 6.2v12.2l7.1 12.3-7.1 12.3v12.2l-10.6 6.2-6.9 11.8z" fill="#bae0bd" stroke="#5e9c76" stroke-width="2.5" stroke-miterlimit="10"/></g><g><path d="M3199.4 107.5l-11.4 6.6-11.4-6.6H3164l-6.4-11-12.1-7v-14l-6.1-10.5 6.1-10.5v-14l12.1-7 6.4-11h12.6l11.4-6.6 11.4 6.6h13.6l6.9 11.8 10.6 6.2v12.2l7.1 12.3-7.1 12.3v12.2l-10.6 6.2-6.9 11.8z" fill="#bae0bd" stroke="#5e9c76" stroke-width="2.5" stroke-miterlimit="10"/><path d="M3187.621037 47.787087l23.330922 8.286622 18.403027-47.469239-7.91154-3.067171-15.335856 39.557699-15.82308-6.134343z" fill="#ffffff" fill-opacity=".166667"/></g><g><path d="M3324.4 107.5l-11.4 6.6-11.4-6.6H3289l-6.4-11-12.1-7v-14l-6.1-10.5 6.1-10.5v-14l12.1-7 6.4-11h12.6l11.4-6.6 11.4 6.6h13.6l6.9 11.8 10.6 6.2v12.2l7.1 12.3-7.1 12.3v12.2l-10.6 6.2-6.9 11.8z" fill="#bae0bd" stroke="#5e9c76" stroke-width="2.5" stroke-miterlimit="10"/><path d="M3308.437828 52.820642l22.562474 10.19484 22.280177-45.777655-7.62961-3.713363-18.566813 38.148047-15.259219-7.426726z" fill="#ffffff" fill-opacity=".333333"/></g><g><path d="M3449.4 107.5l-11.4 6.6-11.4-6.6H3414l-6.4-11-12.1-7v-14l-6.1-10.5 6.1-10.5v-14l12.1-7 6.4-11h12.6l11.4-6.6 11.4 6.6h13.6l6.9 11.8 10.6 6.2v12.2l7.1 12.3-7.1 12.3v12.2l-10.6 6.2-6.9 11.8z" fill="#bae0bd" stroke="#5e9c76" stroke-width="2.5" stroke-miterlimit="10"/><path d="M3428.851197 57.489552l21.638267 12.03268 26.003516-43.770048-7.295008-4.33392-21.669597 36.47504-14.590016-8.667838z" fill="#ffffff" fill-opacity=".5"/></g><g><path d="M3574.4 107.5l-11.4 6.6-11.4-6.6H3539l-6.4-11-12.1-7v-14l-6.1-10.5 6.1-10.5v-14l12.1-7 6.4-11h12.6l11.4-6.6 11.4 6.6h13.6l6.9 11.8 10.6 6.2v12.2l7.1 12.3-7.1 12.3v12.2l-10.6 6.2-6.9 11.8z" fill="#bae0bd" stroke="#5e9c76" stroke-width="2.5" stroke-miterlimit="10"/><path d="M3548.892807 61.761585l20.564682 13.787454 29.54734-41.460278-6.910045-4.924557-24.622785 34.550232-13.820092-9.849114z" fill="#ffffff" fill-opacity=".666667"/></g><g><path d="M3699.4 107.5l-11.4 6.6-11.4-6.6H3664l-6.4-11-12.1-7v-14l-6.1-10.5 6.1-10.5v-14l12.1-7 6.4-11h12.6l11.4-6.6 11.4 6.6h13.6l6.9 11.8 10.6 6.2v12.2l7.1 12.3-7.1 12.3v12.2l-10.6 6.2-6.9 11.8z" fill="#bae0bd" stroke="#5e9c76" stroke-width="2.5" stroke-miterlimit="10"/><path d="M3668.596888 65.60725l19.349129 15.447047 32.887188-38.864288-6.477381-5.481198-27.40599 32.386906-12.954763-10.962396z" fill="#ffffff" fill-opacity=".833333"/></g><g><path d="M3824.4 107.5l-11.4 6.6-11.4-6.6H3789l-6.4-11-12.1-7v-14l-6.1-10.5 6.1-10.5v-14l12.1-7 6.4-11h12.6l11.4-6.6 11.4 6.6h13.6l6.9 11.8 10.6 6.2v12.2l7.1 12.3-7.1 12.3v12.2l-10.6 6.2-6.9 11.8z" fill="#bae0bd" stroke="#5e9c76" stroke-width="2.5" stroke-miterlimit="10"/><path d="M3788 69l18 17 36-36-6-6-30 30-12-12z" fill="#ffffff"/></g></svg>