<?xml version="1.0" encoding="utf-8"?>
<!-- Generator: Adobe Illustrator 23.0.3, SVG Export Plug-In . SVG Version: 6.00 Build 0)  -->
<svg version="1.1" id="Layer_1" xmlns="http://www.w3.org/2000/svg" xmlns:xlink="http://www.w3.org/1999/xlink" x="0px" y="0px"
	 viewBox="0 0 100 100" style="enable-background:new 0 0 100 100;" xml:space="preserve">
<style type="text/css">
	.st0{fill:#B0C1D4;stroke:#66798F;stroke-miterlimit:10;}
	.st1{fill:#FFFFFF;stroke:#66798F;stroke-miterlimit:10;}
</style>
<image style="display:none;overflow:visible;" width="100" height="100" xlink:href="bold.png" >
</image>
<path class="st0" d="M69.5,5.5c-1.2-0.5-2.3-0.8-3-1h-54v11h10v69h-10v10h54c0.7-0.2,1.8-0.5,3-1c4.3-1.6,11.4-4.3,16-11
	c3.1-4.6,3.8-9.2,4-11c0.3-2.4,1-8.2-2-14c-4.4-8.4-13.5-10.6-15-11c0.7-0.3,1.3-0.6,2-1c2.3-1.3,8.5-5.3,11-13
	c0.6-1.7,2.6-7.7,0-14C82.2,10.4,73.5,7,69.5,5.5z"/>
<path class="st1" d="M60.5,80.5c-1.6,0.6-3,0.9-4,1h-16v-27h17c0.7,0.2,1.8,0.5,3,1c1.8,0.8,4.8,2,7,5c0.4,0.5,1.4,1.9,2,4
	c0.3,1.1,1.3,4.4,0,8C67.6,77.8,62.3,79.8,60.5,80.5z"/>
<path class="st1" d="M58.4,42.1c-1.4,0.6-2.7,0.8-3.6,0.9H40.5V17.5h15.2c0.6,0.2,1.6,0.5,2.7,0.9c1.6,0.7,4.3,1.9,6.3,4.7
	c0.3,0.5,1.2,1.8,1.8,3.8c0.3,1,1.2,4.1,0,7.6C64.7,39.5,60,41.4,58.4,42.1z"/>
</svg>
