<?xml version="1.0" encoding="utf-8"?>
<!-- Generator: Adobe Illustrator 23.0.3, SVG Export Plug-In . SVG Version: 6.00 Build 0)  -->
<svg version="1.1" id="Layer_1" xmlns="http://www.w3.org/2000/svg" xmlns:xlink="http://www.w3.org/1999/xlink" x="0px" y="0px"
	 viewBox="0 0 100 100" style="enable-background:new 0 0 100 100;" xml:space="preserve">
<style type="text/css">
	.st0{display:none;}
	.st1{display:inline;fill:#B0C1D4;stroke:#66798F;stroke-miterlimit:10;}
	.st2{display:inline;fill:#FFFFFF;stroke:#66798F;stroke-miterlimit:10;}
	.st3{display:inline;fill:#8BB7F0;stroke:#4E7AB5;stroke-miterlimit:10;}
	.st4{display:inline;fill:#36404D;}
	.st5{display:inline;fill:#BAE0BD;stroke:#5E9C76;stroke-miterlimit:10;}
	.st6{display:none;fill:#F78F8F;stroke:#C74444;stroke-miterlimit:10;}
	.st7{display:none;fill:#B0C1D4;stroke:#66798F;stroke-miterlimit:10;}
	.st8{fill:#8BB7F0;stroke:#4E7AB5;stroke-miterlimit:10;}
	.st9{fill:#FFFFFF;stroke:#4E7AB5;stroke-miterlimit:10;}
</style>
<g id="link">
	<path class="st8" d="M90.3,32.7L78.7,44.3c-6.5,6.5-17,6.5-23.5,0l0,0c-6.5-6.5-6.5-17,0-23.5L66.8,9.2c6.5-6.5,17-6.5,23.5,0l0,0
		C96.7,15.7,96.7,26.3,90.3,32.7z"/>
	<path class="st9" d="M86.7,29.1L75.1,40.7c-4.5,4.5-11.8,4.5-16.3,0l0,0c-4.5-4.5-4.5-11.8,0-16.3l11.6-11.6
		c4.5-4.5,11.8-4.5,16.3,0l0,0C91.2,17.3,91.2,24.6,86.7,29.1z"/>
	<path class="st8" d="M45.3,77.7L33.7,89.3c-6.5,6.5-17,6.5-23.5,0l0,0c-6.5-6.5-6.5-17,0-23.5l11.5-11.5c6.5-6.5,17-6.5,23.5,0l0,0
		C51.7,60.7,51.7,71.3,45.3,77.7z"/>
	<path class="st9" d="M41.7,74.1L30.1,85.7c-4.5,4.5-11.8,4.5-16.3,0l0,0c-4.5-4.5-4.5-11.8,0-16.3l11.6-11.6
		c4.5-4.5,11.8-4.5,16.3,0l0,0C46.2,62.3,46.2,69.6,41.7,74.1z"/>
	<path class="st8" d="M59.9,34.1L34.1,59.9c-0.7,0.7-1.1,1.6-1.1,2.6l0,0c0,1,0.4,1.9,1.1,2.6l0.9,0.9c0.7,0.7,1.6,1.1,2.6,1.1l0,0
		c1,0,1.9-0.4,2.6-1.1l25.9-25.9c0.7-0.7,1.1-1.6,1.1-2.6l0,0c0-1-0.4-1.9-1.1-2.6l-0.9-0.9c-0.7-0.7-1.6-1.1-2.6-1.1l0,0
		C61.5,33,60.6,33.4,59.9,34.1z"/>
</g>
</svg>
