<?xml version="1.0" encoding="utf-8"?>
<!-- Generator: Adobe Illustrator 23.0.3, SVG Export Plug-In . SVG Version: 6.00 Build 0)  -->
<svg version="1.1" id="Layer_1" xmlns="http://www.w3.org/2000/svg" xmlns:xlink="http://www.w3.org/1999/xlink" x="0px" y="0px"
	 viewBox="0 0 100 100" style="enable-background:new 0 0 100 100;" xml:space="preserve">
<style type="text/css">
	.st0{display:none;}
	.st1{display:inline;fill:#B0C1D4;stroke:#66798F;stroke-miterlimit:10;}
	.st2{display:inline;fill:#FFFFFF;stroke:#66798F;stroke-miterlimit:10;}
	.st3{display:inline;fill:#8BB7F0;stroke:#4E7AB5;stroke-miterlimit:10;}
	.st4{display:inline;fill:#36404D;}
	.st5{display:inline;fill:#BAE0BD;stroke:#5E9C76;stroke-miterlimit:10;}
	.st6{display:none;fill:#F78F8F;stroke:#C74444;stroke-miterlimit:10;}
	.st7{display:none;fill:#B0C1D4;stroke:#66798F;stroke-miterlimit:10;}
	.st8{display:inline;fill:#FFFFFF;stroke:#4E7AB5;stroke-miterlimit:10;}
	.st9{display:inline;}
	.st10{fill:#4E7AB5;}
	.st11{font-family:'Arial-BoldMT';}
	.st12{font-size:24.7944px;}
	.st13{fill:#36404D;}
</style>
<g id="right">
	<rect x="4.8" y="13.5" transform="matrix(-1 -4.490243e-11 4.490243e-11 -1 98.5727 30)" class="st13" width="89" height="3"/>
	
		<rect x="12.8" y="48.5" transform="matrix(-1 -4.489665e-11 4.489665e-11 -1 106.5727 100)" class="st13" width="80.9" height="3"/>
	<rect x="48.5" y="30.5" transform="matrix(-1 -4.489576e-11 4.489576e-11 -1 142.5727 64)" class="st13" width="45.6" height="3"/>
	
		<rect x="34.6" y="65.5" transform="matrix(-1 -4.491264e-11 4.491264e-11 -1 128.5727 134)" class="st13" width="59.3" height="3"/>
	
		<rect x="64.1" y="83.5" transform="matrix(-1 -4.489576e-11 4.489576e-11 -1 158.5727 170)" class="st13" width="30.4" height="3"/>
</g>
</svg>
