<?xml version="1.0" encoding="utf-8"?>
<!-- Generator: Adobe Illustrator 23.0.3, SVG Export Plug-In . SVG Version: 6.00 Build 0)  -->
<svg version="1.1" id="Layer_1" xmlns="http://www.w3.org/2000/svg" xmlns:xlink="http://www.w3.org/1999/xlink" x="0px" y="0px"
	 viewBox="0 0 100 100" style="enable-background:new 0 0 100 100;" xml:space="preserve">
<style type="text/css">
	.st0{display:none;}
	.st1{display:inline;fill:#B0C1D4;stroke:#66798F;stroke-miterlimit:10;}
	.st2{display:inline;fill:#FFFFFF;stroke:#66798F;stroke-miterlimit:10;}
	.st3{display:inline;fill:#8BB7F0;stroke:#4E7AB5;stroke-miterlimit:10;}
	.st4{display:inline;fill:#36404D;}
	.st5{display:inline;fill:#BAE0BD;stroke:#5E9C76;stroke-miterlimit:10;}
	.st6{display:none;fill:#F78F8F;stroke:#C74444;stroke-miterlimit:10;}
	.st7{display:none;fill:#B0C1D4;stroke:#66798F;stroke-miterlimit:10;}
	.st8{display:inline;fill:#FFFFFF;stroke:#4E7AB5;stroke-miterlimit:10;}
	.st9{display:inline;}
	.st10{fill:#4E7AB5;}
	.st11{font-family:'Arial-BoldMT';}
	.st12{font-size:24.7944px;}
	.st13{display:inline;fill:#4E7AB5;}
	.st14{fill:#B0C1D4;stroke:#66798F;stroke-miterlimit:10;}
	.st15{fill:#66798F;}
</style>
<g id="underline">
	<path class="st14" d="M64,55.5c0,7.7-6.4,14-14.3,14s-14.3-6.3-14.3-14l-0.2-23V15.1c0-1.5,1.1-2.8,2.6-3.1l0,0
		c1.5-0.3,2.6-1.6,2.6-3.1V8.6c0-1.7-1.4-3.1-3.2-3.1H15.7c-1.8,0-3.2,1.4-3.2,3.1V9c0,1.5,1.1,2.8,2.6,3.1l0,0
		c1.5,0.3,2.6,1.6,2.6,3.1l0,39c0,1.5,0.1,3,0.4,4.4c0.2,0.8,0.4,1.5,0.6,2.3c3.2,10.4,11.6,16,13.5,17.1c7.2,4.5,14.4,5,17.6,5
		c3.2,0,10.4-0.5,17.6-5c1.8-1.1,10.3-6.7,13.5-17.1c0.2-0.8,0.4-1.6,0.6-2.3c0.3-1.5,0.4-2.9,0.4-4.4l0-39c0-1.5,1.1-2.8,2.6-3.1
		l0,0C85.9,11.7,87,10.5,87,9V8.6c0-1.7-1.4-3.1-3.2-3.1H62.3c-1.8,0-3.2,1.4-3.2,3.1V9c0,1.5,1.1,2.8,2.6,3.1l0,0
		c1.5,0.3,2.6,1.6,2.6,3.1v16.7L64,55.5z"/>
	<rect x="10.5" y="92.5" class="st15" width="78" height="2"/>
</g>
</svg>
