<svg xmlns="http://www.w3.org/2000/svg" viewBox="0 0 3875 125" width="3875" height="125"><path d="M27.5 19.25h17v12h-17z" fill="#e0e6f5"/><path d="M44.5 19.25h16v12h-16z" fill="#d9d6ec"/><path d="M44.61 30.5V35H12.5V15h32.11v5H30.5v1.5h14.11V23H30.5v1.5h14.11V26H30.5v1.5h14.11V29H30.5v1.5h14.11z" fill="#f7fcff"/><path d="M44.61 30.5V35H70.5V15H44.61v5H55.5v1.5H44.61V23H55.5v1.5H44.61V26H55.5v1.5H44.61V29h3.89v1.5h-3.89z" fill="#ecf3fb"/><path d="M117.035691 1.865718c-1.290013.782206-2.452869 1.757958-3.4472 2.892544-.795442.92201-1.479506 1.933972-2.038368 3.015802-.525183.988952-.971168 2.017839-1.333952 3.077429-.525338 1.339584-.886203 2.738275-1.074186 4.164868-.032928.295238-.050668.53857-.061629.704416l5.142301 6.128355.564516-6.45245 1.76104.15407 1.22086-13.95448z" fill="#fdd752"/><path d="M117.76784 1.61036l-1.219627 13.940393 1.067499.089845-.599028 6.846923 6.607133-5.544043c.03055-.43031.057354-1.020654.051139-1.720359-.034988-1.952903-.343477-3.89105-.915805-5.758585-.505417-1.845355-1.311332-3.59456-2.386265-5.177426-.569494-.824934-1.214853-1.594043-1.928363-2.298133zm-3.906942 24.373694l-5.150312-6.036781.36977-4.226496 5.142301 6.128355-.361759 4.134922z" fill="#f8bd3f"/><path d="M117.038386 22.280027l6.603303-5.54083-.361142 4.127878-6.603303 5.54083.361142-4.127878z" fill="#fd9326"/><path d="M113.18545 33.704454l-5.152777-6.008605.677913-7.748576 5.1423 6.128356-.667435 7.628825z" fill="#fdd752"/><path d="M123.004969 23.04337l-.462386 5.609616-6.54585 5.49262.673818-7.823464 5.3355-4.477016 1.274363-1.017102-.275445 2.215346z" fill="#f8bd3f"/><path d="M112.32544 43.538485l2.482639-28.376695 1.638793.14373-2.48264 28.376696z" fill="#ca7a33"/><path d="M113.96647 43.680992l2.482638-28.376696 1.190463.104152-2.482639 28.376696z" fill="#b1532b"/><path d="M74.5 2h-26v20h26c2.651 0 5.196-1.054 7.071-2.929C83.446 17.196 84.5 14.651 84.5 12s-1.054-5.196-2.929-7.071C79.696 3.054 77.151 2 74.5 2z" fill="#d9d6ec"/><path d="M48.5 2h-26v20h26c2.651 0 5.196-1.054 7.071-2.929C57.446 17.196 58.5 14.651 58.5 12s-1.054-5.196-2.929-7.071C53.696 3.054 51.151 2 48.5 2z" fill="#e0e6f5"/><path d="M22.5 2c-2.651 0-5.196 1.054-7.071 2.929C13.554 6.804 12.5 9.349 12.5 12s1.054 5.196 2.929 7.071C17.304 20.946 19.849 22 22.5 22s5.196-1.054 7.071-2.929C31.446 17.196 32.5 14.651 32.5 12s-1.054-5.196-2.929-7.071C27.696 3.054 25.151 2 22.5 2z" fill="#f7fcff"/><path d="M74.5 20h-26v20h26c2.651 0 5.196-1.054 7.071-2.929C83.446 35.196 84.5 32.651 84.5 30s-1.054-5.196-2.929-7.071C79.696 21.054 77.151 20 74.5 20z" fill="#d9d6ec"/><path d="M48.5 20h-26v20h26c2.651 0 5.196-1.054 7.071-2.929C57.446 35.196 58.5 32.651 58.5 30s-1.054-5.196-2.929-7.071C53.696 21.054 51.151 20 48.5 20z" fill="#e0e6f5"/><path d="M22.5 20c-2.651 0-5.196 1.054-7.071 2.929C13.554 24.804 12.5 27.349 12.5 30s1.054 5.196 2.929 7.071C17.304 38.946 19.849 40 22.5 40s5.196-1.054 7.071-2.929C31.446 35.196 32.5 32.651 32.5 30s-1.054-5.196-2.929-7.071C27.696 21.054 25.151 20 22.5 20z" fill="#f7fcff"/><path d="M152.5 19.300128h17v12.089117h-17z" fill="#e0e6f5"/><path d="M169.5 19.300128h16v12.089117h-16z" fill="#d9d6ec"/><path d="M169.61 30.633675v4.53342H137.5V15.018565h32.11v5.037132H155.5v1.51114h14.11v1.51114H155.5v1.511139h14.11v1.51114H155.5v1.51114h14.11v1.511139H155.5v1.51114h14.11z" fill="#f7fcff"/><path d="M169.61 30.633675v4.53342h25.89V15.018565h-25.89v5.037132h10.89v1.51114h-10.89v1.51114h10.89v1.511139h-10.89v1.51114h10.89v1.51114h-10.89v1.511139h3.89v1.51114h-3.89z" fill="#ecf3fb"/><path d="M242.030246 1.835519c-1.29456.781906-2.461982 1.758057-3.46074 2.893728-.799006.922912-1.486516 1.936193-2.048635 3.01973-.528196.99049-.977066 2.02115-1.342583 3.082733-.528959 1.341987-.89314 2.743514-1.08406 4.17331-.033521.295912-.051726.539815-.063001.706052l5.144405 6.152426.577092-6.467436 1.76513.157503 1.248055-13.98689z" fill="#fdd752"/><path d="M242.764649 1.580797l-1.246795 13.972768 1.069984.091917-.612373 6.862825 6.633084-5.546312c.03137-.431322.059265-1.02308.054246-1.724527-.03169-1.957795-.337586-3.901271-.908094-5.774418-.50347-1.850796-1.308348-3.605724-2.383199-5.194369-.569473-.827962-1.215096-1.600091-1.929152-2.30716zm-3.958834 24.427226l-5.152596-6.06064.378008-4.23631 5.144405 6.152425-.369817 4.144525z" fill="#f8bd3f"/><path d="M241.99758 22.300337l6.62924-5.543097-.369188 4.137464-6.629239 5.543097.369188-4.137464z" fill="#fd9326"/><path d="M238.11532 33.746353l-5.155115-6.032398.693014-7.766571 5.144406 6.152426-.682304 7.646543z" fill="#fdd752"/><path d="M247.977602 23.075905l-.473248 5.622694-6.57156 5.494868.689038-7.841652 5.356456-4.478848 1.27928-1.01741-.279966 2.220348z" fill="#f8bd3f"/><path d="M237.236145 43.603222l2.537943-28.442597 1.642598.146926-2.537943 28.442597z" fill="#ca7a33"/><path d="M238.880987 43.748925l2.537943-28.442597 1.193228.106472-2.537943 28.442597z" fill="#b1532b"/><path d="M199.5 2.025992h-26v20h26c2.651 0 5.196-1.054 7.071-2.929 1.875-1.875 2.929-4.42 2.929-7.071s-1.054-5.196-2.929-7.071c-1.875-1.875-4.42-2.929-7.071-2.929z" fill="#d9d6ec"/><path d="M173.5 2.025992h-26v20h26c2.651 0 5.196-1.054 7.071-2.929 1.875-1.875 2.929-4.42 2.929-7.071s-1.054-5.196-2.929-7.071c-1.875-1.875-4.42-2.929-7.071-2.929z" fill="#e0e6f5"/><path d="M147.5 2.025992c-2.651 0-5.196 1.054-7.071 2.929-1.875 1.875-2.929 4.42-2.929 7.071s1.054 5.196 2.929 7.071c1.875 1.875 4.42 2.929 7.071 2.929s5.196-1.054 7.071-2.929c1.875-1.875 2.929-4.42 2.929-7.071s-1.054-5.196-2.929-7.071c-1.875-1.875-4.42-2.929-7.071-2.929z" fill="#f7fcff"/><g><path d="M199.5 20.179471h-26v20h26c2.651 0 5.196-1.054 7.071-2.929 1.875-1.875 2.929-4.42 2.929-7.071s-1.054-5.196-2.929-7.071c-1.875-1.875-4.42-2.929-7.071-2.929z" fill="#d9d6ec"/><path d="M173.5 20.179471h-26v20h26c2.651 0 5.196-1.054 7.071-2.929 1.875-1.875 2.929-4.42 2.929-7.071s-1.054-5.196-2.929-7.071c-1.875-1.875-4.42-2.929-7.071-2.929z" fill="#e0e6f5"/><path d="M147.5 20.179471c-2.651 0-5.196 1.054-7.071 2.929-1.875 1.875-2.929 4.42-2.929 7.071s1.054 5.196 2.929 7.071c1.875 1.875 4.42 2.929 7.071 2.929s5.196-1.054 7.071-2.929c1.875-1.875 2.929-4.42 2.929-7.071s-1.054-5.196-2.929-7.071c-1.875-1.875-4.42-2.929-7.071-2.929z" fill="#f7fcff"/></g><g><path d="M277.5 19.465475h17v12.383067h-17z" fill="#e0e6f5"/><path d="M294.5 19.465475h16v12.383067h-16z" fill="#d9d6ec"/><path d="M294.61 31.0746v4.643651H262.5V15.079806h32.11v5.159611H280.5V21.7873h14.11v1.547884H280.5v1.547883h14.11v1.547884H280.5v1.547883h14.11v1.547883H280.5v1.547884h14.11z" fill="#f7fcff"/><path d="M294.61 31.0746v4.643651h25.89V15.079806h-25.89v5.159611h10.89V21.7873h-10.89v1.547884h10.89v1.547883h-10.89v1.547884h10.89v1.547883h-10.89v1.547883h3.89v1.547884h-3.89z" fill="#ecf3fb"/><g><path d="M367.01297 1.739015c-1.309577.780823-2.4921 1.7582-3.505501 2.897362-.810806.925823-1.509727 1.943389-2.082643 3.032504-.538181.995505-.996624 2.031964-1.371213 3.100075-.54097 1.349857-.916166 2.760683-1.116855 4.201005-.035494.298124-.055249.543905-.06757.711429l5.150865 6.232001.61895-6.516691 1.778573.168927 1.338581-14.093413z" fill="#fdd752"/><path d="M367.754806 1.486443l-1.33723 14.079184 1.078153.098813-.65679 6.915092 6.718877-5.553277c.034104-.434648.065626-1.031056.064598-1.738233-.020697-1.973892-.31791-3.934924-.882291-5.826576-.496927-1.868735-1.298262-3.642553-2.37272-5.250288-.569345-.837965-1.215779-1.620082-1.931575-2.337001zm-4.131394 24.603038l-5.15965-6.139516.405425-4.268575 5.150866 6.232001-.396641 4.17609z" fill="#f8bd3f"/><path d="M366.86243 22.369998l6.714982-5.550058-.395966 4.168975-6.714982 5.550058.395966-4.168975z" fill="#fd9326"/><path d="M362.882834 33.886745l-5.162353-6.111058.74328-7.825722 5.150866 6.232002-.731793 7.704778z" fill="#fdd752"/><path d="M372.886604 23.186237l-.509407 5.66568-6.656557 5.501769.739704-7.901436 5.425737-4.484472 1.295524-1.01833-.295 2.23679z" fill="#f8bd3f"/><path d="M361.939865 43.818686l2.722029-28.659214 1.655106.15756-2.722029 28.659214z" fill="#ca7a33"/><path d="M363.59724 43.975026l2.72203-28.659215 1.202315.114195-2.722029 28.659215z" fill="#b1532b"/></g><g><path d="M324.5 2.111728h-26v20h26c2.651 0 5.196-1.054 7.071-2.929 1.875-1.875 2.929-4.42 2.929-7.071s-1.054-5.196-2.929-7.071c-1.875-1.875-4.42-2.929-7.071-2.929z" fill="#d9d6ec"/><path d="M298.5 2.111728h-26v20h26c2.651 0 5.196-1.054 7.071-2.929 1.875-1.875 2.929-4.42 2.929-7.071s-1.054-5.196-2.929-7.071c-1.875-1.875-4.42-2.929-7.071-2.929z" fill="#e0e6f5"/><path d="M272.5 2.111728c-2.651 0-5.196 1.054-7.071 2.929-1.875 1.875-2.929 4.42-2.929 7.071s1.054 5.196 2.929 7.071c1.875 1.875 4.42 2.929 7.071 2.929s5.196-1.054 7.071-2.929c1.875-1.875 2.929-4.42 2.929-7.071s-1.054-5.196-2.929-7.071c-1.875-1.875-4.42-2.929-7.071-2.929z" fill="#f7fcff"/></g><g><path d="M324.5 20.771455h-26v20h26c2.651 0 5.196-1.054 7.071-2.929 1.875-1.875 2.929-4.42 2.929-7.071s-1.054-5.196-2.929-7.071c-1.875-1.875-4.42-2.929-7.071-2.929z" fill="#d9d6ec"/><path d="M298.5 20.771455h-26v20h26c2.651 0 5.196-1.054 7.071-2.929 1.875-1.875 2.929-4.42 2.929-7.071s-1.054-5.196-2.929-7.071c-1.875-1.875-4.42-2.929-7.071-2.929z" fill="#e0e6f5"/><path d="M272.5 20.771455c-2.651 0-5.196 1.054-7.071 2.929-1.875 1.875-2.929 4.42-2.929 7.071s1.054 5.196 2.929 7.071c1.875 1.875 4.42 2.929 7.071 2.929s5.196-1.054 7.071-2.929c1.875-1.875 2.929-4.42 2.929-7.071s-1.054-5.196-2.929-7.071c-1.875-1.875-4.42-2.929-7.071-2.929z" fill="#f7fcff"/></g></g><g><path d="M402.5 19.773726h17v12.931069h-17z" fill="#e0e6f5"/><path d="M419.5 19.773726h16v12.931069h-16z" fill="#d9d6ec"/><path d="M419.61 31.896603v4.84915H387.5v-21.55178h32.11v5.387945H405.5V22.1983h14.11v1.616384H405.5v1.616384h14.11v1.616383H405.5v1.616384h14.11v1.616383H405.5v1.616384h14.11z" fill="#f7fcff"/><path d="M419.61 31.896603v4.84915h25.89v-21.55178h-25.89v5.387945h10.89V22.1983h-10.89v1.616384h10.89v1.616384h-10.89v1.616383h10.89v1.616384h-10.89v1.616383h3.89v1.616384h-3.89z" fill="#ecf3fb"/><g><path d="M491.983446 1.571875c-1.33765.778413-2.548458 1.757699-3.589353 2.903023-.83296.930968-1.553344 1.956263-2.146604 3.05554-.556995 1.004637-1.033497 2.051702-1.425228 3.1318-.563648 1.364274-.959692 2.792222-1.17893 4.25199-.039242.302216-.061944.551471-.076258.721376l5.160928 6.381073.698533-6.607796 1.803437.190648 1.510692-14.29044z" fill="#fdd752"/><path d="M492.739138 1.323516l-1.509167 14.276013 1.093265.111925-.741238 7.011766 6.879595-5.564126c.039304-.440801.077732-1.045819.084316-1.763618.000285-2.003732-.280233-3.997395-.832677-5.923518-.484225-1.902135-1.27845-3.711213-2.351688-5.354662-.568848-.85668-1.216544-1.657505-1.935348-2.392903zm-4.458778 24.927633l-5.170842-6.287295.457555-4.32825 5.160928 6.381073-.44764 4.234472z" fill="#f8bd3f"/><path d="M491.608102 22.510796l6.875606-5.5609-.446878 4.227257-6.875606 5.5609.446878-4.227257z" fill="#fd9326"/><path d="M487.444561 34.15742l-5.173892-6.25844.83885-7.935126 5.160928 6.381073-.825886 7.812493z" fill="#fdd752"/><path d="M497.713862 23.404265l-.578167 5.745196-6.815784 5.512517.836036-8.012014 5.555522-4.493234 1.325948-1.019634-.323555 2.267169z" fill="#f8bd3f"/><path d="M486.380308 44.228215l3.072019-29.059874 1.67824.177777-3.072018 29.059874z" fill="#ca7a33"/><path d="M488.060866 44.404778l3.072018-29.059874 1.219124.128878-3.072019 29.059874z" fill="#b1532b"/></g><g><path d="M449.5 2.271562h-26v20h26c2.651 0 5.196-1.054 7.071-2.929 1.875-1.875 2.929-4.42 2.929-7.071s-1.054-5.196-2.929-7.071c-1.875-1.875-4.42-2.929-7.071-2.929z" fill="#d9d6ec"/><path d="M423.5 2.271562h-26v20h26c2.651 0 5.196-1.054 7.071-2.929 1.875-1.875 2.929-4.42 2.929-7.071s-1.054-5.196-2.929-7.071c-1.875-1.875-4.42-2.929-7.071-2.929z" fill="#e0e6f5"/><path d="M397.5 2.271562c-2.651 0-5.196 1.054-7.071 2.929-1.875 1.875-2.929 4.42-2.929 7.071s1.054 5.196 2.929 7.071c1.875 1.875 4.42 2.929 7.071 2.929s5.196-1.054 7.071-2.929c1.875-1.875 2.929-4.42 2.929-7.071s-1.054-5.196-2.929-7.071c-1.875-1.875-4.42-2.929-7.071-2.929z" fill="#f7fcff"/></g><g><path d="M449.5 21.875069h-26v20h26c2.651 0 5.196-1.054 7.071-2.929 1.875-1.875 2.929-4.42 2.929-7.071s-1.054-5.196-2.929-7.071c-1.875-1.875-4.42-2.929-7.071-2.929z" fill="#d9d6ec"/><path d="M423.5 21.875069h-26v20h26c2.651 0 5.196-1.054 7.071-2.929 1.875-1.875 2.929-4.42 2.929-7.071s-1.054-5.196-2.929-7.071c-1.875-1.875-4.42-2.929-7.071-2.929z" fill="#e0e6f5"/><path d="M397.5 21.875069c-2.651 0-5.196 1.054-7.071 2.929-1.875 1.875-2.929 4.42-2.929 7.071s1.054 5.196 2.929 7.071c1.875 1.875 4.42 2.929 7.071 2.929s5.196-1.054 7.071-2.929c1.875-1.875 2.929-4.42 2.929-7.071s-1.054-5.196-2.929-7.071c-1.875-1.875-4.42-2.929-7.071-2.929z" fill="#f7fcff"/></g></g><g><path d="M527.5 20.261099h17v13.797509h-17z" fill="#e0e6f5"/><path d="M544.5 20.261099h16v13.797509h-16z" fill="#d9d6ec"/><path d="M544.61 33.196264v5.174065H512.5V15.374481h32.11v5.748962H530.5v1.724689h14.11v1.724688H530.5v1.72469h14.11v1.724688H530.5v1.724688h14.11v1.724689H530.5v1.724689h14.11z" fill="#f7fcff"/><path d="M544.61 33.196264v5.174065h25.89V15.374481h-25.89v5.748962h10.89v1.724689h-10.89v1.724688h10.89v1.72469h-10.89v1.724688h10.89v1.724688h-10.89v1.724689h3.89v1.724689h-3.89z" fill="#ecf3fb"/><g><path d="M616.94337 1.341697c-1.382225.77356-2.638105 1.75486-3.722965 2.90899-.86839.93835-1.623202 1.975164-2.249198 3.089871-.587258 1.018484-1.092875 2.081769-1.512314 3.180314-.60025 1.386393-1.030083 2.840826-1.279534 4.33086-.045355.308588-.072873.563265-.090442.736885l5.171535 6.618604.828447-6.749855 1.84221.226105 1.791652-14.597667z" fill="#fdd752"/><path d="M617.720952 1.100542l-1.789843 14.582929 1.11683.133334-.879094 7.16251 7.135683-5.575561c.0478-.450404.097529-1.068867.11661-1.80329.034747-2.050447-.21803-4.09542-.750233-6.075953-.462806-1.954813-1.244441-3.81973-2.314442-5.519953-.56738-.886437-1.216408-1.717072-1.939326-2.481977zm-4.991393 25.432186l-5.183293-6.522809.54265-4.421302 5.171536 6.618604-.530893 4.325507z" fill="#f8bd3f"/><path d="M616.19921 22.762387l7.131546-5.57233-.529989 4.31814-7.131546 5.572328.529989-4.318138z" fill="#fd9326"/><path d="M611.738316 34.608974l-5.18691-6.493334.99486-8.105721 5.171535 6.618604-.979485 7.980451z" fill="#fdd752"/><path d="M622.431971 23.781683l-.690441 5.869212-7.069497 5.523846.993303-8.18445 5.762323-4.502468 1.374398-1.020608-.370086 2.314468z" fill="#f8bd3f"/><path d="M610.476072 44.896285l3.643358-29.684624 1.714315.21078-3.643358 29.684625z" fill="#ca7a33"/><path d="M612.192778 45.105863l3.643358-29.684624 1.245334.152847-3.643358 29.684624z" fill="#b1532b"/></g><g><path d="M574.5 2.524273h-26v20h26c2.651 0 5.196-1.054 7.071-2.929 1.875-1.875 2.929-4.42 2.929-7.071s-1.054-5.196-2.929-7.071c-1.875-1.875-4.42-2.929-7.071-2.929z" fill="#d9d6ec"/><path d="M548.5 2.524273h-26v20h26c2.651 0 5.196-1.054 7.071-2.929 1.875-1.875 2.929-4.42 2.929-7.071s-1.054-5.196-2.929-7.071c-1.875-1.875-4.42-2.929-7.071-2.929z" fill="#e0e6f5"/><path d="M522.5 2.524273c-2.651 0-5.196 1.054-7.071 2.929-1.875 1.875-2.929 4.42-2.929 7.071s1.054 5.196 2.929 7.071c1.875 1.875 4.42 2.929 7.071 2.929s5.196-1.054 7.071-2.929c1.875-1.875 2.929-4.42 2.929-7.071s-1.054-5.196-2.929-7.071c-1.875-1.875-4.42-2.929-7.071-2.929z" fill="#f7fcff"/></g><g><path d="M574.5 23.619984h-26v20h26c2.651 0 5.196-1.054 7.071-2.929 1.875-1.875 2.929-4.42 2.929-7.071s-1.054-5.196-2.929-7.071c-1.875-1.875-4.42-2.929-7.071-2.929z" fill="#d9d6ec"/><path d="M548.5 23.619984h-26v20h26c2.651 0 5.196-1.054 7.071-2.929 1.875-1.875 2.929-4.42 2.929-7.071s-1.054-5.196-2.929-7.071c-1.875-1.875-4.42-2.929-7.071-2.929z" fill="#e0e6f5"/><path d="M522.5 23.619984c-2.651 0-5.196 1.054-7.071 2.929-1.875 1.875-2.929 4.42-2.929 7.071s1.054 5.196 2.929 7.071c1.875 1.875 4.42 2.929 7.071 2.929s5.196-1.054 7.071-2.929c1.875-1.875 2.929-4.42 2.929-7.071s-1.054-5.196-2.929-7.071c-1.875-1.875-4.42-2.929-7.071-2.929z" fill="#f7fcff"/></g></g><g><path d="M652.5 20.973386h17v15.063797h-17z" fill="#e0e6f5"/><path d="M669.5 20.973386h16v15.063797h-16z" fill="#d9d6ec"/><path d="M669.61 35.095696v5.648924H637.5V15.638291h32.11v6.276582H655.5v1.882975h14.11v1.882975H655.5v1.882974h14.11v1.882975H655.5v1.882975h14.11v1.882974H655.5v1.882975h14.11z" fill="#f7fcff"/><path d="M669.61 35.095696v5.648924h25.89V15.638291h-25.89v6.276582h10.89v1.882975h-10.89v1.882975h10.89v1.882974h-10.89v1.882975h10.89v1.882975h-10.89v1.882974h3.89v1.882975h-3.89z" fill="#ecf3fb"/><g><path d="M741.897501 1.080956c-1.44773.764159-2.770196 1.746157-3.920351 2.911063-.921024.947459-1.7272 1.99953-2.40226 3.135348-.632595 1.037385-1.181977 2.12313-1.643214 3.247493-.655355 1.417175-1.136363 2.908973-1.431906 4.442132-.05469.317678-.089584.58011-.112143.759046l5.175222 6.969515 1.027232-6.952862 1.897615.280358L742.709255.836348z" fill="#fdd752"/><path d="M742.707012.851529l-2.219316 15.02152 1.150516.166102-1.090033 7.377927 7.514008-5.579536c.060817-.46414.12789-1.101868.166241-1.860181.087935-2.117621-.121337-4.236881-.620945-6.296655-.42856-2.031438-1.188813-3.978087-2.251181-5.761895-.563718-.930256-1.213208-1.80493-1.940709-2.613568zm-5.802444 26.149624l-5.1898-6.870839.67286-4.554276 5.17522 6.969515-.65828 4.4556z" fill="#f8bd3f"/><path d="M740.585057 23.19372l7.509651-5.576301-.65716 4.44801-7.509651 5.576301.65716-4.44801z" fill="#fd9326"/><path d="M735.675478 35.320297l-5.194287-6.840477 1.233576-8.349506 5.175222 6.969515-1.214511 8.220468z" fill="#fdd752"/><path d="M746.998819 24.405014l-.862299 6.046492-7.444312 5.527784 1.233965-8.430888 6.067834-4.505678 1.445914-1.019604-.441102 2.381894z" fill="#f8bd3f"/><path d="M734.11028 45.917015l4.51758-30.57741 1.765865.261281-4.51758 30.57741z" fill="#ca7a33"/><path d="M735.878647 46.177114l4.51758-30.57741 1.282787.189523-4.51758 30.577409z" fill="#b1532b"/></g><g><path d="M699.5 2.893608h-26v20h26c2.651 0 5.196-1.054 7.071-2.929 1.875-1.875 2.929-4.42 2.929-7.071s-1.054-5.196-2.929-7.071c-1.875-1.875-4.42-2.929-7.071-2.929z" fill="#d9d6ec"/><path d="M673.5 2.893608h-26v20h26c2.651 0 5.196-1.054 7.071-2.929 1.875-1.875 2.929-4.42 2.929-7.071s-1.054-5.196-2.929-7.071c-1.875-1.875-4.42-2.929-7.071-2.929z" fill="#e0e6f5"/><path d="M647.5 2.893608c-2.651 0-5.196 1.054-7.071 2.929-1.875 1.875-2.929 4.42-2.929 7.071s1.054 5.196 2.929 7.071c1.875 1.875 4.42 2.929 7.071 2.929s5.196-1.054 7.071-2.929c1.875-1.875 2.929-4.42 2.929-7.071s-1.054-5.196-2.929-7.071c-1.875-1.875-4.42-2.929-7.071-2.929z" fill="#f7fcff"/></g><g><path d="M699.5 26.170147h-26v20h26c2.651 0 5.196-1.054 7.071-2.929 1.875-1.875 2.929-4.42 2.929-7.071s-1.054-5.196-2.929-7.071c-1.875-1.875-4.42-2.929-7.071-2.929z" fill="#d9d6ec"/><path d="M673.5 26.170147h-26v20h26c2.651 0 5.196-1.054 7.071-2.929 1.875-1.875 2.929-4.42 2.929-7.071s-1.054-5.196-2.929-7.071c-1.875-1.875-4.42-2.929-7.071-2.929z" fill="#e0e6f5"/><path d="M647.5 26.170147c-2.651 0-5.196 1.054-7.071 2.929-1.875 1.875-2.929 4.42-2.929 7.071s1.054 5.196 2.929 7.071c1.875 1.875 4.42 2.929 7.071 2.929s5.196-1.054 7.071-2.929c1.875-1.875 2.929-4.42 2.929-7.071s-1.054-5.196-2.929-7.071c-1.875-1.875-4.42-2.929-7.071-2.929z" fill="#f7fcff"/></g></g><g><path d="M777.5 21.962422h17v16.822084h-17z" fill="#e0e6f5"/><path d="M794.5 21.962422h16v16.822084h-16z" fill="#d9d6ec"/><path d="M794.61 37.733126v6.308281H762.5V16.004601h32.11v7.009201H780.5v2.10276h14.11v2.102761H780.5v2.10276h14.11v2.102761H780.5v2.10276h14.11v2.102761H780.5v2.10276h14.11z" fill="#f7fcff"/><path d="M794.61 37.733126v6.308281h25.89V16.004601h-25.89v7.009201h10.89v2.10276h-10.89v2.102761h10.89v2.10276h-10.89v2.102761h10.89v2.10276h-10.89v2.102761h3.89v2.10276h-3.89z" fill="#ecf3fb"/><g><path d="M866.853499.869313c-1.539239.746514-2.95541 1.725002-4.198136 2.900659-.995674.956717-1.875127 2.026783-2.620627 3.188986-.697642 1.060912-1.310097 2.175295-1.83187 3.333151-.734944 1.456755-1.290456 2.997657-1.653741 4.588365-.068437.329836-.11423.602677-.144164.788755l5.156726 7.463353 1.320544-7.224995 1.971887.36041L867.71001.642764z" fill="#fdd752"/><path d="M867.707127.658538l-2.85301 15.60946 1.195685.214465-1.401276 7.666698 8.046428-5.559595c.080052-.482583.172823-1.146239.239893-1.936858.16728-2.208517.024216-4.429334-.424196-6.598368-.375219-2.136907-1.099878-4.197079-2.14587-6.09794-.555608-.991646-1.202777-1.928296-1.933773-2.798758zm-6.991684 27.104036l-5.175467-7.360815.864985-4.73253 5.156726 7.463353-.846244 4.629992z" fill="#f8bd3f"/><path d="M864.694999 23.917199l8.041762-5.556372-.844802 4.622104-8.041763 5.556372.844803-4.622104z" fill="#fd9326"/><path d="M859.135403 36.407328l-5.181234-7.329265 1.585807-8.676304 5.156725 7.463353-1.561298 8.542216z" fill="#fdd752"/><path d="M871.3504 25.410771l-1.115997 6.284256-7.971794 5.508028 1.589112-8.761286 6.497782-4.489575 1.546442-1.013366-.545545 2.471943z" fill="#f8bd3f"/><path d="M857.123193 47.418813l5.80751-31.774203 1.834967.335792-5.80751 31.774203z" fill="#ca7a33"/><path d="M858.960814 47.75346l5.80751-31.774203 1.332996.243637-5.80751 31.774204z" fill="#b1532b"/></g><g><path d="M824.5 3.406441h-26v20h26c2.651 0 5.196-1.054 7.071-2.929 1.875-1.875 2.929-4.42 2.929-7.071s-1.054-5.196-2.929-7.071c-1.875-1.875-4.42-2.929-7.071-2.929z" fill="#d9d6ec"/><path d="M798.5 3.406441h-26v20h26c2.651 0 5.196-1.054 7.071-2.929 1.875-1.875 2.929-4.42 2.929-7.071s-1.054-5.196-2.929-7.071c-1.875-1.875-4.42-2.929-7.071-2.929z" fill="#e0e6f5"/><path d="M772.5 3.406441c-2.651 0-5.196 1.054-7.071 2.929-1.875 1.875-2.929 4.42-2.929 7.071s1.054 5.196 2.929 7.071c1.875 1.875 4.42 2.929 7.071 2.929s5.196-1.054 7.071-2.929c1.875-1.875 2.929-4.42 2.929-7.071s-1.054-5.196-2.929-7.071c-1.875-1.875-4.42-2.929-7.071-2.929z" fill="#f7fcff"/></g><g><path d="M824.5 29.711141h-26v20h26c2.651 0 5.196-1.054 7.071-2.929 1.875-1.875 2.929-4.42 2.929-7.071s-1.054-5.196-2.929-7.071c-1.875-1.875-4.42-2.929-7.071-2.929z" fill="#d9d6ec"/><path d="M798.5 29.711141h-26v20h26c2.651 0 5.196-1.054 7.071-2.929 1.875-1.875 2.929-4.42 2.929-7.071s-1.054-5.196-2.929-7.071c-1.875-1.875-4.42-2.929-7.071-2.929z" fill="#e0e6f5"/><path d="M772.5 29.711141c-2.651 0-5.196 1.054-7.071 2.929-1.875 1.875-2.929 4.42-2.929 7.071s1.054 5.196 2.929 7.071c1.875 1.875 4.42 2.929 7.071 2.929s5.196-1.054 7.071-2.929c1.875-1.875 2.929-4.42 2.929-7.071s-1.054-5.196-2.929-7.071c-1.875-1.875-4.42-2.929-7.071-2.929z" fill="#f7fcff"/></g></g><g><path d="M902.5 23.268857h17V42.41349h-17z" fill="#e0e6f5"/><path d="M919.5 23.268857h16V42.41349h-16z" fill="#d9d6ec"/><path d="M919.61 41.216951v7.179238H887.5V16.488465h32.11v7.976931H905.5v2.39308h14.11v2.393079H905.5v2.39308h14.11v2.393078H905.5v2.39308h14.11v2.393079H905.5v2.39308h14.11z" fill="#f7fcff"/><path d="M919.61 41.216951v7.179238h25.89V16.488465h-25.89v7.976931h10.89v2.39308h-10.89v2.393079h10.89v2.39308h-10.89v2.393078h10.89v2.39308h-10.89v2.393079h3.89v2.39308h-3.89z" fill="#ecf3fb"/><g><path d="M991.817253.860764c-1.660686.714938-3.202475 1.680658-4.57052 2.862805-1.09678.962743-2.076248 2.050693-2.918669 3.242298-.787071 1.086935-1.486745 2.234382-2.092744 3.432043-.845291 1.503102-1.50514 3.103586-1.964401 4.765804-.087953.344991-.149285.630884-.189746.825925l5.089432 8.125368 1.738073-7.565473 2.064813.474365L992.732359.662325z" fill="#fdd752"/><path d="M992.728564.678843L988.97349 17.0239l1.252225.283336-1.844331 8.02799 8.760162-5.487043c.107486-.505712.237016-1.202.345453-2.033562.281714-2.323843.236345-4.67544-.133882-6.986892-.294476-2.274052-.961551-4.483711-1.975478-6.54046-.539433-1.07344-1.178157-2.093174-1.908537-3.047012zm-8.671768 28.284344l-5.1141-8.017998 1.138477-4.95555 5.089432 8.125368-1.11381 4.84818z" fill="#f8bd3f"/><path d="M988.44149 25.092527l8.755083-5.483863-1.111911 4.83992-8.755084 5.483863 1.111911-4.83992z" fill="#fd9326"/><path d="M981.97718 38.015325l-5.12169-7.98496 2.087207-9.085176 5.089432 8.125368-2.05495 8.944768z" fill="#fdd752"/><path d="M995.397338 26.986182l-1.47734 6.581953-8.67891 5.43615 2.094741-9.174744 7.074148-4.430987 1.680991-.996345-.69363 2.583973z" fill="#f8bd3f"/><path d="M979.328644 49.545746l7.643727-33.271563 1.92142.441857-7.643728 33.271563z" fill="#ca7a33"/><path d="M981.25292 49.98652l7.643728-33.271563 1.395814.320671-7.643728 33.271563z" fill="#b1532b"/></g><g><path d="M949.5 4.083852h-26v20h26c2.651 0 5.196-1.054 7.071-2.929 1.875-1.875 2.929-4.42 2.929-7.071s-1.054-5.196-2.929-7.071c-1.875-1.875-4.42-2.929-7.071-2.929z" fill="#d9d6ec"/><path d="M923.5 4.083852h-26v20h26c2.651 0 5.196-1.054 7.071-2.929 1.875-1.875 2.929-4.42 2.929-7.071s-1.054-5.196-2.929-7.071c-1.875-1.875-4.42-2.929-7.071-2.929z" fill="#e0e6f5"/><path d="M897.5 4.083852c-2.651 0-5.196 1.054-7.071 2.929-1.875 1.875-2.929 4.42-2.929 7.071s1.054 5.196 2.929 7.071c1.875 1.875 4.42 2.929 7.071 2.929s5.196-1.054 7.071-2.929c1.875-1.875 2.929-4.42 2.929-7.071s-1.054-5.196-2.929-7.071c-1.875-1.875-4.42-2.929-7.071-2.929z" fill="#f7fcff"/></g><g><path d="M949.5 34.3885h-26v20h26c2.651 0 5.196-1.054 7.071-2.929 1.875-1.875 2.929-4.42 2.929-7.071s-1.054-5.196-2.929-7.071c-1.875-1.875-4.42-2.929-7.071-2.929z" fill="#d9d6ec"/><path d="M923.5 34.3885h-26v20h26c2.651 0 5.196-1.054 7.071-2.929 1.875-1.875 2.929-4.42 2.929-7.071s-1.054-5.196-2.929-7.071c-1.875-1.875-4.42-2.929-7.071-2.929z" fill="#e0e6f5"/><path d="M897.5 34.3885c-2.651 0-5.196 1.054-7.071 2.929-1.875 1.875-2.929 4.42-2.929 7.071s1.054 5.196 2.929 7.071c1.875 1.875 4.42 2.929 7.071 2.929s5.196-1.054 7.071-2.929c1.875-1.875 2.929-4.42 2.929-7.071s-1.054-5.196-2.929-7.071c-1.875-1.875-4.42-2.929-7.071-2.929z" fill="#f7fcff"/></g></g><g><path d="M1027.5 24.880584h17v22.009927h-17z" fill="#e0e6f5"/><path d="M1044.5 24.880584h16v22.009927h-16z" fill="#d9d6ec"/><path d="M1044.61 45.514891v8.253723h-32.11V17.085402h32.11v9.170803h-14.11v2.75124h14.11v2.751241h-14.11v2.751241h14.11v2.751241h-14.11v2.751241h14.11v2.751241h-14.11v2.751241h14.11z" fill="#f7fcff"/><path d="M1044.61 45.514891v8.253723h25.89V17.085402h-25.89v9.170803h10.89v2.75124h-10.89v2.751241h10.89v2.751241h-10.89v2.751241h10.89v2.751241h-10.89v2.751241h3.89v2.751241h-3.89z" fill="#ecf3fb"/><g><path d="M1116.77958 1.279886c-1.810584.662888-3.509422 1.59984-5.036081 2.777528-1.224834.960138-2.33217 2.06054-3.299724 3.279428-.90242 1.110717-1.715366 2.29104-2.431545 3.530379-.989058 1.550388-1.78643 3.215449-2.37388 4.958122-.114082.362125-.196319.662902-.250951.868178l4.937826 8.953033 2.298706-7.952517 2.170447.627376 4.971328-17.19862z" fill="#fdd752"/><path d="M1117.760687 1.140156l-4.966309 17.181257 1.316546.37585-2.439238 8.438697 9.652488-5.323595c.144398-.532098.323556-1.26581.488265-2.144807.437589-2.457663.528554-4.96425.271246-7.44733-.178868-2.438772-.75828-4.831049-1.716062-7.081054-.510796-1.17491-1.130493-2.298516-1.851685-3.357387zm-10.90854 29.602608l-4.97045-8.84017 1.505702-5.209073 4.937826 8.953033-1.473078 5.09621z" fill="#f8bd3f"/><path d="M1111.750057 26.881102l9.646893-5.320509-1.47057 5.087528-9.646893 5.320508 1.47057-5.087527z" fill="#fd9326"/><path d="M1104.10173 40.258003l-4.980488-8.805443 2.760454-9.549966 4.937827 8.953033-2.717793 9.402376z" fill="#fdd752"/><path d="M1119.044253 29.30936l-1.962838 6.920742-9.562959 5.274216 2.773782-9.64489 7.794734-4.298995 1.84887-.961317-.891589 2.710245z" fill="#f8bd3f"/><path d="M1100.598771 52.378337l10.109286-34.973712 2.019693.58427-10.109287 34.973712z" fill="#ca7a33"/><path d="M1102.62157 52.961624l10.109286-34.973712 1.467222.424106-10.109286 34.973712z" fill="#b1532b"/></g><g><path d="M1074.5 4.919562h-26v20h26c2.651 0 5.196-1.054 7.071-2.929 1.875-1.875 2.929-4.42 2.929-7.071s-1.054-5.196-2.929-7.071c-1.875-1.875-4.42-2.929-7.071-2.929z" fill="#d9d6ec"/><path d="M1048.5 4.919562h-26v20h26c2.651 0 5.196-1.054 7.071-2.929 1.875-1.875 2.929-4.42 2.929-7.071s-1.054-5.196-2.929-7.071c-1.875-1.875-4.42-2.929-7.071-2.929z" fill="#e0e6f5"/><path d="M1022.5 4.919562c-2.651 0-5.196 1.054-7.071 2.929-1.875 1.875-2.929 4.42-2.929 7.071s1.054 5.196 2.929 7.071c1.875 1.875 4.42 2.929 7.071 2.929s5.196-1.054 7.071-2.929c1.875-1.875 2.929-4.42 2.929-7.071s-1.054-5.196-2.929-7.071c-1.875-1.875-4.42-2.929-7.071-2.929z" fill="#f7fcff"/></g><g><path d="M1074.5 40.158881h-26v20h26c2.651 0 5.196-1.054 7.071-2.929 1.875-1.875 2.929-4.42 2.929-7.071s-1.054-5.196-2.929-7.071c-1.875-1.875-4.42-2.929-7.071-2.929z" fill="#d9d6ec"/><path d="M1048.5 40.158881h-26v20h26c2.651 0 5.196-1.054 7.071-2.929 1.875-1.875 2.929-4.42 2.929-7.071s-1.054-5.196-2.929-7.071c-1.875-1.875-4.42-2.929-7.071-2.929z" fill="#e0e6f5"/><path d="M1022.5 40.158881c-2.651 0-5.196 1.054-7.071 2.929-1.875 1.875-2.929 4.42-2.929 7.071s1.054 5.196 2.929 7.071c1.875 1.875 4.42 2.929 7.071 2.929s5.196-1.054 7.071-2.929c1.875-1.875 2.929-4.42 2.929-7.071s-1.054-5.196-2.929-7.071c-1.875-1.875-4.42-2.929-7.071-2.929z" fill="#f7fcff"/></g></g><g><path d="M1152.5 26.687738h17v25.222646h-17z" fill="#e0e6f5"/><path d="M1169.5 26.687738h16v25.222646h-16z" fill="#d9d6ec"/><path d="M1169.61 50.333968v9.458492h-32.11V17.754718h32.11v10.509435h-14.11v3.152831h14.11v3.15283h-14.11v3.152831h14.11v3.152831h-14.11v3.15283h14.11v3.152832h-14.11v3.15283h14.11z" fill="#f7fcff"/><path d="M1169.61 50.333968v9.458492h25.89V17.754718h-25.89v10.509435h10.89v3.152831h-10.89v3.15283h10.89v3.152831h-10.89v3.152831h10.89v3.15283h-10.89v3.152832h3.89v3.15283h-3.89z" fill="#ecf3fb"/><g><path d="M1241.702701 2.318828c-1.977407.587196-3.853754 1.474468-5.562291 2.630254-1.371773.943602-2.62743 2.044798-3.741726 3.281818-1.037545 1.125859-1.984191 2.332-2.831444 3.6076-1.159339 1.589547-2.121644 3.314304-2.864974 5.135915-.145932.37906-.253775.694737-.325782.910282l4.676007 9.88852 2.984163-8.338192 2.275707.814455 6.45374-18.032703z" fill="#fdd752"/><path d="M1242.759586 2.234983l-6.447225 18.014497 1.380707.489008-3.1666 8.84795 10.661058-5.04132c.189625-.55853.429793-1.33002.664211-2.257597.630941-2.595024.895034-5.265375.78569-7.933827-.028539-2.615915-.487856-5.208865-1.360657-7.675108-.467142-1.288535-1.05398-2.529545-1.753503-3.708194zm-13.619436 30.881594l-4.718358-9.770182 1.954692-5.461698 4.676007 9.88852-1.91234 5.34336z" fill="#f8bd3f"/><path d="M1234.627124 29.319533l10.65488-5.038397-1.909083 5.334257-10.65488 5.038398 1.909083-5.334258z" fill="#fd9326"/><path d="M1225.56958 43.093277l-4.73139-9.733771 3.583602-10.013111 4.676007 9.888518-3.52822 9.858364z" fill="#fdd752"/><path d="M1242.253763 32.398176l-2.556814 7.258883-10.562174 4.99456 3.604155-10.113578 8.609192-4.071048 2.038165-.903294-1.132524 2.834477z" fill="#f8bd3f"/><path d="M1221.021956 55.801443l13.123801-36.669834 2.11761.758387-13.123801 36.669834z" fill="#ca7a33"/><path d="M1223.142948 56.558987l13.123802-36.669834 1.538378.550571-13.123802 36.669835z" fill="#b1532b"/></g><g><path d="M1199.5 5.856605h-26v20h26c2.651 0 5.196-1.054 7.071-2.929 1.875-1.875 2.929-4.42 2.929-7.071s-1.054-5.196-2.929-7.071c-1.875-1.875-4.42-2.929-7.071-2.929z" fill="#d9d6ec"/><path d="M1173.5 5.856605h-26v20h26c2.651 0 5.196-1.054 7.071-2.929 1.875-1.875 2.929-4.42 2.929-7.071s-1.054-5.196-2.929-7.071c-1.875-1.875-4.42-2.929-7.071-2.929z" fill="#e0e6f5"/><path d="M1147.5 5.856605c-2.651 0-5.196 1.054-7.071 2.929-1.875 1.875-2.929 4.42-2.929 7.071s1.054 5.196 2.929 7.071c1.875 1.875 4.42 2.929 7.071 2.929s5.196-1.054 7.071-2.929c1.875-1.875 2.929-4.42 2.929-7.071s-1.054-5.196-2.929-7.071c-1.875-1.875-4.42-2.929-7.071-2.929z" fill="#f7fcff"/></g><g><path d="M1199.5 46.628939h-26v20h26c2.651 0 5.196-1.054 7.071-2.929 1.875-1.875 2.929-4.42 2.929-7.071s-1.054-5.196-2.929-7.071c-1.875-1.875-4.42-2.929-7.071-2.929z" fill="#d9d6ec"/><path d="M1173.5 46.628939h-26v20h26c2.651 0 5.196-1.054 7.071-2.929 1.875-1.875 2.929-4.42 2.929-7.071s-1.054-5.196-2.929-7.071c-1.875-1.875-4.42-2.929-7.071-2.929z" fill="#e0e6f5"/><path d="M1147.5 46.628939c-2.651 0-5.196 1.054-7.071 2.929-1.875 1.875-2.929 4.42-2.929 7.071s1.054 5.196 2.929 7.071c1.875 1.875 4.42 2.929 7.071 2.929s5.196-1.054 7.071-2.929c1.875-1.875 2.929-4.42 2.929-7.071s-1.054-5.196-2.929-7.071c-1.875-1.875-4.42-2.929-7.071-2.929z" fill="#f7fcff"/></g></g><g><path d="M1277.5 28.509348h17V56.97041h-17z" fill="#e0e6f5"/><path d="M1294.5 28.509348h16V56.97041h-16z" fill="#d9d6ec"/><path d="M1294.61 55.191594v10.672898h-32.11V18.429388h32.11v11.858776h-14.11v3.557633h14.11v3.557633h-14.11v3.557633h14.11v3.557632h-14.11v3.557633h14.11v3.557633h-14.11v3.557633h14.11z" fill="#f7fcff"/><path d="M1294.61 55.191594v10.672898h25.89V18.429388h-25.89v11.858776h10.89v3.557633h-10.89v3.557633h10.89v3.557633h-10.89v3.557632h10.89v3.557633h-10.89v3.557633h3.89v3.557633h-3.89z" fill="#ecf3fb"/><g><path d="M1366.535553 3.976415c-2.142626.492328-4.197826 1.310604-6.09249 2.42572-1.522257.911944-2.931546 1.999286-4.199554 3.240557-1.178934 1.128165-2.26655 2.347805-3.253087 3.647976-1.3395 1.61324-2.478463 3.383479-3.390981 5.271387-.18058.393443-.316408.722011-.40742.946468l4.312391 10.831093 3.731958-8.669644 2.366169 1.018547 8.07097-18.749525z" fill="#fdd752"/><path d="M1367.66536 3.957923l-8.062821 18.730596 1.435936.612508-3.960113 9.199666 11.677273-4.649296c.23906-.58142.54613-1.38598.857522-2.356955.844705-2.718098 1.304234-5.54086 1.366416-8.38658.14462-2.784431-.170513-5.57325-.933938-8.25495-.410705-1.401849-.95191-2.76115-1.617146-4.06166zm-16.552497 31.937459l-4.365355-10.708053 2.444514-5.678806 4.31239 10.831093-2.39155 5.555766z" fill="#f8bd3f"/><path d="M1357.203283 32.223522l11.670503-4.6466-2.387475 5.5463-11.670503 4.6466 2.387475-5.5463z" fill="#fd9326"/><path d="M1346.647551 46.268668l-4.381651-10.670194 4.481608-10.411145 4.31239 10.831094-4.412347 10.250245z" fill="#fdd752"/><path d="M1365.109736 36.008382l-3.205196 7.55018-11.568961 4.606171 4.51019-10.516635 9.42982-3.754474 2.228398-.824494-1.39425 2.939252z" fill="#f8bd3f"/><path d="M1340.960252 59.482034l16.412465-38.127505 2.201753.948333-16.412464 38.127505z" fill="#ca7a33"/><path d="M1343.16566 60.429697l16.412465-38.127505 1.59953.688538-16.412465 38.127505z" fill="#b1532b"/></g><g><path d="M1324.5 6.801143h-26v20h26c2.651 0 5.196-1.054 7.071-2.929 1.875-1.875 2.929-4.42 2.929-7.071s-1.054-5.196-2.929-7.071c-1.875-1.875-4.42-2.929-7.071-2.929z" fill="#d9d6ec"/><path d="M1298.5 6.801143h-26v20h26c2.651 0 5.196-1.054 7.071-2.929 1.875-1.875 2.929-4.42 2.929-7.071s-1.054-5.196-2.929-7.071c-1.875-1.875-4.42-2.929-7.071-2.929z" fill="#e0e6f5"/><path d="M1272.5 6.801143c-2.651 0-5.196 1.054-7.071 2.929-1.875 1.875-2.929 4.42-2.929 7.071s1.054 5.196 2.929 7.071c1.875 1.875 4.42 2.929 7.071 2.929s5.196-1.054 7.071-2.929c1.875-1.875 2.929-4.42 2.929-7.071s-1.054-5.196-2.929-7.071c-1.875-1.875-4.42-2.929-7.071-2.929z" fill="#f7fcff"/></g><g><path d="M1324.5 53.150751h-26v20h26c2.651 0 5.196-1.054 7.071-2.929 1.875-1.875 2.929-4.42 2.929-7.071s-1.054-5.196-2.929-7.071c-1.875-1.875-4.42-2.929-7.071-2.929z" fill="#d9d6ec"/><path d="M1298.5 53.150751h-26v20h26c2.651 0 5.196-1.054 7.071-2.929 1.875-1.875 2.929-4.42 2.929-7.071s-1.054-5.196-2.929-7.071c-1.875-1.875-4.42-2.929-7.071-2.929z" fill="#e0e6f5"/><path d="M1272.5 53.150751c-2.651 0-5.196 1.054-7.071 2.929-1.875 1.875-2.929 4.42-2.929 7.071s1.054 5.196 2.929 7.071c1.875 1.875 4.42 2.929 7.071 2.929s5.196-1.054 7.071-2.929c1.875-1.875 2.929-4.42 2.929-7.071s-1.054-5.196-2.929-7.071c-1.875-1.875-4.42-2.929-7.071-2.929z" fill="#f7fcff"/></g></g><g><path d="M1402.5 30.194222h17v31.456394h-17z" fill="#e0e6f5"/><path d="M1419.5 30.194222h16v31.456394h-16z" fill="#d9d6ec"/><path d="M1419.61 59.684591V71.48074h-32.11V19.053415h32.11v13.106831h-14.11v3.93205h14.11v3.932049h-14.11v3.93205h14.11v3.932049h-14.11v3.932049h14.11v3.93205h-14.11v3.932048h14.11z" fill="#f7fcff"/><path d="M1419.61 59.684591V71.48074h25.89V19.053415h-25.89v13.106831h10.89v3.93205h-10.89v3.932049h10.89v3.93205h-10.89v3.932049h10.89v3.932049h-10.89v3.93205h3.89v3.932048h-3.89z" fill="#ecf3fb"/><g><path d="M1491.252916 6.052784c-2.291356.388069-4.510453 1.12548-6.57835 2.186003-1.662424.868968-3.216395 1.929967-4.630717 3.16208-1.31338 1.118218-2.536002 2.338574-3.6569 3.65012-1.512595 1.620268-2.823196 3.418529-3.902048 5.354864-.214714.404122-.378218.74253-.488038.973817l3.886228 11.694845 4.470433-8.920164 2.434543 1.220096 9.668044-19.291317z" fill="#fdd752"/><path d="M1492.44635 6.102604l-9.658283 19.271841 1.477773.73451-4.743735 9.465502 12.608505-4.18984c.287966-.598909.661394-1.429128 1.0496-2.434701 1.058235-2.816607 1.716413-5.767303 1.956674-8.766614.323497-2.929573.162081-5.89199-.478998-8.768874-.347393-1.504595-.835114-2.972298-1.457336-4.385567zm-19.428046 32.688216l-3.949673-11.56825 2.928232-5.842902 3.886228 11.694845-2.864787 5.716307z" fill="#f8bd3f"/><path d="M1479.670946 35.28962l12.601196-4.18741-2.859906 5.706568-12.601197 4.187411 2.859907-5.706568z" fill="#fd9326"/><path d="M1467.669401 49.463855l-3.969194-11.529296 5.368424-10.711989 3.886228 11.694846-5.285458 10.54644z" fill="#fdd752"/><path d="M1487.782458 39.769047l-3.845835 7.771105-12.491556 4.150978 5.40506-10.82156 10.181826-3.383447 2.402256-.733345-1.651751 3.016269z" fill="#f8bd3f"/><path d="M1460.856626 63.059073l19.660146-39.229248 2.265342 1.135908-19.660147 39.229249z" fill="#ca7a33"/><path d="M1463.125865 64.194498l19.660146-39.229248 1.64575.824785-19.660145 39.229248z" fill="#b1532b"/></g><g><path d="M1449.5 7.674782h-26v20h26c2.651 0 5.196-1.054 7.071-2.929 1.875-1.875 2.929-4.42 2.929-7.071s-1.054-5.196-2.929-7.071c-1.875-1.875-4.42-2.929-7.071-2.929z" fill="#d9d6ec"/><path d="M1423.5 7.674782h-26v20h26c2.651 0 5.196-1.054 7.071-2.929 1.875-1.875 2.929-4.42 2.929-7.071s-1.054-5.196-2.929-7.071c-1.875-1.875-4.42-2.929-7.071-2.929z" fill="#e0e6f5"/><path d="M1397.5 7.674782c-2.651 0-5.196 1.054-7.071 2.929-1.875 1.875-2.929 4.42-2.929 7.071s1.054 5.196 2.929 7.071c1.875 1.875 4.42 2.929 7.071 2.929s5.196-1.054 7.071-2.929c1.875-1.875 2.929-4.42 2.929-7.071s-1.054-5.196-2.929-7.071c-1.875-1.875-4.42-2.929-7.071-2.929z" fill="#f7fcff"/></g><g><path d="M1449.5 59.183016h-26v20h26c2.651 0 5.196-1.054 7.071-2.929 1.875-1.875 2.929-4.42 2.929-7.071s-1.054-5.196-2.929-7.071c-1.875-1.875-4.42-2.929-7.071-2.929z" fill="#d9d6ec"/><path d="M1423.5 59.183016h-26v20h26c2.651 0 5.196-1.054 7.071-2.929 1.875-1.875 2.929-4.42 2.929-7.071s-1.054-5.196-2.929-7.071c-1.875-1.875-4.42-2.929-7.071-2.929z" fill="#e0e6f5"/><path d="M1397.5 59.183016c-2.651 0-5.196 1.054-7.071 2.929-1.875 1.875-2.929 4.42-2.929 7.071s1.054 5.196 2.929 7.071c1.875 1.875 4.42 2.929 7.071 2.929s5.196-1.054 7.071-2.929c1.875-1.875 2.929-4.42 2.929-7.071s-1.054-5.196-2.929-7.071c-1.875-1.875-4.42-2.929-7.071-2.929z" fill="#f7fcff"/></g></g><g><path d="M1527.5 31.675294h17v34.08941h-17z" fill="#e0e6f5"/><path d="M1544.5 31.675294h16v34.08941h-16z" fill="#d9d6ec"/><path d="M1544.61 63.634116v12.78353h-32.11V19.60196h32.11v14.20392h-14.11v4.261177h14.11v4.261177h-14.11v4.261176h14.11v4.261176h-14.11v4.261177h14.11v4.261176h-14.11v4.261176h14.11z" fill="#f7fcff"/><path d="M1544.61 63.634116v12.78353h25.89V19.60196h-25.89v14.20392h10.89v4.261177h-10.89v4.261177h10.89v4.261176h-10.89v4.261176h10.89v4.261177h-10.89v4.261176h3.89v4.261176h-3.89z" fill="#ecf3fb"/><g><path d="M1615.86718 8.304678c-2.417767.283464-4.778618.936243-6.998572 1.935116-1.785542.820163-3.467895 1.847011-5.013308 3.06033-1.433726 1.099566-2.777972 2.310834-4.020676 3.622934-1.66897 1.61412-3.136146 3.425238-4.368268 5.393187-.246221.411279-.435357.75655-.562606.992632l3.440207 12.441905 5.153472-9.09251 2.48158 1.406516 11.145227-19.664041z" fill="#fdd752"/><path d="M1617.112984 8.4206l-11.133975 19.644188 1.50665.847385-5.46853 9.648383 13.413928-3.708974c.333264-.611131.768298-1.45967 1.228165-2.49086 1.257615-2.889916 2.103895-5.941493 2.515585-9.066269.495035-3.047372.484552-6.155028-.032286-9.198849-.282973-1.59255-.71472-3.154009-1.290078-4.665714zm-22.071525 33.156932l-3.513346-12.312863 3.375637-5.955792 3.440207 12.441905-3.302498 5.82675z" fill="#f8bd3f"/><path d="M1602.18806 38.270543l13.406153-3.706824-3.296872 5.816824-13.406153 3.706823 3.296872-5.816823z" fill="#fd9326"/><path d="M1588.875296 52.45678l-3.53585-12.273159 6.188667-10.918952 3.440207 12.441905-6.093024 10.750205z" fill="#fdd752"/><path d="M1610.434147 43.39019l-4.43864 7.923855-13.28951 3.674571 6.232852-11.031618 10.832233-2.99513 2.55224-.638733-1.889175 3.067055z" fill="#f8bd3f"/><path d="M1581.02153 66.3147l22.664024-39.98719 2.309078 1.3094-22.664025 39.98719z" fill="#ca7a33"/><path d="M1583.33471 67.623802l22.664025-39.98719 1.677548.950805-22.664025 39.98719z" fill="#b1532b"/></g><g><path d="M1574.5 8.442745h-26v20h26c2.651 0 5.196-1.054 7.071-2.929 1.875-1.875 2.929-4.42 2.929-7.071s-1.054-5.196-2.929-7.071c-1.875-1.875-4.42-2.929-7.071-2.929z" fill="#d9d6ec"/><path d="M1548.5 8.442745h-26v20h26c2.651 0 5.196-1.054 7.071-2.929 1.875-1.875 2.929-4.42 2.929-7.071s-1.054-5.196-2.929-7.071c-1.875-1.875-4.42-2.929-7.071-2.929z" fill="#e0e6f5"/><path d="M1522.5 8.442745c-2.651 0-5.196 1.054-7.071 2.929-1.875 1.875-2.929 4.42-2.929 7.071s1.054 5.196 2.929 7.071c1.875 1.875 4.42 2.929 7.071 2.929s5.196-1.054 7.071-2.929c1.875-1.875 2.929-4.42 2.929-7.071s-1.054-5.196-2.929-7.071c-1.875-1.875-4.42-2.929-7.071-2.929z" fill="#f7fcff"/></g><g><path d="M1574.5 64.48562h-26v20h26c2.651 0 5.196-1.054 7.071-2.929 1.875-1.875 2.929-4.42 2.929-7.071s-1.054-5.196-2.929-7.071c-1.875-1.875-4.42-2.929-7.071-2.929z" fill="#d9d6ec"/><path d="M1548.5 64.48562h-26v20h26c2.651 0 5.196-1.054 7.071-2.929 1.875-1.875 2.929-4.42 2.929-7.071s-1.054-5.196-2.929-7.071c-1.875-1.875-4.42-2.929-7.071-2.929z" fill="#e0e6f5"/><path d="M1522.5 64.48562c-2.651 0-5.196 1.054-7.071 2.929-1.875 1.875-2.929 4.42-2.929 7.071s1.054 5.196 2.929 7.071c1.875 1.875 4.42 2.929 7.071 2.929s5.196-1.054 7.071-2.929c1.875-1.875 2.929-4.42 2.929-7.071s-1.054-5.196-2.929-7.071c-1.875-1.875-4.42-2.929-7.071-2.929z" fill="#f7fcff"/></g></g><g><path d="M1652.5 32.9475h17v36.35111h-17z" fill="#e0e6f5"/><path d="M1669.5 32.9475h16v36.35111h-16z" fill="#d9d6ec"/><path d="M1669.61 67.026666v13.631666h-32.11V20.073148h32.11v15.146296h-14.11v4.543889h14.11v4.543889h-14.11v4.543888h14.11V53.395h-14.11v4.543888h14.11v4.543889h-14.11v4.543889h14.11z" fill="#f7fcff"/><path d="M1669.61 67.026666v13.631666h25.89V20.073148h-25.89v15.146296h10.89v4.543889h-10.89v4.543889h10.89v4.543888h-10.89V53.395h10.89v4.543888h-10.89v4.543889h3.89v4.543889h-3.89z" fill="#ecf3fb"/><g><path d="M1740.409702 10.553111c-2.522398.18408-5.002547.75408-7.352218 1.68972-1.890638.769939-3.683589 1.759104-5.342898 2.948052-1.538205 1.075969-2.988623 2.271952-4.33824 3.577219-1.805812 1.599325-3.411148 3.412314-4.779658 5.398791-.274296.415666-.486336.76542-.629166 1.00466l3.003945 13.07061 5.763165-9.202683 2.51165 1.572916 12.463788-19.902308z" fill="#fdd752"/><path d="M1741.697486 10.73018l-12.451205 19.882216 1.525206.948164-6.115499 9.765292 14.091751-3.238629c.373745-.619134.863936-1.480045 1.388222-2.529406 1.43697-2.942258 2.454362-6.071048 3.024013-9.29561.652632-3.140426.783316-6.36645.385527-9.549284-.221163-1.665855-.598158-3.306217-1.12648-4.901479zm-24.419226 33.409335l-3.085737-12.940004 3.774999-6.027958 3.003945 13.07061-3.693207 5.897352z" fill="#f8bd3f"/><path d="M1724.846616 41.032623l14.083581-3.23675-3.686915 5.887305-14.083582 3.236751 3.686916-5.887306z" fill="#fd9326"/><path d="M1710.382595 55.150585l-3.110904-12.899817 6.920832-11.051257 3.003945 13.07061-6.813873 10.880464z" fill="#fdd752"/><path d="M1733.172306 46.722123l-4.967979 8.022258-13.961044 3.208589 6.971824-11.166183 11.3796-2.61531 2.678156-.546701-2.100557 3.097347z" fill="#f8bd3f"/><path d="M1701.599618 69.176451l25.345344-40.47171 2.337026 1.464258-25.345343 40.47171z" fill="#ca7a33"/><path d="M1703.940917 70.640587l25.345343-40.47171 1.697875 1.063291-25.345343 40.47171z" fill="#b1532b"/></g><g><path d="M1699.5 9.102407h-26v20h26c2.651 0 5.196-1.054 7.071-2.929 1.875-1.875 2.929-4.42 2.929-7.071s-1.054-5.196-2.929-7.071c-1.875-1.875-4.42-2.929-7.071-2.929z" fill="#d9d6ec"/><path d="M1673.5 9.102407h-26v20h26c2.651 0 5.196-1.054 7.071-2.929 1.875-1.875 2.929-4.42 2.929-7.071s-1.054-5.196-2.929-7.071c-1.875-1.875-4.42-2.929-7.071-2.929z" fill="#e0e6f5"/><path d="M1647.5 9.102407c-2.651 0-5.196 1.054-7.071 2.929-1.875 1.875-2.929 4.42-2.929 7.071s1.054 5.196 2.929 7.071c1.875 1.875 4.42 2.929 7.071 2.929s5.196-1.054 7.071-2.929c1.875-1.875 2.929-4.42 2.929-7.071s-1.054-5.196-2.929-7.071c-1.875-1.875-4.42-2.929-7.071-2.929z" fill="#f7fcff"/></g><g><path d="M1699.5 69.04043h-26v20h26c2.651 0 5.196-1.054 7.071-2.929 1.875-1.875 2.929-4.42 2.929-7.071s-1.054-5.196-2.929-7.071c-1.875-1.875-4.42-2.929-7.071-2.929z" fill="#d9d6ec"/><path d="M1673.5 69.04043h-26v20h26c2.651 0 5.196-1.054 7.071-2.929 1.875-1.875 2.929-4.42 2.929-7.071s-1.054-5.196-2.929-7.071c-1.875-1.875-4.42-2.929-7.071-2.929z" fill="#e0e6f5"/><path d="M1647.5 69.04043c-2.651 0-5.196 1.054-7.071 2.929-1.875 1.875-2.929 4.42-2.929 7.071s1.054 5.196 2.929 7.071c1.875 1.875 4.42 2.929 7.071 2.929s5.196-1.054 7.071-2.929c1.875-1.875 2.929-4.42 2.929-7.071s-1.054-5.196-2.929-7.071c-1.875-1.875-4.42-2.929-7.071-2.929z" fill="#f7fcff"/></g></g><g><path d="M1777.5 34.03184h17v38.278826h-17z" fill="#e0e6f5"/><path d="M1794.5 34.03184h16v38.278826h-16z" fill="#d9d6ec"/><path d="M1794.61 69.91824v14.354559h-32.11V20.474755h32.11v15.949511h-14.11v4.784854h14.11v4.784853h-14.11v4.784853h14.11v4.784853h-14.11v4.784854h14.11v4.784853h-14.11v4.784853h14.11z" fill="#f7fcff"/><path d="M1794.61 69.91824v14.354559h25.89V20.474755h-25.89v15.949511h10.89v4.784854h-10.89v4.784853h10.89v4.784853h-10.89v4.784853h10.89v4.784854h-10.89v4.784853h3.89v4.784853h-3.89z" fill="#ecf3fb"/><g><path d="M1864.913013 12.694818c-2.60825.092543-5.187813.584682-7.646929 1.45891-1.97936.721058-3.866439 1.671955-5.62341 2.834026-1.627726 1.050235-3.169554 2.227617-4.611648 3.521583-1.923875 1.57961-3.649255 3.387286-5.137106 5.383001-.298892.418064-.53104.770559-.687558 1.01176l2.593618 13.59454 6.298028-9.26772 2.5294 1.718894 13.620517-20.042963z" fill="#fdd752"/><path d="M1866.234174 12.927084l-13.606766 20.022728 1.536254 1.036591-6.68306 9.834306 14.656613-2.796244c.409293-.62405.947992-1.492933 1.52912-2.554835 1.59531-2.978696 2.765138-6.16593 3.47694-9.469194.79413-3.213301 1.053316-6.535004.765864-9.83255-.163818-1.726394-.489317-3.432509-.972606-5.097953zm-26.470157 33.510585l-2.683-13.463011 4.125345-6.07056 2.593618 13.59454-4.035963 5.939031z" fill="#f8bd3f"/><path d="M1847.68849 43.525678l14.648117-2.794624-4.029088 5.928913-14.648117 2.794624 4.029088-5.928913z" fill="#fd9326"/><path d="M1832.228385 57.526557l-2.710503-13.42254 7.563134-11.12936 2.593618 13.59454-7.446249 10.95736z" fill="#fdd752"/><path d="M1856.05468 49.713916l-5.432489 8.081111-14.520668 2.770308 7.62015-11.245907 11.835748-2.258068 2.782855-.460477-2.285597 3.113033z" fill="#f8bd3f"/><path d="M1822.630242 71.651575l27.697573-40.757735 2.353515 1.600108-27.697572 40.757736z" fill="#ca7a33"/><path d="M1824.988168 73.251723l27.697573-40.757735 1.709874 1.161972-27.697572 40.757735z" fill="#b1532b"/></g><g><path d="M1824.5 9.664658h-26v20h26c2.651 0 5.196-1.054 7.071-2.929 1.875-1.875 2.929-4.42 2.929-7.071s-1.054-5.196-2.929-7.071c-1.875-1.875-4.42-2.929-7.071-2.929z" fill="#d9d6ec"/><path d="M1798.5 9.664658h-26v20h26c2.651 0 5.196-1.054 7.071-2.929 1.875-1.875 2.929-4.42 2.929-7.071s-1.054-5.196-2.929-7.071c-1.875-1.875-4.42-2.929-7.071-2.929z" fill="#e0e6f5"/><path d="M1772.5 9.664658c-2.651 0-5.196 1.054-7.071 2.929-1.875 1.875-2.929 4.42-2.929 7.071s1.054 5.196 2.929 7.071c1.875 1.875 4.42 2.929 7.071 2.929s5.196-1.054 7.071-2.929c1.875-1.875 2.929-4.42 2.929-7.071s-1.054-5.196-2.929-7.071c-1.875-1.875-4.42-2.929-7.071-2.929z" fill="#f7fcff"/></g><g><path d="M1824.5 72.922636h-26v20h26c2.651 0 5.196-1.054 7.071-2.929 1.875-1.875 2.929-4.42 2.929-7.071s-1.054-5.196-2.929-7.071c-1.875-1.875-4.42-2.929-7.071-2.929z" fill="#d9d6ec"/><path d="M1798.5 72.922636h-26v20h26c2.651 0 5.196-1.054 7.071-2.929 1.875-1.875 2.929-4.42 2.929-7.071s-1.054-5.196-2.929-7.071c-1.875-1.875-4.42-2.929-7.071-2.929z" fill="#e0e6f5"/><path d="M1772.5 72.922636c-2.651 0-5.196 1.054-7.071 2.929-1.875 1.875-2.929 4.42-2.929 7.071s1.054 5.196 2.929 7.071c1.875 1.875 4.42 2.929 7.071 2.929s5.196-1.054 7.071-2.929c1.875-1.875 2.929-4.42 2.929-7.071s-1.054-5.196-2.929-7.071c-1.875-1.875-4.42-2.929-7.071-2.929z" fill="#f7fcff"/></g></g><g><path d="M1902.5 34.955117h17v39.920207h-17z" fill="#e0e6f5"/><path d="M1919.5 34.955117h16v39.920207h-16z" fill="#d9d6ec"/><path d="M1919.61 72.38031V87.35039h-32.11v-66.53368h32.11v16.63342h-14.11v4.990026h14.11v4.990026h-14.11v4.990026h14.11v4.990026h-14.11v4.990026h14.11v4.990026h-14.11v4.990026h14.11z" fill="#f7fcff"/><path d="M1919.61 72.38031V87.35039h25.89v-66.53368h-25.89v16.63342h10.89v4.990026h-10.89v4.990026h10.89v4.990026h-10.89v4.990026h10.89v4.990026h-10.89v4.990026h3.89v4.990026h-3.89z" fill="#ecf3fb"/><g><path d="M1989.403606 14.678954c-2.678657.009737-5.34094.430332-7.892145 1.246823-2.05405.675033-4.020942 1.588857-5.861262 2.72356-1.704085 1.024201-3.324205 2.18164-4.845823 3.46193-2.025175 1.557579-3.854176 3.3556-5.445655 5.354277-.32027.419101-.56993.77312-.73837 1.01544l2.216575 14.03048 6.76346-9.301438 2.538603 1.845922 14.627091-20.115882z" fill="#fdd752"/><path d="M1990.751313 14.960374l-14.612324 20.095574 1.542084 1.113552-7.176947 9.870085 15.12661-2.389743c.440251-.626803 1.021249-1.50054 1.652076-2.570893 1.733822-3.003543 3.037981-6.23491 3.87607-9.600265.919606-3.270379 1.293988-6.669433 1.106821-10.061562-.11166-1.776347-.38984-3.537173-.831215-5.26143zm-28.248614 33.511727l-2.312562-13.898472 4.430215-6.092645 2.216574 14.03048-4.334227 5.960637z" fill="#f8bd3f"/><path d="M1970.727022 45.743722l15.117842-2.388358-4.326843 5.950483-15.117842 2.388358 4.326843-5.950483z" fill="#fd9326"/><path d="M1954.410174 59.601333l-2.342097-13.857854 8.12206-11.16985 2.216574 14.03048-7.996537 10.997224z" fill="#fdd752"/><path d="M1979.107224 52.36511l-5.8368 8.112443-14.986306 2.367578 8.184357-11.287546 12.215286-1.929805 2.869793-.381474-2.44633 3.118803z" fill="#f8bd3f"/><path d="M1944.10268 73.777764l29.74446-40.906019 2.362054 1.718324-29.74446 40.906018z" fill="#ca7a33"/><path d="M1946.469257 75.496271l29.74446-40.906018 1.716095 1.247844-29.74446 40.906018z" fill="#b1532b"/></g><g><path d="M1949.5 10.143394h-26v20h26c2.651 0 5.196-1.054 7.071-2.929 1.875-1.875 2.929-4.42 2.929-7.071s-1.054-5.196-2.929-7.071c-1.875-1.875-4.42-2.929-7.071-2.929z" fill="#d9d6ec"/><path d="M1923.5 10.143394h-26v20h26c2.651 0 5.196-1.054 7.071-2.929 1.875-1.875 2.929-4.42 2.929-7.071s-1.054-5.196-2.929-7.071c-1.875-1.875-4.42-2.929-7.071-2.929z" fill="#e0e6f5"/><path d="M1897.5 10.143394c-2.651 0-5.196 1.054-7.071 2.929-1.875 1.875-2.929 4.42-2.929 7.071s1.054 5.196 2.929 7.071c1.875 1.875 4.42 2.929 7.071 2.929s5.196-1.054 7.071-2.929c1.875-1.875 2.929-4.42 2.929-7.071s-1.054-5.196-2.929-7.071c-1.875-1.875-4.42-2.929-7.071-2.929z" fill="#f7fcff"/></g><g><path d="M1949.5 76.228195h-26v20h26c2.651 0 5.196-1.054 7.071-2.929 1.875-1.875 2.929-4.42 2.929-7.071s-1.054-5.196-2.929-7.071c-1.875-1.875-4.42-2.929-7.071-2.929z" fill="#d9d6ec"/><path d="M1923.5 76.228195h-26v20h26c2.651 0 5.196-1.054 7.071-2.929 1.875-1.875 2.929-4.42 2.929-7.071s-1.054-5.196-2.929-7.071c-1.875-1.875-4.42-2.929-7.071-2.929z" fill="#e0e6f5"/><path d="M1897.5 76.228195c-2.651 0-5.196 1.054-7.071 2.929-1.875 1.875-2.929 4.42-2.929 7.071s1.054 5.196 2.929 7.071c1.875 1.875 4.42 2.929 7.071 2.929s5.196-1.054 7.071-2.929c1.875-1.875 2.929-4.42 2.929-7.071s-1.054-5.196-2.929-7.071c-1.875-1.875-4.42-2.929-7.071-2.929z" fill="#f7fcff"/></g></g><g><path d="M2027.5 35.742247h17v41.31955h-17z" fill="#e0e6f5"/><path d="M2044.5 35.742247h16v41.31955h-16z" fill="#d9d6ec"/><path d="M2044.61 74.479326v15.494831h-32.11V21.10824h32.11v17.216479h-14.11v5.164944h14.11v5.164944h-14.11v5.164943h14.11v5.164944h-14.11v5.164944h14.11v5.164944h-14.11v5.164944h14.11z" fill="#f7fcff"/><path d="M2044.61 74.479326v15.494831h25.89V21.10824h-25.89v17.216479h10.89v5.164944h-10.89v5.164944h10.89v5.164943h-10.89v5.164944h10.89v5.164944h-10.89v5.164944h3.89v5.164944h-3.89z" fill="#ecf3fb"/><g><path d="M2113.900958 16.48508c-2.73656-.064326-5.467787.2915-8.096522 1.054819-2.116962.632603-4.151511 1.511552-6.06289 2.619642-1.769148.998987-3.456219 2.136407-5.046074 3.402054-2.111936 1.534938-4.030145 3.320931-5.711284 5.318483-.338781.419238-.603629.773952-.782411 1.016816l1.875235 14.393816 7.166887-9.314032 2.54204 1.956028 15.499568-20.143119z" fill="#fdd752"/><path d="M2115.269859 16.809923l-15.48392 20.122783 1.544387 1.18027-7.605038 9.883448 15.518334-2.021738c.467102-.628082 1.084827-1.504507 1.758905-2.5804 1.854407-3.020092 3.276224-6.284822 4.22566-9.699348 1.03007-3.315245 1.506754-6.777052 1.409616-10.247355-.064809-1.817663-.30015-3.624087-.703214-5.397681zm-29.785602 33.449495l-1.976948-14.26163 4.694468-6.100894 1.875235 14.393816-4.592755 5.968708z" fill="#f8bd3f"/><path d="M2093.961184 47.700375l15.509337-2.020565-4.58493 5.95854-15.509338 2.020565 4.58493-5.95854z" fill="#fd9326"/><path d="M2076.90903 61.403718l-2.008246-14.220957 8.606525-11.184973 1.875235 14.393816-8.473515 11.012114z" fill="#fdd752"/><path d="M2102.338098 54.696589l-6.187322 8.12515-15.374395 2.002985 8.673426-11.303475 12.531616-1.632626 2.942116-.31011-2.585441 3.118076z" fill="#f8bd3f"/><path d="M2065.986684 75.599365l31.518658-40.961404 2.36523 1.820788-31.518657 40.961404z" fill="#ca7a33"/><path d="M2068.35653 77.420467l31.518658-40.961404 1.718418 1.322275-31.518657 40.961404z" fill="#b1532b"/></g><g><path d="M2074.5 10.551536h-26v20h26c2.651 0 5.196-1.054 7.071-2.929 1.875-1.875 2.929-4.42 2.929-7.071s-1.054-5.196-2.929-7.071c-1.875-1.875-4.42-2.929-7.071-2.929z" fill="#d9d6ec"/><path d="M2048.5 10.551536h-26v20h26c2.651 0 5.196-1.054 7.071-2.929 1.875-1.875 2.929-4.42 2.929-7.071s-1.054-5.196-2.929-7.071c-1.875-1.875-4.42-2.929-7.071-2.929z" fill="#e0e6f5"/><path d="M2022.5 10.551536c-2.651 0-5.196 1.054-7.071 2.929-1.875 1.875-2.929 4.42-2.929 7.071s1.054 5.196 2.929 7.071c1.875 1.875 4.42 2.929 7.071 2.929s5.196-1.054 7.071-2.929c1.875-1.875 2.929-4.42 2.929-7.071s-1.054-5.196-2.929-7.071c-1.875-1.875-4.42-2.929-7.071-2.929z" fill="#f7fcff"/></g><g><path d="M2074.5 79.046317h-26v20h26c2.651 0 5.196-1.054 7.071-2.929 1.875-1.875 2.929-4.42 2.929-7.071s-1.054-5.196-2.929-7.071c-1.875-1.875-4.42-2.929-7.071-2.929z" fill="#d9d6ec"/><path d="M2048.5 79.046317h-26v20h26c2.651 0 5.196-1.054 7.071-2.929 1.875-1.875 2.929-4.42 2.929-7.071s-1.054-5.196-2.929-7.071c-1.875-1.875-4.42-2.929-7.071-2.929z" fill="#e0e6f5"/><path d="M2022.5 79.046317c-2.651 0-5.196 1.054-7.071 2.929-1.875 1.875-2.929 4.42-2.929 7.071s1.054 5.196 2.929 7.071c1.875 1.875 4.42 2.929 7.071 2.929s5.196-1.054 7.071-2.929c1.875-1.875 2.929-4.42 2.929-7.071s-1.054-5.196-2.929-7.071c-1.875-1.875-4.42-2.929-7.071-2.929z" fill="#f7fcff"/></g></g><g><path d="M2152.5 36.414266h17v42.51425h-17z" fill="#e0e6f5"/><path d="M2169.5 36.414266h16v42.51425h-16z" fill="#d9d6ec"/><path d="M2169.61 76.271376V92.21422h-32.11V21.357136h32.11v17.71427h-14.11v5.314282h14.11v5.314281h-14.11v5.314282h14.11v5.31428h-14.11v5.314282h14.11v5.314282h-14.11v5.31428h14.11z" fill="#f7fcff"/><path d="M2169.61 76.271376V92.21422h25.89V21.357136h-25.89v17.71427h10.89v5.314282h-10.89v5.314281h10.89v5.314282h-10.89v5.31428h10.89v5.314282h-10.89v5.314282h3.89v5.31428h-3.89z" fill="#ecf3fb"/><g><path d="M2238.418632 18.109115c-2.784347-.13004-5.573176.167768-8.267278.882828-2.170026.594062-4.261966 1.440852-6.233921 2.523817-1.824589.975252-3.568887 2.093366-5.217243 3.344311-2.186196 1.512772-4.181096 3.285693-5.939646 5.279577-.354774.4188-.632761.773656-.820494 1.016678l1.569472 14.697384 7.51573-9.312775 2.541695 2.051236 16.253996-20.1404z" fill="#fdd752"/><path d="M2239.804533 18.472105l-16.237586 20.120066 1.54437 1.237966-7.975206 9.882115 15.845617-1.692087c.490335-.62838 1.139864-1.506023 1.851467-2.585398 1.959061-3.03076 3.48351-6.32077 4.530598-9.774417 1.126836-3.350676 1.693773-6.863609 1.676748-10.398727-.023097-1.85194-.220066-3.696461-.588552-5.511519zm-31.111314 33.349507l-1.676136-14.565215 4.922967-6.10007 1.569472 14.697383-4.816303 5.967902z" fill="#f8bd3f"/><path d="M2217.38324 49.416434l15.836431-1.691106-4.808097 5.957736-15.836431 1.691106 4.808098-5.957736z" fill="#fd9326"/><path d="M2199.7006 62.964408l-1.708956-14.524548 9.02544-11.183463 1.569471 14.697383-8.885955 11.010628z" fill="#fdd752"/><path d="M2225.74604 56.736308l-6.49047 8.12558-15.698642 1.676392 9.09634-11.302522 12.79591-1.366421 3.00244-.246293-2.705579 3.113264z" fill="#f8bd3f"/><path d="M2188.246595 77.158158l33.0528-40.955875 2.364892 1.909389-33.0528 40.955875z" fill="#ca7a33"/><path d="M2190.616178 79.067975l33.0528-40.955875 1.718186 1.386636-33.0528 40.955874z" fill="#b1532b"/></g><g><path d="M2199.5 10.89999h-26v20h26c2.651 0 5.196-1.054 7.071-2.929 1.875-1.875 2.929-4.42 2.929-7.071s-1.054-5.196-2.929-7.071c-1.875-1.875-4.42-2.929-7.071-2.929z" fill="#d9d6ec"/><path d="M2173.5 10.89999h-26v20h26c2.651 0 5.196-1.054 7.071-2.929 1.875-1.875 2.929-4.42 2.929-7.071s-1.054-5.196-2.929-7.071c-1.875-1.875-4.42-2.929-7.071-2.929z" fill="#e0e6f5"/><path d="M2147.5 10.89999c-2.651 0-5.196 1.054-7.071 2.929-1.875 1.875-2.929 4.42-2.929 7.071s1.054 5.196 2.929 7.071c1.875 1.875 4.42 2.929 7.071 2.929s5.196-1.054 7.071-2.929c1.875-1.875 2.929-4.42 2.929-7.071s-1.054-5.196-2.929-7.071c-1.875-1.875-4.42-2.929-7.071-2.929z" fill="#f7fcff"/></g><g><path d="M2199.5 81.45231h-26v20h26c2.651 0 5.196-1.054 7.071-2.929 1.875-1.875 2.929-4.42 2.929-7.071s-1.054-5.196-2.929-7.071c-1.875-1.875-4.42-2.929-7.071-2.929z" fill="#d9d6ec"/><path d="M2173.5 81.45231h-26v20h26c2.651 0 5.196-1.054 7.071-2.929 1.875-1.875 2.929-4.42 2.929-7.071s-1.054-5.196-2.929-7.071c-1.875-1.875-4.42-2.929-7.071-2.929z" fill="#e0e6f5"/><path d="M2147.5 81.45231c-2.651 0-5.196 1.054-7.071 2.929-1.875 1.875-2.929 4.42-2.929 7.071s1.054 5.196 2.929 7.071c1.875 1.875 4.42 2.929 7.071 2.929s5.196-1.054 7.071-2.929c1.875-1.875 2.929-4.42 2.929-7.071s-1.054-5.196-2.929-7.071c-1.875-1.875-4.42-2.929-7.071-2.929z" fill="#f7fcff"/></g></g><g><path d="M2277.5 36.98835h17v43.534845h-17z" fill="#e0e6f5"/><path d="M2294.5 36.98835h16v43.534845h-16z" fill="#d9d6ec"/><path d="M2294.61 77.802267v16.325567h-32.11V21.569759h32.11v18.139519h-14.11v5.441856h14.11v5.441855h-14.11v5.441856h14.11V61.4767h-14.11v5.441856h14.11v5.441856h-14.11v5.441855h14.11z" fill="#f7fcff"/><path d="M2294.61 77.802267v16.325567h25.89V21.569759h-25.89v18.139519h10.89v5.441856h-10.89v5.441855h10.89v5.441856h-10.89V61.4767h10.89v5.441856h-10.89v5.441856h3.89v5.441855h-3.89z" fill="#ecf3fb"/><g><path d="M2362.965703 19.555385c-2.823903-.187958-5.660953.05832-8.410227.730074-2.214829.559454-4.355467 1.377032-6.37905 2.436774-1.871818.953358-3.665002 2.053356-5.36346 3.290124-2.249703 1.491754-4.310442 3.25144-6.13569 5.240184-.368564.418013-.657892.772658-.853351 1.015589l1.297908 14.951514 7.81669-9.302794 2.538972 2.133376 16.904872-20.118817z" fill="#fdd752"/><path d="M2364.3653 19.95172l-16.887805 20.098506 1.542884 1.287748-8.294566 9.871524 16.119602-1.399307c.510388-.628043 1.18739-1.505927 1.931459-2.58735 2.049633-3.037295 3.66328-6.3465 4.795625-9.831413 1.211231-3.37878 1.857344-6.933523 1.911097-10.522524.013767-1.880452-.14912-3.756867-.486715-5.606818zm-32.252634 33.229431l-1.408844-14.819488 5.120103-6.093533 1.297908 14.951514-5.009167 5.961507z" fill="#f8bd3f"/><path d="M2340.98263 50.914166l16.110256-1.398496-5.000633 5.951351-16.110257 1.398496 5.000633-5.951351z" fill="#fd9326"/><path d="M2322.759945 64.312006l-1.442977-14.778865 9.386854-11.171478 1.297908 14.951515-9.241785 10.998828z" fill="#fdd752"/><path d="M2349.324996 58.512945l-6.752046 8.118222-15.970086 1.386328 9.461222-11.290916 13.017163-1.12999 3.05286-.189692-2.809113 3.106048z" fill="#f8bd3f"/><path d="M2310.847255 78.490562l34.376368-40.911985 2.36234 1.985828-34.376367 40.911984z" fill="#ca7a33"/><path d="M2313.21435 80.476918l34.376367-40.911984 1.716346 1.442162-34.376368 40.911984z" fill="#b1532b"/></g><g><path d="M2324.5 11.197663h-26v20h26c2.651 0 5.196-1.054 7.071-2.929 1.875-1.875 2.929-4.42 2.929-7.071s-1.054-5.196-2.929-7.071c-1.875-1.875-4.42-2.929-7.071-2.929z" fill="#d9d6ec"/><path d="M2298.5 11.197663h-26v20h26c2.651 0 5.196-1.054 7.071-2.929 1.875-1.875 2.929-4.42 2.929-7.071s-1.054-5.196-2.929-7.071c-1.875-1.875-4.42-2.929-7.071-2.929z" fill="#e0e6f5"/><path d="M2272.5 11.197663c-2.651 0-5.196 1.054-7.071 2.929-1.875 1.875-2.929 4.42-2.929 7.071s1.054 5.196 2.929 7.071c1.875 1.875 4.42 2.929 7.071 2.929s5.196-1.054 7.071-2.929c1.875-1.875 2.929-4.42 2.929-7.071s-1.054-5.196-2.929-7.071c-1.875-1.875-4.42-2.929-7.071-2.929z" fill="#f7fcff"/></g><g><path d="M2324.5 83.507673h-26v20h26c2.651 0 5.196-1.054 7.071-2.929 1.875-1.875 2.929-4.42 2.929-7.071s-1.054-5.196-2.929-7.071c-1.875-1.875-4.42-2.929-7.071-2.929z" fill="#d9d6ec"/><path d="M2298.5 83.507673h-26v20h26c2.651 0 5.196-1.054 7.071-2.929 1.875-1.875 2.929-4.42 2.929-7.071s-1.054-5.196-2.929-7.071c-1.875-1.875-4.42-2.929-7.071-2.929z" fill="#e0e6f5"/><path d="M2272.5 83.507673c-2.651 0-5.196 1.054-7.071 2.929-1.875 1.875-2.929 4.42-2.929 7.071s1.054 5.196 2.929 7.071c1.875 1.875 4.42 2.929 7.071 2.929s5.196-1.054 7.071-2.929c1.875-1.875 2.929-4.42 2.929-7.071s-1.054-5.196-2.929-7.071c-1.875-1.875-4.42-2.929-7.071-2.929z" fill="#f7fcff"/></g></g><g><path d="M2402.5 37.478405h17V81.88446h-17z" fill="#e0e6f5"/><path d="M2419.5 37.478405h16V81.88446h-16z" fill="#d9d6ec"/><path d="M2419.61 79.10908v16.65227h-32.11V21.751262h32.11v18.502523h-14.11v5.550756h14.11v5.550757h-14.11v5.550757h14.11v5.550756h-14.11v5.550757h14.11v5.550757h-14.11v5.550757h14.11z" fill="#f7fcff"/><path d="M2419.61 79.10908v16.65227h25.89V21.751262h-25.89v18.502523h10.89v5.550756h-10.89v5.550757h10.89v5.550757h-10.89v5.550756h10.89v5.550757h-10.89v5.550757h3.89v5.550757h-3.89z" fill="#ecf3fb"/><g><path d="M2487.54797 20.83228c-2.856707-.238679-5.73416-.037807-8.529997.59547-2.252654.528689-4.434588 1.320065-6.502116 2.358697-1.91201.933488-3.74689 2.016832-5.488176 3.240312-2.303926 1.472284-4.421063 3.219152-6.303626 5.20203-.380417.41704-.679504.771257-.881614 1.013941l1.058612 15.16444 8.075586-9.287697 2.534852 2.204035 17.464779-20.086166z" fill="#fdd752"/><path d="M2488.958637 21.257621l-17.447146 20.065887 1.540529 1.330576-8.56929 9.855504 16.349161-1.141316c.527645-.62732 1.228305-1.504817 2.00037-2.587302 2.127752-3.040963 3.81861-6.364766 5.025033-9.874754 1.2845-3.401151 1.999683-6.990182 2.115537-10.624042.04612-1.904203-.086735-3.80734-.39698-5.686665zm-33.23266 33.101381l-1.173221-15.032627 5.289685-6.083645 1.058612 15.16444-5.175076 5.951832z" fill="#f8bd3f"/><path d="M2464.747875 52.214884l16.339684-1.140655-5.16626 5.941693-16.339683 1.140655 5.16626-5.941693z" fill="#fd9326"/><path d="M2446.063485 65.471793l-1.208486-14.99207 9.697757-11.153348 1.058611 15.16444-9.547882 10.980978z" fill="#fdd752"/><path d="M2473.066623 60.053345l-6.977092 8.106233-16.197518 1.13073 9.775117-11.273037 13.202541-.921654 3.095048-.13987-2.898096 3.097598z" fill="#f8bd3f"/><path d="M2433.756216 79.627353l35.514949-40.845589 2.358492 2.051583-35.514948 40.845589z" fill="#ca7a33"/><path d="M2436.119514 81.679553l35.514948-40.84559 1.71356 1.489929-35.514948 40.845589z" fill="#b1532b"/></g><g><path d="M2449.5 11.451766h-26v20h26c2.651 0 5.196-1.054 7.071-2.929 1.875-1.875 2.929-4.42 2.929-7.071s-1.054-5.196-2.929-7.071c-1.875-1.875-4.42-2.929-7.071-2.929z" fill="#d9d6ec"/><path d="M2423.5 11.451766h-26v20h26c2.651 0 5.196-1.054 7.071-2.929 1.875-1.875 2.929-4.42 2.929-7.071s-1.054-5.196-2.929-7.071c-1.875-1.875-4.42-2.929-7.071-2.929z" fill="#e0e6f5"/><path d="M2397.5 11.451766c-2.651 0-5.196 1.054-7.071 2.929-1.875 1.875-2.929 4.42-2.929 7.071s1.054 5.196 2.929 7.071c1.875 1.875 4.42 2.929 7.071 2.929s5.196-1.054 7.071-2.929c1.875-1.875 2.929-4.42 2.929-7.071s-1.054-5.196-2.929-7.071c-1.875-1.875-4.42-2.929-7.071-2.929z" fill="#f7fcff"/></g><g><path d="M2449.5 85.262192h-26v20h26c2.651 0 5.196-1.054 7.071-2.929 1.875-1.875 2.929-4.42 2.929-7.071s-1.054-5.196-2.929-7.071c-1.875-1.875-4.42-2.929-7.071-2.929z" fill="#d9d6ec"/><path d="M2423.5 85.262192h-26v20h26c2.651 0 5.196-1.054 7.071-2.929 1.875-1.875 2.929-4.42 2.929-7.071s-1.054-5.196-2.929-7.071c-1.875-1.875-4.42-2.929-7.071-2.929z" fill="#e0e6f5"/><path d="M2397.5 85.262192c-2.651 0-5.196 1.054-7.071 2.929-1.875 1.875-2.929 4.42-2.929 7.071s1.054 5.196 2.929 7.071c1.875 1.875 4.42 2.929 7.071 2.929s5.196-1.054 7.071-2.929c1.875-1.875 2.929-4.42 2.929-7.071s-1.054-5.196-2.929-7.071c-1.875-1.875-4.42-2.929-7.071-2.929z" fill="#f7fcff"/></g></g><g><path d="M2527.5 37.89571h17v45.147928h-17z" fill="#e0e6f5"/><path d="M2544.5 37.89571h16v45.147928h-16z" fill="#d9d6ec"/><path d="M2544.61 80.221892v16.930473h-32.11V21.905818h32.11v18.811637h-14.11v5.643491h14.11v5.643491h-14.11v5.643491h14.11v5.643491h-14.11v5.643491h14.11v5.643491h-14.11v5.643491h14.11z" fill="#f7fcff"/><path d="M2544.61 80.221892v16.930473h25.89V21.905818h-25.89v18.811637h10.89v5.643491h-10.89v5.643491h10.89v5.643491h-10.89v5.643491h10.89v5.643491h-10.89v5.643491h3.89v5.643491h-3.89z" fill="#ecf3fb"/><g><path d="M2612.16888 21.949932c-2.88392-.282786-5.795198-.121601-8.630274.477819-2.284537.501609-4.501414 1.269754-6.606253 2.289475-1.94612.91571-3.816462 1.984006-5.594243 3.195304-2.350083 1.454592-4.515363 3.189435-6.44698 5.166233-.390569.415986-.69802.769659-.90583 1.01201l.849456 15.34271 8.297388-9.270015 2.530026 2.264571 17.94446-20.047923z" fill="#fdd752"/><path d="M2613.588513 22.400356l-17.926343 20.027683 1.537724 1.36727-8.804651 9.83674 16.541358-.91582c.542435-.626384 1.263381-1.503116 2.059481-2.586 2.194828-3.042682 3.952182-6.377596 5.222607-9.907739 1.347755-3.419002 2.122814-7.03618 2.292757-10.707385.074307-1.923984-.0323-3.849494-.318546-5.753516zm-34.07097 32.973627l-.967212-15.211148 5.43497-6.072062.849455 15.34271-5.317212 5.9405z" fill="#f8bd3f"/><path d="M2588.667522 53.338035l16.53177-.915288-5.308155 5.93038-16.53177.915288 5.308155-5.93038z" fill="#fd9326"/><path d="M2569.589665 66.465615l-1.003446-15.170667 9.964112-11.132113.849455 15.342709-9.810121 10.960071z" fill="#fdd752"/><path d="M2596.961628 61.38166l-7.169914 8.091834-16.38793.907325 10.044043-11.251962 13.357746-.739557 3.130324-.096363-2.97427 3.088723z" fill="#f8bd3f"/><path d="M2556.944354 80.594237l36.49039-40.767821 2.353989 2.107915-36.49039 40.767822z" fill="#ca7a33"/><path d="M2559.30319 82.702847l36.49039-40.767822 1.710298 1.53085-36.49039 40.767822z" fill="#b1532b"/></g><g><path d="M2574.5 11.668146h-26v20h26c2.651 0 5.196-1.054 7.071-2.929 1.875-1.875 2.929-4.42 2.929-7.071s-1.054-5.196-2.929-7.071c-1.875-1.875-4.42-2.929-7.071-2.929z" fill="#d9d6ec"/><path d="M2548.5 11.668146h-26v20h26c2.651 0 5.196-1.054 7.071-2.929 1.875-1.875 2.929-4.42 2.929-7.071s-1.054-5.196-2.929-7.071c-1.875-1.875-4.42-2.929-7.071-2.929z" fill="#e0e6f5"/><path d="M2522.5 11.668146c-2.651 0-5.196 1.054-7.071 2.929-1.875 1.875-2.929 4.42-2.929 7.071s1.054 5.196 2.929 7.071c1.875 1.875 4.42 2.929 7.071 2.929s5.196-1.054 7.071-2.929c1.875-1.875 2.929-4.42 2.929-7.071s-1.054-5.196-2.929-7.071c-1.875-1.875-4.42-2.929-7.071-2.929z" fill="#f7fcff"/></g><g><path d="M2574.5 86.756244h-26v20h26c2.651 0 5.196-1.054 7.071-2.929 1.875-1.875 2.929-4.42 2.929-7.071s-1.054-5.196-2.929-7.071c-1.875-1.875-4.42-2.929-7.071-2.929z" fill="#d9d6ec"/><path d="M2548.5 86.756244h-26v20h26c2.651 0 5.196-1.054 7.071-2.929 1.875-1.875 2.929-4.42 2.929-7.071s-1.054-5.196-2.929-7.071c-1.875-1.875-4.42-2.929-7.071-2.929z" fill="#e0e6f5"/><path d="M2522.5 86.756244c-2.651 0-5.196 1.054-7.071 2.929-1.875 1.875-2.929 4.42-2.929 7.071s1.054 5.196 2.929 7.071c1.875 1.875 4.42 2.929 7.071 2.929s5.196-1.054 7.071-2.929c1.875-1.875 2.929-4.42 2.929-7.071s-1.054-5.196-2.929-7.071c-1.875-1.875-4.42-2.929-7.071-2.929z" fill="#f7fcff"/></g></g><g><path d="M2652.5 38.249471h17V84.02631h-17z" fill="#e0e6f5"/><path d="M2669.5 38.249471h16V84.02631h-16z" fill="#d9d6ec"/><path d="M2669.61 81.165256V98.33157h-32.11V22.036841h32.11v19.073682h-14.11v5.722105h14.11v5.722105h-14.11v5.722105h14.11v5.722104h-14.11v5.722105h14.11v5.722105h-14.11v5.722104h14.11z" fill="#f7fcff"/><path d="M2669.61 81.165256V98.33157h25.89V22.036841h-25.89v19.073682h10.89v5.722105h-10.89v5.722105h10.89v5.722105h-10.89v5.722104h10.89v5.722105h-10.89v5.722105h3.89v5.722104h-3.89z" fill="#ecf3fb"/><g><path d="M2736.830196 22.91898c-2.906452-.320828-5.845975-.194019-8.714.375917-2.311317.478019-4.557644 1.22581-6.694018 2.228825-1.974944.900019-3.875304 1.954933-5.684028 3.155279-2.389182 1.438791-4.595343 3.162634-6.568712 5.133491-.39921.414932-.713787.768011-.926454 1.009991l.668298 15.491556 8.486315-9.251516 2.524977 2.316134 18.353046-20.00792z" fill="#fdd752"/><path d="M2738.25709 23.390937l-18.334516 19.98772 1.534769 1.398527-9.00513 9.81711 16.701834-.720508c.555037-.62536 1.293276-1.501127 2.109884-2.583981 2.25207-3.043117 4.066318-6.386484 5.391647-9.932834 1.40199-3.433255 2.228554-7.073523 2.445211-10.77575.098656-1.940425.014785-3.884615-.250611-5.809334zM2703.473 56.242685l-.788737-15.360257 5.558721-6.059945.668298 15.491556-5.438282 5.928646z" fill="#f8bd3f"/><path d="M2712.730568 54.30098l16.69215-.720091-5.429017 5.918546-16.692151.720091 5.429018-5.918546z" fill="#fd9326"/><path d="M2693.319068 67.312185l-.825795-15.319857 10.19099-11.1099.668298 15.491556-10.033493 10.938201z" fill="#fdd752"/><path d="M2721.000496 62.519232l-7.334171 8.076586-16.546918.713826 10.273117-11.229846 13.487336-.581837 3.159746-.058708-3.03911 3.07998z" fill="#f8bd3f"/><path d="M2680.385818 81.412626l37.321256-40.686472 2.34928 2.1559-37.321255 40.68647z" fill="#ca7a33"/><path d="M2682.739982 83.569284l37.321256-40.686472 1.706884 1.565707-37.321256 40.686472z" fill="#b1532b"/></g><g><path d="M2699.5 11.851578h-26v20h26c2.651 0 5.196-1.054 7.071-2.929 1.875-1.875 2.929-4.42 2.929-7.071s-1.054-5.196-2.929-7.071c-1.875-1.875-4.42-2.929-7.071-2.929z" fill="#d9d6ec"/><path d="M2673.5 11.851578h-26v20h26c2.651 0 5.196-1.054 7.071-2.929 1.875-1.875 2.929-4.42 2.929-7.071s-1.054-5.196-2.929-7.071c-1.875-1.875-4.42-2.929-7.071-2.929z" fill="#e0e6f5"/><path d="M2647.5 11.851578c-2.651 0-5.196 1.054-7.071 2.929-1.875 1.875-2.929 4.42-2.929 7.071s1.054 5.196 2.929 7.071c1.875 1.875 4.42 2.929 7.071 2.929s5.196-1.054 7.071-2.929c1.875-1.875 2.929-4.42 2.929-7.071s-1.054-5.196-2.929-7.071c-1.875-1.875-4.42-2.929-7.071-2.929z" fill="#f7fcff"/></g><g><path d="M2699.5 88.022798h-26v20h26c2.651 0 5.196-1.054 7.071-2.929 1.875-1.875 2.929-4.42 2.929-7.071s-1.054-5.196-2.929-7.071c-1.875-1.875-4.42-2.929-7.071-2.929z" fill="#d9d6ec"/><path d="M2673.5 88.022798h-26v20h26c2.651 0 5.196-1.054 7.071-2.929 1.875-1.875 2.929-4.42 2.929-7.071s-1.054-5.196-2.929-7.071c-1.875-1.875-4.42-2.929-7.071-2.929z" fill="#e0e6f5"/><path d="M2647.5 88.022798c-2.651 0-5.196 1.054-7.071 2.929-1.875 1.875-2.929 4.42-2.929 7.071s1.054 5.196 2.929 7.071c1.875 1.875 4.42 2.929 7.071 2.929s5.196-1.054 7.071-2.929c1.875-1.875 2.929-4.42 2.929-7.071s-1.054-5.196-2.929-7.071c-1.875-1.875-4.42-2.929-7.071-2.929z" fill="#f7fcff"/></g></g><g><path d="M2777.5 38.547271h17v46.30626h-17z" fill="#e0e6f5"/><path d="M2794.5 38.547271h16v46.30626h-16z" fill="#d9d6ec"/><path d="M2794.61 81.95939v17.364847h-32.11v-77.1771h32.11v19.294275h-14.11v5.788283h14.11v5.788282h-14.11v5.788283h14.11v5.788282h-14.11v5.788283h14.11v5.788282h-14.11v5.788283h14.11z" fill="#f7fcff"/><path d="M2794.61 81.95939v17.364847h25.89v-77.1771h-25.89v19.294275h10.89v5.788283h-10.89v5.788282h10.89v5.788283h-10.89v5.788282h10.89v5.788283h-10.89v5.788282h3.89v5.788283h-3.89z" fill="#ecf3fb"/><g><path d="M2861.532482 23.749923c-2.925032-.353312-5.888013-.255955-8.783543.288607-2.333675.45771-4.604662 1.187899-6.767509 2.17637-1.999133.88637-3.924724 1.929575-5.759492 3.120253-2.422066 1.424917-4.662682 3.138926-6.671306 5.104218-.40651.413929-.72711.766414-.943882 1.008017l.51308 15.615186 8.645956-9.233432 2.520041 2.359704 18.698296-19.96881z" fill="#fdd752"/><path d="M2862.965245 24.240197l-18.679418 19.94865 1.531865 1.42494-9.17453 9.797921 16.835123-.553164c.565688-.624329 1.318548-1.499059 2.15251-2.581624 2.300518-3.042747 4.16302-6.392536 5.53502-9.951896 1.448068-3.44462 2.318518-7.103763 2.575105-10.831643.119472-1.954023.05508-3.91373-.192405-5.855695zm-35.386 32.739435l-.635785-15.484144 5.66329-6.0481.51308 15.615186-5.540585 5.917058z" fill="#f8bd3f"/><path d="M2836.926648 55.119063l16.825363-.552844-5.531147 5.906978-16.825363.552843 5.531147-5.906977z" fill="#fd9326"/><path d="M2817.234302 68.027494l-.67354-15.443823 10.382698-11.088183.51308 15.615186-10.222238 10.91682z" fill="#fdd752"/><path d="M2845.17387 63.484783l-7.472978 8.061567-16.67897.548034 10.466685-11.208183 13.594971-.4467 3.18416-.026465-3.093869 3.071747z" fill="#f8bd3f"/><path d="M2804.057746 82.100383l38.023328-40.606943 2.34468 2.196445-38.02333 40.606942z" fill="#ca7a33"/><path d="M2806.407337 84.297643l38.023328-40.606942 1.703548 1.59516-38.023328 40.606942z" fill="#b1532b"/></g><g><path d="M2824.5 12.005992h-26v20h26c2.651 0 5.196-1.054 7.071-2.929 1.875-1.875 2.929-4.42 2.929-7.071s-1.054-5.196-2.929-7.071c-1.875-1.875-4.42-2.929-7.071-2.929z" fill="#d9d6ec"/><path d="M2798.5 12.005992h-26v20h26c2.651 0 5.196-1.054 7.071-2.929 1.875-1.875 2.929-4.42 2.929-7.071s-1.054-5.196-2.929-7.071c-1.875-1.875-4.42-2.929-7.071-2.929z" fill="#e0e6f5"/><path d="M2772.5 12.005992c-2.651 0-5.196 1.054-7.071 2.929-1.875 1.875-2.929 4.42-2.929 7.071s1.054 5.196 2.929 7.071c1.875 1.875 4.42 2.929 7.071 2.929s5.196-1.054 7.071-2.929c1.875-1.875 2.929-4.42 2.929-7.071s-1.054-5.196-2.929-7.071c-1.875-1.875-4.42-2.929-7.071-2.929z" fill="#f7fcff"/></g><g><path d="M2824.5 89.088996h-26v20h26c2.651 0 5.196-1.054 7.071-2.929 1.875-1.875 2.929-4.42 2.929-7.071s-1.054-5.196-2.929-7.071c-1.875-1.875-4.42-2.929-7.071-2.929z" fill="#d9d6ec"/><path d="M2798.5 89.088996h-26v20h26c2.651 0 5.196-1.054 7.071-2.929 1.875-1.875 2.929-4.42 2.929-7.071s-1.054-5.196-2.929-7.071c-1.875-1.875-4.42-2.929-7.071-2.929z" fill="#e0e6f5"/><path d="M2772.5 89.088996c-2.651 0-5.196 1.054-7.071 2.929-1.875 1.875-2.929 4.42-2.929 7.071s1.054 5.196 2.929 7.071c1.875 1.875 4.42 2.929 7.071 2.929s5.196-1.054 7.071-2.929c1.875-1.875 2.929-4.42 2.929-7.071s-1.054-5.196-2.929-7.071c-1.875-1.875-4.42-2.929-7.071-2.929z" fill="#f7fcff"/></g></g><g><path d="M2902.5 38.79541h17v46.747394h-17z" fill="#e0e6f5"/><path d="M2919.5 38.79541h16v46.747394h-16z" fill="#d9d6ec"/><path d="M2919.61 82.621091v17.530273h-32.11V22.23904h32.11v19.478081h-14.11v5.843425h14.11v5.843424h-14.11v5.843424h14.11v5.843425h-14.11v5.843424h14.11v5.843424h-14.11v5.843424h14.11z" fill="#f7fcff"/><path d="M2919.61 82.621091v17.530273h25.89V22.23904h-25.89v19.478081h10.89v5.843425h-10.89v5.843424h10.89v5.843424h-10.89v5.843425h10.89v5.843424h-10.89v5.843424h3.89v5.843424h-3.89z" fill="#ecf3fb"/><g><path d="M2986.275446 24.452802c-2.940235-.380695-5.922537-.308237-8.840815.214796-2.352172.440477-4.64361 1.15567-6.828457 2.13169-2.019234.874689-3.965816 1.907824-5.822278 3.090136-2.449441 1.412954-4.718787 3.118367-6.756859 5.078627-.41261.413011-.738242.764935-.958446 1.00618l.38186 15.717005 8.77937-9.2166 2.515448 2.396116 18.986826-19.932408z" fill="#fdd752"/><path d="M2987.712926 24.958468l-18.967657 19.912284 1.529154 1.447015-9.3161 9.78006 16.944895-.411692c.57459-.623354 1.339677-1.49706 2.18816-2.579198 2.34106-3.041923 4.244017-6.396574 5.655214-9.966326 1.486753-3.45364 2.394131-7.128114 2.68441-10.87704.137038-1.965183.089114-3.937667-.143198-5.893876zm-35.888556 32.639039l-.506459-15.586202 5.75068-6.037074.38186 15.717005-5.626081 5.90627z" fill="#f8bd3f"/><path d="M2961.246095 55.805797l16.935073-.411454-5.616497 5.89621-16.935073.411454 5.616497-5.89621z" fill="#fd9326"/><path d="M2941.319796 68.62523l-.544797-15.545955 10.542912-11.06797.38186 15.717005-10.379975 10.89692z" fill="#fdd752"/><path d="M2969.472745 64.294694l-7.588987 8.047523-16.787726.407875 10.628456-11.187996 13.683617-.332457 3.20425.000781-3.13961 3.064274z" fill="#f8bd3f"/><path d="M2927.939906 82.672472l38.61006-40.532918 2.340397 2.230329-38.610061 40.532918z" fill="#ca7a33"/><path d="M2930.285237 84.903664l38.610061-40.532918 1.700443 1.619774-38.61006 40.532918z" fill="#b1532b"/></g><g><path d="M2949.5 12.134657h-26v20h26c2.651 0 5.196-1.054 7.071-2.929 1.875-1.875 2.929-4.42 2.929-7.071s-1.054-5.196-2.929-7.071c-1.875-1.875-4.42-2.929-7.071-2.929z" fill="#d9d6ec"/><path d="M2923.5 12.134657h-26v20h26c2.651 0 5.196-1.054 7.071-2.929 1.875-1.875 2.929-4.42 2.929-7.071s-1.054-5.196-2.929-7.071c-1.875-1.875-4.42-2.929-7.071-2.929z" fill="#e0e6f5"/><path d="M2897.5 12.134657c-2.651 0-5.196 1.054-7.071 2.929-1.875 1.875-2.929 4.42-2.929 7.071s1.054 5.196 2.929 7.071c1.875 1.875 4.42 2.929 7.071 2.929s5.196-1.054 7.071-2.929c1.875-1.875 2.929-4.42 2.929-7.071s-1.054-5.196-2.929-7.071c-1.875-1.875-4.42-2.929-7.071-2.929z" fill="#f7fcff"/></g><g><path d="M2949.5 89.977391h-26v20h26c2.651 0 5.196-1.054 7.071-2.929 1.875-1.875 2.929-4.42 2.929-7.071s-1.054-5.196-2.929-7.071c-1.875-1.875-4.42-2.929-7.071-2.929z" fill="#d9d6ec"/><path d="M2923.5 89.977391h-26v20h26c2.651 0 5.196-1.054 7.071-2.929 1.875-1.875 2.929-4.42 2.929-7.071s-1.054-5.196-2.929-7.071c-1.875-1.875-4.42-2.929-7.071-2.929z" fill="#e0e6f5"/><path d="M2897.5 89.977391c-2.651 0-5.196 1.054-7.071 2.929-1.875 1.875-2.929 4.42-2.929 7.071s1.054 5.196 2.929 7.071c1.875 1.875 4.42 2.929 7.071 2.929s5.196-1.054 7.071-2.929c1.875-1.875 2.929-4.42 2.929-7.071s-1.054-5.196-2.929-7.071c-1.875-1.875-4.42-2.929-7.071-2.929z" fill="#f7fcff"/></g></g><g><path d="M3027.5 38.999167h17v47.10963h-17z" fill="#e0e6f5"/><path d="M3044.5 38.999167h16v47.10963h-16z" fill="#d9d6ec"/><path d="M3044.61 83.164446v17.666111h-32.11v-78.51605h32.11v19.629012h-14.11v5.888704h14.11v5.888704h-14.11v5.888704h14.11v5.888703h-14.11v5.888704h14.11v5.888704h-14.11v5.888704h14.11z" fill="#f7fcff"/><path d="M3044.61 83.164446v17.666111h25.89v-78.51605h-25.89v19.629012h10.89v5.888704h-10.89v5.888704h10.89v5.888704h-10.89v5.888703h10.89v5.888704h-10.89v5.888704h3.89v5.888704h-3.89z" fill="#ecf3fb"/><g><path d="M3111.058191 25.037053c-2.952529-.403394-5.950538-.351624-8.887379.15347-2.367267.426113-4.67543 1.128772-6.878301 2.094338-2.035698.864889-3.999493 1.889545-5.873763 3.064773-2.471897 1.40286-4.764848 3.100939-6.827145 5.056797-.417628.412202-.747405.76362-.970434 1.004539l.272834 15.799785 8.88918-9.201575 2.511346 2.426086 19.224305-19.899912z" fill="#fdd752"/><path d="M3112.499425 25.555445l-19.204896 19.879821 1.526728 1.465186-9.432622 9.764116 17.034143-.29415c.58192-.622473 1.357073-1.495228 2.21752-2.57689 2.374467-3.040894 4.310805-6.399202 5.754398-9.977178 1.518713-3.46074 2.456658-7.147531 2.774886-10.913509.151611-1.974229.11737-3.957102-.102313-5.924919zm-36.301871 32.551952l-.398991-15.669195 5.822606-6.027232.272834 15.799785-5.69645 5.896642z" fill="#f8bd3f"/><path d="M3085.679936 56.37308l17.024268-.293978-5.686745 5.886596-17.024268.29398 5.686745-5.886597z" fill="#fd9326"/><path d="M3065.561593 69.117141l-.437809-15.629013 10.674779-11.049926.272834 15.799785-10.509804 10.879154z" fill="#fdd752"/><path d="M3093.888567 64.963316l-7.684476 8.034946-16.876145.291421 10.761606-11.169959 13.755687-.237536 3.22057.023409-3.177242 3.05772z" fill="#f8bd3f"/><path d="M3052.014346 83.141489l39.092978-40.466837 2.336575 2.258218-39.092979 40.466837z" fill="#ca7a33"/><path d="M3054.355874 85.400609l39.092979-40.466837 1.69767 1.640034-39.092978 40.466837z" fill="#b1532b"/></g><g><path d="M3074.5 12.240309h-26v20h26c2.651 0 5.196-1.054 7.071-2.929 1.875-1.875 2.929-4.42 2.929-7.071s-1.054-5.196-2.929-7.071c-1.875-1.875-4.42-2.929-7.071-2.929z" fill="#d9d6ec"/><path d="M3048.5 12.240309h-26v20h26c2.651 0 5.196-1.054 7.071-2.929 1.875-1.875 2.929-4.42 2.929-7.071s-1.054-5.196-2.929-7.071c-1.875-1.875-4.42-2.929-7.071-2.929z" fill="#e0e6f5"/><path d="M3022.5 12.240309c-2.651 0-5.196 1.054-7.071 2.929-1.875 1.875-2.929 4.42-2.929 7.071s1.054 5.196 2.929 7.071c1.875 1.875 4.42 2.929 7.071 2.929s5.196-1.054 7.071-2.929c1.875-1.875 2.929-4.42 2.929-7.071s-1.054-5.196-2.929-7.071c-1.875-1.875-4.42-2.929-7.071-2.929z" fill="#f7fcff"/></g><g><path d="M3074.5 90.706895h-26v20h26c2.651 0 5.196-1.054 7.071-2.929 1.875-1.875 2.929-4.42 2.929-7.071s-1.054-5.196-2.929-7.071c-1.875-1.875-4.42-2.929-7.071-2.929z" fill="#d9d6ec"/><path d="M3048.5 90.706895h-26v20h26c2.651 0 5.196-1.054 7.071-2.929 1.875-1.875 2.929-4.42 2.929-7.071s-1.054-5.196-2.929-7.071c-1.875-1.875-4.42-2.929-7.071-2.929z" fill="#e0e6f5"/><path d="M3022.5 90.706895c-2.651 0-5.196 1.054-7.071 2.929-1.875 1.875-2.929 4.42-2.929 7.071s1.054 5.196 2.929 7.071c1.875 1.875 4.42 2.929 7.071 2.929s5.196-1.054 7.071-2.929c1.875-1.875 2.929-4.42 2.929-7.071s-1.054-5.196-2.929-7.071c-1.875-1.875-4.42-2.929-7.071-2.929z" fill="#f7fcff"/></g></g><g><path d="M3152.5 39.163012h17v47.400911h-17z" fill="#e0e6f5"/><path d="M3169.5 39.163012h16v47.400911h-16z" fill="#d9d6ec"/><path d="M3169.61 83.601366v17.775342h-32.11V22.37519h32.11v19.75038h-14.11v5.925113h14.11v5.925114h-14.11v5.925114h14.11v5.925114h-14.11v5.925114h14.11v5.925113h-14.11v5.925114h14.11z" fill="#f7fcff"/><path d="M3169.61 83.601366v17.775342h25.89V22.37519h-25.89v19.75038h10.89v5.925113h-10.89v5.925114h10.89v5.925114h-10.89v5.925114h10.89v5.925114h-10.89v5.925113h3.89v5.925114h-3.89z" fill="#ecf3fb"/><g><path d="M3235.879393 25.511463c-2.962288-.421786-5.972823-.386809-8.924512.103688-2.379343.414425-4.70091 1.10686-6.918245 2.063872-2.04891.856872-4.026528 1.87457-5.915111 3.043962-2.48994 1.394564-4.801877 3.086567-6.883682 5.038709-.42167.411515-.754786.762497-.980092 1.003133l.184335 15.865799 8.977638-9.188702 2.507833 2.450229 19.415612-19.872071z" fill="#fdd752"/><path d="M3237.323567 26.040144l-19.39601 19.852009 1.524648 1.479823-9.52649 9.750456 17.105315-.198736c.587824-.621713 1.37109-1.493632 2.241183-2.574827 2.401403-3.039834 4.364689-6.400862 5.834465-9.98525 1.544539-3.466246 2.507222-7.16276 2.848107-10.942299.163427-1.981424.140293-3.972582-.069125-5.949674zm-36.634617 32.478874l-.311747-15.73539 5.880548-6.0188.184335 15.865798-5.753136 5.888392z" fill="#f8bd3f"/><path d="M3210.219859 56.831408l17.095397-.198621-5.743336 5.878361-17.095397.198621 5.743336-5.878361z" fill="#fd9326"/><path d="M3189.947147 69.51336l-.35095-15.695266 10.781006-11.034467.184335 15.865799-10.61439 10.863934z" fill="#fdd752"/><path d="M3218.41326 65.50325l-7.761402 8.024146-16.946656.196892 10.868869-11.154497 13.81316-.160486 3.233579.04177-3.20755 3.052176z" fill="#f8bd3f"/><path d="M3176.265082 83.518092l39.482004-40.410223 2.3333 2.280685-39.482004 40.410223z" fill="#ca7a33"/><path d="M3178.603351 85.79971l39.482004-40.410222 1.695296 1.656354-39.482005 40.410223z" fill="#b1532b"/></g><g><path d="M3199.5 12.325266h-26v20h26c2.651 0 5.196-1.054 7.071-2.929 1.875-1.875 2.929-4.42 2.929-7.071s-1.054-5.196-2.929-7.071c-1.875-1.875-4.42-2.929-7.071-2.929z" fill="#d9d6ec"/><path d="M3173.5 12.325266h-26v20h26c2.651 0 5.196-1.054 7.071-2.929 1.875-1.875 2.929-4.42 2.929-7.071s-1.054-5.196-2.929-7.071c-1.875-1.875-4.42-2.929-7.071-2.929z" fill="#e0e6f5"/><path d="M3147.5 12.325266c-2.651 0-5.196 1.054-7.071 2.929-1.875 1.875-2.929 4.42-2.929 7.071s1.054 5.196 2.929 7.071c1.875 1.875 4.42 2.929 7.071 2.929s5.196-1.054 7.071-2.929c1.875-1.875 2.929-4.42 2.929-7.071s-1.054-5.196-2.929-7.071c-1.875-1.875-4.42-2.929-7.071-2.929z" fill="#f7fcff"/></g><g><path d="M3199.5 91.293501h-26v20h26c2.651 0 5.196-1.054 7.071-2.929 1.875-1.875 2.929-4.42 2.929-7.071s-1.054-5.196-2.929-7.071c-1.875-1.875-4.42-2.929-7.071-2.929z" fill="#d9d6ec"/><path d="M3173.5 91.293501h-26v20h26c2.651 0 5.196-1.054 7.071-2.929 1.875-1.875 2.929-4.42 2.929-7.071s-1.054-5.196-2.929-7.071c-1.875-1.875-4.42-2.929-7.071-2.929z" fill="#e0e6f5"/><path d="M3147.5 91.293501c-2.651 0-5.196 1.054-7.071 2.929-1.875 1.875-2.929 4.42-2.929 7.071s1.054 5.196 2.929 7.071c1.875 1.875 4.42 2.929 7.071 2.929s5.196-1.054 7.071-2.929c1.875-1.875 2.929-4.42 2.929-7.071s-1.054-5.196-2.929-7.071c-1.875-1.875-4.42-2.929-7.071-2.929z" fill="#f7fcff"/></g></g><g><path d="M3277.5 39.290754h17v47.628008h-17z" fill="#e0e6f5"/><path d="M3294.5 39.290754h16v47.628008h-16z" fill="#d9d6ec"/><path d="M3294.61 83.942012v17.860503h-32.11V22.422502h32.11v19.845003h-14.11v5.9535h14.11v5.953502h-14.11v5.9535h14.11v5.953502h-14.11v5.9535h14.11v5.953502h-14.11v5.9535h14.11z" fill="#f7fcff"/><path d="M3294.61 83.942012v17.860503h25.89V22.422502h-25.89v19.845003h10.89v5.9535h-10.89v5.953502h10.89v5.9535h-10.89v5.953502h10.89v5.9535h-10.89v5.953502h3.89v5.9535h-3.89z" fill="#ecf3fb"/><g><path d="M3360.737432 25.884168c-2.969817-.436211-5.990053-.414423-8.953268.064589-2.388719.405227-4.720706 1.0896-6.9493 2.03985-2.059192.850537-4.047578 1.862726-5.947316 3.027483-2.503996 1.387985-4.83074 3.075139-6.92777 5.024273-.424825.410957-.760547.76158-.98763 1.001984l.114824 15.916921 9.0467-9.178174 2.50496 2.469077 19.56497-19.849305z" fill="#fdd752"/><path d="M3362.18385 26.420906l-19.545218 19.829265 1.522944 1.491251-9.599773 9.739286 17.16043-.123796c.592435-.621086 1.382038-1.49231 2.259666-2.57309 2.422447-3.038863 4.406807-6.401874 5.89708-9.991134 1.56475-3.470414 2.546816-7.174396 2.90548-10.964413.1727-1.986985.15829-3.984558-.043059-5.968845zm-36.894272 32.420009l-.243217-15.786663 5.925786-6.011905.114825 15.916921-5.797394 5.881647z" fill="#f8bd3f"/><path d="M3334.858164 57.19006l17.150482-.123723-5.787518 5.871627-17.150482.123724 5.787518-5.871627z" fill="#fd9326"/><path d="M3314.465142 69.82266l-.282722-15.746583 10.863941-11.021825.114825 15.91692-10.696044 10.851489z" fill="#fdd752"/><path d="M3343.039234 65.925599l-7.821463 8.015299-17.001261.122647 10.952612-11.141848 13.85767-.09997 3.243646.05619-3.231204 3.047682z" fill="#f8bd3f"/><path d="M3300.67782 83.811353l39.785728-40.363927 2.330622 2.298224-39.785728 40.363928z" fill="#ca7a33"/><path d="M3303.013424 86.110537l39.785727-40.363928 1.693353 1.669097-39.785727 40.363927z" fill="#b1532b"/></g><g><path d="M3324.5 12.391502h-26v20h26c2.651 0 5.196-1.054 7.071-2.929 1.875-1.875 2.929-4.42 2.929-7.071s-1.054-5.196-2.929-7.071c-1.875-1.875-4.42-2.929-7.071-2.929z" fill="#d9d6ec"/><path d="M3298.5 12.391502h-26v20h26c2.651 0 5.196-1.054 7.071-2.929 1.875-1.875 2.929-4.42 2.929-7.071s-1.054-5.196-2.929-7.071c-1.875-1.875-4.42-2.929-7.071-2.929z" fill="#e0e6f5"/><path d="M3272.5 12.391502c-2.651 0-5.196 1.054-7.071 2.929-1.875 1.875-2.929 4.42-2.929 7.071s1.054 5.196 2.929 7.071c1.875 1.875 4.42 2.929 7.071 2.929s5.196-1.054 7.071-2.929c1.875-1.875 2.929-4.42 2.929-7.071s-1.054-5.196-2.929-7.071c-1.875-1.875-4.42-2.929-7.071-2.929z" fill="#f7fcff"/></g><g><path d="M3324.5 91.750849h-26v20h26c2.651 0 5.196-1.054 7.071-2.929 1.875-1.875 2.929-4.42 2.929-7.071s-1.054-5.196-2.929-7.071c-1.875-1.875-4.42-2.929-7.071-2.929z" fill="#d9d6ec"/><path d="M3298.5 91.750849h-26v20h26c2.651 0 5.196-1.054 7.071-2.929 1.875-1.875 2.929-4.42 2.929-7.071s-1.054-5.196-2.929-7.071c-1.875-1.875-4.42-2.929-7.071-2.929z" fill="#e0e6f5"/><path d="M3272.5 91.750849c-2.651 0-5.196 1.054-7.071 2.929-1.875 1.875-2.929 4.42-2.929 7.071s1.054 5.196 2.929 7.071c1.875 1.875 4.42 2.929 7.071 2.929s5.196-1.054 7.071-2.929c1.875-1.875 2.929-4.42 2.929-7.071s-1.054-5.196-2.929-7.071c-1.875-1.875-4.42-2.929-7.071-2.929z" fill="#f7fcff"/></g></g><g><path d="M3402.5 39.385667h17v47.796741h-17z" fill="#e0e6f5"/><path d="M3419.5 39.385667h16v47.796741h-16z" fill="#d9d6ec"/><path d="M3419.61 84.195112v17.923778h-32.11V22.457654h32.11v19.91531h-14.11v5.974592h14.11v5.974593h-14.11v5.974592h14.11v5.974593h-14.11v5.974593h14.11v5.974592h-14.11v5.974593h14.11z" fill="#f7fcff"/><path d="M3419.61 84.195112v17.923778h25.89V22.457654h-25.89v19.91531h10.89v5.974592h-10.89v5.974593h10.89v5.974592h-10.89v5.974593h10.89v5.974593h-10.89v5.974592h3.89v5.974593h-3.89z" fill="#ecf3fb"/><g><path d="M3485.63049 26.162688c-2.975366-.446977-6.002772-.435044-8.974522.035375-2.395662.398345-4.735375 1.076679-6.972324 2.021852-2.066821.845782-4.0632 1.853828-5.971223 3.015091-2.514435 1.383035-4.85218 3.066523-6.960532 5.01336-.427171.41053-.764833.760876-.993239 1.0011l.06289 15.954708 9.098065-9.170074 2.50275 2.483096 19.676058-19.831786z" fill="#fdd752"/><path d="M3487.078548 26.705432l-19.656193 19.811764 1.521632 1.499751-9.65428 9.73069 17.20117-.067802c.595864-.620603 1.39018-1.491285 2.273416-2.571726 2.438107-3.03806 4.438162-6.402468 5.94371-9.995275 1.579809-3.473439 2.576333-7.182905 2.94827-10.980653.179623-1.99109.17173-3.993405-.023583-5.983016zm-37.08732 32.375197l-.19201-15.824564 5.959432-6.006599.06289 15.954708-5.830312 5.876455z" fill="#f8bd3f"/><path d="M3459.587718 57.457279l17.191198-.067763-5.820379 5.866445-17.191197.067763 5.820378-5.866445z" fill="#fd9326"/><path d="M3439.105333 70.052683l-.23174-15.78452 10.925625-11.012098.06289 15.954707-10.756775 10.841911z" fill="#fdd752"/><path d="M3467.759365 66.240182l-7.866135 8.008483-17.041622.067174 11.014899-11.132112 13.890567-.054753 3.251086.06696-3.248795 3.044248z" fill="#f8bd3f"/><path d="M3425.239725 84.029033l40.011626-40.328303 2.328562 2.31127-40.011626 40.328303z" fill="#ca7a33"/><path d="M3427.573277 86.34128l40.011626-40.328303 1.691859 1.678574-40.011626 40.328303z" fill="#b1532b"/></g><g><path d="M3449.5 12.440716h-26v20h26c2.651 0 5.196-1.054 7.071-2.929 1.875-1.875 2.929-4.42 2.929-7.071s-1.054-5.196-2.929-7.071c-1.875-1.875-4.42-2.929-7.071-2.929z" fill="#d9d6ec"/><path d="M3423.5 12.440716h-26v20h26c2.651 0 5.196-1.054 7.071-2.929 1.875-1.875 2.929-4.42 2.929-7.071s-1.054-5.196-2.929-7.071c-1.875-1.875-4.42-2.929-7.071-2.929z" fill="#e0e6f5"/><path d="M3397.5 12.440716c-2.651 0-5.196 1.054-7.071 2.929-1.875 1.875-2.929 4.42-2.929 7.071s1.054 5.196 2.929 7.071c1.875 1.875 4.42 2.929 7.071 2.929s5.196-1.054 7.071-2.929c1.875-1.875 2.929-4.42 2.929-7.071s-1.054-5.196-2.929-7.071c-1.875-1.875-4.42-2.929-7.071-2.929z" fill="#f7fcff"/></g><g><path d="M3449.5 92.09066h-26v20h26c2.651 0 5.196-1.054 7.071-2.929 1.875-1.875 2.929-4.42 2.929-7.071s-1.054-5.196-2.929-7.071c-1.875-1.875-4.42-2.929-7.071-2.929z" fill="#d9d6ec"/><path d="M3423.5 92.09066h-26v20h26c2.651 0 5.196-1.054 7.071-2.929 1.875-1.875 2.929-4.42 2.929-7.071s-1.054-5.196-2.929-7.071c-1.875-1.875-4.42-2.929-7.071-2.929z" fill="#e0e6f5"/><path d="M3397.5 92.09066c-2.651 0-5.196 1.054-7.071 2.929-1.875 1.875-2.929 4.42-2.929 7.071s1.054 5.196 2.929 7.071c1.875 1.875 4.42 2.929 7.071 2.929s5.196-1.054 7.071-2.929c1.875-1.875 2.929-4.42 2.929-7.071s-1.054-5.196-2.929-7.071c-1.875-1.875-4.42-2.929-7.071-2.929z" fill="#f7fcff"/></g></g><g><path d="M3527.5 39.450584h17v47.91215h-17z" fill="#e0e6f5"/><path d="M3544.5 39.450584h16v47.91215h-16z" fill="#d9d6ec"/><path d="M3544.61 84.368224v17.967056h-32.11V22.481698h32.11v19.963395h-14.11v5.989019h14.11v5.989019h-14.11v5.989018h14.11v5.989019h-14.11v5.989018h14.11v5.98902h-14.11v5.989018h14.11z" fill="#f7fcff"/><path d="M3544.61 84.368224v17.967056h25.89V22.481698h-25.89v19.963395h10.89v5.989019h-10.89v5.989019h10.89v5.989018h-10.89v5.989019h10.89v5.989018h-10.89v5.98902h3.89v5.989018h-3.89z" fill="#ecf3fb"/><g><path d="M3610.556624 26.353968c-2.97914-.454364-6.011431-.449198-8.989006.015314-2.4004.393615-4.745388 1.067792-6.988045 2.009468-2.072035.842506-4.073878 1.847695-5.987566 3.006545-2.52157 1.379618-4.86684 3.060567-6.98294 5.005803-.428778.41023-.767767.760382-.997078 1.00048l.027225 15.980454 9.133224-9.164396 2.5012 2.492692 19.752092-19.819509z" fill="#fdd752"/><path d="M3612.005789 26.90083l-19.73215 19.799498 1.520712 1.505569-9.691587 9.724665 17.228927-.029352c.598212-.620264 1.395755-1.490562 2.28283-2.570757 2.44883-3.03747 4.459637-6.402795 5.975654-9.997994 1.590132-3.475471 2.59657-7.188657 2.977618-10.991667.184374-1.993881.180958-3.999428-.010209-5.99267zm-37.219416 32.34402l-.156845-15.850392 5.982461-6.00288.027225 15.980454-5.85284 5.872818z" fill="#f8bd3f"/><path d="M3584.401904 57.640406l17.21894-.029335-5.84287 5.862812-17.21894.029335 5.84287-5.862812z" fill="#fd9326"/><path d="M3563.858411 70.21011l-.196728-15.810373 10.967845-11.00528.027225 15.980455-10.798342 10.835198z" fill="#fdd752"/><path d="M3592.566978 66.455722l-7.896713 8.003704-17.069123.02908 11.057531-11.125287 13.912983-.023703 3.256154.074356-3.260832 3.04185z" fill="#f8bd3f"/><path d="M3549.93922 84.17781l40.166244-40.303336 2.327118 2.3202-40.166243 40.303335z" fill="#ca7a33"/><path d="M3552.271334 86.498999l40.166243-40.303335 1.690811 1.68506-40.166243 40.303335z" fill="#b1532b"/></g><g><path d="M3574.5 12.474377h-26v20h26c2.651 0 5.196-1.054 7.071-2.929 1.875-1.875 2.929-4.42 2.929-7.071s-1.054-5.196-2.929-7.071c-1.875-1.875-4.42-2.929-7.071-2.929z" fill="#d9d6ec"/><path d="M3548.5 12.474377h-26v20h26c2.651 0 5.196-1.054 7.071-2.929 1.875-1.875 2.929-4.42 2.929-7.071s-1.054-5.196-2.929-7.071c-1.875-1.875-4.42-2.929-7.071-2.929z" fill="#e0e6f5"/><path d="M3522.5 12.474377c-2.651 0-5.196 1.054-7.071 2.929-1.875 1.875-2.929 4.42-2.929 7.071s1.054 5.196 2.929 7.071c1.875 1.875 4.42 2.929 7.071 2.929s5.196-1.054 7.071-2.929c1.875-1.875 2.929-4.42 2.929-7.071s-1.054-5.196-2.929-7.071c-1.875-1.875-4.42-2.929-7.071-2.929z" fill="#f7fcff"/></g><g><path d="M3574.5 92.323078h-26v20h26c2.651 0 5.196-1.054 7.071-2.929 1.875-1.875 2.929-4.42 2.929-7.071s-1.054-5.196-2.929-7.071c-1.875-1.875-4.42-2.929-7.071-2.929z" fill="#d9d6ec"/><path d="M3548.5 92.323078h-26v20h26c2.651 0 5.196-1.054 7.071-2.929 1.875-1.875 2.929-4.42 2.929-7.071s-1.054-5.196-2.929-7.071c-1.875-1.875-4.42-2.929-7.071-2.929z" fill="#e0e6f5"/><path d="M3522.5 92.323078c-2.651 0-5.196 1.054-7.071 2.929-1.875 1.875-2.929 4.42-2.929 7.071s1.054 5.196 2.929 7.071c1.875 1.875 4.42 2.929 7.071 2.929s5.196-1.054 7.071-2.929c1.875-1.875 2.929-4.42 2.929-7.071s-1.054-5.196-2.929-7.071c-1.875-1.875-4.42-2.929-7.071-2.929z" fill="#f7fcff"/></g></g><g><path d="M3652.5 39.487974h17v47.97862h-17z" fill="#e0e6f5"/><path d="M3669.5 39.487974h16v47.97862h-16z" fill="#d9d6ec"/><path d="M3669.61 84.46793v17.991982h-32.11V22.495546h32.11v19.991091h-14.11v5.997328h14.11v5.997327h-14.11v5.997328h14.11v5.997327h-14.11v5.997328h14.11v5.997327h-14.11v5.997327h14.11z" fill="#f7fcff"/><path d="M3669.61 84.46793v17.991982h25.89V22.495546h-25.89v19.991091h10.89v5.997328h-10.89v5.997327h10.89v5.997328h-10.89v5.997327h10.89v5.997328h-10.89v5.997327h3.89v5.997327h-3.89z" fill="#ecf3fb"/><g><path d="M3735.513812 26.464426c-2.981305-.458627-6.016403-.457369-8.997327.00373-2.403124.390881-4.751148 1.062656-6.997091 2.002308-2.075035.840611-4.080024 1.844145-5.996975 3.001596-2.525678 1.377638-4.875284 3.057114-6.995848 5.001416-.429702.410057-.769456.760094-.999288 1.000118l.006632 15.995247 9.153482-9.161076 2.500294 2.498221 19.795904-19.812326z" fill="#fdd752"/><path d="M3736.96361 27.013662l-19.77592 19.792324 1.520175 1.508922-9.713084 9.721142 17.244876-.00715c.599565-.620065 1.398967-1.490138 2.288255-2.570186 2.455011-3.037117 4.472016-6.402954 5.994073-9.999517 1.596084-3.47663 2.608242-7.191946 2.99455-10.997976.187116-1.995485.186284-4.002889-.002488-5.998218zM3699.66809 59.33953l-.13654-15.865232 5.995732-6.000705.006632 15.995247-5.865824 5.87069z" fill="#f8bd3f"/><path d="M3709.294572 57.746011l17.234879-.007145-5.85583 5.860688-17.23488.007146 5.85583-5.860689z" fill="#fd9326"/><path d="M3688.71589 70.300818l-.176511-15.825227 10.992173-11.001292.006632 15.995247-10.822294 10.831272z" fill="#fdd752"/><path d="M3717.455812 66.580003l-7.914331 8.000907-17.084924.007084 11.082097-11.121294 13.925862-.005774 3.259065.078625-3.267769 3.040452z" fill="#f8bd3f"/><path d="M3674.765823 84.263458l40.255337-40.288732 2.326273 2.325344-40.255336 40.288732z" fill="#ca7a33"/><path d="M3677.097096 86.5898l40.255336-40.288732 1.690199 1.688798-40.255337 40.288731z" fill="#b1532b"/></g><g><path d="M3699.5 12.493764h-26v20h26c2.651 0 5.196-1.054 7.071-2.929 1.875-1.875 2.929-4.42 2.929-7.071s-1.054-5.196-2.929-7.071c-1.875-1.875-4.42-2.929-7.071-2.929z" fill="#d9d6ec"/><path d="M3673.5 12.493764h-26v20h26c2.651 0 5.196-1.054 7.071-2.929 1.875-1.875 2.929-4.42 2.929-7.071s-1.054-5.196-2.929-7.071c-1.875-1.875-4.42-2.929-7.071-2.929z" fill="#e0e6f5"/><path d="M3647.5 12.493764c-2.651 0-5.196 1.054-7.071 2.929-1.875 1.875-2.929 4.42-2.929 7.071s1.054 5.196 2.929 7.071c1.875 1.875 4.42 2.929 7.071 2.929s5.196-1.054 7.071-2.929c1.875-1.875 2.929-4.42 2.929-7.071s-1.054-5.196-2.929-7.071c-1.875-1.875-4.42-2.929-7.071-2.929z" fill="#f7fcff"/></g><g><path d="M3699.5 92.456942h-26v20h26c2.651 0 5.196-1.054 7.071-2.929 1.875-1.875 2.929-4.42 2.929-7.071s-1.054-5.196-2.929-7.071c-1.875-1.875-4.42-2.929-7.071-2.929z" fill="#d9d6ec"/><path d="M3673.5 92.456942h-26v20h26c2.651 0 5.196-1.054 7.071-2.929 1.875-1.875 2.929-4.42 2.929-7.071s-1.054-5.196-2.929-7.071c-1.875-1.875-4.42-2.929-7.071-2.929z" fill="#e0e6f5"/><path d="M3647.5 92.456942c-2.651 0-5.196 1.054-7.071 2.929-1.875 1.875-2.929 4.42-2.929 7.071s1.054 5.196 2.929 7.071c1.875 1.875 4.42 2.929 7.071 2.929s5.196-1.054 7.071-2.929c1.875-1.875 2.929-4.42 2.929-7.071s-1.054-5.196-2.929-7.071c-1.875-1.875-4.42-2.929-7.071-2.929z" fill="#f7fcff"/></g></g><g><path d="M3777.5 39.5h17v48h-17z" fill="#e0e6f5"/><path d="M3794.5 39.5h16v48h-16z" fill="#d9d6ec"/><path d="M3794.61 84.5v18h-32.11v-80h32.11v20h-14.11v6h14.11v6h-14.11v6h14.11v6h-14.11v6h14.11v6h-14.11v6h14.11z" fill="#f7fcff"/><path d="M3794.61 84.5v18h25.89v-80h-25.89v20h10.89v6h-10.89v6h10.89v6h-10.89v6h10.89v6h-10.89v6h3.89v6h-3.89z" fill="#ecf3fb"/><g><path d="M3860.5 26.5c-2.982-.46-6.018-.46-9 0-2.404.39-4.753 1.061-7 2-2.076.84-4.082 1.843-6 3-2.527 1.377-4.878 3.056-7 5-.43.41-.77.76-1 1v16l9.16-9.16 2.5 2.5 19.81-19.81z" fill="#fdd752"/><path d="M3861.95 27.05l-19.79 19.79 1.52 1.51-9.72 9.72h17.25c.6-.62 1.4-1.49 2.29-2.57 2.457-3.037 4.476-6.403 6-10 1.598-3.477 2.612-7.193 3-11 .188-1.996.188-4.004 0-6zm-37.32 32.32l-.13-15.87 6-6v16l-5.87 5.87z" fill="#f8bd3f"/><path d="M3834.26 57.78h17.24l-5.86 5.86h-17.24l5.86-5.86z" fill="#fd9326"/><path d="M3813.67 70.33l-.17-15.83 11-11v16l-10.83 10.83z" fill="#fdd752"/><path d="M3842.42 66.62l-7.92 8h-17.09l11.09-11.12h13.93l3.26.08-3.27 3.04z" fill="#f8bd3f"/><path d="M3799.71 84.291l40.284-40.284 2.326 2.327-40.284 40.284z" fill="#ca7a33"/><path d="M3802.041 86.619l40.284-40.284 1.69 1.69-40.284 40.284z" fill="#b1532b"/></g><g><path d="M3824.5 12.5h-26v20h26c2.651 0 5.196-1.054 7.071-2.929 1.875-1.875 2.929-4.42 2.929-7.071s-1.054-5.196-2.929-7.071c-1.875-1.875-4.42-2.929-7.071-2.929z" fill="#d9d6ec"/><path d="M3798.5 12.5h-26v20h26c2.651 0 5.196-1.054 7.071-2.929 1.875-1.875 2.929-4.42 2.929-7.071s-1.054-5.196-2.929-7.071c-1.875-1.875-4.42-2.929-7.071-2.929z" fill="#e0e6f5"/><path d="M3772.5 12.5c-2.651 0-5.196 1.054-7.071 2.929-1.875 1.875-2.929 4.42-2.929 7.071s1.054 5.196 2.929 7.071c1.875 1.875 4.42 2.929 7.071 2.929s5.196-1.054 7.071-2.929c1.875-1.875 2.929-4.42 2.929-7.071s-1.054-5.196-2.929-7.071c-1.875-1.875-4.42-2.929-7.071-2.929z" fill="#f7fcff"/></g><g><path d="M3824.5 92.5h-26v20h26c2.651 0 5.196-1.054 7.071-2.929 1.875-1.875 2.929-4.42 2.929-7.071s-1.054-5.196-2.929-7.071c-1.875-1.875-4.42-2.929-7.071-2.929z" fill="#d9d6ec"/><path d="M3798.5 92.5h-26v20h26c2.651 0 5.196-1.054 7.071-2.929 1.875-1.875 2.929-4.42 2.929-7.071s-1.054-5.196-2.929-7.071c-1.875-1.875-4.42-2.929-7.071-2.929z" fill="#e0e6f5"/><path d="M3772.5 92.5c-2.651 0-5.196 1.054-7.071 2.929-1.875 1.875-2.929 4.42-2.929 7.071s1.054 5.196 2.929 7.071c1.875 1.875 4.42 2.929 7.071 2.929s5.196-1.054 7.071-2.929c1.875-1.875 2.929-4.42 2.929-7.071s-1.054-5.196-2.929-7.071c-1.875-1.875-4.42-2.929-7.071-2.929z" fill="#f7fcff"/></g></g></svg>