<svg xmlns="http://www.w3.org/2000/svg" viewBox="0 0 1900 200" width="950" height="100"><g stroke-miterlimit="10"><path d="M92.13 124.19l-64.01 18.94c-.46.14-.94-.13-1.07-.58L1.29 55.52c-.14-.46.13-.94.58-1.07l64.01-18.94c.46-.14.94.13 1.07.58l25.75 87.02c.14.46-.12.94-.57 1.08z" fill="#c2e8ff" stroke="#7496c4"/><path d="M82.7 27.2L63.64 57.71c-.54.87-1.68 1.13-2.55.59l-7.6-4.75c-.87-.54-1.13-1.68-.59-2.55l19.05-30.5c.54-.87.28-2-.59-2.55L60.8 11.36c-1.4-.87-1.04-3 .57-3.37l28.59-6.56c.99-.23 1.98.39 2.21 1.38l6.61 28.44c.37 1.6-1.37 2.85-2.77 1.99l-10.78-6.63c-.86-.54-2-.27-2.53.59z" fill="#8bb7f0" stroke="#4e7ab5"/></g><g stroke-miterlimit="10"><path d="M191.644 122.633l-64.163 17.888c-.461.132-.935-.144-1.058-.595l-24.329-87.238c-.132-.461.144-.935.595-1.058l64.163-17.888c.461-.132.935.145 1.058.596l24.319 87.227c.133.461-.134.936-.585 1.068z" fill="#c2e8ff" stroke="#7496c4"/><path d="M181.631 28.809l-20 28.815c-.567.822-1.689 1.022-2.511.455l-7.178-4.984c-.821-.567-1.021-1.689-.454-2.511l19.989-28.806c.567-.821.367-1.935-.454-2.511l-9.974-6.915c-1.322-.914-.871-2.971.714-3.255l28.153-5.042c.975-.177 1.91.473 2.087 1.448l5.097 28.008c.285 1.576-1.468 2.711-2.791 1.808l-10.186-6.965c-.813-.566-1.936-.357-2.492.455z" fill="#8bb7f0" stroke="#4e7ab5"/></g><g stroke-miterlimit="10"><path d="M291.158 121.077l-64.316 16.835c-.462.125-.931-.159-1.046-.611l-22.898-87.444c-.125-.463.159-.931.611-1.047l64.314-16.836c.463-.124.931.159 1.047.612l22.889 87.434c.125.462-.149.932-.601 1.057z" fill="#c2e8ff" stroke="#7496c4"/><path d="M280.561 30.419l-20.939 27.12c-.593.773-1.699.912-2.472.319l-6.756-5.218c-.773-.593-.912-1.699-.318-2.472l20.928-27.111c.594-.774.455-1.87-.318-2.473l-9.387-7.241c-1.245-.956-.703-2.941.857-3.14l27.715-3.523c.96-.124 1.84.557 1.965 1.517l3.584 27.575c.2 1.551-1.567 2.572-2.812 1.626l-9.592-7.299c-.766-.593-1.872-.445-2.455.32z" fill="#8bb7f0" stroke="#4e7ab5"/></g><g stroke-miterlimit="10"><path d="M390.672 119.52l-64.469 15.783c-.463.117-.926-.173-1.035-.626l-21.466-87.652c-.117-.463.173-.927.626-1.035l64.467-15.783c.463-.117.927.173 1.035.626l21.458 87.642c.119.463-.163.928-.616 1.045z" fill="#c2e8ff" stroke="#7496c4"/><path d="M379.492 32.028l-21.879 25.425c-.62.725-1.708.804-2.433.184l-6.333-5.452c-.725-.62-.804-1.708-.184-2.433l21.869-25.417c.62-.725.541-1.805-.184-2.433l-8.8-7.567c-1.166-1-.535-2.912 1-3.025l27.279-2.005c.945-.072 1.77.64 1.841 1.585l2.072 27.143c.115 1.527-1.665 2.434-2.833 1.444l-8.999-7.634c-.718-.62-1.806-.531-2.416.185z" fill="#8bb7f0" stroke="#4e7ab5"/></g><g stroke-miterlimit="10"><path d="M490.186 117.963l-64.622 14.731c-.464.109-.922-.187-1.023-.642l-20.035-87.859c-.109-.464.187-.922.642-1.023l64.619-14.731c.464-.109.922.188 1.023.642l20.028 87.849c.111.464-.178.924-.632 1.033z" fill="#c2e8ff" stroke="#7496c4"/><path d="M478.422 33.638l-22.818 23.73c-.646.676-1.717.694-2.394.048l-5.911-5.686c-.677-.647-.695-1.718-.048-2.394l22.808-23.723c.647-.676.629-1.74-.048-2.394l-8.213-7.892c-1.089-1.044-.367-2.883 1.143-2.91l26.841-.487c.93-.019 1.7.723 1.719 1.653l.559 26.711c.03 1.503-1.763 2.295-2.854 1.262l-8.405-7.968c-.671-.647-1.742-.619-2.379.05z" fill="#8bb7f0" stroke="#4e7ab5"/></g><g stroke-miterlimit="10"><path d="M589.699 116.407l-64.773 13.679c-.466.101-.918-.203-1.012-.658l-18.605-88.066c-.101-.466.203-.918.658-1.012l64.771-13.679c.466-.101.918.202 1.012.658l18.597 88.056c.104.466-.192.921-.648 1.022z" fill="#c2e8ff" stroke="#7496c4"/><path d="M577.353 35.247l-23.757 22.035c-.674.629-1.728.586-2.356-.088l-5.489-5.919c-.628-.673-.585-1.727.088-2.356l23.747-22.027c.673-.629.716-1.675.088-2.356l-7.627-8.218c-1.011-1.086-.198-2.852 1.287-2.795l26.404 1.032c.915.034 1.63.807 1.596 1.722l-.954 26.279c-.055 1.477-1.862 2.155-2.876 1.078l-7.81-8.302c-.624-.673-1.678-.706-2.341-.085z" fill="#8bb7f0" stroke="#4e7ab5"/></g><g stroke-miterlimit="10"><path d="M689.213 114.85l-64.926 12.627c-.467.093-.914-.217-1-.674L606.113 38.53c-.093-.467.217-.913.674-1l64.923-12.627c.467-.093.913.217 1 .674l17.167 88.263c.096.467-.207.917-.664 1.01z" fill="#c2e8ff" stroke="#7496c4"/><path d="M676.283 36.857l-24.696 20.34c-.7.58-1.737.476-2.317-.224l-5.067-6.153c-.58-.7-.476-1.737.224-2.317l24.686-20.333c.7-.58.804-1.61.224-2.317l-7.04-8.543c-.934-1.13-.03-2.823 1.43-2.68l25.966 2.55c.9.087 1.56.89 1.474 1.79L688.7 44.817c-.14 1.453-1.96 2.016-2.897.896l-7.216-8.636c-.577-.7-1.614-.794-2.304-.22z" fill="#8bb7f0" stroke="#4e7ab5"/></g><g stroke-miterlimit="10"><path d="M788.727 113.293l-65.079 11.575c-.468.085-.909-.231-.989-.689l-15.742-88.481c-.085-.467.231-.909.689-.988l65.076-11.574c.467-.086.909.231.988.688l15.736 88.471c.09.468-.221.913-.679.998z" fill="#c2e8ff" stroke="#7496c4"/><path d="M775.214 38.466l-25.636 18.645c-.727.532-1.746.368-2.278-.359l-4.644-6.387c-.532-.727-.368-1.746.358-2.278l25.627-18.639c.726-.531.89-1.545.358-2.277l-6.453-8.869c-.855-1.174.138-2.794 1.573-2.565l25.53 4.068c.885.139 1.49.973 1.35 1.858l-3.979 25.415c-.225 1.429-2.058 1.878-2.918.714l-6.623-8.971c-.529-.727-1.548-.88-2.265-.355z" fill="#8bb7f0" stroke="#4e7ab5"/></g><g stroke-miterlimit="10"><path d="M888.241 111.737l-65.232 10.522c-.469.078-.905-.246-.977-.705l-14.311-88.687c-.078-.469.246-.905.705-.977l65.227-10.522c.469-.078.905.245.977.704l14.306 88.678c.082.469-.236.909-.695.987z" fill="#c2e8ff" stroke="#7496c4"/><path d="M874.144 40.076l-26.575 16.95c-.753.483-1.756.258-2.239-.495l-4.222-6.621c-.484-.753-.259-1.756.494-2.239l26.566-16.944c.753-.484.978-1.48.494-2.239l-5.866-9.195c-.778-1.216.306-2.764 1.716-2.45l25.092 5.587c.87.192 1.42 1.057 1.228 1.927l-5.492 24.982c-.31 1.404-2.157 1.739-2.939.532l-6.029-9.305c-.482-.754-1.484-.968-2.228-.49z" fill="#8bb7f0" stroke="#4e7ab5"/></g><g stroke-miterlimit="10"><path d="M987.755 110.18l-65.385 9.47c-.47.07-.9-.26-.965-.72l-12.88-88.895c-.07-.47.26-.9.72-.965l65.38-9.47c.47-.07.9.26.965.72l12.875 88.885c.075.47-.25.905-.71.975z" fill="#c2e8ff" stroke="#7496c4"/><path d="M973.075 41.685L945.56 56.94c-.78.435-1.765.15-2.2-.63l-3.8-6.855c-.435-.78-.15-1.765.63-2.2l27.505-15.25c.78-.435 1.065-1.415.63-2.2l-5.28-9.52c-.7-1.26.475-2.735 1.86-2.335l24.655 7.105c.855.245 1.35 1.14 1.105 1.995L983.66 51.6c-.395 1.38-2.255 1.6-2.96.35l-5.435-9.64c-.435-.78-1.42-1.055-2.19-.625z" fill="#8bb7f0" stroke="#4e7ab5"/></g><g stroke-miterlimit="10"><path d="M1087.269 108.623l-65.538 8.418c-.471.062-.895-.274-.953-.735l-11.449-89.103c-.062-.471.274-.895.735-.953l65.533-8.418c.471-.062.895.275.953.736l11.444 89.092c.068.471-.264.901-.725.963z" fill="#c2e8ff" stroke="#7496c4"/><path d="M1072.006 43.294l-28.455 13.56c-.807.387-1.774.042-2.161-.765L1038.012 49c-.386-.807-.041-1.774.766-2.161l28.444-13.556c.807-.386 1.152-1.35.766-2.161l-4.694-9.845c-.622-1.304.644-2.706 2.004-2.22l24.218 8.623c.84.298 1.28 1.223.982 2.063l-8.518 24.118c-.48 1.356-2.353 1.461-2.981.168l-4.841-9.975c-.388-.806-1.356-1.142-2.152-.76z" fill="#8bb7f0" stroke="#4e7ab5"/></g><g stroke-miterlimit="10"><path d="M1186.783 107.067l-65.691 7.365c-.472.055-.891-.289-.941-.751l-10.018-89.309c-.055-.473.289-.891.751-.942l65.684-7.366c.473-.054.891.289.942.752l10.014 89.299c.06.472-.279.897-.741.952z" fill="#c2e8ff" stroke="#7496c4"/><path d="M1170.936 44.904l-29.394 11.865c-.833.338-1.784-.068-2.122-.901l-2.956-7.323c-.338-.833.068-1.784.902-2.122l29.383-11.861c.834-.339 1.24-1.285.902-2.123l-4.107-10.171c-.545-1.346.812-2.676 2.147-2.105l23.78 10.142c.825.351 1.21 1.307.86 2.132L1180.3 56.122c-.565 1.331-2.452 1.322-3.002-.014l-4.247-10.309c-.341-.833-1.292-1.23-2.115-.895z" fill="#8bb7f0" stroke="#4e7ab5"/></g><g stroke-miterlimit="10"><path d="M1286.297 105.51l-65.844 6.313c-.473.047-.886-.303-.93-.766l-8.586-89.517c-.047-.473.303-.887.766-.93l65.837-6.313c.473-.047.887.303.93.766l8.583 89.507c.054.473-.293.893-.756.94z" fill="#c2e8ff" stroke="#7496c4"/><path d="M1269.867 46.513l-30.334 10.17c-.86.29-1.793-.176-2.083-1.036l-2.533-7.557c-.29-.86.176-1.793 1.036-2.083l30.324-10.167c.86-.29 1.326-1.22 1.036-2.083l-3.52-10.497c-.466-1.39.98-2.647 2.29-1.99l23.344 11.66c.81.403 1.14 1.39.736 2.2l-11.543 23.253c-.65 1.307-2.55 1.184-3.023-.196l-3.654-10.644c-.293-.86-1.226-1.316-2.076-1.03z" fill="#8bb7f0" stroke="#4e7ab5"/></g><g stroke-miterlimit="10"><path d="M1385.811 103.953l-65.997 5.261c-.474.039-.882-.317-.918-.782l-7.155-89.724c-.039-.474.317-.882.782-.918l65.989-5.261c.474-.039.882.318.918.782l7.153 89.714c.046.474-.308.889-.772.928z" fill="#c2e8ff" stroke="#7496c4"/><path d="M1368.797 48.123l-31.273 8.475c-.886.241-1.802-.286-2.044-1.172l-2.111-7.791c-.242-.887.285-1.803 1.172-2.044l31.263-8.473c.887-.241 1.414-1.155 1.172-2.044l-2.933-10.822c-.389-1.434 1.148-2.618 2.433-1.875l22.906 13.178c.795.456 1.07 1.473.614 2.268l-13.056 22.821c-.735 1.283-2.648 1.045-3.044-.378l-3.06-10.978c-.246-.887-1.162-1.404-2.039-1.165z" fill="#8bb7f0" stroke="#4e7ab5"/></g><g stroke-miterlimit="10"><path d="M1485.324 102.397l-66.148 4.209c-.476.031-.878-.333-.907-.798l-5.725-89.931c-.031-.476.333-.878.798-.907l66.141-4.209c.476-.031.878.332.907.798l5.722 89.921c.039.476-.322.886-.788.917z" fill="#c2e8ff" stroke="#7496c4"/><path d="M1467.728 49.732l-32.212 6.78c-.914.194-1.813-.394-2.006-1.308l-1.689-8.024c-.193-.913.395-1.812 1.308-2.006l32.202-6.777c.913-.194 1.501-1.09 1.308-2.006l-2.347-11.148c-.311-1.476 1.317-2.587 2.577-1.76l22.469 14.697c.78.509 1 1.557.491 2.337l-14.569 22.389c-.82 1.257-2.747.905-3.066-.562l-2.465-11.312c-.199-.913-1.098-1.491-2.001-1.3z" fill="#8bb7f0" stroke="#4e7ab5"/></g><g stroke-miterlimit="10"><path d="M1584.838 100.84l-66.301 3.157c-.477.023-.874-.347-.895-.814l-4.294-90.138c-.023-.477.347-.873.814-.895l66.293-3.157c.477-.023.873.347.895.814l4.292 90.128c.031.477-.337.882-.804.905z" fill="#c2e8ff" stroke="#7496c4"/><path d="M1566.658 51.342l-33.151 5.085c-.94.145-1.822-.504-1.967-1.444l-1.267-8.258c-.145-.94.504-1.822 1.444-1.967l33.141-5.083c.94-.145 1.589-1.025 1.444-1.967l-1.76-11.473c-.234-1.52 1.485-2.558 2.72-1.645l22.031 16.215c.765.562.93 1.64.369 2.405l-16.082 21.957c-.905 1.233-2.845.766-3.087-.744l-1.871-11.646c-.152-.94-1.034-1.579-1.964-1.435z" fill="#8bb7f0" stroke="#4e7ab5"/></g><g stroke-miterlimit="10"><path d="M1684.352 99.283l-66.454 2.105c-.478.015-.869-.361-.884-.829l-2.862-90.346c-.015-.477.361-.869.829-.883l66.446-2.104c.477-.016.869.361.883.828l2.861 90.336c.025.478-.351.878-.819.893z" fill="#c2e8ff" stroke="#7496c4"/><path d="M1665.589 52.951l-34.091 3.39c-.967.097-1.831-.612-1.928-1.579l-.844-8.492c-.097-.967.612-1.831 1.578-1.928l34.082-3.389c.966-.096 1.675-.96 1.578-1.927l-1.173-11.799c-.155-1.564 1.653-2.529 2.863-1.53l21.595 17.733c.75.614.86 1.723.245 2.473L1671.9 67.428c-.99 1.209-2.943.628-3.108-.926l-1.278-11.981c-.104-.967-.968-1.665-1.925-1.57z" fill="#8bb7f0" stroke="#4e7ab5"/></g><g stroke-miterlimit="10"><path d="M1783.866 97.727l-66.607 1.052c-.479.008-.865-.376-.872-.845l-1.431-90.552c-.008-.479.376-.865.845-.872l66.597-1.052c.479-.008.865.375.872.844l1.431 90.543c.017.479-.366.874-.835.882z" fill="#c2e8ff" stroke="#7496c4"/><path d="M1764.519 54.561l-35.03 1.695c-.993.048-1.841-.722-1.889-1.715l-.422-8.726c-.049-.993.721-1.841 1.714-1.889l35.021-1.694c.993-.049 1.763-.895 1.714-1.889l-.586-12.125c-.078-1.606 1.821-2.499 3.006-1.415l21.157 19.252c.735.667.79 1.807.123 2.542l-19.107 21.092c-1.075 1.184-3.042.489-3.129-1.108l-.684-12.315c-.057-.994-.904-1.753-1.888-1.705z" fill="#8bb7f0" stroke="#4e7ab5"/></g><g stroke-miterlimit="10"><path d="M1883.38 96.17h-66.76c-.48 0-.86-.39-.86-.86V4.55c0-.48.39-.86.86-.86h66.75c.48 0 .86.39.86.86V95.3c.01.48-.38.87-.85.87z" fill="#c2e8ff" stroke="#7496c4"/><path d="M1863.45 56.17h-35.97c-1.02 0-1.85-.83-1.85-1.85v-8.96c0-1.02.83-1.85 1.85-1.85h35.96c1.02 0 1.85-.83 1.85-1.85V29.21c0-1.65 1.99-2.47 3.15-1.3l20.72 20.77c.72.72.72 1.89 0 2.61l-20.62 20.66c-1.16 1.16-3.14.35-3.15-1.29l-.09-12.65c-.01-1.02-.84-1.84-1.85-1.84z" fill="#8bb7f0" stroke="#4e7ab5"/></g></svg>