<svg xmlns="http://www.w3.org/2000/svg" viewBox="0 0 1900 200" width="950" height="100"><g fill="#74b9ff" stroke="#0984e3" stroke-width="3" stroke-miterlimit="10"><path d="M85 87.5H15c-4.14 0-7.5-3.36-7.5-7.5 0-4.14 3.36-7.5 7.5-7.5h70c4.14 0 7.5 3.36 7.5 7.5 0 4.14-3.36 7.5-7.5 7.5zM85 27.5H15c-4.14 0-7.5-3.36-7.5-7.5 0-4.14 3.36-7.5 7.5-7.5h70c4.14 0 7.5 3.36 7.5 7.5 0 4.14-3.36 7.5-7.5 7.5zM85 57.5H15c-4.14 0-7.5-3.36-7.5-7.5 0-4.14 3.36-7.5 7.5-7.5h70c4.14 0 7.5 3.36 7.5 7.5 0 4.14-3.36 7.5-7.5 7.5z"/></g><g fill="#7cb5f7" stroke-miterlimit="10"><path d="M184.725 84.336l-68.861 2.75c-4.073.163-7.51-3.01-7.673-7.083-.163-4.073 3.011-7.51 7.083-7.673l68.862-2.75c4.072-.163 7.51 3.011 7.672 7.083.163 4.074-3.01 7.511-7.083 7.673zM184.136 30.419l-68.861-2.75c-4.073-.162-7.246-3.6-7.083-7.672.162-4.073 3.6-7.246 7.672-7.084l68.862 2.75c4.072.163 7.246 3.6 7.083 7.673-.163 4.073-3.601 7.246-7.673 7.083z" stroke="#1681db" stroke-width="3"/><path d="M183.661 57.028l-66.772.661c-4.062.152-7.482-3.022-7.633-7.083-.152-4.062 3.021-7.482 7.083-7.634l66.772-.661c4.062-.152 7.482 3.022 7.633 7.083.152 4.063-3.021 7.482-7.083 7.634z" stroke="#1783dc" stroke-width="2.98558"/></g><g fill="#83b0ef" stroke-miterlimit="10"><path d="M284.45 81.172l-67.722 5.5c-4.006.326-7.52-2.661-7.846-6.666-.325-4.006 2.661-7.52 6.667-7.846l67.722-5.5c4.006-.326 7.52 2.661 7.846 6.667.325 4.006-2.661 7.521-6.667 7.845zM283.272 33.339l-67.722-5.5c-4.006-.326-6.992-3.84-6.667-7.846.326-4.005 3.84-6.992 7.846-6.666l67.722 5.5c4.006.325 6.992 3.84 6.667 7.845-.327 4.006-3.841 6.992-7.846 6.667z" stroke="#227ed3" stroke-width="3"/><path d="M282.322 56.556l-63.544 1.322c-3.984.303-7.464-2.684-7.767-6.667-.303-3.983 2.683-7.463 6.667-7.767l63.544-1.322c3.984-.303 7.464 2.684 7.767 6.667.303 3.984-2.683 7.463-6.667 7.767z" stroke="#2481d6" stroke-width="2.934399"/></g><g fill="#8bace6" stroke-miterlimit="10"><path d="M384.175 78.008l-66.583 8.25c-3.939.489-7.53-2.311-8.019-6.25-.488-3.938 2.312-7.53 6.25-8.018l66.584-8.25c3.938-.488 7.53 2.312 8.018 6.25.488 3.94-2.312 7.532-6.25 8.018zM382.408 36.258l-66.583-8.25c-3.938-.488-6.738-4.08-6.25-8.018.488-3.938 4.08-6.738 8.018-6.25l66.584 8.25c3.938.488 6.738 4.08 6.25 8.018-.49 3.939-4.082 6.739-8.019 6.25z" stroke="#2f7ccb" stroke-width="3"/><path d="M380.983 56.083l-60.316 1.984c-3.905.455-7.445-2.345-7.9-6.25-.455-3.905 2.345-7.445 6.25-7.9l60.316-1.984c3.905-.455 7.445 2.345 7.9 6.25.455 3.907-2.345 7.445-6.25 7.9z" stroke="#3280cf" stroke-width="2.829789"/></g><g fill="#93a8de" stroke-miterlimit="10"><path d="M483.9 74.844l-65.444 11c-3.872.652-7.54-1.962-8.192-5.833-.651-3.871 1.963-7.54 5.834-8.191l65.444-11c3.871-.651 7.54 1.962 8.191 5.833.651 3.874-1.962 7.543-5.833 8.191zM481.544 39.178l-65.444-11c-3.871-.651-6.484-4.32-5.833-8.191.651-3.871 4.32-6.485 8.191-5.834l65.444 11c3.871.651 6.485 4.32 5.834 8.191-.654 3.872-4.323 6.485-8.192 5.834z" stroke="#3c79c3" stroke-width="3"/><path d="M479.644 55.611l-57.088 2.645c-3.827.606-7.427-2.007-8.034-5.834-.606-3.826 2.007-7.426 5.834-8.033l57.088-2.645c3.827-.606 7.427 2.007 8.034 5.834.606 3.829-2.007 7.426-5.834 8.033z" stroke="#407ec8" stroke-width="2.649663"/></g><g fill="#9ba3d6" stroke-miterlimit="10"><path d="M583.625 71.681l-64.306 13.75c-3.803.813-7.55-1.613-8.363-5.417-.814-3.804 1.612-7.55 5.416-8.364l64.306-13.75c3.804-.814 7.55 1.613 8.364 5.417.814 3.806-1.613 7.552-5.417 8.364zM580.681 42.097l-64.306-13.75c-3.804-.814-6.231-4.56-5.417-8.364.814-3.804 4.56-6.23 8.364-5.416l64.306 13.75c3.804.814 6.23 4.56 5.416 8.364-.816 3.803-4.562 6.23-8.363 5.416z" stroke="#4976bb" stroke-width="3"/><path d="M578.306 55.139l-53.862 3.305c-3.748.759-7.408-1.668-8.166-5.416-.759-3.749 1.668-7.409 5.416-8.167l53.862-3.305c3.748-.759 7.408 1.668 8.166 5.416.759 3.751-1.668 7.409-5.416 8.167z" stroke="#4d7dc2" stroke-width="2.385719"/></g><g fill="#a29fce" stroke-miterlimit="10"><path d="M683.35 68.517l-63.167 16.5c-3.736.976-7.56-1.264-8.536-5-.977-3.737 1.263-7.56 5-8.537l63.166-16.5c3.737-.977 7.56 1.263 8.537 5 .977 3.74-1.263 7.563-5 8.537zM679.817 45.017l-63.167-16.5c-3.737-.977-5.977-4.8-5-8.537.977-3.737 4.8-5.977 8.537-5l63.166 16.5c3.737.977 5.977 4.8 5 8.537-.98 3.736-4.803 5.976-8.536 5z" stroke="#5573b3" stroke-width="3"/><path d="M676.967 54.667l-50.634 3.966c-3.67.91-7.39-1.33-8.3-5-.91-3.67 1.33-7.39 5-8.3l50.634-3.966c3.67-.91 7.39 1.33 8.3 5 .91 3.673-1.33 7.39-5 8.3z" stroke="#5b7cbb" stroke-width="2.085497"/></g><g fill="#aa9bc5" stroke-miterlimit="10"><path d="M783.075 65.353l-62.028 19.25c-3.669 1.139-7.57-.914-8.709-4.584-1.14-3.669.914-7.57 4.583-8.709l62.028-19.25c3.669-1.139 7.57.914 8.709 4.583 1.14 3.674-.914 7.574-4.583 8.71zM778.953 47.936l-62.028-19.25c-3.669-1.139-5.723-5.04-4.583-8.709 1.139-3.67 5.04-5.723 8.709-4.584l62.028 19.25c3.669 1.14 5.723 5.04 4.583 8.71-1.143 3.669-5.044 5.723-8.709 4.583z" stroke="#6271ab" stroke-width="3"/><path d="M775.628 54.194l-47.406 4.628c-3.591 1.062-7.371-.991-8.433-4.583-1.062-3.592.992-7.372 4.583-8.433l47.406-4.628c3.591-1.062 7.371.991 8.433 4.583 1.062 3.596-.992 7.372-4.583 8.433z" stroke="#697ab4" stroke-width="1.819221"/></g><g fill="#b296bd" stroke-miterlimit="10"><path d="M882.8 62.189l-60.889 22c-3.602 1.302-7.58-.565-8.882-4.167-1.302-3.602.564-7.58 4.167-8.882l60.888-22c3.603-1.302 7.58.564 8.883 4.167 1.302 3.606-.565 7.584-4.167 8.882z" stroke="#6f6ea3" stroke-width="3"/><path d="M878.089 50.856l-60.889-22c-3.602-1.303-5.469-5.28-4.167-8.883 1.303-3.602 5.28-5.469 8.883-4.166l60.888 22c3.603 1.302 5.469 5.28 4.167 8.882-1.307 3.602-5.284 5.469-8.882 4.167z" stroke="#6f6ea3" stroke-width="3"/><path d="M874.289 53.722l-44.178 5.289c-3.513 1.213-7.353-.653-8.567-4.167-1.213-3.513.654-7.353 4.167-8.566l44.178-5.289c3.513-1.213 7.353.653 8.567 4.167 1.213 3.517-.654 7.353-4.167 8.566z" stroke="#7679ae" stroke-width="1.60953"/></g><g fill="#ba92b5" stroke-miterlimit="10"><path d="M982.525 59.025l-59.75 24.75c-3.535 1.465-7.59-.215-9.055-3.75-1.465-3.535.215-7.59 3.75-9.055l59.75-24.75c3.535-1.465 7.59.215 9.055 3.75 1.465 3.54-.215 7.595-3.75 9.055z" stroke="#7c6b9b" stroke-width="3"/><path d="M977.225 53.775l-59.75-24.75c-3.535-1.465-5.215-5.52-3.75-9.055 1.465-3.535 5.52-5.215 9.055-3.75l59.75 24.75c3.535 1.465 5.215 5.52 3.75 9.055-1.47 3.535-5.525 5.215-9.055 3.75z" stroke="#7c6b9b" stroke-width="3"/><path d="M972.95 53.25L932 59.2c-3.435 1.365-7.335-.315-8.7-3.75-1.365-3.435.315-7.335 3.75-8.7L968 40.8c3.435-1.365 7.335.315 8.7 3.75 1.365 3.44-.315 7.335-3.75 8.7z" stroke="#8478a7" stroke-width="1.448877"/></g><g fill="#c18ead" stroke-miterlimit="10"><path d="M1082.25 55.861l-58.611 27.5c-3.468 1.628-7.6.135-9.228-3.333-1.628-3.468-.134-7.6 3.333-9.228l58.612-27.5c3.467-1.628 7.6-.134 9.227 3.333 1.628 3.474.135 7.606-3.333 9.228z" stroke="#886893" stroke-width="3"/><path d="M1076.361 56.694l-58.611-27.5c-3.468-1.627-4.961-5.76-3.333-9.227 1.627-3.468 5.76-4.961 9.227-3.334l58.612 27.5c3.467 1.628 4.961 5.76 3.333 9.228-1.633 3.468-5.766 4.961-9.228 3.333z" stroke="#886893" stroke-width="3"/><path d="M1071.611 52.778l-37.722 6.611c-3.357 1.517-7.317.023-8.833-3.333-1.517-3.357-.024-7.317 3.333-8.834l37.722-6.611c3.357-1.517 7.317-.023 8.833 3.333 1.517 3.363.024 7.317-3.333 8.834z" stroke="#9276a0" stroke-width="1.325737"/></g><g fill="#c989a5" stroke-miterlimit="10"><path d="M1181.975 52.697l-57.472 30.25c-3.401 1.791-7.61.484-9.401-2.916-1.79-3.401-.484-7.61 2.917-9.401l57.472-30.25c3.401-1.791 7.61-.484 9.401 2.917 1.79 3.406.484 7.616-2.917 9.4z" stroke="#95658b" stroke-width="3"/><path d="M1175.497 59.614l-57.472-30.25c-3.401-1.791-4.707-6-2.917-9.401 1.791-3.4 6-4.707 9.401-2.916l57.472 30.25c3.401 1.79 4.707 6 2.917 9.4-1.797 3.401-6.006 4.707-9.401 2.917z" stroke="#95658b" stroke-width="3"/><path d="M1170.272 52.306l-34.494 7.272c-3.279 1.668-7.299.361-8.967-2.917-1.668-3.278-.362-7.298 2.917-8.967l34.494-7.272c3.279-1.668 7.299-.361 8.967 2.917 1.668 3.284.362 7.298-2.917 8.967z" stroke="#9f759a" stroke-width="1.231068"/></g><g fill="#d1859c" stroke-miterlimit="10"><path d="M1281.7 49.533l-56.333 33c-3.334 1.954-7.62.834-9.574-2.5-1.953-3.333-.833-7.62 2.5-9.573l56.334-33c3.333-1.953 7.62-.833 9.573 2.5 1.953 3.34.833 7.627-2.5 9.573z" stroke="#a26383" stroke-width="3"/><path d="M1274.633 62.533l-56.333-33c-3.333-1.953-4.453-6.24-2.5-9.573 1.953-3.333 6.24-4.453 9.573-2.5l56.334 33c3.333 1.953 4.453 6.24 2.5 9.573-1.96 3.334-6.247 4.454-9.574 2.5z" stroke="#a26383" stroke-width="3"/><path d="M1268.933 51.833l-31.266 7.934c-3.2 1.82-7.28.7-9.1-2.5-1.82-3.2-.7-7.28 2.5-9.1l31.266-7.934c3.2-1.82 7.28-.7 9.1 2.5 1.82 3.207.7 7.28-2.5 9.1z" stroke="#ad7393" stroke-width="1.158448"/></g><g fill="#d88194" stroke-miterlimit="10"><path d="M1381.425 46.369l-55.194 35.75c-3.267 2.117-7.63 1.183-9.747-2.083-2.116-3.266-1.182-7.63 2.084-9.746l55.194-35.75c3.266-2.116 7.63-1.183 9.746 2.083 2.116 3.274 1.183 7.638-2.083 9.746z" stroke="#ae607b" stroke-width="3"/><path d="M1373.769 65.453l-55.194-35.75c-3.266-2.116-4.199-6.48-2.083-9.746 2.116-3.266 6.48-4.2 9.746-2.084l55.194 35.75c3.266 2.116 4.2 6.48 2.084 9.746-2.124 3.267-6.488 4.2-9.747 2.084z" stroke="#ae607b" stroke-width="3"/><path d="M1367.594 51.361l-28.038 8.595c-3.122 1.971-7.262 1.038-9.234-2.084-1.971-3.121-1.038-7.261 2.084-9.233l28.038-8.595c3.122-1.971 7.262-1.038 9.234 2.084 1.971 3.129 1.038 7.261-2.084 9.233z" stroke="#bb728c" stroke-width="1.103327"/></g><g fill="#e07c8c" stroke-miterlimit="10"><path d="M1481.15 43.206l-54.056 38.5c-3.198 2.278-7.64 1.532-9.918-1.667-2.279-3.199-1.533-7.64 1.666-9.919l54.056-38.5c3.199-2.279 7.64-1.532 9.919 1.667 2.279 3.206 1.532 7.647-1.667 9.919z" stroke="#bb5d73" stroke-width="3"/><path d="M1472.906 68.372l-54.056-38.5c-3.199-2.279-3.946-6.72-1.667-9.919 2.279-3.199 6.72-3.945 9.919-1.666l54.056 38.5c3.199 2.279 3.945 6.72 1.666 9.919-2.286 3.198-6.727 3.945-9.918 1.666z" stroke="#bb5d73" stroke-width="3"/><path d="M1466.256 50.889l-24.812 9.255c-3.043 2.124-7.243 1.377-9.366-1.666-2.124-3.044-1.377-7.244 1.666-9.367l24.812-9.255c3.043-2.124 7.243-1.377 9.366 1.666 2.124 3.051 1.377 7.244-1.666 9.367z" stroke="#c87186" stroke-width="1.062417"/></g><g fill="#e87884" stroke-miterlimit="10"><path d="M1580.875 40.042l-52.917 41.25c-3.131 2.441-7.65 1.881-10.091-1.25-2.442-3.132-1.882-7.65 1.25-10.092l52.916-41.25c3.132-2.442 7.65-1.882 10.092 1.25 2.442 3.14 1.882 7.658-1.25 10.092z" stroke="#c85a6b" stroke-width="3"/><path d="M1572.042 71.292l-52.917-41.25c-3.132-2.442-3.692-6.96-1.25-10.092 2.442-3.132 6.96-3.692 10.092-1.25l52.916 41.25c3.132 2.442 3.692 6.96 1.25 10.092-2.45 3.131-6.968 3.691-10.091 1.25z" stroke="#c85a6b" stroke-width="3"/><path d="M1564.917 50.417l-21.584 9.916c-2.965 2.275-7.225 1.715-9.5-1.25-2.275-2.965-1.715-7.225 1.25-9.5l21.584-9.916c2.965-2.275 7.225-1.715 9.5 1.25 2.275 2.973 1.715 7.225-1.25 9.5z" stroke="#d66f7f" stroke-width="1.033283"/></g><g fill="#f0747b" stroke-miterlimit="10"><path d="M1680.6 36.878l-51.778 44c-3.064 2.604-7.66 2.231-10.264-.834-2.605-3.064-2.231-7.66.833-10.264l51.778-44c3.064-2.604 7.66-2.231 10.264.833 2.605 3.074 2.231 7.669-.833 10.265z" stroke="#d55863" stroke-width="3"/><path d="M1671.178 74.211l-51.778-44c-3.064-2.604-3.438-7.2-.833-10.264 2.604-3.065 7.2-3.438 10.264-.834l51.778 44c3.064 2.605 3.438 7.2.833 10.265-2.613 3.064-7.209 3.438-10.264.833z" stroke="#d55863" stroke-width="3"/><path d="M1663.578 49.944l-18.356 10.578c-2.886 2.427-7.206 2.054-9.633-.833-2.427-2.887-2.053-7.207.833-9.633l18.356-10.578c2.886-2.427 7.206-2.054 9.633.833 2.427 2.896 2.053 7.207-.833 9.633z" stroke="#e46e78" stroke-width="1.014075"/></g><g fill="#f76f73" stroke-miterlimit="10"><path d="M1780.325 33.714l-50.639 46.75c-2.997 2.767-7.67 2.58-10.437-.417-2.767-2.997-2.581-7.67.417-10.437l50.638-46.75c2.998-2.767 7.67-2.581 10.438.417 2.767 3.006 2.58 7.679-.417 10.437z" stroke="#e1555b" stroke-width="3"/><path d="M1770.314 77.131l-50.639-46.75c-2.997-2.768-3.184-7.44-.417-10.438 2.768-2.997 7.44-3.184 10.438-.416l50.638 46.75c2.998 2.767 3.184 7.44.417 10.437-2.777 2.997-7.449 3.184-10.437.417z" stroke="#e1555b" stroke-width="3"/><path d="M1762.239 49.472l-15.128 11.239c-2.808 2.578-7.188 2.392-9.767-.417-2.578-2.808-2.391-7.188.417-9.766l15.128-11.239c2.808-2.578 7.188-2.392 9.767.417 2.578 2.817 2.391 7.188-.417 9.766z" stroke="#f16c72" stroke-width="1.003359"/></g><g fill="#ff6b6b" stroke-miterlimit="10"><path d="M1880.05 30.55l-49.5 49.5c-2.93 2.93-7.68 2.93-10.61 0-2.93-2.93-2.93-7.68 0-10.61l49.5-49.5c2.93-2.93 7.68-2.93 10.61 0 2.93 2.94 2.93 7.69 0 10.61z" stroke="#ee5253" stroke-width="3"/><path d="M1869.45 80.05l-49.5-49.5c-2.93-2.93-2.93-7.68 0-10.61 2.93-2.93 7.68-2.93 10.61 0l49.5 49.5c2.93 2.93 2.93 7.68 0 10.61-2.94 2.93-7.69 2.93-10.61 0z" stroke="#ee5253" stroke-width="3"/><path d="M1860.9 49L1849 60.9c-2.73 2.73-7.17 2.73-9.9 0-2.73-2.73-2.73-7.17 0-9.9l11.9-11.9c2.73-2.73 7.17-2.73 9.9 0 2.73 2.74 2.73 7.17 0 9.9z" stroke="#ff6b6b"/></g></svg>