<svg xmlns="http://www.w3.org/2000/svg" viewBox="0 0 1900 200" width="950" height="100"><g stroke="#8b75a1" stroke-miterlimit="10"><path d="M41.83 78.97l-13.69-7.4c-.24-.13-.53-.13-.77 0l-8.9 4.81c-.35.19-.81.09-1.03-.23L10.13 65.8c-.22-.31-.15-.73.16-.96l8.87-6.76c.18-.14.29-.34.29-.56v-14.9c0-.22-.1-.42-.28-.56l-7.9-6.14c-.29-.23-.37-.62-.17-.93l6.03-9.57c.19-.31.6-.44.96-.3l9.33 3.53c.22.08.47.07.68-.04l13.76-7.44c.2-.11.34-.3.38-.51l1.7-10.05c.06-.35.38-.61.76-.61h11.82c.39 0 .71.27.77.63l1.47 10.02c.03.22.17.42.38.53l13.79 7.46c.18.1.4.12.61.07l10.39-2.89c.35-.1.72.05.9.35l5.09 8.69c.18.3.1.68-.18.9l-7.93 6.32c-.17.14-.27.34-.27.55v14.93c0 .2.09.4.25.54l7.95 6.77c.28.24.33.63.13.92l-6.02 8.97c-.2.3-.6.42-.95.29l-9.35-3.54c-.22-.08-.47-.07-.68.04l-13.74 7.43c-.21.12-.36.32-.38.55l-1.12 9.83c-.03.36-.36.64-.76.64H44.33c-.39 0-.72-.27-.77-.63l-1.35-9.86c-.03-.23-.17-.42-.38-.54z" fill="#dcd5f2"/><path d="M56.25 39.17c.633.367 1.231.787 1.787 1.254.557.467 1.072.982 1.539 1.539.467.556.887 1.154 1.254 1.787.55.95.967 1.965 1.248 3.016.28 1.052.422 2.139.422 3.234 0 2.19-.58 4.35-1.67 6.25-.367.633-.787 1.231-1.254 1.787-.467.557-.982 1.072-1.539 1.539-.556.467-1.154.887-1.787 1.254-.95.55-1.965.967-3.016 1.248-1.052.28-2.139.422-3.234.422-2.19 0-4.35-.58-6.25-1.67-.633-.367-1.231-.787-1.787-1.254-.557-.467-1.072-.982-1.539-1.539-.467-.556-.887-1.154-1.254-1.787-.55-.95-.967-1.965-1.248-3.016-.28-1.052-.422-2.139-.422-3.234 0-2.19.58-4.35 1.67-6.25.367-.633.787-1.231 1.254-1.787.467-.557.982-1.072 1.539-1.539.556-.467 1.154-.887 1.787-1.254.95-.55 1.965-.967 3.016-1.248 1.052-.28 2.139-.422 3.234-.422 2.19 0 4.35.58 6.25 1.67z" fill="#dcd1d8"/><path d="M56.25 39.17c1.9 1.1 3.48 2.68 4.58 4.58S62.5 47.81 62.5 50c0 2.19-.58 4.35-1.67 6.25-1.1 1.9-2.68 3.48-4.58 4.58S52.19 62.5 50 62.5c-2.19 0-4.35-.58-6.25-1.67-1.9-1.1-3.48-2.68-4.58-4.58S37.5 52.19 37.5 50c0-2.19.58-4.35 1.67-6.25 1.1-1.9 2.68-3.48 4.58-4.58S47.81 37.5 50 37.5c2.19 0 4.35.58 6.25 1.67z" fill="#ffffff"/></g><g stroke="#8b75a1" stroke-miterlimit="10"><path d="M146.784 79.966l-14.722-5.011c-.259-.091-.549-.034-.761.126l-7.971 6.233c-.322.247-.782.224-1.059-.058l-8.926-8.979c-.268-.272-.274-.692-.004-.979l7.615-8.146c.152-.168.222-.388.185-.599l-2.488-14.683c-.038-.211-.168-.401-.367-.503l-8.805-4.729c-.328-.172-.466-.553-.324-.882l4.351-10.438c.142-.338.523-.536.893-.464l9.784 1.927c.23.042.479-.016.661-.155l12.323-9.632c.181-.14.283-.349.284-.569l.001-10.187c.002-.36.275-.668.655-.736l11.65-1.968c.381-.067.749.145.857.486l3.122 9.63c.068.211.237.382.466.462l14.832 5.052c.199.071.419.053.61-.036l9.759-4.582c.331-.158.721-.075.948.187l6.466 7.713c.227.271.215.651-.027.919l-6.77 7.552c-.15.168-.212.378-.174.588l2.488 14.714c.039.2.158.38.337.482l8.97 5.35c.31.183.436.563.284.892l-4.436 9.847c-.143.328-.524.516-.884.443l-9.804-1.927c-.23-.042-.479.016-.661.155l-12.303 9.613c-.191.148-.302.378-.284.608l.541 9.88c.018.37-.265.699-.655.766l-12.361 2.093c-.38.067-.749-.145-.866-.495l-2.973-9.488c-.059-.229-.228-.4-.457-.472z" fill="#dcd5f2"/><path d="M156.266 38.698c.726.421 1.419.891 2.073 1.406.568.467 1.09.989 1.557 1.557.515.654.985 1.347 1.406 2.073.544.94.951 1.947 1.216 2.99.264 1.141.399 2.316.399 3.498 0 2.118-.561 4.206-1.615 6.044-.421.726-.891 1.419-1.406 2.073-.467.568-.989 1.09-1.557 1.557-.654.515-1.347.985-2.073 1.406-.94.544-1.947.951-2.99 1.216-1.141.264-2.316.399-3.498.399-2.118 0-4.206-.561-6.044-1.615-.726-.421-1.419-.891-2.073-1.406-.568-.467-1.09-.989-1.557-1.557-.515-.654-.985-1.347-1.406-2.073-.544-.94-.951-1.947-1.216-2.99-.264-1.141-.399-2.316-.399-3.498 0-2.118.561-4.206 1.615-6.044.421-.726.891-1.419 1.406-2.073.467-.568.989-1.09 1.557-1.557.654-.515 1.347-.985 2.073-1.406.94-.544 1.947-.951 2.99-1.216 1.141-.264 2.316-.399 3.498-.399 2.118 0 4.207.561 6.044 1.615z" fill="#dcd1d8"/><path d="M156.25 39.17c1.9 1.1 3.48 2.68 4.58 4.58s1.67 4.06 1.67 6.25c0 2.19-.58 4.35-1.67 6.25-1.1 1.9-2.68 3.48-4.58 4.58s-4.06 1.67-6.25 1.67c-2.19 0-4.35-.58-6.25-1.67-1.9-1.1-3.48-2.68-4.58-4.58s-1.67-4.06-1.67-6.25c0-2.19.58-4.35 1.67-6.25 1.1-1.9 2.68-3.48 4.58-4.58s4.06-1.67 6.25-1.67c2.19 0 4.35.58 6.25 1.67z" fill="#ffffff"/></g><g stroke="#8b75a1" stroke-miterlimit="10"><path d="M250.827 80.176l-15.254-2.997c-.265-.051-.55.033-.741.227l-7.062 7.234c-.281.289-.746.327-1.055.091l-10.047-7.698c-.299-.23-.357-.646-.136-.965l6.454-9.086c.131-.185.172-.415.107-.625l-4.422-14.211c-.065-.206-.224-.371-.434-.452l-9.357-3.505c-.345-.126-.533-.482-.442-.832l2.911-10.924c.096-.355.447-.598.827-.572l9.953.597c.24.011.47-.079.631-.243l10.911-11.185c.161-.164.237-.389.208-.599l-1.363-10.085c-.043-.355.183-.699.548-.813l11.278-3.508c.366-.114.76.043.919.374l4.376 9.121c.099.206.288.347.518.392l15.369 3.017c.204.041.42.002.595-.113l9.057-5.841c.305-.194.705-.167.96.064l7.43 6.772c.259.237.297.617.096.916l-5.691 8.384c-.126.184-.162.404-.097.604l4.427 14.242c.059.196.203.351.398.436l9.6 4.096c.334.147.503.497.402.842l-3.079 10.339c-.106.344-.447.578-.817.552l-9.968-.602c-.24-.011-.47.078-.631.243l-10.869 11.175c-.171.174-.246.409-.203.639l1.854 9.712c.069.366-.162.729-.543.849l-11.959 3.72c-.376.113-.765-.048-.924-.374l-4.217-9.001c-.093-.215-.288-.36-.518-.407z" fill="#dcd5f2"/><path d="M256.282 38.227c.819.473 1.607.994 2.358 1.558.581.465 1.11.994 1.575 1.575.564.751 1.085 1.539 1.558 2.358.539.931.936 1.93 1.185 2.964.249 1.23.375 2.492.375 3.761 0 2.047-.542 4.064-1.56 5.839-.473.819-.994 1.607-1.558 2.358-.465.581-.994 1.11-1.575 1.575-.751.564-1.539 1.085-2.358 1.558-.93.538-1.93.936-2.964 1.185-1.23.249-2.492.375-3.761.375-2.047 0-4.064-.542-5.839-1.56-.819-.473-1.607-.994-2.358-1.558-.581-.465-1.11-.994-1.575-1.575-.564-.751-1.085-1.539-1.558-2.358-.538-.93-.936-1.93-1.185-2.964-.249-1.23-.375-2.492-.375-3.761 0-2.047.542-4.064 1.56-5.839.473-.819.994-1.607 1.558-2.358.465-.581.994-1.11 1.575-1.575.751-.564 1.539-1.085 2.358-1.558.931-.539 1.93-.936 2.964-1.185 1.23-.249 2.492-.375 3.761-.375 2.047 0 4.065.542 5.839 1.56z" fill="#dcd1d8"/><path d="M256.25 39.17c1.9 1.1 3.48 2.68 4.58 4.58s1.67 4.06 1.67 6.25c0 2.19-.58 4.35-1.67 6.25-1.1 1.9-2.68 3.48-4.58 4.58s-4.06 1.67-6.25 1.67c-2.19 0-4.35-.58-6.25-1.67-1.9-1.1-3.48-2.68-4.58-4.58s-1.67-4.06-1.67-6.25c0-2.19.58-4.35 1.67-6.25 1.1-1.9 2.68-3.48 4.58-4.58s4.06-1.67 6.25-1.67c2.19 0 4.35.58 6.25 1.67z" fill="#ffffff"/></g><g stroke="#8b75a1" stroke-miterlimit="10"><path d="M354.88 79.9l-15.53-.92c-.27-.02-.54.11-.7.33l-6.03 8.13c-.24.32-.69.42-1.03.23l-11-6.29c-.33-.19-.44-.6-.26-.94l5.18-9.88c.11-.2.11-.43.02-.63l-6.3-13.5c-.09-.2-.27-.34-.49-.39l-9.75-2.22c-.36-.08-.59-.41-.55-.77l1.42-11.22c.05-.36.36-.65.74-.68l9.95-.74c.24-.02.45-.14.59-.33l9.32-12.56c.14-.18.18-.41.12-.63l-2.7-9.82c-.09-.34.09-.72.43-.88l10.71-5c.35-.16.76-.06.96.24l5.57 8.46c.12.19.33.31.57.32l15.65.93c.21.01.42-.06.58-.2l8.2-7.01c.28-.24.68-.26.96-.07l8.28 5.72c.29.2.38.57.22.89l-4.52 9.08c-.1.2-.1.42-.01.62l6.31 13.53c.09.19.25.32.46.38l10.07 2.77c.35.1.57.43.51.78l-1.66 10.67c-.06.35-.37.63-.74.66l-9.97.75c-.24.02-.45.14-.59.33l-9.31 12.54c-.15.2-.19.44-.11.66l3.14 9.38c.12.35-.06.75-.42.91l-11.36 5.3c-.35.16-.77.06-.96-.25l-5.39-8.36c-.13-.19-.34-.31-.58-.32z" fill="#dcd5f2"/><path d="M356.298 37.755c.913.527 1.795 1.099 2.643 1.71.594.465 1.129 1 1.594 1.594.611.848 1.183 1.73 1.71 2.643.533.921.92 1.912 1.153 2.938.233 1.32.352 2.669.352 4.025 0 1.975-.523 3.92-1.505 5.633-.527.913-1.099 1.795-1.71 2.643-.465.594-1 1.129-1.594 1.594-.848.611-1.73 1.183-2.643 1.71-.92.532-1.912.92-2.938 1.153-1.32.233-2.669.352-4.025.352-1.975 0-3.92-.523-5.633-1.505-.913-.527-1.795-1.099-2.643-1.71-.594-.465-1.129-1-1.594-1.594-.611-.848-1.183-1.73-1.71-2.643-.532-.92-.92-1.912-1.153-2.938-.233-1.32-.352-2.669-.352-4.025 0-1.975.523-3.92 1.505-5.633.527-.913 1.099-1.795 1.71-2.643.465-.594 1-1.129 1.594-1.594.848-.611 1.73-1.183 2.643-1.71.921-.533 1.912-.92 2.938-1.153 1.32-.233 2.669-.352 4.025-.352 1.975 0 3.922.523 5.633 1.505z" fill="#dcd1d8"/><path d="M356.25 39.17c1.9 1.1 3.48 2.68 4.58 4.58s1.67 4.06 1.67 6.25c0 2.19-.58 4.35-1.67 6.25-1.1 1.9-2.68 3.48-4.58 4.58s-4.06 1.67-6.25 1.67c-2.19 0-4.35-.58-6.25-1.67-1.9-1.1-3.48-2.68-4.58-4.58s-1.67-4.06-1.67-6.25c0-2.19.58-4.35 1.67-6.25 1.1-1.9 2.68-3.48 4.58-4.58s4.06-1.67 6.25-1.67c2.19 0 4.35.58 6.25 1.67z" fill="#ffffff"/></g><g stroke="#8b75a1" stroke-miterlimit="10"><path d="M459.754 78.766l-15.468 1.683c-.27.028-.511.196-.633.436l-4.591 9.015c-.182.359-.613.536-.982.403l-11.887-4.361c-.359-.133-.537-.513-.414-.883l3.462-10.603c.071-.219.043-.449-.085-.62l-8.454-12.256c-.119-.181-.328-.292-.548-.303l-9.983-.559c-.37-.022-.658-.304-.666-.665l-.481-11.31c-.018-.36.245-.698.615-.795l9.685-2.393c.23-.058.421-.207.532-.417l7.094-13.936c.102-.21.113-.44.015-.64l-4.305-9.237c-.148-.32-.035-.72.286-.937l9.725-6.711c.321-.218.74-.186.989.077l6.897 7.415c.149.162.378.243.608.224l15.578-1.692c.21-.02.401-.127.542-.287l6.915-8.28c.232-.279.623-.375.941-.224l9.118 4.262c.319.152.467.503.365.842l-2.937 9.707c-.061.21-.033.43.086.61l8.473 12.286c.118.171.298.272.518.294l10.389 1.052c.36.033.628.324.636.684l.144 10.797c.008.36-.254.688-.615.776l-9.704 2.402c-.23.058-.421.207-.532.416l-7.084 13.917c-.112.219-.113.469-.005.67l4.659 8.72c.178.331.064.75-.266.969l-10.317 7.117c-.322.218-.742.184-.989-.086L460.372 79c-.149-.171-.378-.253-.618-.234z" fill="#dcd5f2"/><path d="M456.314 37.283c1.006.581 1.983 1.203 2.928 1.862.606.464 1.149 1.007 1.613 1.613.659.945 1.281 1.922 1.862 2.928.527.912.903 1.895 1.121 2.912.218 1.409.329 2.846.329 4.289 0 1.903-.505 3.776-1.45 5.427-.581 1.006-1.203 1.983-1.862 2.928-.464.606-1.007 1.149-1.613 1.613-.945.659-1.922 1.281-2.928 1.862-.91.525-1.895.903-2.912 1.121-1.409.218-2.846.329-4.289.329-1.903 0-3.776-.505-5.427-1.45-1.006-.581-1.983-1.203-2.928-1.862-.606-.464-1.149-1.007-1.613-1.613-.659-.945-1.281-1.922-1.862-2.928-.525-.91-.903-1.895-1.121-2.912-.218-1.409-.329-2.846-.329-4.289 0-1.903.505-3.776 1.45-5.427.581-1.006 1.203-1.983 1.862-2.928.464-.606 1.007-1.149 1.613-1.613.945-.659 1.922-1.281 2.928-1.862.912-.527 1.895-.903 2.912-1.121 1.409-.218 2.846-.329 4.289-.329 1.903 0 3.779.505 5.427 1.45z" fill="#dcd1d8"/><path d="M456.25 39.17c1.9 1.1 3.48 2.68 4.58 4.58s1.67 4.06 1.67 6.25c0 2.19-.58 4.35-1.67 6.25-1.1 1.9-2.68 3.48-4.58 4.58s-4.06 1.67-6.25 1.67c-2.19 0-4.35-.58-6.25-1.67-1.9-1.1-3.48-2.68-4.58-4.58s-1.67-4.06-1.67-6.25c0-2.19.58-4.35 1.67-6.25 1.1-1.9 2.68-3.48 4.58-4.58s4.06-1.67 6.25-1.67c2.19 0 4.35.58 6.25 1.67z" fill="#ffffff"/></g><g stroke="#8b75a1" stroke-miterlimit="10"><path d="M563.435 77.259l-15.089 3.729c-.265.063-.481.263-.571.523l-3.341 9.542c-.136.379-.537.613-.917.527l-12.355-2.736c-.375-.082-.598-.438-.532-.818l2.011-10.957c.041-.225-.018-.45-.168-.606l-10.019-11.012c-.144-.161-.359-.242-.579-.227l-9.963.778c-.37.028-.689-.213-.753-.568l-1.979-11.133c-.064-.36.153-.729.503-.869l9.27-3.66c.22-.089.39-.268.471-.488l5.17-14.746c.076-.215.052-.45-.067-.635l-5.493-8.571c-.194-.301-.127-.711.153-.965l8.74-7.947c.287-.259.707-.282.99-.051l7.822 6.419c.174.141.409.192.634.137l15.205-3.758c.2-.049.381-.178.496-.358l5.739-9.125c.196-.309.566-.452.896-.346l9.599 2.996c.335.106.528.432.472.782l-1.612 10.004c-.031.22.028.435.173.59l10.023 11.039c.135.151.34.236.55.227l10.431-.346c.36-.014.669.237.723.592l1.585 10.672c.054.355-.162.709-.508.848l-9.283 3.671c-.22.089-.391.268-.472.488l-5.16 14.726c-.081.23-.052.474.087.665l5.78 8.017c.214.301.158.731-.133.994l-9.272 8.431c-.291.264-.711.282-.995.051l-7.632-6.384c-.165-.151-.4-.201-.63-.142z" fill="#dcd5f2"/><path d="M556.331 36.812c1.098.634 2.17 1.307 3.213 2.014.618.462 1.168 1.012 1.63 1.63.707 1.043 1.38 2.115 2.014 3.213.523.903.888 1.878 1.09 2.887.202 1.498.305 3.023.305 4.552 0 1.832-.485 3.634-1.395 5.223-.634 1.098-1.307 2.17-2.014 3.213-.462.618-1.012 1.168-1.63 1.63-1.043.707-2.115 1.38-3.213 2.014-.9.52-1.878.888-2.887 1.09-1.498.202-3.023.305-4.552.305-1.832 0-3.634-.485-5.223-1.395-1.098-.634-2.17-1.307-3.213-2.014-.618-.462-1.168-1.012-1.63-1.63-.707-1.043-1.38-2.115-2.014-3.213-.52-.9-.888-1.878-1.09-2.887-.202-1.498-.305-3.023-.305-4.552 0-1.832.485-3.634 1.395-5.223.634-1.098 1.307-2.17 2.014-3.213.462-.618 1.012-1.168 1.63-1.63 1.043-.707 2.115-1.38 3.213-2.014.903-.523 1.878-.888 2.887-1.09 1.498-.202 3.023-.305 4.552-.305 1.832 0 3.636.485 5.223 1.395z" fill="#dcd1d8"/><path d="M556.25 39.17c1.9 1.1 3.48 2.68 4.58 4.58s1.67 4.06 1.67 6.25c0 2.19-.58 4.35-1.67 6.25-1.1 1.9-2.68 3.48-4.58 4.58s-4.06 1.67-6.25 1.67c-2.19 0-4.35-.58-6.25-1.67-1.9-1.1-3.48-2.68-4.58-4.58s-1.67-4.06-1.67-6.25c0-2.19.58-4.35 1.67-6.25 1.1-1.9 2.68-3.48 4.58-4.58s4.06-1.67 6.25-1.67c2.19 0 4.35.58 6.25 1.67z" fill="#ffffff"/></g><g stroke="#8b75a1" stroke-miterlimit="10"><path d="M666.93 75.29l-14.47 5.73c-.25.1-.44.33-.5.59l-2.03 9.91c-.08.39-.45.68-.84.64l-12.62-1.05c-.38-.03-.65-.35-.64-.74l.52-11.14c.01-.23-.08-.44-.25-.58l-11.4-9.57c-.17-.14-.39-.19-.61-.14l-9.78 2.11c-.36.08-.71-.12-.82-.46l-3.46-10.79c-.11-.35.05-.74.38-.93l8.7-4.88c.21-.12.35-.32.4-.55l3.14-15.32c.05-.23-.01-.45-.15-.62l-6.6-7.76c-.23-.27-.22-.69.02-.98l7.6-9.06c.25-.3.66-.38.97-.18l8.62 5.32c.19.12.43.14.65.05l14.58-5.77c.19-.08.35-.23.44-.42l4.47-9.82c.15-.33.5-.52.84-.47l9.93 1.69c.34.06.59.36.58.72l-.26 10.14c-.01.22.09.43.25.56l11.43 9.59c.16.13.37.19.57.15l10.3-1.74c.36-.06.69.15.79.49l3 10.37c.1.34-.06.73-.39.91l-8.72 4.89c-.21.12-.35.32-.4.55l-3.14 15.3c-.05.24.02.48.18.65l6.81 7.18c.26.27.26.7 0 1.01l-8.06 9.61c-.25.3-.67.38-.98.18l-8.42-5.3c-.16-.14-.41-.16-.63-.07z" fill="#dcd5f2"/><path d="M656.347 36.34c1.191.688 2.358 1.411 3.498 2.166.631.462 1.187 1.018 1.649 1.649.755 1.14 1.478 2.307 2.166 3.498.517.894.872 1.86 1.058 2.861.187 1.588.282 3.199.282 4.816 0 1.76-.467 3.49-1.34 5.017-.688 1.191-1.411 2.358-2.166 3.498-.462.631-1.018 1.187-1.649 1.649-1.14.755-2.307 1.478-3.498 2.166-.89.513-1.86.872-2.861 1.058-1.588.187-3.199.282-4.816.282-1.76 0-3.49-.467-5.017-1.34-1.191-.688-2.358-1.411-3.498-2.166-.631-.462-1.187-1.018-1.649-1.649-.755-1.14-1.478-2.307-2.166-3.498-.513-.89-.872-1.86-1.058-2.861-.187-1.588-.282-3.199-.282-4.816 0-1.76.467-3.49 1.34-5.017.688-1.191 1.411-2.358 2.166-3.498.462-.631 1.018-1.187 1.649-1.649 1.14-.755 2.307-1.478 3.498-2.166.894-.517 1.86-.872 2.861-1.058 1.588-.187 3.199-.282 4.816-.282 1.76 0 3.493.467 5.017 1.34z" fill="#dcd1d8"/><path d="M656.25 39.17c1.9 1.1 3.48 2.68 4.58 4.58s1.67 4.06 1.67 6.25c0 2.19-.58 4.35-1.67 6.25-1.1 1.9-2.68 3.48-4.58 4.58s-4.06 1.67-6.25 1.67c-2.19 0-4.35-.58-6.25-1.67-1.9-1.1-3.48-2.68-4.58-4.58s-1.67-4.06-1.67-6.25c0-2.19.58-4.35 1.67-6.25 1.1-1.9 2.68-3.48 4.58-4.58s4.06-1.67 6.25-1.67c2.19 0 4.35.58 6.25 1.67z" fill="#ffffff"/></g><g stroke="#8b75a1" stroke-miterlimit="10"><path d="M770.873 72.166l-13.302 8.057c-.231.138-.383.397-.394.667l-.351 10.114c-.013.4-.325.738-.715.775l-12.624 1.072c-.38.028-.708-.234-.755-.624l-1.344-11.076c-.028-.23-.156-.421-.336-.532l-12.845-7.537c-.189-.11-.418-.123-.62-.044l-9.284 3.705c-.34.138-.72.005-.887-.316l-5.2-10.043c-.167-.322-.074-.74.227-.979l7.761-6.264c.181-.149.292-.369.304-.608l.547-15.632c.012-.23-.086-.441-.255-.581l-7.802-6.553c-.278-.231-.336-.642-.143-.971l5.979-10.195c.192-.339.593-.476.931-.344l9.382 3.804c.209.081.449.063.65-.056l13.403-8.116c.181-.109.312-.288.363-.488l2.752-10.418c.093-.35.404-.598.754-.605l10.068.009c.35.002.637.254.686.605l1.44 10.038c.029.22.157.411.337.512l12.874 7.547c.18.102.39.123.59.054l9.862-3.431c.341-.117.709.025.867.346l4.691 9.721c.157.32.055.73-.227.958l-7.782 6.275c-.181.148-.292.368-.304.607l-.537 15.602c-.012.24.097.471.285.612l7.916 5.933c.299.222.366.652.173.991l-6.343 10.813c-.192.338-.593.485-.932.344l-9.181-3.823c-.238-.072-.478-.044-.679.075z" fill="#dcd5f2"/><path d="M756.363 35.868c1.284.742 2.546 1.516 3.783 2.318.643.461 1.207 1.025 1.668 1.668.802 1.237 1.576 2.499 2.318 3.783.511.884.855 1.843 1.026 2.835.172 1.677.259 3.376.259 5.08 0 1.688-.448 3.346-1.285 4.811-.742 1.284-1.516 2.546-2.318 3.783-.461.643-1.025 1.207-1.668 1.668-1.237.802-2.499 1.576-3.783 2.318-.88.507-1.843.855-2.835 1.026-1.677.172-3.376.259-5.08.259-1.688 0-3.346-.448-4.811-1.285-1.284-.742-2.546-1.516-3.783-2.318-.643-.461-1.207-1.025-1.668-1.668-.802-1.237-1.576-2.499-2.318-3.783-.507-.88-.855-1.843-1.026-2.835-.172-1.677-.259-3.376-.259-5.08 0-1.688.448-3.346 1.285-4.811.742-1.284 1.516-2.546 2.318-3.783.461-.643 1.025-1.207 1.668-1.668 1.237-.802 2.499-1.576 3.783-2.318.884-.511 1.843-.855 2.835-1.026 1.677-.172 3.376-.259 5.08-.259 1.688 0 3.35.448 4.811 1.285z" fill="#dcd1d8"/><path d="M756.25 39.17c1.9 1.1 3.48 2.68 4.58 4.58s1.67 4.06 1.67 6.25c0 2.19-.58 4.35-1.67 6.25-1.1 1.9-2.68 3.48-4.58 4.58s-4.06 1.67-6.25 1.67c-2.19 0-4.35-.58-6.25-1.67-1.9-1.1-3.48-2.68-4.58-4.58s-1.67-4.06-1.67-6.25c0-2.19.58-4.35 1.67-6.25 1.1-1.9 2.68-3.48 4.58-4.58s4.06-1.67 6.25-1.67c2.19 0 4.35.58 6.25 1.67z" fill="#ffffff"/></g><g stroke="#8b75a1" stroke-miterlimit="10"><path d="M845.579 79.767l-14.5-5.6c-.254-.101-.544-.057-.765.098l-8.212 5.899c-.331.234-.791.192-1.055-.099l-8.55-9.327c-.259-.281-.242-.701.033-.974l7.935-7.826c.161-.159.236-.379.212-.595l-1.89-14.762c-.029-.215-.153-.405-.348-.516l-8.601-5.077c-.319-.186-.443-.572-.287-.896l4.763-10.248c.157-.329.542-.513.912-.427l9.692 2.316c.23.051.474.008.665-.127l12.694-9.118c.186-.134.296-.339.307-.559l.413-10.173c.017-.36.303-.654.683-.708l11.71-1.491c.386-.048.745.173.839.524l2.723 9.745c.059.216.224.391.443.477l14.609 5.644c.195.076.415.072.61-.013l9.931-4.183c.336-.144.726-.047.939.229l6.146 7.963c.214.281.187.661-.064.915l-7.062 7.269c-.155.159-.226.369-.197.579l1.89 14.792c.029.2.144.385.318.496l8.739 5.703c.305.196.413.576.247.901l-4.826 9.652c-.157.319-.542.493-.902.406l-9.711-2.321c-.23-.051-.475-.007-.666.127l-12.674 9.103c-.195.139-.316.364-.307.594l.138 9.885c.003.37-.293.69-.683.738l-12.426 1.588c-.385.049-.744-.178-.843-.528l-2.584-9.595c-.054-.219-.214-.394-.438-.48z" fill="#dcd5f2"/><path d="M856.379 35.397c1.377.794 2.734 1.619 4.068 2.47.656.459 1.227 1.03 1.686 1.686.851 1.334 1.676 2.691 2.47 4.068.506.875.84 1.825.996 2.809.155 1.766.234 3.553.234 5.343 0 1.617-.429 3.204-1.23 4.606-.794 1.377-1.619 2.734-2.47 4.068-.459.656-1.03 1.227-1.686 1.686-1.334.851-2.691 1.676-4.068 2.47-.87.501-1.825.84-2.809.996-1.766.155-3.553.234-5.343.234-1.617 0-3.204-.429-4.606-1.23-1.377-.794-2.734-1.619-4.068-2.47-.656-.459-1.227-1.03-1.686-1.686-.851-1.334-1.676-2.691-2.47-4.068-.501-.87-.84-1.825-.996-2.809-.155-1.766-.234-3.553-.234-5.343 0-1.617.429-3.204 1.23-4.606.794-1.377 1.619-2.734 2.47-4.068.459-.656 1.03-1.227 1.686-1.686 1.334-.851 2.691-1.676 4.068-2.47.875-.506 1.825-.84 2.809-.996 1.766-.155 3.553-.234 5.343-.234 1.617 0 3.208.429 4.606 1.23z" fill="#dcd1d8"/><path d="M856.25 39.17c1.9 1.1 3.48 2.68 4.58 4.58s1.67 4.06 1.67 6.25c0 2.19-.58 4.35-1.67 6.25-1.1 1.9-2.68 3.48-4.58 4.58s-4.06 1.67-6.25 1.67c-2.19 0-4.35-.58-6.25-1.67-1.9-1.1-3.48-2.68-4.58-4.58s-1.67-4.06-1.67-6.25c0-2.19.58-4.35 1.67-6.25 1.1-1.9 2.68-3.48 4.58-4.58s4.06-1.67 6.25-1.67c2.19 0 4.35.58 6.25 1.67z" fill="#ffffff"/></g><g stroke="#8b75a1" stroke-miterlimit="10"><path d="M949.62 80.19l-15.14-3.61c-.26-.06-.55.01-.75.2l-7.35 6.95c-.29.28-.76.3-1.06.05l-9.74-8.1c-.29-.24-.33-.66-.1-.97l6.82-8.83c.14-.18.19-.41.13-.62l-3.86-14.39c-.06-.21-.21-.38-.42-.47l-9.22-3.88c-.34-.14-.51-.5-.41-.85l3.35-10.81c.11-.35.47-.58.85-.54l9.93.99c.24.02.47-.06.64-.22l11.36-10.75c.17-.16.25-.38.23-.59l-.96-10.14c-.03-.36.21-.69.58-.79l11.42-3.06c.37-.1.76.07.9.41l4.01 9.3c.09.21.27.36.5.41l15.25 3.63c.2.05.42.02.6-.09l9.29-5.48c.31-.18.71-.14.96.1l7.16 7.07c.25.25.27.63.06.92l-6.03 8.16c-.13.18-.18.4-.12.6l3.86 14.42c.05.2.19.36.38.45l9.44 4.48c.33.16.48.52.37.86l-3.49 10.22c-.12.34-.47.56-.84.52l-9.95-1c-.24-.02-.47.06-.64.22l-11.29 10.75c-.18.17-.26.4-.23.63l1.47 9.79c.05.37-.19.72-.58.83l-12.11 3.24c-.38.1-.76-.08-.91-.41l-3.86-9.17c-.08-.22-.27-.37-.5-.43z" fill="#dcd5f2"/><path d="M956.395 34.925c1.47.848 2.922 1.723 4.354 2.622.668.459 1.245 1.036 1.704 1.704.899 1.432 1.774 2.884 2.622 4.354.5.865.824 1.808.964 2.783.14 1.856.211 3.729.211 5.607 0 1.545-.41 3.06-1.175 4.4-.848 1.47-1.723 2.922-2.622 4.354-.459.668-1.036 1.245-1.704 1.704-1.432.899-2.884 1.774-4.354 2.622-.86.495-1.808.824-2.783.964-1.856.14-3.729.211-5.607.211-1.545 0-3.06-.41-4.4-1.175-1.47-.848-2.922-1.723-4.354-2.622-.668-.459-1.245-1.036-1.704-1.704-.899-1.432-1.774-2.884-2.622-4.354-.495-.86-.824-1.808-.964-2.783-.14-1.856-.211-3.729-.211-5.607 0-1.545.41-3.06 1.175-4.4.848-1.47 1.723-2.922 2.622-4.354.459-.668 1.036-1.245 1.704-1.704 1.432-.899 2.884-1.774 4.354-2.622.865-.5 1.808-.824 2.783-.964 1.856-.14 3.729-.211 5.607-.211 1.545 0 3.065.41 4.4 1.175z" fill="#dcd1d8"/><path d="M956.25 39.17c1.9 1.1 3.48 2.68 4.58 4.58s1.67 4.06 1.67 6.25c0 2.19-.58 4.35-1.67 6.25-1.1 1.9-2.68 3.48-4.58 4.58s-4.06 1.67-6.25 1.67c-2.19 0-4.35-.58-6.25-1.67-1.9-1.1-3.48-2.68-4.58-4.58s-1.67-4.06-1.67-6.25c0-2.19.58-4.35 1.67-6.25 1.1-1.9 2.68-3.48 4.58-4.58s4.06-1.67 6.25-1.67c2.19 0 4.35.58 6.25 1.67z" fill="#ffffff"/></g><g stroke="#8b75a1" stroke-miterlimit="10"><path d="M1054.672 79.921l-15.518-1.027c-.27-.022-.541.106-.703.324l-6.085 8.086c-.242.318-.693.415-1.031.223l-10.953-6.364c-.329-.192-.436-.602-.254-.942l5.247-9.841c.11-.199.113-.429.024-.63l-6.204-13.539c-.088-.2-.267-.342-.487-.394l-9.731-2.286c-.36-.083-.588-.414-.545-.773l1.497-11.208c.052-.36.365-.647.745-.674l9.952-.671c.24-.019.452-.137.592-.325l9.404-12.492c.141-.18.184-.41.125-.629l-2.632-9.836c-.087-.34.095-.719.437-.876l10.741-4.924c.351-.158.76-.055.959.247l5.51 8.495c.119.191.328.312.567.324l15.639 1.038c.21.012.42-.057.581-.195l8.246-6.951c.281-.238.681-.256.96-.063l8.238 5.775c.288.202.376.572.213.892l-4.581 9.046c-.101.199-.103.419-.014.619l6.214 13.569c.088.19.247.322.457.384l10.048 2.839c.349.102.566.433.504.783L1091.1 58.58c-.062.35-.374.627-.744.654l-9.971.68c-.24.019-.452.137-.593.326l-9.394 12.472c-.15.198-.193.438-.114.659l3.074 9.399c.117.351-.066.749-.426.907l-11.394 5.22c-.351.157-.77.054-.958-.257l-5.331-8.395c-.128-.191-.337-.313-.577-.324z" fill="#dcd5f2"/><path d="M1056.411 34.453c1.563.902 3.11 1.828 4.639 2.774.681.458 1.265 1.042 1.723 1.723.946 1.529 1.872 3.076 2.774 4.639.494.855.807 1.79.932 2.757.124 1.945.188 3.906.188 5.871 0 1.473-.391 2.916-1.12 4.194-.902 1.563-1.828 3.11-2.774 4.639-.458.681-1.042 1.265-1.723 1.723-1.529.946-3.076 1.872-4.639 2.774-.85.489-1.79.807-2.757.932-1.945.124-3.906.188-5.871.188-1.473 0-2.916-.391-4.194-1.12-1.563-.902-3.11-1.828-4.639-2.774-.681-.458-1.265-1.042-1.723-1.723-.946-1.529-1.872-3.076-2.774-4.639-.489-.85-.807-1.79-.932-2.757-.124-1.945-.188-3.906-.188-5.871 0-1.473.391-2.916 1.12-4.194.902-1.563 1.828-3.11 2.774-4.639.458-.681 1.042-1.265 1.723-1.723 1.529-.946 3.076-1.872 4.639-2.774.855-.494 1.79-.807 2.757-.932 1.945-.124 3.906-.188 5.871-.188 1.473 0 2.922.391 4.194 1.12z" fill="#dcd1d8"/><path d="M1056.25 39.17c1.9 1.1 3.48 2.68 4.58 4.58s1.67 4.06 1.67 6.25c0 2.19-.58 4.35-1.67 6.25-1.1 1.9-2.68 3.48-4.58 4.58s-4.06 1.67-6.25 1.67c-2.19 0-4.35-.58-6.25-1.67-1.9-1.1-3.48-2.68-4.58-4.58s-1.67-4.06-1.67-6.25c0-2.19.58-4.35 1.67-6.25 1.1-1.9 2.68-3.48 4.58-4.58s4.06-1.67 6.25-1.67c2.19 0 4.35.58 6.25 1.67z" fill="#ffffff"/></g><g stroke="#8b75a1" stroke-miterlimit="10"><path d="M1158.604 79.095l-15.509 1.052c-.27.019-.521.179-.652.413l-4.947 8.817c-.197.349-.632.507-.997.361l-11.692-4.839c-.354-.146-.518-.532-.382-.896l3.884-10.446c.081-.215.062-.445-.057-.625l-7.949-12.58c-.114-.186-.313-.301-.533-.322l-9.947-.962c-.37-.036-.644-.327-.637-.693l-.023-11.31c-.004-.36.272-.689.648-.767l9.768-1.999c.23-.049.43-.194.546-.398l7.646-13.626c.111-.205.131-.435.042-.635l-3.925-9.395c-.133-.325-.002-.72.324-.923l9.984-6.308c.33-.204.745-.158.984.119l6.587 7.679c.144.171.369.262.599.247l15.624-1.062c.21-.014.405-.108.551-.268l7.24-7.988c.241-.269.636-.347.945-.187l8.933 4.624c.309.161.448.521.332.856l-3.326 9.573c-.071.21-.052.43.063.61l7.963 12.61c.109.175.289.286.504.317l10.329 1.474c.36.051.614.347.608.707l-.296 10.783c-.006.36-.283.674-.648.748l-9.782 2.003c-.23.049-.431.194-.547.398l-7.635 13.607c-.121.214-.132.464-.033.67l4.302 8.896c.164.335.032.75-.303.959l-10.591 6.691c-.33.204-.75.152-.984-.124l-6.402-7.604c-.144-.18-.369-.271-.609-.257z" fill="#dcd5f2"/><path d="M1156.427 33.982c1.656.955 3.298 1.931 4.924 2.926.693.456 1.285 1.048 1.741 1.741.995 1.626 1.971 3.268 2.926 4.924.489.846.792 1.772.901 2.731.109 2.034.164 4.083.164 6.134 0 1.402-.372 2.774-1.065 3.989-.955 1.656-1.931 3.298-2.926 4.924-.456.693-1.048 1.285-1.741 1.741-1.626.995-3.268 1.971-4.924 2.926-.84.483-1.772.792-2.731.901-2.034.109-4.083.164-6.134.164-1.402 0-2.774-.372-3.989-1.065-1.656-.955-3.298-1.931-4.924-2.926-.693-.456-1.285-1.048-1.741-1.741-.995-1.626-1.971-3.268-2.926-4.924-.483-.84-.792-1.772-.901-2.731-.109-2.034-.164-4.083-.164-6.134 0-1.402.372-2.774 1.065-3.989.955-1.656 1.931-3.298 2.926-4.924.456-.693 1.048-1.285 1.741-1.741 1.626-.995 3.268-1.971 4.924-2.926.846-.489 1.772-.792 2.731-.901 2.034-.109 4.083-.164 6.134-.164 1.402 0 2.78.372 3.989 1.065z" fill="#dcd1d8"/><path d="M1156.25 39.17c1.9 1.1 3.48 2.68 4.58 4.58s1.67 4.06 1.67 6.25c0 2.19-.58 4.35-1.67 6.25-1.1 1.9-2.68 3.48-4.58 4.58s-4.06 1.67-6.25 1.67c-2.19 0-4.35-.58-6.25-1.67-1.9-1.1-3.48-2.68-4.58-4.58s-1.67-4.06-1.67-6.25c0-2.19.58-4.35 1.67-6.25 1.1-1.9 2.68-3.48 4.58-4.58s4.06-1.67 6.25-1.67c2.19 0 4.35.58 6.25 1.67z" fill="#ffffff"/></g><g stroke="#8b75a1" stroke-miterlimit="10"><path d="M1262.37 77.78l-15.24 3.13c-.27.05-.49.24-.59.5l-3.72 9.41c-.15.37-.56.59-.94.49l-12.25-3.23c-.37-.1-.58-.46-.5-.84l2.45-10.88c.05-.22 0-.45-.14-.61l-9.58-11.41c-.14-.17-.35-.26-.57-.25l-10 .38c-.37.01-.68-.24-.73-.6l-1.54-11.22c-.05-.36.18-.72.54-.85l9.42-3.29c.22-.08.4-.25.49-.47l5.76-14.54c.08-.21.07-.45-.04-.64l-5.15-8.79c-.18-.31-.1-.72.19-.96l9.06-7.6c.3-.25.72-.25.99-.01l7.57 6.73c.17.15.4.21.63.16l15.36-3.15c.2-.04.39-.16.51-.34l6.1-8.9c.21-.3.58-.43.91-.31l9.48 3.38c.33.12.51.45.44.8l-2.01 9.94c-.04.22.01.44.15.6l9.58 11.45c.13.16.33.25.54.25l10.45.07c.36 0 .66.26.7.62l1.16 10.74c.04.36-.19.7-.54.83l-9.43 3.3c-.22.08-.4.25-.49.47l-5.75 14.52c-.09.23-.07.47.06.67l5.46 8.25c.2.31.13.74-.17.99l-9.61 8.06c-.3.25-.72.25-1 .01l-7.38-6.69c-.17-.16-.4-.22-.63-.17z" fill="#dcd5f2"/><path d="M1256.443 33.51c1.749 1.009 3.486 2.036 5.209 3.078.706.456 1.304 1.054 1.76 1.76 1.042 1.723 2.069 3.46 3.078 5.209.483.836.776 1.755.869 2.705.094 2.124.141 4.26.141 6.398 0 1.33-.353 2.63-1.01 3.783-1.009 1.749-2.036 3.486-3.078 5.209-.456.706-1.054 1.304-1.76 1.76-1.723 1.042-3.46 2.069-5.209 3.078-.83.477-1.755.776-2.705.869-2.124.094-4.26.141-6.398.141-1.33 0-2.63-.353-3.783-1.01-1.749-1.009-3.486-2.036-5.209-3.078-.706-.456-1.304-1.054-1.76-1.76-1.042-1.723-2.069-3.46-3.078-5.209-.477-.83-.776-1.755-.869-2.705-.094-2.124-.141-4.26-.141-6.398 0-1.33.353-2.63 1.01-3.783 1.009-1.749 2.036-3.486 3.078-5.209.456-.706 1.054-1.304 1.76-1.76 1.723-1.042 3.46-2.069 5.209-3.078.836-.483 1.755-.776 2.705-.869 2.124-.094 4.26-.141 6.398-.141 1.33 0 2.637.353 3.783 1.01z" fill="#dcd1d8"/><path d="M1256.25 39.17c1.9 1.1 3.48 2.68 4.58 4.58s1.67 4.06 1.67 6.25c0 2.19-.58 4.35-1.67 6.25-1.1 1.9-2.68 3.48-4.58 4.58s-4.06 1.67-6.25 1.67c-2.19 0-4.35-.58-6.25-1.67-1.9-1.1-3.48-2.68-4.58-4.58s-1.67-4.06-1.67-6.25c0-2.19.58-4.35 1.67-6.25 1.1-1.9 2.68-3.48 4.58-4.58s4.06-1.67 6.25-1.67c2.19 0 4.35.58 6.25 1.67z" fill="#ffffff"/></g><g stroke="#8b75a1" stroke-miterlimit="10"><path d="M1366.753 75.397l-14.505 5.628c-.25.098-.442.327-.503.587l-2.099 9.893c-.083.39-.454.677-.844.634l-12.608-1.137c-.38-.032-.648-.354-.635-.744l.597-11.133c.011-.23-.077-.44-.246-.581l-11.332-9.647c-.168-.141-.388-.192-.608-.145l-9.792 2.042c-.36.078-.709-.125-.816-.465l-3.384-10.809c-.108-.351.055-.74.386-.927l8.731-4.818c.211-.119.352-.318.404-.547l3.245-15.294c.052-.229-.007-.45-.146-.621l-6.544-7.804c-.229-.271-.216-.69.027-.979l7.66-9.004c.252-.298.662-.376.972-.174l8.58 5.378c.189.121.429.142.649.055l14.615-5.668c.191-.079.352-.228.443-.417l4.537-9.786c.152-.329.504-.517.843-.464l9.915 1.758c.34.062.587.364.574.723l-.329 10.135c-.011.22.086.43.246.562l11.36 9.666c.158.131.368.192.569.154l10.309-1.669c.36-.058.689.155.787.496l2.928 10.387c.097.341-.066.729-.397.907l-8.751 4.828c-.21.118-.352.318-.404.547l-3.244 15.274c-.052.239.016.48.175.651l6.759 7.224c.257.272.254.702-.008 1.009l-8.124 9.552c-.252.298-.672.375-.98.173l-8.382-5.357c-.16-.14-.409-.161-.63-.073z" fill="#dcd5f2"/><path d="M1356.459 33.038c1.842 1.063 3.674 2.14 5.495 3.23.718.455 1.323 1.06 1.778 1.778 1.09 1.821 2.167 3.653 3.23 5.495.477.827.76 1.737.837 2.679.078 2.213.118 4.436.118 6.662 0 1.258-.335 2.486-.955 3.577-1.063 1.842-2.14 3.674-3.23 5.495-.455.718-1.06 1.323-1.778 1.778-1.821 1.09-3.653 2.167-5.495 3.23-.82.47-1.737.76-2.679.837-2.213.078-4.436.118-6.662.118-1.258 0-2.486-.335-3.577-.955-1.842-1.063-3.674-2.14-5.495-3.23-.718-.455-1.323-1.06-1.778-1.778-1.09-1.821-2.167-3.653-3.23-5.495-.47-.82-.76-1.737-.837-2.679-.078-2.213-.118-4.436-.118-6.662 0-1.258.335-2.486.955-3.577 1.063-1.842 2.14-3.674 3.23-5.495.455-.718 1.06-1.323 1.778-1.778 1.821-1.09 3.653-2.167 5.495-3.23.827-.477 1.737-.76 2.679-.837 2.213-.078 4.436-.118 6.662-.118 1.258 0 2.494.335 3.577.955z" fill="#dcd1d8"/><path d="M1356.25 39.17c1.9 1.1 3.48 2.68 4.58 4.58s1.67 4.06 1.67 6.25c0 2.19-.58 4.35-1.67 6.25-1.1 1.9-2.68 3.48-4.58 4.58s-4.06 1.67-6.25 1.67c-2.19 0-4.35-.58-6.25-1.67-1.9-1.1-3.48-2.68-4.58-4.58s-1.67-4.06-1.67-6.25c0-2.19.58-4.35 1.67-6.25 1.1-1.9 2.68-3.48 4.58-4.58s4.06-1.67 6.25-1.67c2.19 0 4.35.58 6.25 1.67z" fill="#ffffff"/></g><g stroke="#8b75a1" stroke-miterlimit="10"><path d="M1469.955 72.964l-13.608 7.509c-.235.129-.396.378-.417.648l-.763 10.082c-.032.4-.358.724-.748.748l-12.647.557c-.38.014-.694-.262-.728-.652l-.893-11.108c-.019-.23-.138-.426-.318-.546l-12.521-8.042c-.184-.115-.409-.142-.62-.067l-9.422 3.325c-.346.123-.72-.028-.874-.354l-4.787-10.238c-.154-.33-.042-.74.263-.969l8.003-5.94c.191-.139.306-.359.327-.594l1.178-15.585c.021-.23-.068-.446-.228-.591l-7.524-6.858c-.264-.241-.307-.657-.101-.976l6.382-9.936c.206-.329.612-.453.941-.306l9.215 4.174c.204.091.444.081.65-.033l13.713-7.564c.186-.099.321-.274.382-.474l3.174-10.293c.106-.345.427-.584.777-.572l10.054.412c.35.016.623.277.663.632l1.032 10.085c.019.22.138.415.318.526l12.55 8.057c.175.111.385.136.59.077l9.987-3.028c.345-.103.704.053.848.384l4.288 9.896c.144.325.027.73-.269.949l-8.022 5.95c-.191.139-.306.359-.327.594l-1.168 15.556c-.021.24.078.475.257.62l7.662 6.244c.289.236.342.666.131.996l-6.77 10.539c-.206.329-.611.458-.946.307l-9.014-4.189c-.224-.081-.464-.067-.67.048z" fill="#dcd5f2"/><path d="M1456.476 32.567c1.934 1.116 3.861 2.243 5.779 3.382.73.454 1.342 1.066 1.796 1.796 1.139 1.918 2.266 3.845 3.382 5.779.473.818.744 1.72.806 2.654.063 2.303.094 4.613.094 6.925 0 1.187-.315 2.344-.9 3.373-1.116 1.934-2.243 3.861-3.382 5.779-.454.73-1.066 1.342-1.796 1.796-1.918 1.139-3.845 2.266-5.779 3.382-.81.465-1.72.744-2.654.806-2.303.063-4.613.094-6.925.094-1.187 0-2.344-.315-3.373-.9-1.934-1.116-3.861-2.243-5.779-3.382-.73-.454-1.342-1.066-1.796-1.796-1.139-1.918-2.266-3.845-3.382-5.779-.465-.81-.744-1.72-.806-2.654-.063-2.303-.094-4.613-.094-6.925 0-1.187.315-2.344.9-3.373 1.116-1.934 2.243-3.861 3.382-5.779.454-.73 1.066-1.342 1.796-1.796 1.918-1.139 3.845-2.266 5.779-3.382.818-.473 1.72-.744 2.654-.806 2.303-.063 4.613-.094 6.925-.094 1.187 0 2.351.315 3.373.9z" fill="#dcd1d8"/><path d="M1456.25 39.17c1.9 1.1 3.48 2.68 4.58 4.58s1.67 4.06 1.67 6.25c0 2.19-.58 4.35-1.67 6.25-1.1 1.9-2.68 3.48-4.58 4.58s-4.06 1.67-6.25 1.67c-2.19 0-4.35-.58-6.25-1.67-1.9-1.1-3.48-2.68-4.58-4.58s-1.67-4.06-1.67-6.25c0-2.19.58-4.35 1.67-6.25 1.1-1.9 2.68-3.48 4.58-4.58s4.06-1.67 6.25-1.67c2.19 0 4.35.58 6.25 1.67z" fill="#ffffff"/></g><g stroke="#8b75a1" stroke-miterlimit="10"><path d="M1544.39 79.57l-14.28-6.18c-.25-.11-.54-.08-.77.07l-8.45 5.57c-.34.22-.8.16-1.05-.14l-8.18-9.67c-.25-.29-.21-.71.07-.97l8.25-7.51c.17-.15.25-.37.24-.59l-1.3-14.84c-.02-.22-.14-.41-.33-.53l-8.4-5.42c-.31-.2-.42-.59-.25-.91l5.17-10.06c.17-.32.56-.49.93-.39l9.6 2.7c.23.06.47.03.67-.1l13.06-8.61c.19-.13.31-.33.33-.55l.82-10.16c.03-.36.33-.64.71-.68L1553 9.58c.39-.03.74.2.82.56l2.33 9.86c.05.22.21.4.42.49l14.39 6.23c.19.08.41.09.61.01l10.1-3.79c.34-.13.73-.02.93.27l5.83 8.21c.2.29.16.67-.1.91l-7.35 6.99c-.16.15-.24.36-.22.57l1.3 14.87c.02.2.13.39.3.51l8.51 6.05c.3.21.39.59.21.91l-5.21 9.46c-.17.31-.56.47-.92.37l-9.62-2.71c-.23-.06-.47-.03-.67.1l-13.04 8.6c-.2.13-.33.35-.33.58l-.26 9.89c-.01.37-.32.68-.71.71l-12.49 1.09c-.39.03-.74-.21-.82-.56l-2.2-9.7c-.05-.21-.2-.39-.42-.49z" fill="#dcd5f2"/><path d="M1556.492 32.095c2.027 1.169 4.049 2.348 6.064 3.534.743.453 1.362 1.072 1.815 1.815 1.186 2.015 2.365 4.037 3.534 6.064.467.809.728 1.703.775 2.628.046 2.392.07 4.79.07 7.189 0 1.115-.297 2.2-.845 3.167-1.169 2.027-2.348 4.049-3.534 6.064-.453.743-1.072 1.362-1.815 1.815-2.015 1.186-4.037 2.365-6.064 3.534-.8.458-1.703.728-2.628.775-2.392.046-4.79.07-7.189.07-1.115 0-2.2-.297-3.167-.845-2.027-1.169-4.049-2.348-6.064-3.534-.743-.453-1.362-1.072-1.815-1.815-1.186-2.015-2.365-4.037-3.534-6.064-.458-.8-.728-1.703-.775-2.628-.046-2.392-.07-4.79-.07-7.189 0-1.115.297-2.2.845-3.167 1.169-2.027 2.348-4.049 3.534-6.064.453-.743 1.072-1.362 1.815-1.815 2.015-1.186 4.037-2.365 6.064-3.534.809-.467 1.703-.728 2.628-.775 2.392-.046 4.79-.07 7.189-.07 1.115 0 2.208.297 3.167.845z" fill="#dcd1d8"/><path d="M1556.25 39.17c1.9 1.1 3.48 2.68 4.58 4.58s1.67 4.06 1.67 6.25c0 2.19-.58 4.35-1.67 6.25-1.1 1.9-2.68 3.48-4.58 4.58s-4.06 1.67-6.25 1.67c-2.19 0-4.35-.58-6.25-1.67-1.9-1.1-3.48-2.68-4.58-4.58s-1.67-4.06-1.67-6.25c0-2.19.58-4.35 1.67-6.25 1.1-1.9 2.68-3.48 4.58-4.58s4.06-1.67 6.25-1.67c2.19 0 4.35.58 6.25 1.67z" fill="#ffffff"/></g><g stroke="#8b75a1" stroke-miterlimit="10"><path d="M1649.412 80.175l-15.11-3.713c-.26-.062-.55.007-.751.194l-7.396 6.898c-.292.278-.762.295-1.06.042l-9.681-8.165c-.288-.242-.326-.662-.092-.971l6.878-8.78c.141-.179.193-.408.134-.618l-3.759-14.412c-.059-.21-.207-.382-.416-.473l-9.19-3.942c-.339-.143-.507-.504-.404-.853l3.424-10.783c.112-.349.474-.576.853-.534l9.92 1.059c.239.021.47-.057.641-.215l11.432-10.669c.17-.158.252-.377.234-.588l-.89-10.144c-.028-.36.215-.689.586-.786l11.437-2.98c.371-.098.759.075.897.415l3.945 9.325c.088.21.268.361.498.414l15.219 3.734c.2.052.42.023.601-.086l9.325-5.414c.312-.178.711-.135.959.106l7.11 7.118c.248.252.266.632.053.92l-6.084 8.116c-.132.179-.183.398-.124.599l3.759 14.442c.049.2.188.362.377.452l9.406 4.545c.328.161.477.523.363.862l-3.559 10.193c-.122.339-.474.557-.843.514l-9.94-1.068c-.239-.021-.471.057-.642.216l-11.365 10.666c-.181.169-.263.399-.234.629l1.402 9.797c.048.37-.196.718-.586.825l-12.129 3.156c-.38.098-.759-.085-.906-.416l-3.796-9.194c-.078-.221-.266-.372-.496-.433z" fill="#dcd5f2"/><path d="M1656.508 31.623c2.121 1.223 4.237 2.452 6.349 3.686.756.452 1.382 1.078 1.834 1.834 1.234 2.112 2.463 4.228 3.686 6.349.461.799.712 1.685.743 2.602.031 2.481.047 4.967.047 7.453 0 1.043-.278 2.056-.79 2.961-1.223 2.121-2.452 4.237-3.686 6.349-.452.756-1.078 1.382-1.834 1.834-2.112 1.234-4.228 2.463-6.349 3.686-.79.452-1.685.712-2.602.743-2.481.031-4.967.047-7.453.047-1.043 0-2.056-.278-2.961-.79-2.121-1.223-4.237-2.452-6.349-3.686-.756-.452-1.382-1.078-1.834-1.834-1.234-2.112-2.463-4.228-3.686-6.349-.452-.79-.712-1.685-.743-2.602-.031-2.481-.047-4.967-.047-7.453 0-1.043.278-2.056.79-2.961 1.223-2.121 2.452-4.237 3.686-6.349.452-.756 1.078-1.382 1.834-1.834 2.112-1.234 4.228-2.463 6.349-3.686.799-.461 1.685-.712 2.602-.743 2.481-.031 4.967-.047 7.453-.047 1.043 0 2.065.278 2.961.79z" fill="#dcd1d8"/><path d="M1656.25 39.17c1.9 1.1 3.48 2.68 4.58 4.58s1.67 4.06 1.67 6.25c0 2.19-.58 4.35-1.67 6.25-1.1 1.9-2.68 3.48-4.58 4.58s-4.06 1.67-6.25 1.67c-2.19 0-4.35-.58-6.25-1.67-1.9-1.1-3.48-2.68-4.58-4.58s-1.67-4.06-1.67-6.25c0-2.19.58-4.35 1.67-6.25 1.1-1.9 2.68-3.48 4.58-4.58s4.06-1.67 6.25-1.67c2.19 0 4.35.58 6.25 1.67z" fill="#ffffff"/></g><g stroke="#8b75a1" stroke-miterlimit="10"><path d="M1753.458 80.041l-15.454-1.653c-.27-.03-.545.083-.716.292l-6.405 7.826c-.256.31-.712.388-1.041.182l-10.679-6.795c-.32-.206-.413-.616-.217-.951l5.636-9.614c.115-.195.132-.425.052-.63l-5.643-13.771c-.079-.2-.254-.351-.468-.412l-9.625-2.676c-.355-.096-.574-.437-.512-.792l1.946-11.133c.066-.36.393-.634.773-.642l9.966-.268c.24-.009.461-.118.606-.297l9.896-12.093c.145-.175.201-.405.152-.62l-2.233-9.928c-.074-.346.123-.715.473-.858l10.927-4.479c.356-.144.76-.022.95.289l5.157 8.704c.115.195.319.321.554.347l15.574 1.668c.21.021.42-.038.585-.167l8.515-6.609c.291-.223.691-.227.96-.021l7.992 6.1c.28.211.353.586.177.901l-4.938 8.846c-.111.195-.122.415-.042.615l5.653 13.801c.079.19.234.331.438.402l9.918 3.242c.345.117.548.452.472.802l-2.165 10.567c-.076.35-.397.614-.767.622l-9.981.272c-.24.009-.46.119-.606.298l-9.885 12.073c-.156.189-.212.429-.143.655l2.69 9.51c.103.355-.098.744-.464.888l-11.588 4.752c-.36.144-.77.022-.949-.294l-4.983-8.598c-.119-.201-.323-.332-.558-.353z" fill="#dcd5f2"/><path d="M1756.524 31.152c2.214 1.276 4.425 2.556 6.635 3.838.767.451 1.4 1.084 1.851 1.851 1.282 2.21 2.562 4.421 3.838 6.635.456.79.696 1.668.712 2.576.015 2.571.023 5.143.023 7.716 0 .972-.259 1.914-.735 2.756-1.276 2.214-2.556 4.425-3.838 6.635-.451.767-1.084 1.4-1.851 1.851-2.21 1.282-4.421 2.562-6.635 3.838-.78.446-1.668.696-2.576.712-2.571.015-5.143.023-7.716.023-.972 0-1.914-.259-2.756-.735-2.214-1.276-4.425-2.556-6.635-3.838-.767-.451-1.4-1.084-1.851-1.851-1.282-2.21-2.562-4.421-3.838-6.635-.446-.78-.696-1.668-.712-2.576-.015-2.571-.023-5.143-.023-7.716 0-.972.259-1.914.735-2.756 1.276-2.214 2.556-4.425 3.838-6.635.451-.767 1.084-1.4 1.851-1.851 2.21-1.282 4.421-2.562 6.635-3.838.79-.456 1.668-.696 2.576-.712 2.571-.015 5.143-.023 7.716-.023.972 0 1.923.259 2.756.735z" fill="#dcd1d8"/><path d="M1756.25 39.17c1.9 1.1 3.48 2.68 4.58 4.58s1.67 4.06 1.67 6.25c0 2.19-.58 4.35-1.67 6.25-1.1 1.9-2.68 3.48-4.58 4.58s-4.06 1.67-6.25 1.67c-2.19 0-4.35-.58-6.25-1.67-1.9-1.1-3.48-2.68-4.58-4.58s-1.67-4.06-1.67-6.25c0-2.19.58-4.35 1.67-6.25 1.1-1.9 2.68-3.48 4.58-4.58s4.06-1.67 6.25-1.67c2.19 0 4.35.58 6.25 1.67z" fill="#ffffff"/></g><g stroke="#8b75a1" stroke-miterlimit="10"><path d="M1857.47 79.42l-15.55.43c-.27.01-.53.16-.67.39l-5.3 8.62c-.21.34-.65.48-1.01.32l-11.5-5.31c-.35-.16-.5-.55-.35-.91l4.3-10.29c.09-.21.08-.44-.03-.63l-7.45-12.9c-.11-.19-.3-.31-.52-.34l-9.91-1.36c-.37-.05-.63-.35-.61-.72l.43-11.31c.01-.36.3-.68.68-.74l9.85-1.61c.23-.04.44-.18.56-.38l8.19-13.32c.12-.2.15-.43.07-.63l-3.55-9.55c-.12-.33.03-.72.36-.91l10.24-5.91c.34-.19.75-.13.98.16l6.28 7.94c.14.18.36.28.59.27l15.67-.44c.21-.01.41-.09.56-.25l7.56-7.7c.25-.26.65-.32.95-.15l8.75 4.98c.3.17.43.54.3.87l-3.71 9.44c-.08.21-.07.43.04.61l7.46 12.93c.1.18.28.3.49.34l10.27 1.89c.36.07.6.37.58.73l-.73 10.77c-.02.36-.31.66-.68.72l-9.86 1.61c-.23.04-.44.18-.56.38l-8.18 13.3c-.13.21-.15.46-.06.67l3.95 9.07c.15.34 0 .75-.34.95l-10.86 6.27c-.34.19-.76.12-.98-.16l-6.1-7.86c-.14-.19-.36-.29-.6-.28z" fill="#dcd5f2"/><path d="M1856.54 30.68c2.307 1.33 4.613 2.66 6.92 3.99.78.45 1.42 1.09 1.87 1.87 1.33 2.307 2.66 4.613 3.99 6.92.45.78.68 1.65.68 2.55v7.98c0 .9-.24 1.77-.68 2.55-1.33 2.307-2.66 4.613-3.99 6.92-.45.78-1.09 1.42-1.87 1.87-2.307 1.33-4.613 2.66-6.92 3.99-.77.44-1.65.68-2.55.68h-7.98c-.9 0-1.77-.24-2.55-.68-2.307-1.33-4.613-2.66-6.92-3.99-.78-.45-1.42-1.09-1.87-1.87-1.33-2.307-2.66-4.613-3.99-6.92-.44-.77-.68-1.65-.68-2.55v-7.98c0-.9.24-1.77.68-2.55 1.33-2.307 2.66-4.613 3.99-6.92.45-.78 1.09-1.42 1.87-1.87 2.307-1.33 4.613-2.66 6.92-3.99.78-.45 1.65-.68 2.55-.68h7.98c.9 0 1.78.24 2.55.68z" fill="#dcd1d8"/><path d="M1856.25 39.17c1.9 1.1 3.48 2.68 4.58 4.58s1.67 4.06 1.67 6.25c0 2.19-.58 4.35-1.67 6.25-1.1 1.9-2.68 3.48-4.58 4.58s-4.06 1.67-6.25 1.67c-2.19 0-4.35-.58-6.25-1.67-1.9-1.1-3.48-2.68-4.58-4.58s-1.67-4.06-1.67-6.25c0-2.19.58-4.35 1.67-6.25 1.1-1.9 2.68-3.48 4.58-4.58s4.06-1.67 6.25-1.67c2.19 0 4.35.58 6.25 1.67z" fill="#ffffff"/></g></svg>